<svg width="64" height="80" viewBox="0 0 64 80" fill="none" xmlns="http://www.w3.org/2000/svg">
<path d="M0.75 15.4629V60.7499C0.75 62.1327 1.86719 63.2499 3.25 63.2499H59.7271C26.2912 52.8379 8.70652 32.3272 0.75 15.4629Z" fill="#2F4971"/>
<path d="M61 0.75H3.5C2.11719 0.75 1 1.86719 1 3.25V60.75C1 62.1328 2.11719 63.25 3.5 63.25H61C62.3828 63.25 63.5 62.1328 63.5 60.75V3.25C63.5 1.86719 62.3828 0.75 61 0.75ZM32.3359 32.4766L17.3359 45.0547C16.9297 45.3984 16.3125 45.1094 16.3125 44.5781V39.6797C16.3125 39.5 16.3984 39.3203 16.5391 39.2031L25.1172 32L16.5391 24.7969C16.4673 24.7402 16.4095 24.6677 16.3702 24.585C16.3309 24.5024 16.3112 24.4118 16.3125 24.3203V19.4219C16.3125 18.8906 16.9297 18.6016 17.3359 18.9453L32.3359 31.5156C32.6406 31.7656 32.6406 32.2266 32.3359 32.4766ZM48.1875 44.5781C48.1875 44.9219 47.9219 45.2031 47.6016 45.2031H33.1484C32.8281 45.2031 32.5625 44.9219 32.5625 44.5781V40.8281C32.5625 40.4844 32.8281 40.2031 33.1484 40.2031H47.6016C47.9219 40.2031 48.1875 40.4844 48.1875 40.8281V44.5781Z" fill="#19335B"/>
<g opacity="0.05" filter="url(#filter0_f_1505_173)">
<ellipse cx="32" cy="72.5" rx="18" ry="3.5" fill="black"/>
</g>
<path d="M0.75 15.4629V60.7499C0.75 62.1327 1.86719 63.2499 3.25 63.2499H59.7271C26.2912 52.8379 8.70652 32.3272 0.75 15.4629Z" fill="#2F4971"/>
<path d="M32.086 32.4762L17.086 45.0543C16.6798 45.3981 16.0626 45.109 16.0626 44.5778V39.6793C16.0626 39.4996 16.1485 39.32 16.2891 39.2028L24.8673 31.9996L16.2891 24.7965C16.2173 24.7398 16.1595 24.6673 16.1202 24.5847C16.081 24.502 16.0612 24.4115 16.0626 24.32V19.4215C16.0626 18.8903 16.6798 18.6012 17.086 18.945L32.086 31.5153C32.3907 31.7653 32.3907 32.2262 32.086 32.4762ZM47.9376 44.5778C47.9376 44.9215 47.6719 45.2028 47.3516 45.2028H32.8985C32.5782 45.2028 32.3126 44.9215 32.3126 44.5778V40.8278C32.3126 40.484 32.5782 40.2028 32.8985 40.2028H47.3516C47.6719 40.2028 47.9376 40.484 47.9376 40.8278V44.5778Z" fill="#5CB1FF"/>
<defs>
<filter id="filter0_f_1505_173" x="10" y="65" width="44" height="15" filterUnits="userSpaceOnUse" color-interpolation-filters="sRGB">
<feFlood flood-opacity="0" result="BackgroundImageFix"/>
<feBlend mode="normal" in="SourceGraphic" in2="BackgroundImageFix" result="shape"/>
<feGaussianBlur stdDeviation="2" result="effect1_foregroundBlur_1505_173"/>
</filter>
</defs>
</svg>
