<svg width="16" height="16" viewBox="0 0 16 16" fill="none" xmlns="http://www.w3.org/2000/svg">
<path d="M13.75 1.75H2.25C1.97344 1.75 1.75 1.97344 1.75 2.25V13.75C1.75 14.0266 1.97344 14.25 2.25 14.25H13.75C14.0266 14.25 14.25 14.0266 14.25 13.75V2.25C14.25 1.97344 14.0266 1.75 13.75 1.75ZM8.01719 8.09531L5.01719 10.6109C4.93594 10.6797 4.8125 10.6219 4.8125 10.5156V9.53594C4.8125 9.5 4.82969 9.46406 4.85781 9.44063L6.57344 8L4.85781 6.55937C4.84345 6.54803 4.83189 6.53353 4.82404 6.51701C4.81618 6.50048 4.81223 6.48236 4.8125 6.46406V5.48438C4.8125 5.37812 4.93594 5.32031 5.01719 5.38906L8.01719 7.90312C8.07812 7.95312 8.07812 8.04531 8.01719 8.09531ZM11.1875 10.5156C11.1875 10.5844 11.1344 10.6406 11.0703 10.6406H8.17969C8.11562 10.6406 8.0625 10.5844 8.0625 10.5156V9.76562C8.0625 9.69688 8.11562 9.64062 8.17969 9.64062H11.0703C11.1344 9.64062 11.1875 9.69688 11.1875 9.76562V10.5156Z" fill="#F4F6F8"/>
</svg>
