<?xml version="1.0" encoding="utf-8"?>
<!-- Generator: Adobe Illustrator 22.0.1, SVG Export Plug-In . SVG Version: 6.00 Build 0)  -->
<svg version="1.1" id="Isolation_Mode" xmlns="http://www.w3.org/2000/svg" xmlns:xlink="http://www.w3.org/1999/xlink" x="0px"
	 y="0px" viewBox="0 0 265.5 326.5" style="enable-background:new 0 0 265.5 326.5;" xml:space="preserve">
<style type="text/css">
	.st0{clip-path:url(#SVGID_2_);fill:#8FEAFF;}
	.st1{clip-path:url(#SVGID_4_);fill:#00B9EB;}
	.st2{fill:#FFFFFF;}
</style>
<g>
	<g>
		<g>
			<defs>
				<rect id="SVGID_1_" x="-267.5" y="-135.8" width="800" height="600"/>
			</defs>
			<clipPath id="SVGID_2_">
				<use xlink:href="#SVGID_1_"  style="overflow:visible;"/>
			</clipPath>
			<path class="st0" d="M263.8,79.7v51c0,39.3-4,80.4-22.4,115.8c-19.7,37.8-55.4,61.5-95,75.3c-5.1,1.8-9.3,2.4-13.2,2
				c-5.7-0.4-11-2.7-18.2-5.8c-10.4-4.4-20.5-9.3-30.2-15c-40.5-23.7-66.9-58-76.7-104c-5.2-24.4-6.4-49.5-6.4-74.3
				c0-12.5,0.3-25.1,0.6-37.6c0-3.6-1.1-33.5,0.5-34.1L130.1,4.1c1.1-0.4,2.2-0.6,3.3-0.6s2.3,0.2,3.3,0.6L263.8,53
				C265.3,53.6,263.8,77.7,263.8,79.7"/>
		</g>
		<g>
			<defs>
				<rect id="SVGID_3_" x="-267.5" y="-135.8" width="800" height="600"/>
			</defs>
			<clipPath id="SVGID_4_">
				<use xlink:href="#SVGID_3_"  style="overflow:visible;"/>
			</clipPath>
			<path class="st1" d="M16.5,65.5C15.1,66,16.1,92.6,16,95.7c-0.3,11.1-0.5,22.2-0.5,33.4c0,22.1,1.1,44.3,5.7,65.9
				c8.7,40.9,32.1,71.2,68,92.3c8.6,5,17.6,9.4,26.7,13.3c10.8,4.5,16.7,7.2,27.9,3.3c35.1-12.3,66.8-33.2,84.3-66.8
				c16.4-31.4,20-67.8,20-102.7V89.2c0-1.7,1.3-23.1,0-23.6L135.3,22.2c-1.9-0.7-4-0.7-5.8,0L16.5,65.5z"/>
		</g>
	</g>
	<g>
		<g>
			<defs>
				<rect id="SVGID_5_" x="-267.5" y="-135.8" width="800" height="600"/>
			</defs>
			<clipPath id="SVGID_6_">
				<use xlink:href="#SVGID_5_"  style="overflow:visible;"/>
			</clipPath>
		</g>
	</g>
	<g>
		<polygon class="st2" points="66.5,185.8 133.8,55.8 133.8,147.8 195.8,147.8 132.5,264.5 131.2,185.5 		"/>
	</g>
</g>
</svg>
