<?xml version="1.0" encoding="UTF-8"?><svg id="Calque_1" xmlns="http://www.w3.org/2000/svg" xmlns:xlink="http://www.w3.org/1999/xlink" viewBox="0 0 256 256"><defs><style>.cls-1{fill:none;}.cls-2{clip-path:url(#clippath);}.cls-3{fill:#fff;}.cls-4{fill:#7fb100;}.cls-5{fill:#7f7f80;}.cls-6{clip-path:url(#clippath-1);}.cls-7{clip-path:url(#clippath-2);}</style><clipPath id="clippath"><circle class="cls-1" cx="-716.37" cy="127.37" r="253.48"/></clipPath><clipPath id="clippath-1"><circle class="cls-1" cx="-184.84" cy="127.84" r="63.37"/></clipPath><clipPath id="clippath-2"><circle class="cls-1" cx="128.31" cy="127.69" r="126.74"/></clipPath></defs><g class="cls-2"><g><path class="cls-5" d="M-1131.14,1043.12c-168.93,0-332.8-33.09-487.08-98.34-149.01-63.03-282.83-153.25-397.75-268.17-114.92-114.92-205.14-248.74-268.17-397.75-65.25-154.27-98.34-318.15-98.34-487.08s33.09-332.8,98.34-487.08c63.03-149.01,153.25-282.83,268.17-397.75,114.92-114.92,248.74-205.14,397.75-268.17,154.27-65.25,318.15-98.34,487.08-98.34s332.8,33.09,487.08,98.34c149.01,63.03,282.83,153.25,397.75,268.17,114.92,114.92,205.14,248.74,268.17,397.75,65.25,154.27,98.34,318.15,98.34,487.08S87.11,124.59,21.86,278.86c-63.03,149.01-153.25,282.83-268.17,397.75-114.92,114.92-248.74,205.14-397.75,268.17-154.27,65.25-318.15,98.34-487.08,98.34Zm0-2497.64c-168.25,0-331.47,32.95-485.12,97.94-148.41,62.77-281.69,152.63-396.15,267.09-114.46,114.46-204.32,247.74-267.09,396.15-64.99,153.65-97.94,316.87-97.94,485.12s32.95,331.47,97.94,485.12c62.77,148.41,152.63,281.69,267.09,396.15,114.46,114.46,247.74,204.32,396.15,267.09,153.65,64.99,316.87,97.94,485.12,97.94s331.47-32.95,485.12-97.94c148.41-62.77,281.69-152.64,396.15-267.09C-135.41,558.6-45.55,425.31,17.22,276.9,82.21,123.25,115.16-39.96,115.16-208.21s-32.95-331.47-97.94-485.12c-62.77-148.41-152.63-281.69-267.09-396.15-114.46-114.46-247.74-204.32-396.15-267.09-153.65-64.99-316.87-97.94-485.12-97.94Z"/><path class="cls-5" d="M-1131.14,1450.16c-223.88,0-441.06-43.85-645.51-130.32-98.27-41.56-193.04-93.01-281.7-152.9-87.81-59.33-170.39-127.46-245.43-202.5-75.04-75.04-143.18-157.62-202.5-245.43-59.89-88.66-111.34-183.43-152.9-281.7-86.48-204.45-130.32-421.64-130.32-645.51s43.85-441.06,130.32-645.51c41.56-98.27,93.01-193.04,152.9-281.7,59.33-87.81,127.46-170.39,202.5-245.43,75.04-75.04,157.62-143.18,245.43-202.5,88.66-59.89,183.43-111.34,281.7-152.9,204.45-86.48,421.64-130.32,645.51-130.32s441.06,43.85,645.51,130.32c98.27,41.56,193.04,93.01,281.7,152.9,87.81,59.33,170.39,127.46,245.43,202.5,75.04,75.04,143.18,157.62,202.5,245.43,59.9,88.66,111.34,183.43,152.9,281.7,86.48,204.45,130.32,421.64,130.32,645.51s-43.85,441.06-130.32,645.51c-41.56,98.27-93.01,193.04-152.9,281.7-59.33,87.81-127.46,170.39-202.5,245.43s-157.62,143.18-245.43,202.5c-88.66,59.9-183.43,111.34-281.7,152.9-204.45,86.48-421.64,130.32-645.51,130.32Zm0-3311.72c-223.2,0-439.72,43.71-643.55,129.93-97.97,41.44-192.46,92.72-280.84,152.44-87.55,59.15-169.87,127.07-244.69,201.89s-142.74,157.14-201.89,244.69c-59.71,88.39-111,182.88-152.44,280.84-86.21,203.83-129.93,420.35-129.93,643.55s43.71,439.72,129.93,643.55c41.44,97.97,92.72,192.46,152.44,280.84,59.15,87.55,127.07,169.87,201.89,244.69,74.82,74.82,157.14,142.74,244.69,201.89,88.39,59.71,182.88,111,280.84,152.44,203.83,86.21,420.35,129.93,643.55,129.93s439.72-43.71,643.55-129.93c97.97-41.44,192.46-92.72,280.84-152.44,87.55-59.15,169.87-127.07,244.69-201.89,74.82-74.82,142.74-157.14,201.89-244.69,59.71-88.39,111-182.88,152.44-280.84C478.49,231.51,522.2,14.99,522.2-208.21s-43.71-439.72-129.93-643.55c-41.44-97.97-92.72-192.46-152.44-280.84-59.15-87.55-127.07-169.87-201.89-244.69s-157.14-142.74-244.69-201.89c-88.39-59.71-182.88-111-280.84-152.44-203.83-86.21-420.35-129.93-643.55-129.93Z"/><path class="cls-5" d="M-1131.14,1723.8c-260.82,0-513.84-51.08-752.03-151.83-114.48-48.42-224.9-108.35-328.18-178.13-102.3-69.11-198.5-148.49-285.93-235.91-87.43-87.43-166.8-183.63-235.91-285.93-69.78-103.29-129.71-213.7-178.13-328.18-100.75-238.19-151.83-491.21-151.83-752.03s51.08-513.84,151.83-752.03c48.42-114.48,108.35-224.9,178.13-328.18,69.11-102.3,148.49-198.5,235.91-285.93,87.43-87.43,183.63-166.8,285.93-235.91,103.29-69.78,213.7-129.71,328.18-178.13,238.19-100.75,491.21-151.83,752.03-151.83s513.84,51.08,752.03,151.83c114.48,48.42,224.9,108.35,328.18,178.13,102.3,69.11,198.5,148.49,285.93,235.91,87.43,87.43,166.8,183.63,235.91,285.93,69.78,103.29,129.71,213.7,178.13,328.18,100.75,238.19,151.83,491.21,151.83,752.03s-51.08,513.84-151.83,752.03c-48.42,114.48-108.35,224.9-178.13,328.18-69.11,102.3-148.49,198.5-235.91,285.93s-183.63,166.8-285.93,235.91c-103.29,69.78-213.7,129.71-328.18,178.13-238.19,100.75-491.21,151.83-752.03,151.83Zm0-3859c-260.14,0-512.5,50.95-750.07,151.43-114.18,48.29-224.31,108.07-327.32,177.67-102.04,68.93-197.99,148.1-285.19,235.3-87.2,87.2-166.37,183.15-235.3,285.19-69.6,103.02-129.37,213.14-177.67,327.32-100.48,237.57-151.43,489.93-151.43,750.07s50.95,512.5,151.43,750.07c48.29,114.18,108.07,224.31,177.67,327.32,68.93,102.04,148.1,197.99,235.3,285.19,87.2,87.2,183.15,166.37,285.19,235.3,103.02,69.6,213.14,129.37,327.32,177.67,237.57,100.48,489.93,151.43,750.07,151.43s512.5-50.95,750.07-151.43c114.18-48.29,224.31-108.07,327.32-177.67,102.04-68.93,197.99-148.1,285.19-235.3,87.2-87.2,166.37-183.15,235.3-285.19,69.6-103.02,129.37-213.14,177.67-327.32,100.48-237.57,151.43-489.93,151.43-750.07s-50.95-512.5-151.43-750.07c-48.29-114.18-108.07-224.31-177.67-327.32-68.93-102.04-148.1-197.99-235.3-285.19-87.2-87.2-183.15-166.37-285.19-235.3-103.02-69.6-213.14-129.37-327.32-177.67-237.57-100.48-489.93-151.43-750.07-151.43Z"/></g></g><g class="cls-6"><g><path class="cls-5" d="M-288.54,356.78c-42.23,0-83.2-8.27-121.77-24.58-37.25-15.76-70.71-38.31-99.44-67.04-28.73-28.73-51.29-62.19-67.04-99.44-16.31-38.57-24.58-79.54-24.58-121.77s8.27-83.2,24.58-121.77c15.76-37.25,38.31-70.71,67.04-99.44,28.73-28.73,62.19-51.29,99.44-67.04,38.57-16.31,79.54-24.58,121.77-24.58s83.2,8.27,121.77,24.58c37.25,15.76,70.71,38.31,99.44,67.04C-38.6-148.53-16.04-115.07-.29-77.82,16.03-39.25,24.3,1.71,24.3,43.95S16.03,127.15-.29,165.72c-15.76,37.25-38.31,70.71-67.04,99.44-28.73,28.73-62.19,51.29-99.44,67.04-38.57,16.31-79.54,24.58-121.77,24.58Zm0-624.41c-42.06,0-82.87,8.24-121.28,24.48-37.1,15.69-70.42,38.16-99.04,66.77-28.61,28.61-51.08,61.94-66.77,99.04-16.25,38.41-24.48,79.22-24.48,121.28s8.24,82.87,24.48,121.28c15.69,37.1,38.16,70.42,66.77,99.04,28.61,28.61,61.94,51.08,99.04,66.77,38.41,16.25,79.22,24.48,121.28,24.48s82.87-8.24,121.28-24.48c37.1-15.69,70.42-38.16,99.04-66.77C-39.6,235.65-17.14,202.33-1.44,165.23,14.8,126.81,23.04,86.01,23.04,43.95S14.8-38.92-1.44-77.33c-15.69-37.1-38.16-70.42-66.77-99.04-28.61-28.61-61.94-51.08-99.04-66.77-38.41-16.25-79.22-24.48-121.28-24.48Z"/><path class="cls-5" d="M-288.54,458.54c-55.97,0-110.27-10.96-161.38-32.58-24.57-10.39-48.26-23.25-70.43-38.23-21.95-14.83-42.6-31.86-61.36-50.63-18.76-18.76-35.79-39.4-50.63-61.36-14.97-22.16-27.83-45.86-38.23-70.43-21.62-51.11-32.58-105.41-32.58-161.38s10.96-110.27,32.58-161.38c10.39-24.57,23.25-48.26,38.23-70.43,14.83-21.95,31.86-42.6,50.63-61.36,18.76-18.76,39.4-35.79,61.36-50.63,22.16-14.97,45.86-27.83,70.43-38.23,51.11-21.62,105.41-32.58,161.38-32.58s110.27,10.96,161.38,32.58c24.57,10.39,48.26,23.25,70.43,38.23,21.95,14.83,42.6,31.86,61.36,50.63,18.76,18.76,35.79,39.4,50.63,61.36,14.97,22.16,27.83,45.86,38.23,70.43C115.1-66.32,126.06-12.02,126.06,43.95s-10.96,110.27-32.58,161.38c-10.39,24.57-23.25,48.26-38.23,70.43-14.83,21.95-31.86,42.6-50.63,61.36-18.76,18.76-39.4,35.79-61.36,50.63-22.16,14.97-45.86,27.83-70.43,38.23-51.11,21.62-105.41,32.58-161.38,32.58Zm0-827.93c-55.8,0-109.93,10.93-160.89,32.48-24.49,10.36-48.11,23.18-70.21,38.11-21.89,14.79-42.47,31.77-61.17,50.47s-35.69,39.29-50.47,61.17c-14.93,22.1-27.75,45.72-38.11,70.21-21.55,50.96-32.48,105.09-32.48,160.89s10.93,109.93,32.48,160.89c10.36,24.49,23.18,48.11,38.11,70.21,14.79,21.89,31.77,42.47,50.47,61.17,18.7,18.7,39.29,35.69,61.17,50.47,22.1,14.93,45.72,27.75,70.21,38.11,50.96,21.55,105.09,32.48,160.89,32.48s109.93-10.93,160.89-32.48c24.49-10.36,48.11-23.18,70.21-38.11,21.89-14.79,42.47-31.77,61.17-50.47,18.7-18.7,35.69-39.29,50.47-61.17,14.93-22.1,27.75-45.72,38.11-70.21,21.55-50.96,32.48-105.09,32.48-160.89s-10.93-109.93-32.48-160.89c-10.36-24.49-23.18-48.11-38.11-70.21-14.79-21.89-31.77-42.47-50.47-61.17-18.7-18.7-39.29-35.69-61.17-50.47-22.1-14.93-45.72-27.75-70.21-38.11-50.96-21.55-105.09-32.48-160.89-32.48Z"/><path class="cls-5" d="M-288.54,526.95c-65.2,0-128.46-12.77-188.01-37.96-28.62-12.11-56.22-27.09-82.05-44.53-25.58-17.28-49.63-37.12-71.48-58.98-21.86-21.86-41.7-45.91-58.98-71.48-17.44-25.82-32.43-53.43-44.53-82.05-25.19-59.55-37.96-122.8-37.96-188.01s12.77-128.46,37.96-188.01c12.11-28.62,27.09-56.22,44.53-82.05,17.28-25.58,37.12-49.63,58.98-71.48,21.86-21.86,45.91-41.7,71.48-58.98,25.82-17.44,53.43-32.43,82.05-44.53,59.55-25.19,122.8-37.96,188.01-37.96s128.46,12.77,188.01,37.96c28.62,12.11,56.22,27.09,82.05,44.53,25.58,17.28,49.63,37.12,71.48,58.98s41.7,45.91,58.98,71.48c17.44,25.82,32.43,53.43,44.53,82.05,25.19,59.55,37.96,122.8,37.96,188.01s-12.77,128.46-37.96,188.01c-12.11,28.62-27.09,56.22-44.53,82.05-17.28,25.58-37.12,49.63-58.98,71.48s-45.91,41.7-71.48,58.98c-25.82,17.44-53.43,32.43-82.05,44.53-59.55,25.19-122.8,37.96-188.01,37.96Zm0-964.75c-65.04,0-128.13,12.74-187.52,37.86-28.55,12.07-56.08,27.02-81.83,44.42-25.51,17.23-49.5,37.03-71.3,58.83-21.8,21.8-41.59,45.79-58.83,71.3-17.4,25.75-32.34,53.29-44.42,81.83-25.12,59.39-37.86,122.48-37.86,187.52s12.74,128.13,37.86,187.52c12.07,28.55,27.02,56.08,44.42,81.83,17.23,25.51,37.03,49.5,58.83,71.3,21.8,21.8,45.79,41.59,71.3,58.83,25.75,17.4,53.29,32.34,81.83,44.42,59.39,25.12,122.48,37.86,187.52,37.86s128.13-12.74,187.52-37.86c28.55-12.07,56.08-27.02,81.83-44.42,25.51-17.23,49.5-37.03,71.3-58.83,21.8-21.8,41.59-45.79,58.83-71.3,17.4-25.75,32.34-53.29,44.42-81.83,25.12-59.39,37.86-122.48,37.86-187.52s-12.74-128.13-37.86-187.52c-12.07-28.55-27.02-56.08-44.42-81.83-17.23-25.51-37.03-49.5-58.83-71.3-21.8-21.8-45.79-41.59-71.3-58.83-25.75-17.4-53.29-32.34-81.83-44.42-59.39-25.12-122.48-37.86-187.52-37.86Z"/></g></g><g><circle class="cls-3" cx="128" cy="128" r="127.06"/><g><path class="cls-5" d="M128,256C57.42,256,0,198.58,0,128c0-22.21,5.78-44.09,16.71-63.28,.34-.6,1.11-.81,1.72-.47,.6,.34,.81,1.11,.47,1.72C8.18,84.77,2.52,106.22,2.52,128c0,69.19,56.29,125.48,125.48,125.48s125.48-56.29,125.48-125.48S197.19,2.52,128,2.52c-29.58,0-58.29,10.49-80.86,29.53-.53,.45-1.32,.38-1.77-.15-.45-.53-.38-1.32,.15-1.77C68.54,10.7,97.83,0,128,0c70.58,0,128,57.42,128,128s-57.42,128-128,128Z"/><path class="cls-5" d="M29.69,49.26c-.28,0-.56-.09-.79-.28-.54-.44-.62-1.23-.18-1.77,2.24-2.75,4.63-5.45,7.1-8.01,.48-.5,1.28-.51,1.78-.03,.5,.48,.52,1.28,.03,1.78-2.42,2.51-4.76,5.16-6.96,7.86-.25,.31-.61,.46-.98,.46Z"/><g class="cls-7"><g><g><path class="cls-5" d="M-79.07,271.47c-42.06,0-82.87-8.24-121.28-24.49-37.1-15.69-70.42-38.16-99.04-66.77-28.61-28.61-51.08-61.94-66.77-99.04-16.25-38.41-24.49-79.22-24.49-121.28s8.24-82.87,24.49-121.28c15.69-37.1,38.16-70.42,66.77-99.04,28.61-28.61,61.94-51.08,99.04-66.77,38.41-16.25,79.22-24.49,121.28-24.49s82.87,8.24,121.28,24.49c37.1,15.69,70.42,38.16,99.04,66.77,28.61,28.61,51.08,61.94,66.77,99.04,16.25,38.41,24.49,79.22,24.49,121.28s-8.24,82.87-24.49,121.28c-15.69,37.1-38.16,70.42-66.77,99.04-28.61,28.61-61.94,51.08-99.04,66.77-38.41,16.25-79.22,24.49-121.28,24.49Zm0-620.64c-41.72,0-82.2,8.17-120.3,24.29-36.8,15.57-69.86,37.85-98.24,66.23-28.38,28.38-50.67,61.44-66.23,98.24-16.12,38.1-24.29,78.58-24.29,120.3s8.17,82.2,24.29,120.3c15.57,36.8,37.85,69.86,66.23,98.24,28.38,28.38,61.44,50.67,98.24,66.24,38.1,16.12,78.58,24.29,120.3,24.29s82.2-8.17,120.3-24.29c36.8-15.57,69.86-37.85,98.24-66.24s50.67-61.44,66.24-98.24c16.12-38.1,24.29-78.58,24.29-120.3s-8.17-82.2-24.29-120.3c-15.57-36.8-37.85-69.86-66.24-98.24-28.38-28.38-61.44-50.67-98.24-66.23-38.1-16.12-78.58-24.29-120.3-24.29Z"/><path class="cls-5" d="M-79.07,87.85c-70.56,0-127.96-57.4-127.96-127.96s57.4-127.96,127.96-127.96S48.89-110.66,48.89-40.11-8.51,87.85-79.07,87.85Zm0-253.4c-69.17,0-125.44,56.27-125.44,125.44s56.27,125.44,125.44,125.44S46.37,29.06,46.37-40.11-9.9-165.55-79.07-165.55Z"/><path class="cls-5" d="M-79.07,425.22c-62.82,0-123.76-12.3-181.13-36.57-55.41-23.44-105.18-56.99-147.91-99.72-42.73-42.73-76.29-92.5-99.72-147.91-24.27-57.37-36.57-118.31-36.57-181.13s12.3-123.76,36.57-181.13c23.44-55.41,56.99-105.18,99.72-147.91,42.73-42.73,92.5-76.29,147.91-99.72,57.37-24.27,118.31-36.57,181.13-36.57s123.76,12.3,181.13,36.57c55.41,23.44,105.18,56.99,147.91,99.72,42.73,42.73,76.29,92.5,99.72,147.91,24.27,57.37,36.57,118.31,36.57,181.13s-12.3,123.76-36.57,181.13c-23.44,55.41-56.99,105.18-99.72,147.91-42.73,42.73-92.5,76.29-147.91,99.72-57.37,24.27-118.31,36.57-181.13,36.57Zm0-928.15c-62.48,0-123.09,12.24-180.15,36.37-55.11,23.31-104.61,56.68-147.11,99.19-42.5,42.5-75.88,92-99.19,147.11-24.13,57.06-36.37,117.67-36.37,180.15s12.24,123.09,36.37,180.15c23.31,55.11,56.68,104.61,99.19,147.11,42.5,42.5,92,75.88,147.11,99.19,57.06,24.13,117.67,36.37,180.15,36.37s123.09-12.24,180.15-36.37c55.11-23.31,104.61-56.68,147.11-99.19,42.5-42.5,75.88-92,99.19-147.11,24.13-57.06,36.37-117.67,36.37-180.15s-12.24-123.09-36.37-180.15c-23.31-55.11-56.68-104.61-99.19-147.11-42.5-42.5-92-75.88-147.11-99.19-57.06-24.13-117.67-36.37-180.15-36.37Z"/><path class="cls-5" d="M-79.07,585.56c-84.46,0-166.4-16.54-243.54-49.17-74.5-31.51-141.42-76.63-198.88-134.09-57.46-57.46-102.57-124.37-134.09-198.88-32.63-77.14-49.17-159.07-49.17-243.54s16.54-166.4,49.17-243.54c31.51-74.5,76.63-141.42,134.09-198.88,57.46-57.46,124.37-102.57,198.88-134.09,77.14-32.63,159.07-49.17,243.54-49.17s166.4,16.54,243.54,49.17c74.5,31.51,141.42,76.63,198.87,134.09,57.46,57.46,102.57,124.37,134.09,198.88,32.63,77.14,49.17,159.07,49.17,243.54s-16.54,166.4-49.17,243.54c-31.51,74.5-76.63,141.42-134.09,198.88-57.46,57.46-124.37,102.57-198.87,134.09-77.14,32.63-159.07,49.17-243.54,49.17Zm0-1248.82c-84.13,0-165.73,16.48-242.56,48.97-74.2,31.39-140.85,76.32-198.08,133.55-57.23,57.23-102.16,123.87-133.55,198.08-32.49,76.82-48.97,158.43-48.97,242.56s16.48,165.73,48.97,242.56c31.39,74.2,76.32,140.85,133.55,198.08,57.23,57.23,123.87,102.16,198.08,133.55,76.82,32.49,158.43,48.97,242.56,48.97s165.73-16.48,242.56-48.97c74.2-31.39,140.85-76.32,198.08-133.55,57.23-57.23,102.16-123.87,133.55-198.08,32.49-76.82,48.97-158.43,48.97-242.56s-16.48-165.73-48.97-242.56c-31.39-74.2-76.32-140.85-133.55-198.08-57.23-57.23-123.87-102.16-198.08-133.55-76.82-32.49-158.43-48.97-242.56-48.97Z"/><path class="cls-5" d="M-79.07,789.08c-111.94,0-220.53-21.92-322.76-65.16-49.13-20.78-96.52-46.5-140.85-76.45-43.91-29.66-85.19-63.73-122.72-101.25-37.52-37.52-71.59-78.81-101.25-122.72-29.95-44.33-55.67-91.72-76.45-140.85-43.24-102.23-65.16-210.82-65.16-322.76s21.92-220.53,65.16-322.76c20.78-49.13,46.5-96.52,76.45-140.85,29.66-43.91,63.73-85.19,101.25-122.72,37.52-37.52,78.81-71.59,122.72-101.25,44.33-29.95,91.72-55.67,140.85-76.45,102.23-43.24,210.82-65.16,322.76-65.16s220.53,21.92,322.76,65.16c49.13,20.78,96.52,46.5,140.85,76.45,43.91,29.66,85.19,63.73,122.72,101.25,37.52,37.52,71.59,78.81,101.25,122.72,29.95,44.33,55.67,91.72,76.45,140.85,43.24,102.23,65.16,210.82,65.16,322.76s-21.92,220.53-65.16,322.76c-20.78,49.13-46.5,96.52-76.45,140.85-29.66,43.91-63.73,85.19-101.25,122.72-37.52,37.52-78.81,71.59-122.72,101.25-44.33,29.95-91.72,55.67-140.85,76.45-102.23,43.24-210.82,65.16-322.76,65.16Zm0-1655.86c-111.6,0-219.86,21.86-321.78,64.96-48.98,20.72-96.23,46.36-140.42,76.22-43.77,29.57-84.94,63.54-122.35,100.94s-71.37,78.57-100.94,122.35c-29.86,44.19-55.5,91.44-76.22,140.42-43.11,101.92-64.96,210.18-64.96,321.78s21.86,219.86,64.96,321.78c20.72,48.98,46.36,96.23,76.22,140.42,29.57,43.77,63.54,84.94,100.94,122.35,37.41,37.41,78.57,71.37,122.35,100.94,44.19,29.86,91.44,55.5,140.42,76.22,101.92,43.11,210.18,64.96,321.78,64.96s219.86-21.86,321.78-64.96c48.98-20.72,96.23-46.36,140.42-76.22,43.77-29.57,84.94-63.54,122.35-100.94,37.41-37.41,71.37-78.57,100.94-122.35,29.86-44.19,55.5-91.44,76.22-140.42,43.11-101.92,64.96-210.18,64.96-321.78s-21.86-219.86-64.96-321.78c-20.72-48.98-46.36-96.23-76.22-140.42-29.57-43.77-63.54-84.94-100.94-122.35-37.41-37.41-78.57-71.37-122.35-100.94-44.19-29.86-91.44-55.5-140.42-76.22-101.92-43.11-210.18-64.96-321.78-64.96Z"/><path class="cls-5" d="M-79.07,925.9c-130.41,0-256.92-25.54-376.01-75.91-57.24-24.21-112.45-54.18-164.09-89.07-51.15-34.56-99.25-74.24-142.97-117.96-43.71-43.71-83.4-91.81-117.96-142.97-34.89-51.64-64.85-106.85-89.07-164.09-50.37-119.1-75.91-245.6-75.91-376.01s25.54-256.92,75.91-376.01c24.21-57.24,54.18-112.45,89.07-164.09,34.56-51.15,74.24-99.25,117.96-142.97,43.71-43.71,91.81-83.4,142.97-117.96,51.64-34.89,106.85-64.86,164.09-89.07,119.09-50.37,245.6-75.91,376.01-75.91s256.92,25.54,376.01,75.91c57.24,24.21,112.45,54.18,164.09,89.07,51.15,34.56,99.25,74.24,142.97,117.96s83.4,91.81,117.96,142.97c34.89,51.64,64.86,106.85,89.07,164.09,50.37,119.09,75.91,245.6,75.91,376.01s-25.54,256.92-75.91,376.01c-24.21,57.24-54.18,112.45-89.07,164.09-34.56,51.15-74.24,99.25-117.96,142.97s-91.81,83.4-142.97,117.96c-51.64,34.89-106.85,64.86-164.09,89.07-119.1,50.37-245.6,75.91-376.01,75.91Zm0-1929.5c-130.07,0-256.25,25.47-375.03,75.72-57.09,24.15-112.15,54.04-163.66,88.83-51.02,34.47-98.99,74.05-142.59,117.65-43.6,43.6-83.18,91.58-117.65,142.59-34.8,51.51-64.69,106.57-88.83,163.66-50.24,118.78-75.72,244.96-75.72,375.03s25.47,256.25,75.72,375.03c24.15,57.09,54.04,112.15,88.83,163.66,34.47,51.02,74.05,98.99,117.65,142.6,43.6,43.6,91.58,83.18,142.59,117.65,51.51,34.8,106.57,64.69,163.66,88.83,118.78,50.24,244.96,75.72,375.03,75.72s256.25-25.47,375.03-75.72c57.09-24.15,112.15-54.03,163.66-88.83,51.02-34.47,98.99-74.05,142.6-117.65,43.6-43.6,83.18-91.58,117.65-142.6,34.8-51.51,64.69-106.57,88.83-163.66,50.24-118.78,75.72-244.96,75.72-375.03s-25.47-256.25-75.72-375.03c-24.15-57.09-54.03-112.15-88.83-163.66-34.47-51.02-74.05-98.99-117.65-142.59-43.6-43.6-91.58-83.18-142.6-117.65-51.51-34.8-106.57-64.69-163.66-88.83-118.78-50.24-244.96-75.72-375.03-75.72Z"/><path class="cls-5" d="M-79.07,304.65c-46.54,0-91.69-9.12-134.2-27.09-41.05-17.36-77.92-42.22-109.58-73.88-31.66-31.66-56.52-68.53-73.88-109.59-17.98-42.5-27.09-87.65-27.09-134.2s9.12-91.69,27.09-134.2c17.36-41.05,42.22-77.92,73.88-109.59s68.53-56.52,109.58-73.88c42.5-17.98,87.65-27.09,134.2-27.09s91.69,9.12,134.2,27.09c41.05,17.36,77.92,42.22,109.59,73.88s56.52,68.53,73.88,109.59c17.98,42.5,27.09,87.65,27.09,134.2s-9.12,91.69-27.09,134.2c-17.36,41.05-42.22,77.92-73.88,109.59-31.66,31.66-68.53,56.52-109.59,73.88-42.5,17.98-87.65,27.09-134.2,27.09Zm0-687c-46.2,0-91.02,9.05-133.22,26.89-40.75,17.24-77.36,41.91-108.79,73.35-31.43,31.43-56.11,68.03-73.35,108.79-17.85,42.19-26.89,87.01-26.89,133.22s9.05,91.02,26.89,133.22c17.24,40.75,41.91,77.35,73.35,108.79,31.43,31.43,68.03,56.11,108.79,73.35,42.19,17.85,87.01,26.89,133.22,26.89s91.02-9.05,133.22-26.89c40.75-17.24,77.36-41.91,108.79-73.35,31.43-31.43,56.11-68.03,73.35-108.79,17.85-42.19,26.89-87.01,26.89-133.22s-9.05-91.02-26.89-133.22c-17.24-40.75-41.91-77.35-73.35-108.79-31.43-31.43-68.03-56.11-108.79-73.35-42.19-17.85-87.01-26.89-133.22-26.89Z"/></g><g><path class="cls-5" d="M124.3,313.39c-.44,0-.86-.23-1.1-.64L-15,68.74c-.34-.6-.13-1.37,.47-1.71,.6-.34,1.37-.13,1.71,.47L125.39,311.51c.34,.6,.13,1.37-.47,1.71-.2,.11-.41,.16-.62,.16Z"/><path class="cls-5" d="M102.25,60.67c-.22,0-.44-.06-.64-.18L32.88,19.66c-.6-.35-.79-1.13-.44-1.72,.36-.6,1.13-.79,1.72-.44L102.89,58.33c.6,.35,.79,1.13,.44,1.72-.24,.4-.65,.62-1.08,.62Z"/></g><path class="cls-5" d="M196.2,179.08c-6.3,0-11.43-5.13-11.43-11.43s5.13-11.43,11.43-11.43,11.43,5.13,11.43,11.43-5.13,11.43-11.43,11.43Zm0-20.35c-4.92,0-8.92,4-8.92,8.92s4,8.92,8.92,8.92,8.92-4,8.92-8.92-4-8.92-8.92-8.92Z"/></g></g><g><g><path id="Tracé_42" class="cls-4" d="M134.76,173.44l-45.99,45.91c-2.31,2.68-2.01,6.72,.66,9.03,2.4,2.07,5.96,2.07,8.36,0l45.99-45.91c2.31-2.68,2.01-6.72-.66-9.03-2.4-2.07-5.96-2.07-8.36,0Z"/><path class="cls-5" d="M93.62,231.18c-1.79,0-3.58-.62-5-1.85-1.55-1.34-2.48-3.2-2.63-5.24-.15-2.04,.5-4.02,1.84-5.56l.06-.07,46.05-45.97c2.85-2.46,7.16-2.46,10.01,0,3.2,2.76,3.55,7.6,.79,10.8l-.06,.07-46.05,45.97c-1.43,1.23-3.21,1.85-5,1.85Zm-3.92-10.97c-1.82,2.15-1.57,5.38,.56,7.22,1.9,1.64,4.77,1.65,6.69,.03l45.92-45.84c1.82-2.15,1.57-5.38-.56-7.22-1.9-1.64-4.77-1.65-6.69-.03l-45.92,45.84Z"/></g><g><path id="Tracé_43" class="cls-4" d="M31.19,161.77l45.99-45.91c2.31-2.68,2.01-6.72-.66-9.03-2.4-2.07-5.96-2.07-8.36,0l-45.99,45.91c-2.31,2.68-2.01,6.72,.66,9.03,2.4,2.07,5.96,2.07,8.36,0Z"/><path class="cls-5" d="M27.01,164.57c-1.79,0-3.58-.62-5-1.85-1.55-1.34-2.48-3.2-2.63-5.24-.15-2.04,.5-4.02,1.84-5.56l.06-.07,46.05-45.97c2.85-2.46,7.16-2.46,10.01,0,3.2,2.76,3.55,7.6,.79,10.8l-.06,.07-46.05,45.97c-1.43,1.23-3.22,1.85-5,1.85Zm-3.92-10.97c-1.82,2.15-1.57,5.38,.56,7.22,1.9,1.64,4.77,1.65,6.69,.03l45.92-45.84c1.82-2.15,1.57-5.38-.56-7.22-1.9-1.64-4.77-1.65-6.69-.03l-45.92,45.84Zm8.1,8.17h0Z"/></g><g><path id="Tracé_44" class="cls-4" d="M117.95,57.05c-19.13,19.15-20.94,49.56-4.23,70.85l-58.2,58.2c-2.31,2.68-2.01,6.72,.66,9.03,2.4,2.07,5.96,2.07,8.36,0l58.2-58.2c23.23,18.26,56.87,14.23,75.12-9,18.26-23.23,14.23-56.87-9-75.12-21.3-16.75-51.76-14.92-70.91,4.25Zm66.38,66.38c-15.77,15.77-41.34,15.77-57.12,0-15.77-15.77-15.77-41.34,0-57.12,15.77-15.77,41.34-15.77,57.12,0,15.78,15.76,15.79,41.34,.03,57.12,0,0,0,0-.01,.01h-.01Z"/><path class="cls-5" d="M60.36,197.92c-1.79,0-3.58-.62-5-1.85-1.55-1.34-2.48-3.2-2.63-5.24s.5-4.02,1.84-5.56l.06-.07,57.42-57.42c-16.35-21.72-14.27-52.32,5.01-71.63h0c19.59-19.61,50.79-21.48,72.58-4.35,11.5,9.04,18.79,22.01,20.53,36.54s-2.28,28.85-11.32,40.35c-10.79,13.73-26.87,20.9-43.11,20.9-11.5,0-23.07-3.59-32.9-11l-57.49,57.48c-1.43,1.23-3.21,1.85-5,1.85Zm-3.92-10.97c-.88,1.04-1.31,2.35-1.21,3.7,.1,1.37,.73,2.62,1.77,3.52,1.9,1.64,4.77,1.65,6.69,.03l58.96-58.96,.88,.69c10.97,8.62,24.64,12.46,38.5,10.8,13.86-1.66,26.24-8.62,34.86-19.59,8.62-10.97,12.46-24.64,10.8-38.5-1.66-13.86-8.62-26.24-19.59-34.86-20.79-16.34-50.56-14.55-69.25,4.15h0c-18.66,18.68-20.43,48.42-4.13,69.18l.69,.88-58.96,58.96ZM117.95,57.05h0Zm37.83,79.45c-10.66,0-21.33-4.06-29.45-12.18-16.24-16.24-16.24-42.66,0-58.89,7.87-7.87,18.32-12.2,29.45-12.2s21.58,4.33,29.45,12.2c7.87,7.86,12.21,18.32,12.21,29.44,0,11.12-4.32,21.58-12.18,29.45l-.87,.87-.03-.03c-8,7.56-18.29,11.33-28.58,11.33Zm0-80.75c-10.45,0-20.28,4.07-27.67,11.46-15.26,15.26-15.26,40.08,0,55.34,15.26,15.25,40.08,15.25,55.34,0l.87-.87h0c6.86-7.3,10.61-16.76,10.6-26.8,0-10.45-4.08-20.28-11.47-27.66-7.39-7.39-17.22-11.46-27.67-11.46Z"/></g></g><g><path id="Tracé_42-2" class="cls-3" d="M138.94,171.89c1.49,0,2.98,.52,4.18,1.56,2.68,2.31,2.97,6.35,.66,9.03l-45.99,45.91c-1.2,1.04-2.69,1.56-4.18,1.56s-2.98-.52-4.18-1.56c-2.68-2.31-2.97-6.35-.66-9.03l45.99-45.91c1.2-1.04,2.69-1.56,4.18-1.56m0-5.03c-2.74,0-5.39,.99-7.47,2.78l-.14,.12-.13,.13-45.99,45.91-.13,.13-.12,.14c-4.12,4.77-3.59,12,1.18,16.12,2.08,1.79,4.73,2.78,7.47,2.78s5.39-.99,7.47-2.78l.14-.12,.13-.13,45.99-45.91,.13-.13,.12-.14c4.12-4.77,3.59-12-1.18-16.12-2.08-1.79-4.73-2.78-7.47-2.78h0Z"/><path id="Tracé_43-2" class="cls-3" d="M72.33,105.28c1.49,0,2.98,.52,4.18,1.56,2.68,2.31,2.97,6.35,.66,9.03l-45.99,45.91c-1.2,1.04-2.69,1.56-4.18,1.56s-2.98-.52-4.18-1.56c-2.68-2.31-2.97-6.35-.66-9.03l45.99-45.91c1.2-1.04,2.69-1.56,4.18-1.56m0-5.03c-2.74,0-5.39,.99-7.47,2.78l-.14,.12-.13,.13-45.99,45.91-.13,.13-.12,.14c-4.12,4.77-3.59,12,1.18,16.12,2.08,1.79,4.73,2.78,7.47,2.78s5.39-.99,7.47-2.78l.14-.12,.13-.13,45.99-45.91,.13-.13,.12-.14c2-2.31,2.97-5.26,2.75-8.31-.22-3.05-1.62-5.82-3.93-7.82-2.08-1.79-4.73-2.78-7.47-2.78h0Z"/><path id="Tracé_44-2" class="cls-3" d="M155.82,41.36c11.62,0,23.3,3.77,33.05,11.44,23.23,18.26,27.26,51.89,9,75.12-10.56,13.43-26.25,20.44-42.1,20.44-11.57,0-23.22-3.74-33.03-11.44l-58.2,58.2c-1.2,1.04-2.69,1.56-4.18,1.56s-2.98-.52-4.18-1.56c-2.68-2.31-2.97-6.35-.66-9.03l58.2-58.2c-16.71-21.29-14.89-51.7,4.23-70.85,10.38-10.4,24.09-15.69,37.87-15.69m-.04,93.91c10.34,0,20.67-3.94,28.56-11.83h.01s0,0,.01,0c15.76-15.78,15.75-41.35-.03-57.12-7.89-7.89-18.22-11.83-28.56-11.83s-20.67,3.94-28.56,11.83c-15.77,15.77-15.77,41.34,0,57.12,7.89,7.89,18.22,11.83,28.56,11.83m.04-98.94c-15.66,0-30.37,6.1-41.43,17.17-19.84,19.86-22.64,50.88-7.27,73.88l-55.17,55.17-.13,.13-.12,.14c-4.12,4.77-3.59,12,1.18,16.12,2.08,1.79,4.73,2.78,7.47,2.78s5.39-.99,7.47-2.78l.14-.12,.13-.13,55.16-55.16c9.64,6.48,20.79,9.88,32.51,9.88,18.1,0,34.88-8.15,46.06-22.36,9.66-12.29,13.96-27.61,12.1-43.13-1.86-15.52-9.65-29.39-21.95-39.06-10.27-8.07-23.11-12.51-36.16-12.51h0Zm-.04,93.91c-9.44,0-18.32-3.68-25-10.36-13.78-13.78-13.78-36.21,0-50,6.68-6.68,15.56-10.36,25-10.36s18.32,3.68,25,10.36c6.68,6.68,10.36,15.55,10.37,25,0,9.09-3.4,17.65-9.6,24.24l-.77,.76c-6.68,6.68-15.56,10.36-25,10.36h0Z"/></g></g></g></svg>