<svg width="16" height="16" viewBox="0 0 16 16" fill="none" xmlns="http://www.w3.org/2000/svg">
<g clip-path="url(#clip0_1681_531)">
<path d="M4.66797 8.66699V14.667C4.66797 14.8438 4.59773 15.0134 4.47271 15.1384C4.34768 15.2634 4.17811 15.3337 4.0013 15.3337H1.33464C1.15782 15.3337 0.988255 15.2634 0.863231 15.1384C0.738207 15.0134 0.667969 14.8438 0.667969 14.667V8.66699C0.667969 8.49018 0.738207 8.32061 0.863231 8.19559C0.988255 8.07056 1.15782 8.00033 1.33464 8.00033H4.0013C4.17811 8.00033 4.34768 8.07056 4.47271 8.19559C4.59773 8.32061 4.66797 8.49018 4.66797 8.66699ZM9.33464 0.666992H6.66797C6.49116 0.666992 6.32159 0.73723 6.19656 0.862254C6.07154 0.987279 6.0013 1.15685 6.0013 1.33366V14.667C6.0013 14.8438 6.07154 15.0134 6.19656 15.1384C6.32159 15.2634 6.49116 15.3337 6.66797 15.3337H9.33464C9.51145 15.3337 9.68102 15.2634 9.80604 15.1384C9.93106 15.0134 10.0013 14.8438 10.0013 14.667V1.33366C10.0013 1.15685 9.93106 0.987279 9.80604 0.862254C9.68102 0.73723 9.51145 0.666992 9.33464 0.666992ZM14.668 4.00033H12.0013C11.8245 4.00033 11.6549 4.07056 11.5299 4.19559C11.4049 4.32061 11.3346 4.49018 11.3346 4.66699V14.667C11.3346 14.8438 11.4049 15.0134 11.5299 15.1384C11.6549 15.2634 11.8245 15.3337 12.0013 15.3337H14.668C14.8448 15.3337 15.0143 15.2634 15.1394 15.1384C15.2644 15.0134 15.3346 14.8438 15.3346 14.667V4.66699C15.3346 4.49018 15.2644 4.32061 15.1394 4.19559C15.0143 4.07056 14.8448 4.00033 14.668 4.00033Z" fill="white"/>
</g>
<defs>
<clipPath id="clip0_1681_531">
<rect width="16" height="16" fill="white"/>
</clipPath>
</defs>
</svg>
