<svg width="17" height="14" viewBox="0 0 17 14" fill="none" xmlns="http://www.w3.org/2000/svg">
<path d="M14.0703 0.292969H2.07031C0.967543 0.292969 0.0703125 1.2918 0.0703125 2.51916V11.424C0.0703125 11.4656 0.0797546 11.5049 0.0818059 11.5464C0.07237 11.6355 0.0764657 11.7252 0.105594 11.8099C0.270107 12.8533 1.08611 13.6502 2.07031 13.6502H14.0703C15.1731 13.6502 16.0703 12.6514 16.0703 11.424V2.51916C16.0703 1.2918 15.1731 0.292969 14.0703 0.292969ZM2.07031 1.77716H14.0703C14.4375 1.77716 14.737 2.11034 14.737 2.51916V8.41052L11.2305 4.50718C10.7743 3.99956 10.0321 3.99956 9.57717 4.50718L6.40385 8.03946L5.56365 7.10447C5.10786 6.59685 4.36569 6.59685 3.91031 7.10447L1.40365 9.89459V2.51916C1.40365 2.11034 1.70313 1.77716 2.07031 1.77716Z" fill="#A2AAB8"/>
</svg>
