<svg width="14" height="14" viewBox="0 0 14 14" fill="none" xmlns="http://www.w3.org/2000/svg">
<path d="M8.21293 13.6663H5.78626C5.63422 13.6664 5.48673 13.6144 5.36826 13.5191C5.2498 13.4238 5.16747 13.2909 5.13493 13.1423L4.8636 11.8863C4.50164 11.7277 4.15842 11.5294 3.84026 11.295L2.6156 11.685C2.47064 11.7312 2.31423 11.7265 2.17234 11.6715C2.03046 11.6166 1.91163 11.5148 1.8356 11.383L0.619597 9.28234C0.544361 9.15043 0.516119 8.99689 0.539492 8.84684C0.562866 8.69679 0.63647 8.55912 0.748264 8.45634L1.69826 7.58967C1.65506 7.19708 1.65506 6.80093 1.69826 6.40834L0.748264 5.54367C0.636312 5.44086 0.562607 5.30306 0.53923 5.15286C0.515853 5.00267 0.54419 4.84899 0.619597 4.71701L1.83293 2.61501C1.90896 2.48322 2.02779 2.3814 2.16968 2.32647C2.31156 2.27153 2.46797 2.26678 2.61293 2.31301L3.8376 2.70301C4.00026 2.58301 4.1696 2.47101 4.34426 2.36967C4.51293 2.27501 4.68626 2.18901 4.8636 2.11234L5.1356 0.857674C5.16798 0.70914 5.25015 0.576133 5.3685 0.480707C5.48684 0.385281 5.63424 0.333168 5.78626 0.333008H8.21293C8.36495 0.333168 8.51236 0.385281 8.6307 0.480707C8.74904 0.576133 8.83122 0.70914 8.8636 0.857674L9.13826 2.11301C9.49976 2.27252 9.84288 2.47079 10.1616 2.70434L11.3869 2.31434C11.5318 2.26829 11.6881 2.27312 11.8298 2.32805C11.9715 2.38298 12.0903 2.48469 12.1663 2.61634L13.3796 4.71834C13.5343 4.98967 13.4809 5.33301 13.2509 5.54434L12.3009 6.41101C12.3441 6.8036 12.3441 7.19975 12.3009 7.59234L13.2509 8.45901C13.4809 8.67101 13.5343 9.01367 13.3796 9.28501L12.1663 11.387C12.0902 11.5188 11.9714 11.6206 11.8295 11.6755C11.6876 11.7305 11.5312 11.7352 11.3863 11.689L10.1616 11.299C9.84369 11.5332 9.50068 11.7313 9.13893 11.8897L8.8636 13.1423C8.83108 13.2908 8.74885 13.4236 8.63052 13.5189C8.51219 13.6142 8.36486 13.6662 8.21293 13.6663V13.6663ZM6.99693 4.33301C6.28969 4.33301 5.61141 4.61396 5.11131 5.11406C4.61122 5.61415 4.33026 6.29243 4.33026 6.99967C4.33026 7.70692 4.61122 8.3852 5.11131 8.88529C5.61141 9.38539 6.28969 9.66634 6.99693 9.66634C7.70418 9.66634 8.38245 9.38539 8.88255 8.88529C9.38265 8.3852 9.6636 7.70692 9.6636 6.99967C9.6636 6.29243 9.38265 5.61415 8.88255 5.11406C8.38245 4.61396 7.70418 4.33301 6.99693 4.33301V4.33301Z" fill="#A2AAB8"/>
</svg>
