<svg width="16" height="16" viewBox="0 0 16 16" fill="none" xmlns="http://www.w3.org/2000/svg">
<g clip-path="url(#clip0_1681_539)">
<path d="M15.6725 0.00237299C12.5492 -0.053627 8.98716 1.57904 6.73249 4.11171C4.57783 4.15237 2.47983 5.03571 0.935161 6.58037C0.845161 6.66904 0.813161 6.80171 0.852495 6.92171C0.892495 7.04237 0.996495 7.12971 1.12183 7.14771L3.69116 7.51571L3.37383 7.87104C3.25583 8.00304 3.26183 8.20371 3.38716 8.32904L7.67183 12.6137C7.7365 12.6784 7.82183 12.711 7.90783 12.711C7.98716 12.711 8.06649 12.683 8.12983 12.6264L8.48516 12.309L8.85316 14.8784C8.87116 15.0037 8.96983 15.0957 9.08916 15.1357C9.11983 15.1457 9.15183 15.1504 9.18449 15.1504C9.27916 15.1504 9.37583 15.109 9.4425 15.043C10.9658 13.5197 11.8492 11.4217 11.8898 9.26704C14.4252 7.00771 16.0712 3.44704 15.9985 0.327706C15.9938 0.150373 15.8505 0.00703966 15.6725 0.00237299ZM12.6005 5.75704C12.2758 6.08171 11.8492 6.24437 11.4218 6.24437C10.9945 6.24437 10.5678 6.08171 10.2432 5.75704C9.59383 5.10704 9.59383 4.04971 10.2432 3.39971C10.8932 2.74971 11.9505 2.74971 12.6005 3.39971C13.2505 4.04971 13.2505 5.10771 12.6005 5.75704Z" fill="#A2AAB8"/>
<path d="M1.81604 11.2702C1.10271 11.9836 0.123372 15.2062 0.0140383 15.5709C-0.0212951 15.6882 0.0113716 15.8156 0.0973716 15.9022C0.161372 15.9662 0.246038 16.0002 0.333372 16.0002C0.365372 16.0002 0.397372 15.9956 0.429372 15.9862C0.794038 15.8769 4.0167 14.8976 4.73004 14.1842C5.53337 13.3809 5.53337 12.0736 4.73004 11.2702C3.92604 10.4669 2.61937 10.4676 1.81604 11.2702Z" fill="#A2AAB8"/>
</g>
<defs>
<clipPath id="clip0_1681_539">
<rect width="16" height="16" fill="white"/>
</clipPath>
</defs>
</svg>
