<svg width="92" height="89" viewBox="0 0 92 89" fill="none" xmlns="http://www.w3.org/2000/svg">
<path d="M52.719 43.8703L57.1948 47.7647C57.8849 48.3698 58.1378 49.3434 57.8303 50.1988L57.7688 50.3796C56.5319 53.8846 54.7006 57.1114 52.3226 59.9697L52.1996 60.1157C51.913 60.4606 51.53 60.7085 51.1015 60.8265C50.6731 60.9445 50.2196 60.927 49.8011 60.7764L44.2457 58.7666C42.2076 60.4754 39.9055 61.829 37.4328 62.7723L36.36 68.6836C36.2791 69.1284 36.0671 69.5376 35.7522 69.8568C35.4373 70.176 35.0344 70.3902 34.597 70.4708L34.4125 70.5056C30.8197 71.1628 27.1404 71.1628 23.5476 70.5056L23.3631 70.4708C22.9257 70.3902 22.5228 70.176 22.2079 69.8568C21.893 69.5376 21.681 69.1284 21.6001 68.6836L20.5204 62.7445C18.0673 61.8057 15.7918 60.4565 13.7555 58.7527L8.15898 60.7764C7.74042 60.9258 7.28719 60.9427 6.85903 60.8248C6.43086 60.7068 6.04786 60.4596 5.76049 60.1157L5.63749 59.9697C3.2595 57.1184 1.42817 53.8846 0.191346 50.3796L0.129847 50.1988C-0.0209441 49.7733 -0.0409073 49.3112 0.0726107 48.874C0.186129 48.4367 0.427749 48.0449 0.765344 47.7508L5.29582 43.8146C5.08399 42.5141 4.98149 41.1789 4.98149 39.8437C4.98149 38.5154 5.08399 37.1801 5.29582 35.8727L0.765344 31.9365C0.0751803 31.3315 -0.177652 30.3578 0.129847 29.4885L0.191346 29.3077C1.42664 25.8044 3.27143 22.5559 5.63749 19.7176L5.76049 19.5716C6.04716 19.2267 6.43015 18.9788 6.85857 18.8608C7.28699 18.7428 7.74055 18.7603 8.15898 18.9109L13.7555 20.9346C15.7813 19.2372 18.0665 17.8888 20.5204 16.9428L21.6001 11.0037C21.681 10.559 21.893 10.1498 22.2079 9.83052C22.5228 9.51128 22.9257 9.29711 23.3631 9.21646L23.5476 9.18169C27.1077 8.52798 30.8524 8.52798 34.4125 9.18169L34.597 9.21646C35.0344 9.29711 35.4373 9.51128 35.7522 9.83052C36.0671 10.1498 36.2791 10.559 36.36 11.0037L37.4328 16.915C39.9065 17.8608 42.1957 19.2099 44.2457 20.9207L49.8011 18.9109C50.2197 18.7615 50.6729 18.7446 51.1011 18.8626C51.5293 18.9805 51.9123 19.2277 52.1996 19.5716L52.3226 19.7176C54.6915 22.5539 56.5366 25.8029 57.7688 29.3077L57.8303 29.4885C57.9811 29.914 58.001 30.3761 57.8875 30.8134C57.774 31.2506 57.5324 31.6424 57.1948 31.9365L52.719 35.831C52.9308 37.1523 53.0401 38.5015 53.0401 39.8506C53.0401 41.1998 52.9308 42.5489 52.719 43.8703Z" fill="#19335B"/>
<path d="M37.125 64.4704L36.36 68.6852C36.2791 69.13 36.0671 69.5392 35.7522 69.8584C35.4373 70.1777 35.0344 70.3918 34.597 70.4725L34.4125 70.5072C30.8197 71.1644 27.1404 71.1644 23.5476 70.5072L23.3631 70.4725C22.9257 70.3918 22.5228 70.1777 22.2079 69.8584C21.893 69.5392 21.681 69.13 21.6001 68.6852L20.5204 62.7461C18.0673 61.8073 15.7918 60.4581 13.7555 58.7543L8.15898 60.778C7.74042 60.9275 7.28719 60.9443 6.85903 60.8264C6.43086 60.7084 6.04786 60.4612 5.76049 60.1174L5.63749 59.9713C3.2595 57.12 1.42817 53.8862 0.191346 50.3812L0.129847 50.2004C-0.0209441 49.7749 -0.0409074 49.3129 0.0726107 48.8756C0.186129 48.4383 0.42775 48.0466 0.765344 47.7524L5.29583 43.8162C5.08399 42.5158 4.98149 41.1805 4.98149 39.8453C4.98149 38.517 5.08399 37.1817 5.29583 35.8743L0.765344 31.9381C0.0751803 31.3331 -0.177652 30.3595 0.129847 29.4902L0.191346 29.3094C1.42664 25.806 3.27143 22.5575 5.63749 19.7192L5.76049 19.5732C6.04716 19.2283 6.43015 18.9805 6.85857 18.8624C7.28699 18.7444 7.74055 18.7619 8.15898 18.9125L9.9492 19.5599C11.8508 34.5852 19.0179 56.6371 37.125 64.4704Z" fill="#2F4971"/>
<path d="M88.1847 17.7663L86.3249 16.1762C86.4129 15.6367 86.4583 15.0858 86.4583 14.535C86.4583 13.9841 86.4129 13.4332 86.3249 12.8937L88.1847 11.3036C88.325 11.1835 88.4254 11.0235 88.4726 10.845C88.5198 10.6665 88.5115 10.4778 88.4488 10.3041L88.4233 10.2302C87.9112 8.79921 87.1445 7.47261 86.1602 6.31455L86.109 6.25492C85.9896 6.11452 85.8305 6.01358 85.6526 5.96543C85.4746 5.91727 85.2863 5.92416 85.1124 5.98517L82.8038 6.80579C81.952 6.10727 81.0008 5.5564 79.9729 5.17023L79.527 2.75664C79.4934 2.57503 79.4053 2.40795 79.2745 2.27761C79.1436 2.14726 78.9762 2.05981 78.7945 2.02688L78.7178 2.01269C77.2384 1.74577 75.6823 1.74577 74.203 2.01269L74.1263 2.02688C73.9445 2.05981 73.7771 2.14726 73.6463 2.27761C73.5154 2.40795 73.4273 2.57503 73.3937 2.75664L72.945 5.18159C71.9253 5.56784 70.9757 6.11842 70.1339 6.81147L67.8084 5.98517C67.6345 5.92367 67.446 5.91654 67.268 5.96473C67.09 6.01291 66.9308 6.11413 66.8117 6.25492L66.7606 6.31455C65.7774 7.47343 65.0108 8.79981 64.4975 10.2302L64.4719 10.3041C64.3441 10.659 64.4492 11.0565 64.736 11.3036L66.6186 12.9108C66.5306 13.4446 66.488 13.9898 66.488 14.5321C66.488 15.0773 66.5306 15.6225 66.6186 16.1535L64.736 17.7607C64.5957 17.8807 64.4953 18.0407 64.4481 18.2192C64.401 18.3978 64.4093 18.5864 64.4719 18.7602L64.4975 18.834C65.0114 20.2651 65.7724 21.5855 66.7606 22.7497L66.8117 22.8093C66.9311 22.9497 67.0903 23.0507 67.2682 23.0988C67.4461 23.147 67.6344 23.1401 67.8084 23.0791L70.1339 22.2528C70.9801 22.9484 71.9257 23.4993 72.945 23.8827L73.3937 26.3076C73.4273 26.4892 73.5154 26.6563 73.6463 26.7866C73.7771 26.917 73.9445 27.0044 74.1263 27.0374L74.203 27.0516C75.6959 27.3199 77.2248 27.3199 78.7178 27.0516L78.7945 27.0374C78.9762 27.0044 79.1436 26.917 79.2745 26.7866C79.4053 26.6563 79.4934 26.4892 79.527 26.3076L79.9729 23.894C81.0003 23.5088 81.9569 22.9562 82.8038 22.2584L85.1124 23.0791C85.2863 23.1406 85.4747 23.1477 85.6528 23.0995C85.8308 23.0513 85.9899 22.9501 86.109 22.8093L86.1602 22.7497C87.1483 21.5826 87.9093 20.2651 88.4233 18.834L88.4488 18.7602C88.5766 18.4109 88.4715 18.0134 88.1847 17.7663ZM76.4632 9.25629C73.7032 9.25629 71.4657 11.4938 71.4657 14.2538C71.4657 17.0139 73.7032 19.2514 76.4632 19.2514C79.2232 19.2514 81.4608 17.0139 81.4608 14.2538C81.4608 11.4938 79.2232 9.25629 76.4632 9.25629ZM78.7121 16.5027C78.4171 16.7986 78.0666 17.0331 77.6806 17.193C77.2947 17.3528 76.8809 17.4348 76.4632 17.4341C75.6142 17.4341 74.8163 17.1019 74.2143 16.5027C73.9185 16.2078 73.6839 15.8572 73.5241 15.4713C73.3642 15.0853 73.2823 14.6716 73.2829 14.2538C73.2829 13.4048 73.6152 12.6069 74.2143 12.0049C74.8163 11.403 75.6142 11.0736 76.4632 11.0736C77.3122 11.0736 78.1101 11.403 78.7121 12.0049C79.0079 12.2999 79.2425 12.6505 79.4023 13.0364C79.5622 13.4224 79.6441 13.8361 79.6435 14.2538C79.6435 15.1029 79.3112 15.9008 78.7121 16.5027Z" fill="#5CB1FF"/>
<path d="M76.4663 9.25586C73.7063 9.25586 71.4688 11.4934 71.4688 14.2534C71.4688 17.0134 73.7063 19.251 76.4663 19.251C79.2263 19.251 81.4639 17.0134 81.4639 14.2534C81.4639 11.4934 79.2263 9.25586 76.4663 9.25586Z" fill="#F7FBFF"/>
<path d="M13.5352 39.1207C13.5352 30.5941 20.4476 23.6816 28.9742 23.6816C37.5007 23.6816 44.4132 30.5941 44.4132 39.1207C44.4132 47.6472 37.5007 54.5597 28.9742 54.5597C20.4476 54.5597 13.5352 47.6472 13.5352 39.1207Z" fill="#5CB1FF" stroke="white"/>
<path d="M20.7852 39.1198C20.7852 34.5945 24.4538 30.9258 28.9792 30.9258C33.5045 30.9258 37.1732 34.5945 37.1732 39.1198C37.1732 43.6451 33.5045 47.3138 28.9792 47.3138C24.4538 47.3138 20.7852 43.6451 20.7852 39.1198Z" stroke="white"/>
<path d="M27.5273 27.5293L30.4253 31.1518L27.5273 34.7743" stroke="white"/>
<path d="M30.4297 43.4688L27.5317 47.0913L30.4297 50.7138" stroke="white"/>
<g opacity="0.05" filter="url(#filter0_f_1496_483)">
<ellipse cx="29" cy="81.5" rx="18" ry="3.5" fill="black"/>
</g>
<defs>
<filter id="filter0_f_1496_483" x="7" y="74" width="44" height="15" filterUnits="userSpaceOnUse" color-interpolation-filters="sRGB">
<feFlood flood-opacity="0" result="BackgroundImageFix"/>
<feBlend mode="normal" in="SourceGraphic" in2="BackgroundImageFix" result="shape"/>
<feGaussianBlur stdDeviation="2" result="effect1_foregroundBlur_1496_483"/>
</filter>
</defs>
</svg>
