<svg width="548" height="391" viewBox="0 0 548 391" fill="none" xmlns="http://www.w3.org/2000/svg">
<path opacity="0.2" d="M340.297 211.894C341.207 211.894 359.644 211.894 368.749 211.894" stroke="white" stroke-width="0.725976"/>
<path opacity="0.2" d="M386.006 320.646C386.872 320.646 404.408 320.646 413.068 320.646" stroke="white" stroke-width="0.725976"/>
<path opacity="0.2" d="M365.71 290.201C366.395 290.201 380.278 290.201 387.134 290.201" stroke="white" stroke-width="0.725976"/>
<path opacity="0.2" d="M192.343 258.367C191.432 258.367 172.995 258.367 163.891 258.367" stroke="white" stroke-width="0.725976"/>
<path opacity="0.2" d="M112.004 225.929C111.427 225.929 99.7363 225.929 93.9631 225.929" stroke="white" stroke-width="0.725976"/>
<path opacity="0.2" d="M193.19 225.929C192.649 225.929 181.689 225.929 176.276 225.929" stroke="white" stroke-width="0.725976"/>
<path opacity="0.2" d="M193.294 203.359C192.384 203.359 173.947 203.359 164.842 203.359" stroke="white" stroke-width="0.725976"/>
<path opacity="0.2" d="M132.301 196.612C132.301 195.855 132.301 180.51 132.301 172.933" stroke="white" stroke-width="0.725976"/>
<path opacity="0.2" d="M215.107 162.578C215.107 161.667 215.107 143.23 215.107 134.125" stroke="white" stroke-width="0.725976"/>
<path opacity="0.2" d="M265.368 162.578C265.368 161.971 265.368 149.68 265.368 143.61" stroke="white" stroke-width="0.725976"/>
<path opacity="0.2" d="M287.18 162.578C287.18 161.971 287.18 149.68 287.18 143.61" stroke="white" stroke-width="0.725976"/>
<path opacity="0.2" d="M287.18 92.3962C287.18 91.243 287.18 67.8895 287.18 56.3569" stroke="white" stroke-width="0.725976"/>
<path opacity="0.2" d="M265.376 112.313V74.3765H242.614" stroke="white" stroke-width="0.725976"/>
<path opacity="0.2" d="M340.301 235.604C342.455 235.604 386.09 235.604 407.637 235.604" stroke="white" stroke-width="0.725976"/>
<path opacity="0.2" d="M231.228 313.374C231.228 311.887 231.228 281.773 231.228 266.902" stroke="white" stroke-width="0.725976"/>
<path opacity="0.2" d="M264.417 344.671C264.417 342.182 264.417 291.788 264.417 266.902" stroke="white" stroke-width="0.725976"/>
<path opacity="0.2" d="M145.871 298.199C163.474 298.199 199.119 298.199 200.879 298.199V267.85" stroke="white" stroke-width="0.725976"/>
<path opacity="0.2" d="M336.027 284L335.553 267.85" stroke="white" stroke-width="0.725976"/>
<path opacity="0.2" d="M385.341 150.249C367.739 150.249 332.568 150.249 330.808 150.249V163.526" stroke="white" stroke-width="0.725976"/>
<path opacity="0.2" d="M193.767 173.01C176.165 173.01 168.498 173.01 166.738 173.01V113.735" stroke="white" stroke-width="0.725976"/>
<path opacity="0.2" d="M307.076 320.961C289.473 320.961 294.158 320.961 292.398 320.961L291.924 267.85" stroke="white" stroke-width="0.725976"/>
<path opacity="0.1" d="M193.19 170.044C193.19 166.035 196.44 162.785 200.45 162.785H332.516C336.525 162.785 339.776 166.035 339.776 170.044V257.501H193.19V170.044Z" fill="white"/>
<path opacity="0.1" d="M182.376 261.061C181.104 259.662 182.097 257.418 183.988 257.418H348.647C350.538 257.418 351.531 259.662 350.259 261.061L344.735 267.138C344.322 267.592 343.737 267.85 343.123 267.85H189.512C188.898 267.85 188.313 267.592 187.901 267.138L182.376 261.061Z" fill="white"/>
<path opacity="0.3" d="M252.093 257.418H280.545V259.256C280.545 260.86 279.245 262.16 277.641 262.16H254.997C253.393 262.16 252.093 260.86 252.093 259.256V257.418Z" fill="white"/>
<circle opacity="0.2" cx="375.386" cy="211.894" r="6.63882" transform="rotate(-180 375.386 211.894)" fill="white"/>
<circle opacity="0.2" cx="157.254" cy="258.366" r="6.63882" fill="white"/>
<circle opacity="0.2" cx="87.0709" cy="226.121" r="6.63882" fill="white"/>
<circle opacity="0.2" cx="132.595" cy="166.372" r="6.63882" transform="rotate(90 132.595 166.372)" fill="white"/>
<circle opacity="0.2" cx="215.102" cy="127.487" r="6.63882" transform="rotate(90 215.102 127.487)" fill="white"/>
<circle opacity="0.2" cx="235.975" cy="74.3766" r="6.63882" transform="rotate(90 235.975 74.3766)" fill="white"/>
<circle opacity="0.2" cx="287.188" cy="49.7179" r="6.63882" transform="rotate(90 287.188 49.7179)" fill="white"/>
<circle opacity="0.2" cx="414.27" cy="235.604" r="6.63882" transform="rotate(-180 414.27 235.604)" fill="white"/>
<circle opacity="0.2" cx="139.23" cy="298.199" r="6.63882" fill="white"/>
<circle opacity="0.2" r="6.63882" transform="matrix(-1 0 0 1 393.409 289.664)" fill="white"/>
<circle opacity="0.2" r="6.63882" transform="matrix(-1 0 0 1 391.507 150.249)" fill="white"/>
<circle opacity="0.2" r="6.63882" transform="matrix(-1 0 0 1 166.739 107.57)" fill="white"/>
<circle opacity="0.2" r="6.63882" transform="matrix(-1 0 0 1 419.705 320.519)" fill="white"/>
<circle opacity="0.2" cx="231.229" cy="320.013" r="6.63882" fill="white"/>
<circle opacity="0.2" cx="264.427" cy="350.361" r="6.63882" fill="white"/>
<circle cx="375.383" cy="211.895" r="2.84521" transform="rotate(-180 375.383 211.895)" fill="white"/>
<circle cx="157.253" cy="258.366" r="2.84521" fill="white"/>
<circle cx="87.0653" cy="226.12" r="2.84521" fill="white"/>
<circle cx="132.596" cy="166.372" r="2.84521" transform="rotate(90 132.596 166.372)" fill="white"/>
<circle cx="215.108" cy="127.487" r="2.84521" transform="rotate(90 215.108 127.487)" fill="white"/>
<circle cx="235.968" cy="74.3765" r="2.84521" transform="rotate(90 235.968 74.3765)" fill="white"/>
<circle cx="287.185" cy="49.7178" r="2.84521" transform="rotate(90 287.185 49.7178)" fill="white"/>
<circle cx="414.271" cy="235.605" r="2.84521" transform="rotate(-180 414.271 235.605)" fill="white"/>
<circle cx="139.229" cy="298.199" r="2.84521" fill="white"/>
<circle r="2.84521" transform="matrix(-1 0 0 1 393.406 289.664)" fill="white"/>
<circle r="2.84521" transform="matrix(-1 0 0 1 391.508 150.249)" fill="white"/>
<circle r="2.84521" transform="matrix(-1 0 0 1 166.736 107.57)" fill="white"/>
<circle r="2.84521" transform="matrix(-1 0 0 1 419.71 320.519)" fill="white"/>
<circle cx="231.224" cy="320.013" r="2.84521" fill="white"/>
<circle cx="264.421" cy="350.361" r="2.84521" fill="white"/>
<path opacity="0.2" d="M372.192 302.064C380.372 302.842 386.766 309.733 386.766 318.116C386.766 327.02 379.55 334.238 370.644 334.238H326.069C314.547 334.238 305.204 324.897 305.204 313.374C305.204 301.85 314.547 292.509 326.069 292.509H326.369C330.859 285.655 338.602 281.128 347.408 281.128C359.859 281.128 370.195 290.181 372.192 302.064Z" fill="white"/>
<path opacity="0.2" d="M123.592 210.325C116.934 210.937 111.729 216.351 111.729 222.937C111.729 229.933 117.603 235.605 124.853 235.605H161.135C170.513 235.605 178.118 228.266 178.118 219.211C178.118 210.157 170.513 202.818 161.135 202.818H160.89C157.236 197.433 150.933 193.875 143.766 193.875C133.631 193.875 125.217 200.989 123.592 210.325Z" fill="white"/>
<path opacity="0.2" d="M265.107 112.01C256.737 112.774 250.194 119.542 250.194 127.775C250.194 136.52 257.578 143.61 266.691 143.61H312.303C324.093 143.61 333.653 134.435 333.653 123.118C333.653 111.8 324.093 102.625 312.303 102.625H311.996C307.401 95.8941 299.479 91.4478 290.468 91.4478C277.727 91.4478 267.15 100.339 265.107 112.01Z" fill="white"/>
<rect opacity="0.2" x="203.338" y="171.806" width="127.417" height="85.6961" fill="white"/>
<rect opacity="0.1" x="217.001" y="180.598" width="99.5823" height="69.2334" fill="white"/>
<path d="M282.967 219.43L279.746 216.976C279.787 216.597 279.822 216.155 279.822 215.687C279.822 215.219 279.789 214.777 279.746 214.398L282.969 211.943C283.568 211.482 283.731 210.664 283.35 209.982L280.002 204.336C279.644 203.699 278.86 203.372 278.065 203.657L274.265 205.144C273.537 204.632 272.773 204.199 271.983 203.854L271.405 199.926C271.31 199.181 270.645 198.617 269.858 198.617H263.143C262.356 198.617 261.692 199.181 261.599 199.915L261.019 203.857C260.254 204.192 259.502 204.619 258.742 205.147L254.932 203.656C254.218 203.387 253.364 203.689 253.009 204.323L249.656 209.977C249.261 210.628 249.424 211.475 250.036 211.947L253.256 214.401C253.205 214.88 253.18 215.297 253.18 215.689C253.18 216.08 253.205 216.497 253.256 216.977L250.033 219.433C249.434 219.895 249.272 220.713 249.653 221.393L253.002 227.039C253.36 227.675 254.136 228.005 254.939 227.718L258.739 226.231C259.466 226.742 260.229 227.175 261.019 227.522L261.597 231.448C261.692 232.196 262.356 232.76 263.145 232.76H269.859C270.646 232.76 271.312 232.196 271.405 231.462L271.985 227.522C272.75 227.185 273.5 226.759 274.262 226.23L278.072 227.721C278.256 227.79 278.447 227.826 278.644 227.826C279.211 227.826 279.732 227.524 279.994 227.055L283.358 221.379C283.731 220.713 283.568 219.895 282.967 219.43ZM266.501 221.379C263.28 221.379 260.661 218.827 260.661 215.688C260.661 212.55 263.28 209.998 266.501 209.998C269.721 209.998 272.34 212.55 272.34 215.688C272.34 218.827 269.721 221.379 266.501 221.379Z" fill="white"/>
<g opacity="0.1">
<circle cx="3" cy="3" r="3" fill="white"/>
<circle cx="3" cy="25" r="3" fill="white"/>
<circle cx="3" cy="47" r="3" fill="white"/>
<circle cx="3" cy="69" r="3" fill="white"/>
<circle cx="25" cy="3" r="3" fill="white"/>
<circle cx="25" cy="25" r="3" fill="white"/>
<circle cx="25" cy="47" r="3" fill="white"/>
<circle cx="25" cy="69" r="3" fill="white"/>
<circle cx="47" cy="3" r="3" fill="white"/>
<circle cx="47" cy="25" r="3" fill="white"/>
<circle cx="47" cy="47" r="3" fill="white"/>
<circle cx="47" cy="69" r="3" fill="white"/>
<circle cx="69" cy="3" r="3" fill="white"/>
<circle cx="69" cy="25" r="3" fill="white"/>
<circle cx="69" cy="47" r="3" fill="white"/>
<circle cx="69" cy="69" r="3" fill="white"/>
</g>
<g opacity="0.1">
<circle cx="479" cy="322" r="3" fill="white"/>
<circle cx="479" cy="344" r="3" fill="white"/>
<circle cx="479" cy="366" r="3" fill="white"/>
<circle cx="479" cy="388" r="3" fill="white"/>
<circle cx="501" cy="322" r="3" fill="white"/>
<circle cx="501" cy="344" r="3" fill="white"/>
<circle cx="501" cy="366" r="3" fill="white"/>
<circle cx="501" cy="388" r="3" fill="white"/>
<circle cx="523" cy="322" r="3" fill="white"/>
<circle cx="523" cy="344" r="3" fill="white"/>
<circle cx="523" cy="366" r="3" fill="white"/>
<circle cx="523" cy="388" r="3" fill="white"/>
<circle cx="545" cy="322" r="3" fill="white"/>
<circle cx="545" cy="344" r="3" fill="white"/>
<circle cx="545" cy="366" r="3" fill="white"/>
<circle cx="545" cy="388" r="3" fill="white"/>
</g>
</svg>
