<svg width="349" height="181" viewBox="0 0 349 181" fill="none" xmlns="http://www.w3.org/2000/svg">
<path opacity="0.3" d="M103.242 158.373C114.315 157.814 128.444 157.922 136.728 158.138C134.43 156.02 131.459 154.62 128.407 153.72C120.036 151.251 108.268 156.665 103.674 149.245C93.358 137.624 79.8103 142.526 74.326 146.429C70.6435 150.602 64.0204 145.167 58.4555 145.064C54.4255 144.989 51.1235 147.015 48.779 149.397C46.5227 151.689 43.6904 153.537 40.7063 154.737C38.0971 155.786 36.1053 157.259 35.1948 158.138H49.652C57.6466 158.138 65.3063 160.156 73.288 160.611C83.1259 161.172 93.4008 158.87 103.242 158.373Z" fill="white"/>
<path opacity="0.1" d="M69.2858 6.06032C75.9576 -0.799456 84.5594 -0.665525 90.1783 0.841192C92.7235 1.5237 95.0174 2.97775 96.6064 5.07996C98.0797 7.02923 99.3602 9.38889 100.432 11.7885C103.286 18.1788 100.841 26.428 100.813 33.4266C100.794 38.2784 103.822 41.7891 106.352 45.9286C107.245 47.3888 107.894 48.8487 108.354 50.2513C110.193 55.8622 106.415 61.4135 105.354 67.222C105.116 68.5263 104.984 69.8472 104.93 71.1324C104.698 76.6548 107.295 81.7542 109.29 86.9087C113.296 97.2568 112.716 106.675 111.678 110.707C109.306 131.814 87.2702 134.719 76.5487 133.533C65.9338 131.343 59.2472 126.74 55.1925 121.396C45.431 108.532 63.7893 91.22 58.7615 75.8739C58.3121 74.6929 57.9192 73.547 57.5777 72.4373C53.2495 58.3748 66.6807 44.3616 62.6157 30.2208C59.2954 18.1257 65.679 9.07419 69.2858 6.06032Z" fill="white"/>
<path opacity="0.1" d="M305.799 13.3064C312.471 6.44664 321.073 6.58057 326.692 8.08729C329.237 8.76979 331.531 10.2238 333.12 12.3261C334.593 14.2753 335.874 16.635 336.946 19.0346C339.8 25.4249 337.354 33.6741 337.327 40.6727C337.308 45.5245 340.335 49.0352 342.866 53.1747C343.758 54.6349 344.408 56.0948 344.867 57.4974C346.706 63.1083 342.928 68.6596 341.868 74.4681C341.629 75.7723 341.497 77.0933 341.443 78.3785C341.211 83.9008 343.808 89.0003 345.803 94.1548C349.809 104.503 349.229 113.921 348.191 117.953C345.82 139.06 323.784 141.965 313.062 140.779C302.447 138.59 295.761 133.986 291.706 128.642C281.945 115.778 300.303 98.4661 295.275 83.12C294.826 81.939 294.433 80.7931 294.091 79.6834C289.763 65.6209 303.194 51.6077 299.129 37.4669C295.809 25.3718 302.193 16.3203 305.799 13.3064Z" fill="white"/>
<path d="M82.921 81.5066L94.0378 67.4253" stroke="white"/>
<path d="M319.437 88.7522L330.554 74.6709" stroke="white"/>
<path d="M71.8065 114.857L82.9233 128.938" stroke="white"/>
<path d="M308.32 122.103L319.437 136.184" stroke="white"/>
<path d="M82.921 111.448L94.0378 97.3662" stroke="white"/>
<path d="M319.437 118.694L330.554 104.612" stroke="white"/>
<path d="M71.8065 84.9158L82.9233 98.9971" stroke="white"/>
<path d="M308.32 92.1614L319.437 106.243" stroke="white"/>
<path d="M70.175 50.083L82.9223 65.943V141.537" stroke="white"/>
<path d="M306.689 57.3291L319.436 73.1891V158.88" stroke="white"/>
<path opacity="0.1" d="M8.6613 88.4728C18.5607 70.4454 33.5348 78.0354 42.1163 86.1759C44.332 88.2777 46.2064 91.2384 46.6972 94.2527C47.4489 98.8695 45.747 103.086 45.2796 107.74C44.6564 113.946 46.7352 119.032 48.2377 121.23C55.5896 130.954 51.301 142.575 48.2377 147.17C36.7355 165.312 19.3338 160.362 12.0708 155.618C-3.34453 142.693 -0.775314 130.569 2.43621 126.122C8.72092 116.398 8.11792 107.149 7.03083 103.74C4.42209 97.0995 7.03083 90.795 8.6613 88.4728Z" fill="white"/>
<path d="M26.1511 138.276L39.4913 124.936" stroke="white"/>
<path opacity="0.1" d="M241.439 56.5466C251.338 38.5192 266.313 46.1092 274.894 54.2496C277.11 56.3514 278.984 59.3122 279.475 62.3264C280.227 66.9432 278.525 71.1594 278.057 75.8135C277.434 82.0197 279.513 87.1053 281.015 89.3041C288.367 99.0276 284.079 110.648 281.015 115.243C269.513 133.386 252.112 128.435 244.848 123.692C229.433 110.767 232.002 98.6423 235.214 94.1955C241.499 84.472 240.896 75.2228 239.809 71.8137C237.2 65.1732 239.809 58.8687 241.439 56.5466Z" fill="white"/>
<path d="M258.929 106.35L272.269 93.0098" stroke="white"/>
<path d="M26.3017 153.247L15.0366 141.982" stroke="white"/>
<path d="M259.077 121.321L247.812 110.056" stroke="white"/>
<path d="M15.184 111.448L26.1526 125.974V180.076" stroke="white"/>
<path d="M247.962 79.5215L258.93 94.0475V148.149" stroke="white"/>
<path opacity="0.4" d="M211.135 159.324C201.411 155.53 195.226 160.312 193.348 163.178L302.589 164.216C301.996 163.267 298.093 162.042 296.216 161.548C291.117 156.33 283.715 157.298 280.652 158.435C274.842 160.332 271.413 157.644 270.425 156.063C266.197 150.902 261.36 148.507 256.905 147.65C248.803 146.091 241.35 158.205 234.258 153.988C223.111 145.925 214.198 154.186 211.135 159.324Z" fill="white"/>
<path d="M163.26 156.063C158.754 155.47 156.244 158.484 155.552 160.065L247.303 161.548H254.649C252.853 154.362 245.249 148.311 237.884 149.104C236.276 149.277 235.016 149.784 234.259 150.283C228.33 152.417 224.477 150.283 223.291 148.949C214.634 138.869 205.652 144.749 202.243 148.949C199.99 150.372 197.154 149.541 196.017 148.949C192.46 145.51 187.519 147.516 185.494 148.949C175.651 143.257 172.4 148.059 172.005 151.172C165.72 150.223 163.556 154.038 163.26 156.063Z" fill="#82B3F4"/>
</svg>
