<svg width="170" height="170" viewBox="0 0 170 170" fill="none" xmlns="http://www.w3.org/2000/svg">
<rect x="36.2618" y="0.612372" width="137.738" height="137.738" rx="7.5" transform="rotate(15 36.2618 0.612372)" stroke="#DEEFFF"/>
<path d="M72.9206 93.4192C70.321 92.7227 68.4915 90.3011 68.3707 87.3933L68.3681 87.176C68.3604 86.4125 68.4376 85.7928 68.5977 85.195L71.8095 73.2086L64.0555 86.3896C62.9878 88.3478 63.5606 90.8281 65.3427 91.9256L88.5011 105.934C88.791 106.106 89.093 106.232 89.4017 106.314C91.0188 106.748 92.8079 105.982 93.681 104.38L96.4934 99.7355L72.9206 93.4192Z" fill="#5CB1FF"/>
<path d="M82.3124 76.0244C84.4258 76.5907 86.5421 75.566 87.0314 73.7398C87.5207 71.9136 86.2003 69.9681 84.0869 69.4018C81.9736 68.8355 79.8569 69.8601 79.3676 71.6863C78.8783 73.5125 80.1991 75.4581 82.3124 76.0244Z" fill="#5CB1FF"/>
<path d="M105.343 69.7732L82.3513 63.6127C80.2394 63.0468 77.9906 64.5598 77.3411 66.9839L72.1563 86.3337C71.5068 88.7579 72.6978 91.1925 74.8097 91.7584L97.801 97.9189C99.9132 98.4849 102.162 96.9719 102.811 94.5477L107.996 75.1979C108.646 72.7738 107.455 70.3391 105.343 69.7732ZM81.4086 67.131L104.4 73.2915C104.823 73.4049 105.061 73.8908 104.931 74.3765L101.585 86.8643L98.4801 79.0827C98.1517 78.2539 97.5073 77.6852 96.7144 77.4503C95.9191 77.2428 95.0658 77.4477 94.3693 78.0116L86.5753 84.3281L85.2897 81.7079C84.5638 80.224 82.8577 79.7668 81.4885 80.6894L75.9577 84.4092L80.4067 67.8053C80.5369 67.3196 80.9856 67.0176 81.4086 67.131Z" fill="#5CB1FF"/>
<rect x="0.612372" y="36.2618" width="137.738" height="137.738" rx="7.5" transform="rotate(-15 0.612372 36.2618)" stroke="#DEEFFF"/>
<path d="M78.7647 98.3033C76.1652 98.9998 73.37 97.8174 71.8115 95.3596L71.7005 95.1727C71.3122 94.5153 71.0691 93.9401 70.909 93.3423L67.6972 81.3559L67.5726 96.648C67.627 98.8777 69.3632 100.739 71.4553 100.799L98.5152 101.351C98.8521 101.355 99.1768 101.313 99.4854 101.23C101.103 100.797 102.269 99.239 102.224 97.4155L102.338 91.987L78.7647 98.3033Z" fill="#5CB1FF"/>
<path d="M78.2003 78.545C80.3137 77.9787 81.6341 76.0332 81.1448 74.207C80.6555 72.3808 78.5392 71.3561 76.4258 71.9224C74.3124 72.4887 72.9917 74.4343 73.481 76.2605C73.9703 78.0867 76.087 79.1113 78.2003 78.545Z" fill="#5CB1FF"/>
<path d="M95.0203 61.6175L72.0291 67.778C69.9171 68.3439 68.7262 70.7785 69.3757 73.2026L74.5605 92.5525C75.21 94.9766 77.4588 96.4896 79.5707 95.9237L102.562 89.7632C104.674 89.1972 105.865 86.7626 105.216 84.3385L100.031 64.9886C99.3813 62.5645 97.1325 61.0515 95.0203 61.6175ZM72.9718 71.2963L95.9631 65.1358C96.3863 65.0224 96.8351 65.3243 96.9652 65.81L100.311 78.2979L93.732 73.111C93.0332 72.5574 92.1908 72.3872 91.3867 72.5802C90.5941 72.7981 89.9576 73.4022 89.6364 74.2388L86.0448 83.6061L83.6213 81.9797C82.2507 81.0575 80.5446 81.5147 79.8202 82.9982L76.8903 88.9852L72.4413 72.3812C72.3111 71.8955 72.5488 71.4096 72.9718 71.2963Z" fill="#5CB1FF"/>
<rect x="15.6084" y="15.6094" width="138.738" height="138.738" rx="8" fill="#EFF7FF"/>
<path d="M85.0351 108.881C105.551 102.76 104.525 86.2262 104.525 81.4325V68.2673L85.0351 60.332L65.5449 68.2673V81.4325C65.5356 86.2262 64.5147 102.76 85.0351 108.881Z" fill="#5CB1FF"/>
<path d="M89.5519 83.2325C89.5519 83.0909 89.4955 82.9307 89.3858 82.8031L86.154 79.0705C86.0177 78.913 85.8281 78.834 85.6365 78.834C85.1814 78.834 81.968 78.834 81.5106 78.834C81.1323 78.834 80.8262 79.1403 80.8262 79.5184V89.6741C80.8262 90.0524 81.1323 90.3585 81.5106 90.3585H88.8683C89.2466 90.3585 89.5527 90.0524 89.5527 89.6741C89.5527 89.6643 89.5531 83.2423 89.5519 83.2325ZM88.1839 88.9897H82.195V80.203H84.9523V83.2509C84.9523 83.629 85.2584 83.9351 85.6365 83.9351H88.1839V88.9897ZM87.3699 82.5665H86.3209V81.3551L87.3699 82.5665Z" fill="white"/>
<path d="M94.936 83.7437H93.2576L93.7318 83.2695C94.3724 82.6287 93.403 81.6622 92.764 82.3016L91.1861 83.8793C90.8415 84.1357 90.8212 84.6347 91.11 84.9234L92.7411 86.5546C92.8747 86.6883 93.0498 86.7551 93.2249 86.7551C93.8293 86.7551 94.1414 86.0192 93.709 85.5867L93.2347 85.1125H94.936C95.8404 85.1125 95.8414 83.7437 94.936 83.7437Z" fill="white"/>
<path d="M79.2684 83.9327L77.6373 82.3016C76.9979 81.6621 76.0292 82.6294 76.6694 83.2695L77.1437 83.7437H75.4422C74.538 83.7437 74.537 85.1125 75.4422 85.1125H77.1208L76.6466 85.5867C75.995 86.2385 76.9881 87.1812 77.6144 86.5547L79.1921 84.9771C79.5369 84.7204 79.5571 84.2215 79.2684 83.9327Z" fill="white"/>
<path d="M84.7476 77.7604C85.0025 78.1032 85.5019 78.1267 85.7917 77.8368L87.423 76.2056C88.0636 75.5649 87.0942 74.5984 86.455 75.2376L85.9808 75.7118V74.0106C85.9808 73.1064 84.6121 73.1053 84.6121 74.0106V75.6892L84.1377 75.2149C83.4984 74.5754 82.5298 75.5427 83.1699 76.1828L84.7476 77.7604Z" fill="white"/>
<path d="M85.8445 91.4334C85.5886 91.0893 85.0896 91.0677 84.8004 91.3571L83.1691 92.9882C82.5285 93.629 83.4979 94.5953 84.1371 93.956L84.6113 93.4818V95.1832C84.6113 96.0875 85.9801 96.0885 85.9801 95.1832V93.5047L86.4544 93.9789C87.0937 94.6183 88.0626 93.6513 87.4222 93.0111L85.8445 91.4334Z" fill="white"/>
<path d="M85.0683 110.451L84.6692 110.331C63.9956 104.182 64.1256 87.6387 64.172 82.2046C64.172 81.9726 64.172 81.7405 64.172 81.5642V67.4616L85.0543 58.9648L105.937 67.4616V81.5642C105.937 81.7591 105.937 81.9726 105.937 82.2046C105.978 87.6387 106.113 104.182 85.4395 110.349L85.0683 110.451ZM66.9702 69.3179V81.5642C66.9702 81.7638 66.9702 81.9865 66.9702 82.2278C66.9238 87.6247 66.8124 101.904 85.0683 107.56C103.338 101.904 103.222 87.6062 103.166 82.2278C103.166 81.9865 103.166 81.7638 103.166 81.5642V69.3364L85.0683 61.9673L66.9702 69.3179Z" fill="#87CCFF"/>
</svg>
