<svg width="170" height="170" viewBox="0 0 170 170" fill="none" xmlns="http://www.w3.org/2000/svg">
<rect x="36.2618" y="0.612372" width="137.738" height="137.738" rx="7.5" transform="rotate(15 36.2618 0.612372)" stroke="#E5DEF8"/>
<path d="M72.9215 93.4192C70.322 92.7227 68.4925 90.3011 68.3717 87.3933L68.3691 87.176C68.3614 86.4125 68.4386 85.7928 68.5987 85.195L71.8105 73.2086L64.0565 86.3896C62.9888 88.3478 63.5616 90.8281 65.3437 91.9256L88.5021 105.934C88.7919 106.106 89.094 106.232 89.4027 106.314C91.0198 106.748 92.8089 105.982 93.682 104.38L96.4944 99.7355L72.9215 93.4192Z" fill="#5CB1FF"/>
<path d="M82.3134 76.0244C84.4268 76.5907 86.5431 75.566 87.0324 73.7398C87.5217 71.9136 86.2013 69.9681 84.0879 69.4018C81.9746 68.8355 79.8579 69.8601 79.3686 71.6863C78.8793 73.5125 80.2 75.4581 82.3134 76.0244Z" fill="#5CB1FF"/>
<path d="M105.344 69.7732L82.3523 63.6127C80.2404 63.0468 77.9916 64.5598 77.3421 66.9839L72.1573 86.3337C71.5078 88.7579 72.6987 91.1925 74.8107 91.7584L97.8019 97.9189C99.9142 98.4849 102.163 96.9719 102.812 94.5477L107.997 75.1979C108.647 72.7738 107.456 70.3391 105.344 69.7732ZM81.4096 67.131L104.401 73.2915C104.824 73.4049 105.062 73.8908 104.932 74.3765L101.586 86.8643L98.4811 79.0827C98.1527 78.2539 97.5082 77.6852 96.7154 77.4503C95.92 77.2428 95.0668 77.4477 94.3703 78.0116L86.5763 84.3281L85.2906 81.7079C84.5648 80.224 82.8586 79.7668 81.4894 80.6894L75.9587 84.4092L80.4077 67.8053C80.5378 67.3196 80.9866 67.0176 81.4096 67.131Z" fill="#5CB1FF"/>
<rect x="0.612372" y="36.2618" width="137.738" height="137.738" rx="7.5" transform="rotate(-15 0.612372 36.2618)" stroke="#E5DEF8"/>
<path d="M78.7647 98.3033C76.1652 98.9998 73.37 97.8174 71.8115 95.3596L71.7005 95.1727C71.3122 94.5153 71.0691 93.9401 70.909 93.3423L67.6972 81.3559L67.5726 96.648C67.627 98.8777 69.3632 100.739 71.4553 100.799L98.5152 101.351C98.8521 101.355 99.1768 101.313 99.4854 101.23C101.103 100.797 102.269 99.239 102.224 97.4155L102.338 91.987L78.7647 98.3033Z" fill="#5CB1FF"/>
<path d="M78.2003 78.545C80.3137 77.9787 81.6341 76.0332 81.1448 74.207C80.6555 72.3808 78.5392 71.3561 76.4258 71.9224C74.3124 72.4887 72.9917 74.4343 73.481 76.2605C73.9703 78.0867 76.087 79.1113 78.2003 78.545Z" fill="#5CB1FF"/>
<path d="M95.0203 61.6175L72.0291 67.778C69.9171 68.3439 68.7262 70.7785 69.3757 73.2026L74.5605 92.5525C75.21 94.9766 77.4588 96.4896 79.5707 95.9237L102.562 89.7632C104.674 89.1972 105.865 86.7626 105.216 84.3385L100.031 64.9886C99.3813 62.5645 97.1325 61.0515 95.0203 61.6175ZM72.9718 71.2963L95.9631 65.1358C96.3863 65.0224 96.8351 65.3243 96.9652 65.81L100.311 78.2979L93.732 73.111C93.0332 72.5574 92.1908 72.3872 91.3867 72.5802C90.5941 72.7981 89.9576 73.4022 89.6364 74.2388L86.0448 83.6061L83.6213 81.9797C82.2507 81.0575 80.5446 81.5147 79.8202 82.9982L76.8903 88.9852L72.4413 72.3812C72.3111 71.8955 72.5488 71.4096 72.9718 71.2963Z" fill="#5CB1FF"/>
<rect x="15.6084" y="15.6094" width="138.738" height="138.738" rx="8" fill="#F7F3FF"/>
<path d="M85.0367 108.885C105.554 102.764 104.529 86.2283 104.529 81.4343V68.268L85.0367 60.332L65.5449 68.268V81.4343C65.5356 86.2283 64.5146 102.764 85.0367 108.885Z" fill="#7F60CC"/>
<path d="M86.4362 77.1797C82.31 77.1797 78.9643 80.5254 78.9643 84.6516H76.4736L79.7945 87.9725L83.1154 84.6516H80.6247C80.6247 81.4429 83.2274 78.8401 86.4362 78.8401C89.645 78.8401 92.2477 81.4429 92.2477 84.6516C92.2477 87.8604 89.645 90.4631 86.4362 90.4631C85.1784 90.4631 84.0203 90.0604 83.0655 89.3797L81.8908 90.5711C83.1527 91.5424 84.726 92.1235 86.4362 92.1235C90.5624 92.1235 93.9081 88.7778 93.9081 84.6516C93.9081 80.5254 90.5624 77.1797 86.4362 77.1797Z" fill="white"/>
<path d="M88.0963 84.6526C88.0963 83.7353 87.3532 82.9922 86.4358 82.9922C85.5184 82.9922 84.7754 83.7353 84.7754 84.6526C84.7754 85.57 85.5184 86.3131 86.4358 86.3131C87.3532 86.3131 88.0963 85.57 88.0963 84.6526Z" fill="white"/>
<path d="M85.069 110.456L84.6699 110.335C63.9946 104.186 64.1246 87.641 64.171 82.2065C64.171 81.9745 64.171 81.7424 64.171 81.5661V67.4624L85.0551 58.9648L105.939 67.4624V81.5661C105.939 81.761 105.939 81.9745 105.939 82.2065C105.981 87.641 106.116 104.186 85.4403 110.354L85.069 110.456ZM66.9695 69.3187V81.5661C66.9695 81.7656 66.9695 81.9884 66.9695 82.2297C66.9231 87.6271 66.8117 101.907 85.069 107.564C103.34 101.907 103.224 87.6085 103.169 82.2297C103.169 81.9884 103.169 81.7656 103.169 81.5661V69.3373L85.069 61.9675L66.9695 69.3187Z" fill="#A38CDC"/>
</svg>
