<svg width="51" height="46" viewBox="0 0 51 46" fill="none" xmlns="http://www.w3.org/2000/svg">
<rect x="0.5" y="11.4341" width="49.4902" height="34.0174" rx="5.5" fill="white" stroke="#EFF7FF"/>
<path d="M43.2206 19.4967L42.36 18.158C42.5571 17.7695 42.7243 17.3655 42.8595 16.9506L44.4153 16.6124C44.6932 16.5519 44.8915 16.3059 44.8915 16.0216L44.8915 12.5952C44.8915 12.3109 44.6932 12.0648 44.4153 12.0044L42.8595 11.6662C42.7243 11.2512 42.5571 10.8472 42.36 10.4588L43.2206 9.12002C43.3744 8.88084 43.3406 8.56667 43.1395 8.36559L40.7167 5.9428C40.5156 5.74172 40.2015 5.70787 39.9623 5.86169L38.6235 6.72234C38.2351 6.52519 37.8311 6.35806 37.4161 6.2228L37.0779 4.66699C37.0175 4.38906 36.7714 4.19082 36.4872 4.19082L33.0607 4.19082C32.7764 4.19082 32.5304 4.38906 32.4699 4.66699L32.1317 6.2228C31.7168 6.35806 31.3128 6.52519 30.9244 6.72234L29.5856 5.86169C29.3463 5.70798 29.0322 5.74171 28.8311 5.9428L26.4083 8.36559C26.2073 8.56667 26.1735 8.88073 26.3272 9.12002L27.1879 10.4588C26.9907 10.8472 26.8236 11.2512 26.6883 11.6662L25.1325 12.0044C24.8546 12.0648 24.6564 12.3109 24.6564 12.5952L24.6564 16.0216C24.6564 16.3059 24.8546 16.5519 25.1325 16.6124L26.6883 16.9506C26.8236 17.3655 26.9907 17.7695 27.1879 18.158L26.3272 19.4967C26.1734 19.7359 26.2073 20.0501 26.4083 20.2512L28.8311 22.674C29.0322 22.8751 29.3464 22.9089 29.5856 22.7551L30.9244 21.8944C31.3128 22.0916 31.7168 22.2587 32.1317 22.394L32.4699 23.9498C32.5304 24.2277 32.7763 24.4261 33.0607 24.426L36.4872 24.426C36.7714 24.426 37.0175 24.2277 37.0779 23.9498L37.4161 22.394C37.8311 22.2587 38.2351 22.0916 38.6235 21.8944L39.9623 22.7551C40.2016 22.9088 40.5156 22.8751 40.7167 22.674L43.1395 20.2512C43.3406 20.0501 43.3743 19.736 43.2206 19.4967ZM37.3392 16.8736C35.9247 18.2881 33.6231 18.2881 32.2087 16.8736C30.7942 15.4592 30.7942 13.1576 32.2087 11.7431C33.6231 10.3287 35.9247 10.3287 37.3392 11.7431C38.7536 13.1576 38.7536 15.4592 37.3392 16.8736Z" fill="#5498F9"/>
<circle cx="3.648" cy="13.6377" r="0.553764" fill="#5498F9"/>
<circle cx="5.86236" cy="13.6377" r="0.553764" fill="#5498F9"/>
<circle cx="8.0772" cy="13.6377" r="0.553764" fill="#5498F9"/>
<rect x="3.25781" y="16.2278" width="18.7302" height="26.4667" rx="4" fill="#EFF7FF"/>
<rect x="5.69922" y="34.5508" width="13.8441" height="3.25743" rx="1.62872" fill="#5498F9"/>
<rect x="24.0227" y="29.1433" width="23.2092" height="10.1795" rx="4" fill="#EFF7FF"/>
<rect x="25.6516" y="33.6211" width="19.1374" height="0.407179" rx="0.20359" fill="#DDEAFE"/>
<rect x="25.6516" y="35.6589" width="19.1374" height="0.407179" rx="0.20359" fill="#DDEAFE"/>
<rect x="25.6516" y="30.7722" width="7.32923" height="0.814358" rx="0.407179" fill="#DDEAFE"/>
<rect x="33.7959" y="30.7722" width="3.66461" height="0.814358" rx="0.407179" fill="#DDEAFE"/>
<rect x="5.69922" y="20.707" width="13.8441" height="12.2154" rx="4" fill="#DDEAFE"/>
</svg>
