<svg xmlns="http://www.w3.org/2000/svg" xmlns:xlink="http://www.w3.org/1999/xlink" viewBox="0 0 1144 652.52"><defs><style>.a,.b,.c,.d,.e{fill:#5093f7;}.a,.k,.m,.n{opacity:0.1;}.a,.b,.d,.e,.k,.n,.o,.p{isolation:isolate;}.b{opacity:0.5;}.d{opacity:0.2;}.e{opacity:0.3;}.f{opacity:0.8;}.g{fill:url(#a);}.h{fill:#be6f72;}.i{fill:#3f3d56;}.j{fill:#65617d;}.l{fill:#e3e8f4;}.n,.v{fill:#fff;}.o{fill:#ffe1df;opacity:0.04;}.p{fill:#001e91;opacity:0.2;}.q{fill:url(#b);}.r{fill:#f86d70;}.s{fill:#fbbebe;}.t{fill:#444053;}.u{fill:#e8e8f0;}.w{opacity:0.6;}</style><linearGradient id="a" x1="836.52" y1="23.38" x2="836.52" y2="425.74" gradientTransform="matrix(1, 0, 0, -1, -28, 528.26)" gradientUnits="userSpaceOnUse"><stop offset="0" stop-color="gray" stop-opacity="0.25"/><stop offset="0.54" stop-color="gray" stop-opacity="0.12"/><stop offset="1" stop-color="gray" stop-opacity="0.1"/></linearGradient><linearGradient id="b" x1="178.58" y1="116.66" x2="400.85" y2="116.66" xlink:href="#a"/></defs><title>wpc-fireworks</title><path class="a" d="M1146,430.15a180,180,0,0,0-76-147.42,186.85,186.85,0,0,0,1-18.77c0-99.14-79.27-179.48-177-179.48A174.28,174.28,0,0,0,808.07,107c-69.2-45.54-159.53-73.1-258.35-73.1-160.74,0-299.1,73-360.46,177.56-3.41-.2-6.84-.31-10.3-.31-97.74,0-177,80.37-177,179.51a180.52,180.52,0,0,0,29.12,98.67h0c0,89.2,84.19,161.51,188,161.51H972.22c81.54,0,147.64-56.78,147.64-126.82h0A180.57,180.57,0,0,0,1146,430.15Z"/><path class="b" d="M385.82,47.24c-2.28-3.12-7,.25-4.86,3.46.56.84,1.16,1.65,1.74,2.43,7,9.46,10.65,20.95,13.77,32.31.77,2.78,1.51,5.76.63,8.52a53.47,53.47,0,0,0-1.46-22.24,136.89,136.89,0,0,0-7.87-21A18.49,18.49,0,0,0,385.82,47.24Z"/><path class="c" d="M340.34,67.14c-4.73-.15-5.33,7-.62,7.4,1.25.1,2.5.13,3.67.16,14.48.39,28.17,5.62,41.32,11.29,3.23,1.39,6.62,3,8.51,5.91C387.29,85,379.49,80,371.17,76.3s-17.15-6.15-26-8.42A22.58,22.58,0,0,0,340.34,67.14Z"/><path class="d" d="M341.64,84.77c-3,.11-2.31,4.37.7,4.37.79,0,1.57,0,2.32-.07,9.13-.36,18.49,2.16,27.56,4.93,2.23.68,4.58,1.45,6.2,3.12a49.69,49.69,0,0,0-16.11-8.27A122.54,122.54,0,0,0,344.78,85,15.75,15.75,0,0,0,341.64,84.77Z"/><path class="b" d="M402.75,163.66c.85,2.87,4.79,1.16,4.07-1.76-.19-.76-.41-1.52-.62-2.23-2.63-8.74-2.5-18.44-2.07-27.92.11-2.32.27-4.8,1.48-6.78a50.1,50.1,0,0,0-4,17.65,120.64,120.64,0,0,0,.63,17.95A16.22,16.22,0,0,0,402.75,163.66Z"/><path class="d" d="M347.08,43.26c-1.79-.32-1.93,2.3-.13,2.7.46.1.94.18,1.39.26,5.5.94,10.76,3.63,15.83,6.44a8.64,8.64,0,0,1,3.31,2.65,30.36,30.36,0,0,0-8.57-7,75.47,75.47,0,0,0-10-4.53A9.64,9.64,0,0,0,347.08,43.26Z"/><path class="c" d="M319.33,112.65c-4.56,2.35-.7,8.79,4,6.65,1.25-.56,2.42-1.18,3.57-1.78,13.93-7.22,30.12-9.89,46.05-11.94,3.9-.5,8.07-.94,11.68.62-9.85-2.77-20.34-3-30.48-1.82s-20,3.74-29.77,6.4A26.44,26.44,0,0,0,319.33,112.65Z"/><path class="b" d="M332.37,137.73c-3.27,3.06,1.85,6.67,5.28,3.75.9-.77,1.76-1.58,2.58-2.35,10-9.36,23.19-16,36.33-22.2,3.22-1.51,16.5-3.05,20-3-9.25.83-28.17,3.75-36.57,7.55a199.6,199.6,0,0,0-23.87,13.37A25.72,25.72,0,0,0,332.37,137.73Z"/><path class="c" d="M355.74,177.77c-1,4.37,5.3,4.44,6.46.07.31-1.15.55-2.3.79-3.39,2.88-13.4,9.95-26.4,17.27-38.92,1.8-3.08,11.86-11.9,14.81-13.84-7.15,5.94-21.06,19.07-25.81,27a202.79,202.79,0,0,0-12,24.57A25.39,25.39,0,0,0,355.74,177.77Z"/><path class="c" d="M402.81,24.07c-2.24-4.56-8.62-.82-6.59,3.85.53,1.25,1.13,2.42,1.69,3.56,6.86,13.9,9.24,30,11,45.8.43,3.87.8,8-.78,11.58,2.88-9.73,3.27-20.13,2.27-30.2s-3.35-19.87-5.83-29.59A26.08,26.08,0,0,0,402.81,24.07Z"/><path class="c" d="M367.25,31.81a.7.7,0,0,0,.38.11c.25,0,.42-.25.52-.47.56-1.21.24-2.79,1.1-3.8a12.71,12.71,0,0,1,2.08,3.49l3.28-1a4.89,4.89,0,0,1-.62,3.75,5.07,5.07,0,0,1,1.54,1.05,1.71,1.71,0,0,1,.4,1.73,7.79,7.79,0,0,1-2.31.23,15.58,15.58,0,0,1-.24,4.31.77.77,0,0,1-.29.54c-.24.16-.55,0-.79-.13a7.49,7.49,0,0,1-2.7-2.86l-1.22,2.91a1.28,1.28,0,0,1-.54.73.87.87,0,0,1-1-.35,2.52,2.52,0,0,1-.37-1.1L366,38.16a.51.51,0,0,0-.64-.53c-1.15,0-2.31-.05-3.46,0-.2-.63.41-1.19,1-1.44s1.3-.46,1.59-1c.63-1.17-1-2.8-.29-3.81C365,30.14,366.24,31.31,367.25,31.81Z"/><path class="b" d="M430.47,47.24c2.28-3.12,7,.25,4.86,3.46-.56.84-1.17,1.65-1.75,2.43-7,9.46-10.6,20.95-13.77,32.31-.77,2.78-1.51,5.76-.62,8.52a53.3,53.3,0,0,1,1.45-22.24,136.89,136.89,0,0,1,7.87-21A18.53,18.53,0,0,1,430.47,47.24Z"/><path class="c" d="M476,67.14c4.73-.15,5.33,7,.62,7.4-1.25.1-2.5.13-3.67.16-14.48.39-28.17,5.62-41.32,11.29-3.24,1.39-6.63,3-8.51,5.91C429,85,436.8,80,445.12,76.3s17.15-6.13,26-8.4A22.41,22.41,0,0,1,476,67.14Z"/><path class="b" d="M474.66,84.77c3,.11,2.32,4.37-.69,4.37-.79,0-1.58,0-2.32-.07-9.13-.36-18.49,2.16-27.56,4.93-2.23.68-4.58,1.45-6.2,3.12A49.49,49.49,0,0,1,454,88.85,122.54,122.54,0,0,1,471.53,85,15.6,15.6,0,0,1,474.66,84.77Z"/><path class="d" d="M469.2,43.26c1.8-.32,1.93,2.3.14,2.7-.46.1-.94.18-1.39.26-5.5.94-10.77,3.63-15.84,6.44a8.61,8.61,0,0,0-3.3,2.65,30.36,30.36,0,0,1,8.57-7,75.93,75.93,0,0,1,10-4.53A9.85,9.85,0,0,1,469.2,43.26Z"/><path class="d" d="M422.41,169.09c-.41,1.78-2.88.89-2.55-.91.08-.47.19-.94.29-1.39,1.25-5.44.8-11.34.17-17.09a8.61,8.61,0,0,0-1.18-4.07,30.09,30.09,0,0,1,3.12,10.6,74.27,74.27,0,0,1,.33,11A10.11,10.11,0,0,1,422.41,169.09Z"/><path class="b" d="M468.05,157.26c1.41,2.38-2.05,2.22-3.56-.16-.4-.63-.76-1.25-1.11-1.88-4.28-7.27-10.78-14.46-17.33-21.41a24,24,0,0,0-5.38-4.64,85.25,85.25,0,0,1,14.09,12c4.21,4.37,7.92,9,11.56,13.56A22.56,22.56,0,0,1,468.05,157.26Z"/><path class="d" d="M343.15,157.26c-1.4,2.38,2.05,2.22,3.56-.16.4-.63.77-1.25,1.12-1.88,4.27-7.27,10.78-14.46,17.33-21.41a24,24,0,0,1,5.38-4.64,85.32,85.32,0,0,0-14.1,12c-4.2,4.37-7.91,9-11.55,13.56A21.36,21.36,0,0,0,343.15,157.26Z"/><path class="d" d="M388.83,169.09c.4,1.78,2.87.89,2.55-.91-.09-.47-.2-.94-.3-1.39-1.25-5.44-.8-11.34-.16-17.09a8.59,8.59,0,0,1,1.16-4.07,30.73,30.73,0,0,0-3.12,10.6,77.11,77.11,0,0,0-.33,11A10.13,10.13,0,0,0,388.83,169.09Z"/><path class="d" d="M454.82,61.12c1.79-.31,1.93,2.31.13,2.71-.47.1-.94.18-1.39.26-5.5.94-10.76,3.63-15.83,6.44a8.64,8.64,0,0,0-3.31,2.65,30.26,30.26,0,0,1,8.57-7,74.7,74.7,0,0,1,10-4.54A10.88,10.88,0,0,1,454.82,61.12Z"/><path class="d" d="M438,26c1.55-1,2.65,1.42,1.14,2.46-.4.27-.81.52-1.2.76-4.75,2.93-8.63,7.39-12.28,11.89a8.69,8.69,0,0,0-2.07,3.7A30.22,30.22,0,0,1,429,35.2a75.74,75.74,0,0,1,7.57-7.94A10.47,10.47,0,0,1,438,26Z"/><path class="c" d="M497,112.65c4.56,2.35.7,8.79-4,6.65-1.25-.56-2.43-1.18-3.57-1.78-13.93-7.22-30.13-9.89-46.05-11.94-3.91-.5-8.07-.94-11.69.62,9.86-2.77,20.34-3,30.49-1.82s20,3.74,29.77,6.4A26.44,26.44,0,0,1,497,112.65Z"/><path class="b" d="M483.93,137.73c3.27,3.06-1.87,6.67-5.28,3.75-.9-.77-1.76-1.58-2.57-2.35-10-9.36-23.19-16-36.34-22.2-3.22-1.51-16.5-3.05-20.05-3,9.26.83,28.18,3.75,36.59,7.55a200.18,200.18,0,0,1,23.85,13.38A26.28,26.28,0,0,1,483.93,137.73Z"/><path class="c" d="M445.33,182.76c.4,4.47-5.82,3.75-6.42-.74-.16-1.17-.26-2.35-.36-3.46-1.18-13.65-6.57-27.46-12.26-40.78-1.39-3.27-10.26-13.28-13-15.6,6.35,6.79,18.51,21.56,22.23,30a202.18,202.18,0,0,1,8.84,25.89A26.74,26.74,0,0,1,445.33,182.76Z"/><path class="c" d="M449.07,31.81a.73.73,0,0,1-.38.11c-.25,0-.42-.25-.53-.47-.55-1.21-.23-2.79-1.09-3.8A12.71,12.71,0,0,0,445,31.14l-3.28-1a4.93,4.93,0,0,0,.62,3.75,5.2,5.2,0,0,0-1.54,1.05,1.73,1.73,0,0,0-.4,1.73,7.89,7.89,0,0,0,2.32.23,15.21,15.21,0,0,0,.24,4.31.8.8,0,0,0,.28.54c.25.16.56,0,.8-.13a7.65,7.65,0,0,0,2.7-2.86L448,41.65a1.21,1.21,0,0,0,.54.73.87.87,0,0,0,1-.35,2.55,2.55,0,0,0,.36-1.1l.46-2.77a.7.7,0,0,1,.15-.4.69.69,0,0,1,.48-.13c1.16,0,2.31-.05,3.47,0,.2-.63-.42-1.19-1-1.44s-1.29-.46-1.59-1c-.62-1.17,1-2.8.3-3.81C451.31,30.14,450.05,31.31,449.07,31.81Z"/><path class="d" d="M458.93,166.71a1,1,0,0,1-.39.11c-.25,0-.42-.25-.52-.48-.57-1.21-.24-2.78-1.1-3.8a13.59,13.59,0,0,0-2.09,3.49l-3.26-1a4.9,4.9,0,0,0,.62,3.75,4.9,4.9,0,0,0-1.54,1.05,1.7,1.7,0,0,0-.4,1.73,8.52,8.52,0,0,0,2.31.23,15.12,15.12,0,0,0,.25,4.3.8.8,0,0,0,.28.55.78.78,0,0,0,.8-.13,7.62,7.62,0,0,0,2.69-2.86l1.25,2.91a1.32,1.32,0,0,0,.54.73.89.89,0,0,0,1-.36,2.51,2.51,0,0,0,.36-1.1l.45-2.77a.53.53,0,0,1,.5-.54h.13c1.15,0,2.31,0,3.46,0,.2-.63-.41-1.19-1-1.44s-1.3-.46-1.6-1c-.62-1.18,1-2.81.3-3.81C461.19,165,459.93,166.2,458.93,166.71Z"/><path class="c" d="M486.68,76.28a.85.85,0,0,1-.38.12.7.7,0,0,1-.53-.48c-.56-1.21-.23-2.78-1.09-3.8a13,13,0,0,0-2.09,3.49l-3.27-1a4.87,4.87,0,0,0,.62,3.74,5.07,5.07,0,0,0-1.54,1,1.7,1.7,0,0,0-.4,1.73,8.59,8.59,0,0,0,2.31.23,15.12,15.12,0,0,0,.25,4.3.82.82,0,0,0,.28.55.8.8,0,0,0,.8-.13,7.62,7.62,0,0,0,2.69-2.86l1.25,2.91a1.32,1.32,0,0,0,.54.73.88.88,0,0,0,1-.35,2.74,2.74,0,0,0,.36-1.11l.46-2.77a.62.62,0,0,1,.14-.39.72.72,0,0,1,.49-.14c1.16,0,2.31,0,3.47,0,.19-.62-.42-1.19-1-1.45s-1.29-.45-1.59-1c-.62-1.17,1-2.8.29-3.81C489,74.61,487.69,75.76,486.68,76.28Z"/><path class="c" d="M375.71,180.24a1.12,1.12,0,0,1-.54.15c-.35,0-.58-.35-.73-.66-.78-1.69-.33-3.87-1.53-5.3a18.48,18.48,0,0,0-2.9,4.87l-4.56-1.42a6.78,6.78,0,0,0,.87,5.23,7.35,7.35,0,0,0-2.16,1.46,2.39,2.39,0,0,0-.55,2.42,11.27,11.27,0,0,0,3.22.32,21.18,21.18,0,0,0,.34,6,.85.85,0,0,0,.79.9.88.88,0,0,0,.72-.33,10.52,10.52,0,0,0,3.74-4l1.7,4.06a1.78,1.78,0,0,0,.75,1,1.21,1.21,0,0,0,1.43-.49,3.59,3.59,0,0,0,.5-1.54l.63-3.85a1,1,0,0,1,.2-.55,1,1,0,0,1,.68-.19c1.61,0,3.22-.06,4.83,0,.28-.86-.58-1.65-1.4-2s-1.81-.62-2.22-1.43c-.84-1.63,1.34-3.9.41-5.3C378.87,177.91,377.11,179.54,375.71,180.24Z"/><path class="c" d="M329.54,79a1.17,1.17,0,0,1-.54.16c-.34,0-.59-.34-.73-.66-.78-1.69-.33-3.88-1.53-5.3a18.06,18.06,0,0,0-2.9,4.87l-4.57-1.42a6.82,6.82,0,0,0,.86,5.23A7,7,0,0,0,318,83.33a2.38,2.38,0,0,0-.56,2.41,11.67,11.67,0,0,0,3.22.32,21.6,21.6,0,0,0,.35,6,.85.85,0,0,0,1.5.58,10.67,10.67,0,0,0,3.74-4l1.7,4a1.82,1.82,0,0,0,.76,1,1.24,1.24,0,0,0,1.42-.49,3.34,3.34,0,0,0,.5-1.54l.63-3.86a.89.89,0,0,1,.21-.54.9.9,0,0,1,.67-.19c1.61,0,3.23-.06,4.84,0,.27-.86-.59-1.66-1.41-2s-1.8-.62-2.21-1.43c-.84-1.63,1.33-3.9.41-5.3C332.7,76.65,331,78.26,329.54,79Z"/><path class="d" d="M469.67,141.68a.52.52,0,0,1-.29.09c-.19,0-.31-.19-.39-.35-.41-.9-.17-2.06-.81-2.82a9.45,9.45,0,0,0-1.54,2.59l-2.43-.76a3.64,3.64,0,0,0,.46,2.79,3.53,3.53,0,0,0-1.14.77,1.28,1.28,0,0,0-.3,1.29,6.58,6.58,0,0,0,1.71.17,11.72,11.72,0,0,0,.19,3.18.53.53,0,0,0,.21.4c.17.12.41,0,.62-.09a5.63,5.63,0,0,0,2-2.12l.91,2.16a.89.89,0,0,0,.4.53.61.61,0,0,0,.75-.26,2,2,0,0,0,.27-.82l.34-2a.48.48,0,0,1,.11-.3.56.56,0,0,1,.36-.1c.86,0,1.71,0,2.57,0,.14-.45-.32-.88-.75-1.07s-1-.33-1.18-.75c-.45-.87.71-2.08.22-2.83S470.39,141.29,469.67,141.68Z"/><path class="d" d="M406.92,177.9a.6.6,0,0,1-.29.08c-.18,0-.3-.18-.39-.35-.41-.9-.17-2.06-.81-2.82a10,10,0,0,0-1.54,2.59l-2.42-.75a3.58,3.58,0,0,0,.46,2.78,3.6,3.6,0,0,0-1.15.78,1.25,1.25,0,0,0-.3,1.27,6.25,6.25,0,0,0,1.72.18,11.3,11.3,0,0,0,.18,3.18.65.65,0,0,0,.21.41.58.58,0,0,0,.59-.1,5.65,5.65,0,0,0,2-2.12l.9,2.16a1,1,0,0,0,.4.54.68.68,0,0,0,.76-.26,2,2,0,0,0,.27-.82l.33-2.05a.57.57,0,0,1,.11-.29.48.48,0,0,1,.36-.1c.86,0,1.71,0,2.57,0,.14-.45-.31-.88-.75-1.07s-.95-.34-1.18-.76c-.44-.87.71-2.07.22-2.82S407.67,177.53,406.92,177.9Z"/><path class="b" d="M346.22,51.15a.66.66,0,0,1-.28.09c-.19,0-.32-.19-.39-.35-.42-.9-.18-2.06-.81-2.82a9.3,9.3,0,0,0-1.54,2.59l-2.43-.76a3.62,3.62,0,0,0,.46,2.78,3.46,3.46,0,0,0-1.14.78,1.24,1.24,0,0,0-.3,1.28,5.78,5.78,0,0,0,1.71.17,11,11,0,0,0,.19,3.19.57.57,0,0,0,.2.4c.18.11.41,0,.59-.09a5.65,5.65,0,0,0,2-2.12l.9,2.15a.92.92,0,0,0,.4.54.61.61,0,0,0,.75-.26,1.73,1.73,0,0,0,.27-.82l.34-2a.65.65,0,0,1,.11-.29.54.54,0,0,1,.36-.1c.86,0,1.71,0,2.57,0,.14-.45-.31-.88-.75-1.07s-.95-.33-1.17-.76c-.45-.86.7-2.07.22-2.82C347.9,49.91,347,50.8,346.22,51.15Z"/><path class="b" d="M378.55,122.57a.54.54,0,0,1-.28.08c-.18,0-.31-.18-.39-.35-.41-.89-.17-2-.8-2.82a9.9,9.9,0,0,0-1.55,2.59l-2.45-.75a3.62,3.62,0,0,0,.45,2.78,3.85,3.85,0,0,0-1.14.78,1.24,1.24,0,0,0-.29,1.24,6.1,6.1,0,0,0,1.71.18,11.33,11.33,0,0,0,.18,3.18.55.55,0,0,0,.21.41c.17.11.41,0,.59-.1a5.68,5.68,0,0,0,2-2.11l.91,2.15a.94.94,0,0,0,.4.54.63.63,0,0,0,.75-.26,2,2,0,0,0,.27-.82l.34-2a.44.44,0,0,1,.11-.29.47.47,0,0,1,.36-.1h2.57c.14-.46-.32-.88-.75-1.08s-1-.33-1.18-.75c-.44-.87.71-2.07.22-2.82S379.27,122.21,378.55,122.57Z"/><path class="b" d="M355.08,94.73a.58.58,0,0,1-.28.09c-.19,0-.32-.19-.4-.35-.41-.9-.17-2.06-.81-2.82a10.08,10.08,0,0,0-1.54,2.58l-2.42-.74a3.6,3.6,0,0,0,.46,2.77,3.77,3.77,0,0,0-1.15.78,1.23,1.23,0,0,0-.29,1.28,5.78,5.78,0,0,0,1.71.17,11.37,11.37,0,0,0,.18,3.19.65.65,0,0,0,.21.41c.18.11.41,0,.59-.1a5.65,5.65,0,0,0,2-2.12l.9,2.15a.92.92,0,0,0,.4.54.63.63,0,0,0,.76-.26,1.93,1.93,0,0,0,.26-.81l.34-2.06a.57.57,0,0,1,.11-.28.52.52,0,0,1,.36-.11c.85,0,1.71,0,2.56,0,.15-.46-.3-.87-.74-1.07s-1-.33-1.17-.76c-.45-.87.7-2.07.21-2.82S355.83,94.36,355.08,94.73Z"/><path class="b" d="M455.78,101.29a.54.54,0,0,1-.28.08c-.19,0-.31-.18-.39-.35-.41-.89-.18-2.06-.81-2.82a10,10,0,0,0-1.54,2.59l-2.44-.75a3.63,3.63,0,0,0,.46,2.78,3.46,3.46,0,0,0-1.14.78,1.22,1.22,0,0,0-.3,1.27,6.18,6.18,0,0,0,1.71.18,12.12,12.12,0,0,0,.18,3.18.6.6,0,0,0,.22.41c.17.11.41,0,.58-.1a5.65,5.65,0,0,0,2-2.12l.9,2.16a1,1,0,0,0,.4.54.65.65,0,0,0,.76-.26,2,2,0,0,0,.27-.82l.33-2.05a.53.53,0,0,1,.12-.29.48.48,0,0,1,.35-.1c.86,0,1.72,0,2.57,0,.15-.46-.31-.88-.75-1.07s-1-.34-1.17-.77c-.45-.86.71-2.07.22-2.81C457.47,100.05,456.56,100.92,455.78,101.29Z"/><path class="d" d="M406.92,95.81a.6.6,0,0,1-.29.08c-.18,0-.3-.18-.39-.34-.41-.9-.17-2.06-.81-2.83a10.14,10.14,0,0,0-1.54,2.59l-2.42-.75a3.58,3.58,0,0,0,.46,2.78,3.6,3.6,0,0,0-1.15.78,1.26,1.26,0,0,0-.3,1.28,6.66,6.66,0,0,0,1.72.17,11.3,11.3,0,0,0,.18,3.18.59.59,0,0,0,.21.41.63.63,0,0,0,.59-.09,5.73,5.73,0,0,0,2-2.12l.9,2.15a1,1,0,0,0,.4.54.63.63,0,0,0,.76-.26,2,2,0,0,0,.27-.82l.33-2a.61.61,0,0,1,.11-.29.52.52,0,0,1,.36-.1c.86,0,1.71,0,2.57,0,.14-.46-.31-.88-.75-1.07s-.95-.33-1.18-.76c-.44-.87.71-2.07.22-2.82C408.6,94.57,407.67,95.44,406.92,95.81Z"/><path class="e" d="M391.59,102.48a.75.75,0,0,1-.29.09c-.18,0-.31-.19-.39-.35-.41-.9-.17-2.07-.81-2.82a9.66,9.66,0,0,0-1.56,2.57l-2.43-.75a3.63,3.63,0,0,0,.46,2.78,3.67,3.67,0,0,0-1.14.78,1.25,1.25,0,0,0-.3,1.27,6.21,6.21,0,0,0,1.72.18,11.3,11.3,0,0,0,.18,3.18.59.59,0,0,0,.21.41.63.63,0,0,0,.59-.1,5.78,5.78,0,0,0,2-2.11l.89,2.15a1,1,0,0,0,.4.54.62.62,0,0,0,.76-.26,1.73,1.73,0,0,0,.27-.82l.33-2a.53.53,0,0,1,.12-.29.51.51,0,0,1,.36-.1c.85,0,1.71,0,2.56,0,.15-.46-.3-.88-.74-1.08s-1-.33-1.18-.75c-.44-.87.71-2.07.22-2.82S392.33,102.11,391.59,102.48Z"/><path class="d" d="M377.31,62.11a.75.75,0,0,1-.29.09c-.19,0-.31-.19-.39-.36-.41-.89-.17-2.06-.81-2.81a9.75,9.75,0,0,0-1.54,2.58l-2.43-.75a3.63,3.63,0,0,0,.46,2.78,3.67,3.67,0,0,0-1.14.78,1.26,1.26,0,0,0-.3,1.28,6.58,6.58,0,0,0,1.71.17,11.67,11.67,0,0,0,.19,3.18.59.59,0,0,0,.21.41c.17.11.41,0,.59-.1a5.63,5.63,0,0,0,2-2.12l.9,2.16a1,1,0,0,0,.4.54.62.62,0,0,0,.76-.26,2,2,0,0,0,.27-.82l.33-2a.53.53,0,0,1,.12-.29.51.51,0,0,1,.36-.1c.85,0,1.71,0,2.56,0,.15-.45-.3-.87-.75-1.07s-.95-.34-1.17-.76c-.45-.87.71-2.07.22-2.81S378,61.74,377.31,62.11Z"/><path class="e" d="M405.45,114.79a.6.6,0,0,1-.29.08c-.18,0-.31-.18-.39-.35-.41-.9-.17-2.06-.81-2.81a9.92,9.92,0,0,0-1.54,2.58l-2.42-.75a3.62,3.62,0,0,0,.45,2.78,4,4,0,0,0-1.14.77,1.25,1.25,0,0,0-.29,1.29,6.14,6.14,0,0,0,1.71.17,11.4,11.4,0,0,0,.18,3.19.62.62,0,0,0,.2.4.6.6,0,0,0,.63-.1,5.7,5.7,0,0,0,2-2.11l.89,2.15a1,1,0,0,0,.41.54.66.66,0,0,0,.76-.26,2,2,0,0,0,.26-.82l.34-2.05a.65.65,0,0,1,.11-.29.51.51,0,0,1,.36-.1c.85,0,1.71,0,2.56,0,.15-.46-.3-.88-.74-1.07s-.95-.34-1.17-.76c-.45-.87.7-2.07.21-2.82S406.19,114.42,405.45,114.79Z"/><g class="f"><path class="b" d="M694.15,52c-2.26-3.08-6.93.25-4.82,3.43.55.83,1.15,1.64,1.73,2.4,7,9.38,10.55,20.78,13.64,32,.77,2.79,1.5,5.72.64,8.45a52.7,52.7,0,0,0-1.45-22,137,137,0,0,0-7.8-20.82A18.2,18.2,0,0,0,694.15,52Z"/><path class="c" d="M649.06,71.72c-4.65-.14-5.28,7-.61,7.34,1.22.09,2.45.12,3.63.16,14.35.39,27.9,5.58,41,11.16,3.2,1.37,6.51,2.91,8.44,5.85-5.88-6.82-13.63-11.81-21.86-15.48s-17-6.08-25.78-8.33A22.16,22.16,0,0,0,649.06,71.72Z"/><path class="d" d="M650.35,89.2c-3,.11-2.28,4.31.69,4.34.78,0,1.56,0,2.31-.06,9-.37,18.32,2.13,27.31,4.88,2.22.67,4.54,1.44,6.15,3.09a49.24,49.24,0,0,0-16-8.2,122.9,122.9,0,0,0-17.37-3.82A15.51,15.51,0,0,0,650.35,89.2Z"/><path class="b" d="M710.93,167.4c.84,2.84,4.75,1.16,4-1.74-.18-.76-.41-1.5-.62-2.22-2.61-8.68-2.48-18.27-2.06-27.68.11-2.29.27-4.75,1.47-6.71a49.3,49.3,0,0,0-4,17.5,121.31,121.31,0,0,0,.61,17.78A15.92,15.92,0,0,0,710.93,167.4Z"/><path class="d" d="M655.75,48.05c-1.78-.31-1.92,2.28-.14,2.67A13.91,13.91,0,0,0,657,51c5.45.93,10.67,3.6,15.69,6.39A8.53,8.53,0,0,1,676,60a30,30,0,0,0-8.5-6.92,73.31,73.31,0,0,0-9.89-4.49A9.14,9.14,0,0,0,655.75,48.05Z"/><path class="c" d="M628.24,116.84c-4.52,2.32-.7,8.71,3.94,6.59,1.22-.56,2.4-1.18,3.54-1.76,13.82-7.17,29.86-9.81,45.65-11.83,3.87-.51,8-.93,11.59.59-9.78-2.79-20.17-3-30.23-1.81s-19.83,3.72-29.51,6.34A26.7,26.7,0,0,0,628.24,116.84Z"/><path class="b" d="M641.16,141.7c-3.26,3,1.86,6.61,5.22,3.72.93-.76,1.74-1.56,2.56-2.33,9.9-9.3,23-15.91,36-22,3.2-1.5,16.36-3,19.87-3-9.17.83-27.9,3.72-36.27,7.44a202.17,202.17,0,0,0-23.64,13.27A24.71,24.71,0,0,0,641.16,141.7Z"/><path class="c" d="M711,29c-2.21-4.52-8.54-.81-6.51,3.82.53,1.21,1.12,2.4,1.68,3.52,6.81,13.79,9.16,29.76,10.91,45.41.43,3.84.79,7.94-.77,11.47,2.86-9.65,3.24-20,2.25-29.93s-3.32-19.7-5.77-29.34A26.12,26.12,0,0,0,711,29Z"/><path class="c" d="M675.73,36.7a.76.76,0,0,0,.38.11c.25,0,.42-.24.53-.46.54-1.2.23-2.79,1.08-3.78A13,13,0,0,1,679.79,36L683,35a4.82,4.82,0,0,1-.61,3.72,4.8,4.8,0,0,1,1.53,1,1.7,1.7,0,0,1,.4,1.72,8.41,8.41,0,0,1-2.29.23,15.21,15.21,0,0,1-.25,4.26.84.84,0,0,1-.28.55c-.24.15-.55,0-.79-.13a7.66,7.66,0,0,1-2.67-2.84l-1.21,2.89a1.34,1.34,0,0,1-.54.72.92.92,0,0,1-1-.35,2.65,2.65,0,0,1-.36-1.09L674.5,43a.64.64,0,0,0-.15-.38.65.65,0,0,0-.48-.14c-1.15,0-2.29,0-3.44,0-.19-.61.41-1.17,1-1.43s1.28-.45,1.58-1c.59-1.16-.93-2.79-.3-3.77S674.73,36.21,675.73,36.7Z"/><path class="b" d="M738.41,52c2.26-3.08,6.92.25,4.81,3.43-.55.83-1.15,1.64-1.73,2.4-6.94,9.38-10.54,20.78-13.65,32-.76,2.79-1.5,5.72-.62,8.45a52.54,52.54,0,0,1,1.44-22,136.86,136.86,0,0,1,7.79-20.82A18.86,18.86,0,0,1,738.41,52Z"/><path class="c" d="M783.48,71.72c4.65-.14,5.29,7,.62,7.34-1.22.09-2.46.12-3.63.16-14.36.39-27.9,5.58-41,11.16-3.19,1.37-6.56,2.91-8.43,5.85,5.88-6.82,13.61-11.81,21.85-15.48s17-6.08,25.78-8.33A22.16,22.16,0,0,1,783.48,71.72Z"/><path class="b" d="M782.19,89.2c3,.11,2.3,4.31-.68,4.34-.78,0-1.56,0-2.3-.06-9.06-.37-18.32,2.13-27.32,4.88-2.21.67-4.55,1.44-6.14,3.09a49.09,49.09,0,0,1,16-8.2,123.57,123.57,0,0,1,17.42-3.82A15.72,15.72,0,0,1,782.19,89.2Z"/><path class="d" d="M776.81,48.05c1.77-.31,1.91,2.28.14,2.67a14.1,14.1,0,0,1-1.39.26c-5.45.93-10.68,3.6-15.7,6.39A8.47,8.47,0,0,0,756.59,60a29.85,29.85,0,0,1,8.49-6.92,72.88,72.88,0,0,1,9.9-4.49A9,9,0,0,1,776.81,48.05Z"/><path class="d" d="M730.41,172.79c-.4,1.76-2.85.88-2.52-.93.08-.48.19-.93.3-1.38,1.23-5.39.79-11.23.15-16.94a8.47,8.47,0,0,0-1.16-4A30.26,30.26,0,0,1,730.3,160a74.19,74.19,0,0,1,.32,10.85A8.92,8.92,0,0,1,730.41,172.79Z"/><path class="b" d="M775.66,161.06c1.4,2.35-2,2.2-3.53-.17-.39-.61-.75-1.23-1.1-1.86-4.24-7.21-10.68-14.35-17.18-21.23a23.9,23.9,0,0,0-5.33-4.65,84.56,84.56,0,0,1,14,11.94c4.16,4.36,7.85,8.9,11.45,13.44A21.82,21.82,0,0,1,775.66,161.06Z"/><path class="d" d="M651.85,161.06c-1.39,2.35,2,2.2,3.53-.17.4-.61.76-1.23,1.1-1.86,4.24-7.21,10.69-14.35,17.19-21.23a23.43,23.43,0,0,1,5.33-4.65,83.68,83.68,0,0,0-14,11.94c-4.17,4.36-7.86,8.9-11.46,13.44A21.82,21.82,0,0,0,651.85,161.06Z"/><path class="d" d="M697.13,172.79c.4,1.76,2.85.88,2.52-.93-.08-.48-.19-.93-.29-1.38-1.24-5.39-.79-11.23-.16-16.94a8.47,8.47,0,0,1,1.16-4A30.26,30.26,0,0,0,697.24,160a74.33,74.33,0,0,0-.32,10.86A9.49,9.49,0,0,0,697.13,172.79Z"/><path class="d" d="M762.54,65.78c1.78-.32,1.92,2.29.14,2.68-.46.1-.93.18-1.39.26-5.45.93-10.66,3.6-15.69,6.38a8.76,8.76,0,0,0-3.28,2.63,30.24,30.24,0,0,1,8.5-6.93,76.49,76.49,0,0,1,9.89-4.49A9.6,9.6,0,0,1,762.54,65.78Z"/><path class="d" d="M745.9,31c1.54-.93,2.64,1.4,1.13,2.43-.39.27-.8.52-1.18.75-4.72,2.9-8.56,7.33-12.18,11.79a8.41,8.41,0,0,0-2,3.67,30,30,0,0,1,5.29-9.6,74.33,74.33,0,0,1,7.5-7.87A8.94,8.94,0,0,1,745.9,31Z"/><path class="c" d="M804.32,116.84c4.52,2.32.69,8.71-4,6.59-1.21-.56-2.4-1.18-3.53-1.76C783,114.5,767,111.86,751.19,109.84c-3.87-.51-8-.93-11.59.59,9.76-2.79,20.17-3,30.22-1.81s19.83,3.72,29.51,6.34A27.06,27.06,0,0,1,804.32,116.84Z"/><path class="b" d="M791.4,141.7c3.25,3-1.86,6.61-5.24,3.72-.88-.76-1.74-1.56-2.54-2.33-9.91-9.3-23-15.91-36-22-3.19-1.5-16.36-3-19.87-3,9.18.83,27.9,3.72,36.27,7.44a201.49,201.49,0,0,1,23.65,13.27A24.71,24.71,0,0,1,791.4,141.7Z"/><path class="c" d="M756.81,36.7a.7.7,0,0,1-.38.11c-.25,0-.42-.24-.52-.46-.56-1.2-.23-2.79-1.09-3.78A13,13,0,0,0,752.76,36l-3.25-1a4.79,4.79,0,0,0,.62,3.72,4.73,4.73,0,0,0-1.54,1,1.7,1.7,0,0,0-.39,1.72,8.41,8.41,0,0,0,2.29.23,15.21,15.21,0,0,0,.24,4.26.84.84,0,0,0,.28.55.82.82,0,0,0,.8-.13,7.66,7.66,0,0,0,2.67-2.84l1.21,2.89a1.19,1.19,0,0,0,.54.72.86.86,0,0,0,1-.35,2.35,2.35,0,0,0,.36-1.09L758,43a.68.68,0,0,1,.16-.38.61.61,0,0,1,.47-.14c1.15,0,2.3,0,3.44,0,.2-.61-.42-1.17-1-1.43s-1.28-.45-1.57-1c-.6-1.16.93-2.79.29-3.77S757.83,36.21,756.81,36.7Z"/><path class="d" d="M766.61,170.42a.81.81,0,0,1-.38.12c-.25,0-.42-.25-.52-.48-.55-1.2-.23-2.79-1.09-3.77a13,13,0,0,0-2.06,3.47l-3.25-1a4.86,4.86,0,0,0,.62,3.72,5.15,5.15,0,0,0-1.53,1,1.7,1.7,0,0,0-.4,1.73,8.41,8.41,0,0,0,2.29.23,14.87,14.87,0,0,0,.25,4.26.8.8,0,0,0,.28.55c.23.14.55,0,.79-.13a7.6,7.6,0,0,0,2.67-2.79l1.21,2.88a1.23,1.23,0,0,0,.54.72.86.86,0,0,0,1-.35,2.6,2.6,0,0,0,.36-1.09l.45-2.79a.67.67,0,0,1,.15-.38.61.61,0,0,1,.47-.14c1.15,0,2.3,0,3.45,0,.19-.6-.41-1.17-1-1.43s-1.28-.45-1.58-1c-.6-1.17.93-2.79.3-3.78C768.9,168.77,767.62,169.94,766.61,170.42Z"/><path class="c" d="M794.13,80.78a.67.67,0,0,1-.39.12c-.24,0-.41-.25-.51-.47-.56-1.2-.24-2.79-1.09-3.77a13,13,0,0,0-2.06,3.46l-3.25-1a4.79,4.79,0,0,0,.62,3.72,4.76,4.76,0,0,0-1.54,1,1.71,1.71,0,0,0-.4,1.71,8.48,8.48,0,0,0,2.3.23,15.28,15.28,0,0,0,.24,4.27.82.82,0,0,0,.28.54.76.76,0,0,0,.79-.13,7.46,7.46,0,0,0,2.68-2.84l1.2,2.89a1.26,1.26,0,0,0,.54.72.86.86,0,0,0,1-.35,2.35,2.35,0,0,0,.36-1.09l.45-2.74a.88.88,0,0,1,.15-.39.65.65,0,0,1,.48-.14h3.44c.2-.61-.41-1.17-1-1.43s-1.28-.45-1.57-1c-.6-1.16.93-2.79.29-3.77C796.38,79.14,795.13,80.29,794.13,80.78Z"/><path class="c" d="M638.36,83.45a1.17,1.17,0,0,1-.54.16c-.34,0-.58-.34-.73-.65-.76-1.68-.32-3.85-1.51-5.26a18.56,18.56,0,0,0-2.88,4.82l-4.52-1.39a6.7,6.7,0,0,0,.86,5.18,6.6,6.6,0,0,0-2.13,1.45,2.35,2.35,0,0,0-.56,2.39,11.88,11.88,0,0,0,3.2.32,21.21,21.21,0,0,0,.33,6,1.15,1.15,0,0,0,.39.75c.34.21.77,0,1.11-.19A10.43,10.43,0,0,0,635.1,93l1.68,4a1.79,1.79,0,0,0,.75,1,1.19,1.19,0,0,0,1.41-.48,3.64,3.64,0,0,0,.5-1.53l.63-3.82a1,1,0,0,1,.21-.55.94.94,0,0,1,.67-.18c1.59,0,3.19-.07,4.79,0,.27-.86-.58-1.64-1.39-2s-1.79-.62-2.2-1.41c-.83-1.62,1.32-3.87.41-5.27C641.49,81.15,639.75,82.77,638.36,83.45Z"/><path class="d" d="M777.27,145.61a.56.56,0,0,1-.28.1.56.56,0,0,1-.39-.36c-.41-.93-.16-2-.8-2.79a9.47,9.47,0,0,0-1.52,2.56l-2.41-.74a3.6,3.6,0,0,0,.45,2.79,3.75,3.75,0,0,0-1.13.76,1.29,1.29,0,0,0-.29,1.27,5.68,5.68,0,0,0,1.69.17,11.17,11.17,0,0,0,.19,3.16.57.57,0,0,0,.21.4c.17.11.4,0,.58-.09a5.59,5.59,0,0,0,2-2.1l.93,2.14a1,1,0,0,0,.4.53.68.68,0,0,0,.76-.26,2.14,2.14,0,0,0,.26-.81l.33-2a.57.57,0,0,1,.11-.29.51.51,0,0,1,.36-.1h2.54c.15-.45-.3-.87-.73-1.06s-.93-.34-1.17-.75c-.44-.86.7-2.06.21-2.79S778,145.25,777.27,145.61Z"/><path class="b" d="M654.89,55.88a.65.65,0,0,1-.28.08c-.18,0-.31-.19-.39-.35-.41-.89-.17-2-.8-2.79a9.51,9.51,0,0,0-1.53,2.56l-2.4-.74a3.56,3.56,0,0,0,.45,2.79,3.6,3.6,0,0,0-1.13.77,1.26,1.26,0,0,0-.3,1.27,6.5,6.5,0,0,0,1.7.17,11.16,11.16,0,0,0,.18,3.16.63.63,0,0,0,.21.4.58.58,0,0,0,.59-.1,5.52,5.52,0,0,0,2-2.1l.93,2.14a1,1,0,0,0,.4.53.65.65,0,0,0,.76-.25,2.13,2.13,0,0,0,.26-.82l.33-2a.65.65,0,0,1,.11-.29.56.56,0,0,1,.36-.1h2.54c.14-.44-.3-.86-.74-1.06s-.93-.32-1.16-.75c-.45-.86.7-2,.21-2.79S655.64,55.55,654.89,55.88Z"/><path class="b" d="M686.91,126.68a.65.65,0,0,1-.28.08c-.18,0-.3-.18-.38-.35-.41-.88-.17-2-.81-2.79a9.79,9.79,0,0,0-1.52,2.57l-2.41-.75a3.65,3.65,0,0,0,.45,2.79,3.61,3.61,0,0,0-1.12.77,1.24,1.24,0,0,0-.3,1.27,5.65,5.65,0,0,0,1.69.17,11.55,11.55,0,0,0,.19,3.16.62.62,0,0,0,.2.4.58.58,0,0,0,.59-.1,5.62,5.62,0,0,0,2-2.09l.93,2.14a.93.93,0,0,0,.4.53.62.62,0,0,0,.74-.26,1.66,1.66,0,0,0,.27-.81l.34-2a.39.39,0,0,1,.36-.4h2.64c.15-.44-.29-.86-.73-1.06s-.93-.32-1.16-.75c-.45-.86.69-2.06.21-2.79S687.66,126.31,686.91,126.68Z"/><path class="b" d="M663.67,99.08a.54.54,0,0,1-.28.08c-.18,0-.3-.19-.38-.35-.41-.89-.18-2-.81-2.79a9.47,9.47,0,0,0-1.52,2.56l-2.41-.74a3.65,3.65,0,0,0,.45,2.79,3.6,3.6,0,0,0-1.13.77,1.28,1.28,0,0,0-.29,1.27,6.39,6.39,0,0,0,1.69.17,11.45,11.45,0,0,0,.19,3.15.54.54,0,0,0,.2.4.57.57,0,0,0,.59-.09,5.6,5.6,0,0,0,2-2.09l.93,2.13a.91.91,0,0,0,.39.53.63.63,0,0,0,.75-.25,1.7,1.7,0,0,0,.27-.81l.33-2a.65.65,0,0,1,.11-.29.68.68,0,0,1,.36-.1h2.54c.15-.44-.3-.86-.73-1a2.19,2.19,0,0,1-1.17-.76c-.44-.86.7-2,.22-2.79S664.42,98.7,663.67,99.08Z"/><path class="b" d="M763.5,105.58a.9.9,0,0,1-.28.08c-.19,0-.31-.19-.38-.35-.41-.89-.18-2-.81-2.79a9.77,9.77,0,0,0-1.53,2.56l-2.4-.74a3.6,3.6,0,0,0,.45,2.79,3.49,3.49,0,0,0-1.13.77,1.24,1.24,0,0,0-.29,1.27,6.39,6.39,0,0,0,1.69.17,11.17,11.17,0,0,0,.19,3.16.44.44,0,0,0,.79.3,5.63,5.63,0,0,0,2-2.1l.93,2.14a.89.89,0,0,0,.4.53.64.64,0,0,0,.74-.26,1.81,1.81,0,0,0,.27-.81l.34-2a.53.53,0,0,1,.1-.29.51.51,0,0,1,.36-.1h2.54c.15-.44-.31-.86-.73-1.06a2.23,2.23,0,0,1-1.18-.75c-.43-.86.71-2.06.23-2.79S764.25,105.2,763.5,105.58Z"/><path class="d" d="M715.06,100.19a.66.66,0,0,1-.28.09c-.18,0-.31-.19-.39-.36-.4-.93-.17-2-.8-2.79a9.56,9.56,0,0,0-1.53,2.57l-2.4-.75a3.51,3.51,0,0,0,.46,2.79,3.73,3.73,0,0,0-1.14.78,1.25,1.25,0,0,0-.3,1.26,6.14,6.14,0,0,0,1.71.18,11.11,11.11,0,0,0,.17,3.15.63.63,0,0,0,.21.4.58.58,0,0,0,.58-.09,5.54,5.54,0,0,0,2-2.1l.93,2.13a1,1,0,0,0,.4.54.67.67,0,0,0,.76-.26,1.8,1.8,0,0,0,.26-.81l.33-2a.57.57,0,0,1,.11-.29.47.47,0,0,1,.36-.1H719c.14-.45-.31-.87-.75-1.06s-.93-.33-1.16-.76c-.45-.85.7-2,.21-2.79S715.81,99.77,715.06,100.19Z"/><path class="e" d="M699.86,106.76a.57.57,0,0,1-.28.08c-.19,0-.31-.18-.38-.35-.41-.89-.18-2-.81-2.79a9.51,9.51,0,0,0-1.53,2.56l-2.41-.74a3.65,3.65,0,0,0,.46,2.79,3.66,3.66,0,0,0-1.13.77,1.24,1.24,0,0,0-.29,1.27,6,6,0,0,0,1.69.17,11.17,11.17,0,0,0,.19,3.16.44.44,0,0,0,.79.3,5.63,5.63,0,0,0,2-2.1l.93,2.14a.89.89,0,0,0,.4.53.62.62,0,0,0,.74-.25,1.81,1.81,0,0,0,.27-.81l.34-2a.48.48,0,0,1,.1-.28.57.57,0,0,1,.36-.11h2.54c.15-.44-.31-.86-.73-1.06a2.23,2.23,0,0,1-1.18-.75c-.43-.86.71-2,.23-2.79S700.6,106.39,699.86,106.76Z"/><path class="d" d="M685.69,66.71a.57.57,0,0,1-.28.08c-.18,0-.31-.18-.39-.35-.4-.88-.17-2-.8-2.79a9.56,9.56,0,0,0-1.53,2.57l-2.4-.75a3.55,3.55,0,0,0,.46,2.79,4,4,0,0,0-1.14.77,1.26,1.26,0,0,0-.3,1.27,5.78,5.78,0,0,0,1.71.17,11.54,11.54,0,0,0,.17,3.16.63.63,0,0,0,.21.4.58.58,0,0,0,.58-.09,5.54,5.54,0,0,0,2-2.1l.93,2.13a1,1,0,0,0,.4.53.65.65,0,0,0,.76-.26,1.89,1.89,0,0,0,.26-.8l.33-2a.57.57,0,0,1,.11-.29.47.47,0,0,1,.36-.1h2.55c.14-.45-.31-.87-.75-1.06s-.93-.34-1.16-.76c-.45-.85.7-2,.21-2.79S686.44,66.37,685.69,66.71Z"/><path class="e" d="M713.6,119a.54.54,0,0,1-.28.08c-.18,0-.31-.18-.39-.35-.41-.88-.17-2-.8-2.79a9.56,9.56,0,0,0-1.53,2.57l-2.4-.75a3.51,3.51,0,0,0,.46,2.79,3.88,3.88,0,0,0-1.14.77,1.28,1.28,0,0,0-.3,1.28,7,7,0,0,0,1.71.17,10.76,10.76,0,0,0,.17,3.15.59.59,0,0,0,.21.4c.17.12.41,0,.59-.09a5.59,5.59,0,0,0,2-2.1l.93,2.13a1,1,0,0,0,.4.53.63.63,0,0,0,.76-.25,1.89,1.89,0,0,0,.26-.81l.33-2a.57.57,0,0,1,.11-.29.58.58,0,0,1,.36-.1h2.55c.14-.46-.31-.88-.75-1.07a2.07,2.07,0,0,1-1.16-.75c-.45-.86.7-2,.21-2.79S714.35,118.59,713.6,119Z"/></g><path class="a" d="M687.72,470.31c22.1-1.26,49.52-16.25,70.84-22.88q37.85-11.74,76-22.59,132.81-37.79,268.47-64.4,12.66-2.49,25.36-4.86a179.48,179.48,0,0,0-59.26-71.17,181.31,181.31,0,0,0,1-18.78c0-99.14-79.23-179.51-177-179.51a174.22,174.22,0,0,0-85.9,22.55C738,63.15,647.71,35.6,548.89,35.6,408.47,35.6,285.2,91.23,215.35,175l328.28,55.46,201.34,34C515.44,271.31,285.2,278.12,56.33,262A181.41,181.41,0,0,0,30.21,491h0c0,3.59.15,7.15.42,10.68,5.83,1.67,11.46,3.29,16.51,4.35q121.61,25.7,244.78,43c-60.51,37.31-134.2,42.59-204,58.39,33.8,27.9,79.7,45,130.28,45H971.32c81.55,0,147.65-56.77,147.65-126.81h0a180.21,180.21,0,0,0,24-65.89C992.07,474.33,839.29,461.68,687.72,470.31Z"/><path class="g" d="M934.28,320a11.12,11.12,0,0,0-4.88-2.14c-1.87-.43-3.78-.7-5.68-1l-24.62-3.55a28.89,28.89,0,0,0-7.54-.4,9.56,9.56,0,0,0-6.56,3.4,5.11,5.11,0,0,0-1.14,3.2,8.55,8.55,0,0,0,1.12,3.32,11.1,11.1,0,0,1,.61,1.47c.24,1.13.53,2.25.88,3.35a2.84,2.84,0,0,0,.42.66v.17c-.27,1.38.6,2.82.21,4.15-.34,1.14-1.45,1.83-2.15,2.78a4.2,4.2,0,0,0-.1,4.61c.75,1.16,2.11,1.95,2.5,3.28.51,1.75-.87,3.44-2.1,4.79a75.52,75.52,0,0,0-6.26,7.89,4.84,4.84,0,0,0-1,2.35c-.11,1.74,1.56,3.27,1.27,5-.23,1.36-1.56,2.19-2.71,3-4.25,2.8-7.66,7.3-8,12.39a43.43,43.43,0,0,0-9.68-22c-1.43-1.72-3-3.45-3.59-5.63-.22-.87-.26-1.8-.56-2.64-1-2.65-4.18-3.79-5.57-6.23-1-1.72-1-3.93-2.24-5.44s-3.19-1.85-4.26-3.31a21.67,21.67,0,0,1-1.36-3.08,6.73,6.73,0,0,0-1.85-2.22,4.84,4.84,0,0,0-.46-.33,1.57,1.57,0,0,0,.53-1.18c0-1.17-1.16-1.94-2.17-2.52-1.3-.74-2.57-1.54-3.81-2.37a9,9,0,0,0,3.41-2.79,9.16,9.16,0,0,0,1.3-6,7.59,7.59,0,0,0-1.79-4.59c-.63-.67-1.42-1.15-2.08-1.78-1.71-1.67-2.29-4.14-3-6.42-.94-3-2.41-6.15-5.15-7.74-1.32-.77-2.86-1.13-4.15-1.94s-2.37-2.34-1.92-3.81c.3-1,1.23-1.69,1.86-2.54a5.05,5.05,0,0,0-1.27-7c-.74-.47-1.65-.88-1.8-1.74a3.19,3.19,0,0,1-2.32-2.46,9.68,9.68,0,0,1,0-3.56q.39-2.79.77-5.56a3.62,3.62,0,0,0,2.78,0,24.82,24.82,0,0,0,3,3.92,39,39,0,0,1,7,12.15c.57,1.6,1.15,3.39,2.63,4.24.51.29,1.09.44,1.59.75a5.79,5.79,0,0,1,1.56,1.6c1.2,1.59,2.4,3.17,3.59,4.76l.06.24a1.4,1.4,0,0,0,.16.4,1.31,1.31,0,0,0,.86.44c3.68.85,7.81,1.63,11-.38,2.88-1.8,4.14-5.36,6.58-7.74,1.73-1.69,4.18-3,4.67-5.38a17.7,17.7,0,0,1-1.72-.63c.5-.5,1-1.08,1.68-1.74a21.18,21.18,0,0,0,2.66-3.17,20.44,20.44,0,0,0,2-4.48q2.89-8.24,5.8-16.49c.92-2.6,1.84-5.22,3-7.75,1.2-2.74,2.62-5.37,3.93-8.06a107.12,107.12,0,0,0,7.78-21.9,8,8,0,0,0,.31-3.19c-.28-1.73-1.59-3.09-2.84-4.32a20.9,20.9,0,0,0-4.26-3.53,7,7,0,0,0-5.34-.86c-2.56.75-4.17,3.37-4.76,6s-.37,5.34-.62,8c-.36,3.85-1.68,7.57-2,11.43-.17,2.23,0,4.49-.27,6.72a24.52,24.52,0,0,1-3,8.28A53.45,53.45,0,0,1,852.29,259c-.61.51-1.24,1-1.84,1.55a9.54,9.54,0,0,1,.13-1.3,7.1,7.1,0,0,0-1.27.45,3.82,3.82,0,0,0-.15-1.5c-.8-2.39-4.36-3-5-5.43A11.1,11.1,0,0,1,844,251c-.21-2.13-1.66-3.93-2.16-6-.46-1.91-.11-4-1-5.77a16.15,16.15,0,0,0-2.66-3,11.77,11.77,0,0,1-2.53-4.77c-.13-.49-.25-1-.39-1.49a6.82,6.82,0,0,0-.36-3.29c-.91-2.26-3.26-3.71-4.11-6-.66-1.78-.37-4-1.62-5.38a5.83,5.83,0,0,0-2.37-1.43,52.73,52.73,0,0,0-14.27-3.37c-2.74-.25-5.76-.39-7.72-2.32-2.29-2.24-2.4-6.27-5.08-8-2.36-1.53-5.7-.4-7.53,1.75a9.08,9.08,0,0,0-.76,1,10.68,10.68,0,0,1-.21-4.1c0-.34.07-.69.1-1a20,20,0,0,0,10.84-8.56v.06l.12.31c.29.73.75,1.43,1.43,1.51h0a2,2,0,0,0,1.24-.45,10.34,10.34,0,0,0,1.66-1.44q.38-.42.72-.87a10.84,10.84,0,0,0,1.18-2,11.88,11.88,0,0,0,1-3.35c.18-1.16.2-2.35.4-3.51a22.11,22.11,0,0,1,.73-2.65c.1-.29.2-.58.29-.87l.32-1a23.12,23.12,0,0,0,1-6.34v-1.08a10.52,10.52,0,0,0-3.36-7.45c-1.72-1.41-4-2-5.26-3.91-.82-1.28-1-2.93-1.48-4.43a10,10,0,0,0-7.86-7.07,8.76,8.76,0,0,0-6.22,1.71h0l-.14.11h0a10.06,10.06,0,0,0-2.48,2.76,8.21,8.21,0,0,1-3.52-2c-1-.93-1.77-2.1-2.78-3a7.14,7.14,0,0,0-7.12-1.5,8.49,8.49,0,0,0-5.09,5.83c-.55,2.06-.45,4.43-1.6,6.15-.89,1.34-2.35,2-3.37,3.22a6.05,6.05,0,0,0-1.26,2.67h0a7.23,7.23,0,0,0-.17,1.67h0a3,3,0,0,0,.06.74v.12a5.84,5.84,0,0,0,.17.81h0a6.93,6.93,0,0,0,1.49,2.74,6.52,6.52,0,0,0,2.41,1.74,9.76,9.76,0,0,0,1.16.37l1.19.27.42.1a19.93,19.93,0,0,0-.56,17.61,8,8,0,0,1-.1.84,69.35,69.35,0,0,0,.52,11.79c.14,1.55.22,3.26-.73,4.49a8.47,8.47,0,0,1-1.45,1.29c.54-.7,1.09-1.39,1.65-2.08-1.41-1.42-3.64-1.6-5.64-1.46a26.18,26.18,0,0,0-11,3.36c-2.24,1.29-4.54,3-7.1,2.7-1.51-.17-3-1-4.47-.6a9.12,9.12,0,0,0-2.29,1.36,3.1,3.1,0,0,1-1.88.58c-1.57-1.93-4-3.24-5.88-4.81a45.7,45.7,0,0,1-5.85-6.27c-3.24-3.91-6.47-7.83-9.65-11.78-2.68-3.32-5.43-6.91-5.9-11.16a10.81,10.81,0,0,1-.07-1.27,32.73,32.73,0,0,1,.76-6,3,3,0,0,0,0-1.45c-.3-1-1.45-1.37-2.44-1.59h0c.13-.77.22-1.56.27-2.31.56-8.6,0-17.34,1.77-25.76.69-3.24,1.82-6.52,4.15-8.87,3.65-3.69,9.76-4.58,12.56-9,2.34-3.64,1.41-8.79-1.53-12s-7.47-4.52-11.78-4.36a6.11,6.11,0,0,0-3.43.92,7.23,7.23,0,0,0-2.08,3.16L701,117a64.51,64.51,0,0,0-3.14,8.38c-1.2,4.38-1.47,9-2.42,13.42,0,3.4-2.19,7.64-3.39,10.77-1.34,3.52-2.79,7-4,10.59-.3.9-1.35,3.57-2,6a3.36,3.36,0,0,0-.68.51,17.69,17.69,0,0,0-1.42,2.11c-.91,1.2-2.39,1.84-3.39,3s-1.21,3.29.18,3.87a4.22,4.22,0,0,0,.87.19l.54.09c1.5.42,2.09,2.31,1.87,3.87s-1,3-1.13,4.56c-.27,2.76,1.35,5.33,2.91,7.65a65.61,65.61,0,0,0,5.34,7.19c1.41,1.58,3,3,4.42,4.52,5.41,5.56,9.71,12.06,14.57,18.1a40.59,40.59,0,0,0,5.93,6.22,44.65,44.65,0,0,0,4.49,3.09l8.36,5.3a9.27,9.27,0,0,0,3.16,1.49,4.2,4.2,0,0,0,1.12,0c0,.25.09.49.15.74.65,2.62,2.08,5,2.24,7.67s-.08,5.4.11,8.1c.18,2.49.73,5,.87,7.45.28,4.72-.88,9.38-2,14-1.69,6.76-2.71,13.66-6,19.79-.92,1.69-2,3.41-2,5.34a2.76,2.76,0,0,0,.06.7h0l-1.5.85c-.44.25-.88.5-1.28.76-1.9,1.24-3.93,2.61-4.71,4.75-.63,1.73-.34,3.71-1.1,5.39l-.12.22c-.8,1.56-2.39,2.72-2.75,4.43h0c-.27,1.31.25,2.7,0,4v.05a13.73,13.73,0,0,0-.54,2,2.46,2.46,0,0,0,.06.66,3.79,3.79,0,0,0,1.2,1.95,7.47,7.47,0,0,0,1.17.93q.65.42,1.32.78l.26.14c.38.2.76.39,1.15.57l.26.11c.45.2.91.38,1.37.54l.32.1c.36.12.73.23,1.1.32l.25.08.23.05,1,.21.37.07q.66.1,1.35.18h.4c.34,0,.67.05,1,.06h1.83a11.2,11.2,0,0,0,1.41-.13h.15c.42-.06.84-.13,1.26-.22l.32-.07c.39-.09.78-.18,1.17-.3l.21-.06c.47-.14.94-.29,1.4-.47a36.08,36.08,0,0,0,4.62-2.29c1-.55,2-1.11,3-1.62a23.15,23.15,0,0,1,2.28-1,12.85,12.85,0,0,1,6-1,23.8,23.8,0,0,1,3,.61v.33q1.21,7.2,2.41,14.4a28.94,28.94,0,0,1,4.14-2.49,9.11,9.11,0,0,0-.53,2.25,8.92,8.92,0,0,0,0,1.79c.09.95.29,2-.28,2.75-.35.46-1,.72-1.19,1.24a4.27,4.27,0,0,0-.1,1.63,2.61,2.61,0,0,1-2.38,2.42,3.8,3.8,0,0,1-1.51,4.46,5.28,5.28,0,0,0-1.16.76,3.5,3.5,0,0,0-.67,1.51A26.72,26.72,0,0,1,745,368.32a25.15,25.15,0,0,0-3.87,3.78,17.22,17.22,0,0,0-1.75,3.45q-4,9.78-8.12,19.57a43.43,43.43,0,0,0-3.48,11.29c-1.2,10.78-10.8,19.92-9,30.62a15,15,0,0,0,3.12,7.31c2,2.41,5,3.79,8,4.91,7.71,3,15.84,4.64,23.94,6.29l12.72,2.61a57.2,57.2,0,0,0,7.58,1.2c3.07.21,6.22-.08,9.21.7,1.85.48,3.62,1.37,5.53,1.47,1.64.09,3.66-.26,4.63,1.08s.22,3.11,1.14,4.3c1.48,1.89,5.09,0,6.7,1.78a8.16,8.16,0,0,1,1,2.21,3.93,3.93,0,0,0,1,1.26,8.16,8.16,0,0,1,.12,1.71,29.49,29.49,0,0,1-1.44,6.82q-1.8,6.09-3.59,12.19a26.68,26.68,0,0,0-1,4.4,9.93,9.93,0,0,0,0,2.18c.21,2.21,1.48,4.49,3.59,5.21a6.58,6.58,0,0,0,4.86-.6,21.6,21.6,0,0,0,4-2.7,27.55,27.55,0,0,0,5.77-5.94c5-7.48,3.38-17.6,6.89-25.87,2.33-5.52,6.87-10,8.38-15.82a6.41,6.41,0,0,0,.12-3.42c-.63-2-2.76-3.14-4.75-3.86h-.09a40.8,40.8,0,0,0-5-1.43c-.42-.09-.85-.16-1.28-.23a7.81,7.81,0,0,1-2.21-2.88,6.82,6.82,0,0,0-.47-1.73,1.81,1.81,0,0,0-1.44-.8c-1-.1-2.34.26-3.43.18-2.23-.16-3.71-2.35-5.71-3.36s-4.17-.76-6.3-.61a5.84,5.84,0,0,1-2.28-.14,8.63,8.63,0,0,1-2.4-1.65,10.06,10.06,0,0,0-8.81-1.77,9.41,9.41,0,0,1-3,.68c-2-.11-3.33-1.85-4.77-3.17-3.94-3.61-9.55-4.56-14.33-6.93a3.28,3.28,0,0,1-1.72-1.48c-.55-1.36.69-2.72,1.81-3.65l8.22-6.83c9-7.48,20.25-13.11,24.43-24.08a14,14,0,0,1,2-4.11,5.56,5.56,0,0,1,1.11-1,8.38,8.38,0,0,1,6.15-1.2,20.74,20.74,0,0,1,7.24,3.16q5.37,3.25,10.45,7a94.28,94.28,0,0,1,9.55,7.84c5.25,5,9.62,10.93,14.51,16.32s10.48,10.42,17.27,13,15,2.47,20.83-1.86c6.73-5,8.89-13.94,10.59-22.14,3.75-3.62,4.88-9.13,6.71-14,1.15-3.09,2.62-6,3.86-9.08,1.48-3.62,2.64-7.36,3.8-11.09a53.51,53.51,0,0,0,2.66-11.57c.48-6.23-1.19-12.86.56-18.71,2.31-.51,4.41-1.81,6.68-2.57,3.38-1.11,7-.93,10.58-.91h.23a5.46,5.46,0,0,0,3.52-.83c1.2-1,1.39-2.71,1.45-4.26C937.39,326.73,937.15,322.43,934.28,320ZM789.39,149.37a7.43,7.43,0,0,1-2.53.18Z"/><path class="h" d="M793.33,212.63a11,11,0,0,1-4.16,2.21l-7.09,2.54c-3.85,1.38-7.87,2.77-11.93,2.27-2.27-.28-12-1.71-13.47-3.48-2.24-2.74,5.61-6.77,8.29-9.08a11.27,11.27,0,0,0,1.68-1.48c1-1.22.87-2.93.73-4.47a69.11,69.11,0,0,1-.52-11.77,23.72,23.72,0,0,1,.4-2.79c1-4.6,5.28-2.92,8.66-1.7A67.94,67.94,0,0,1,787.67,190a8.49,8.49,0,0,1,2.9,2.46c1.48,2.24.89,5.18.65,8-.21,2.19-.2,4.29,1.17,5.88a15.54,15.54,0,0,1,1.89,2A3.75,3.75,0,0,1,793.33,212.63Z"/><path class="h" d="M695.39,140.56c1-4.43,1.22-9,2.42-13.39a64.1,64.1,0,0,1,3.14-8.35l4.41-10.29a7.2,7.2,0,0,1,2.08-3.15,6.11,6.11,0,0,1,3.43-.92c4.31-.16,8.84,1.18,11.78,4.35s3.87,8.3,1.53,11.93c-2.8,4.37-8.91,5.25-12.56,8.93-2.33,2.35-3.46,5.62-4.15,8.85-1.82,8.4-1.21,17.11-1.77,25.69-.18,2.67-.7,5.72-3,7.1a8.78,8.78,0,0,1-4.48.87l-6.56.11c-1.1,0-5.09.69-5.82-.14-1.28-1.45,1.64-8.67,2.17-10.28,1.18-3.57,2.63-7.05,4-10.56C693.2,148.18,695.39,144,695.39,140.56Z"/><path class="i" d="M830.84,454.72c-1.51,5.78-6.05,10.28-8.38,15.79-3.51,8.25-1.93,18.34-6.89,25.8a27.14,27.14,0,0,1-5.77,5.95,21.55,21.55,0,0,1-4,2.69,6.58,6.58,0,0,1-4.86.6c-2.11-.72-3.38-3-3.59-5.2a9.84,9.84,0,0,1,0-2.17,26.33,26.33,0,0,1,1-4.39q1.8-6.07,3.59-12.16a29.22,29.22,0,0,0,1.44-6.8c.13-2.52-1.47-5.8-.79-8.15.31-1.06,1.47-2,2-2.89a16.9,16.9,0,0,0,1.72-4.09c.82-2.79,1.38-5.77,3.1-8.12a19.3,19.3,0,0,1,3.9-3.65,10.3,10.3,0,0,1,3.72-2.09,9.16,9.16,0,0,1,4,.19,39.07,39.07,0,0,1,5,1.42h.09c2,.72,4.12,1.83,4.75,3.85A6.21,6.21,0,0,1,830.84,454.72Z"/><path class="i" d="M937.24,331.78c-.06,1.55-.25,3.28-1.45,4.25a5.47,5.47,0,0,1-3.52.83H932c-3.57,0-7.2-.2-10.58.91-2.57.85-4.93,2.41-7.61,2.72-3.69.42-7.16-1.6-10.43-3.36a103.75,103.75,0,0,0-9.47-4.5c-2.12-.87-6.45-1.43-7.47-3.75-.35-1.1-.64-2.21-.88-3.34a11.1,11.1,0,0,0-.61-1.47,8.45,8.45,0,0,1-1.12-3.31,5.11,5.11,0,0,1,1.14-3.2,9.62,9.62,0,0,1,6.55-3.37,28.89,28.89,0,0,1,7.54.4l24.62,3.54c1.9.27,3.81.54,5.68,1a11.12,11.12,0,0,1,4.88,2.14C937.15,323.71,937.39,328,937.24,331.78Z"/><path class="j" d="M915.6,338.18c-3,6.33-.84,13.82-1.38,20.82a53.25,53.25,0,0,1-2.66,11.54c-1.16,3.72-2.32,7.45-3.8,11.06-1.24,3-2.71,6-3.86,9.06-1.83,4.88-3,10.37-6.71,14-1.7,8.18-3.86,17.12-10.59,22.08-5.85,4.32-14,4.47-20.83,1.86s-12.38-7.61-17.27-13-9.26-11.26-14.51-16.28a92,92,0,0,0-9.57-7.83q-5.08-3.69-10.45-6.94a20.9,20.9,0,0,0-7.24-3.15,8.38,8.38,0,0,0-6.15,1.2,5.56,5.56,0,0,0-1.11,1,13.7,13.7,0,0,0-2,4.1c-4.2,10.94-15.47,16.56-24.47,24l-8.22,6.81c-1.12.93-2.36,2.29-1.81,3.64a3.28,3.28,0,0,0,1.72,1.48c4.78,2.36,10.39,3.31,14.33,6.91,1.44,1.32,2.82,3.06,4.77,3.16a9.68,9.68,0,0,0,3-.67,10.09,10.09,0,0,1,8.81,1.76,8.63,8.63,0,0,0,2.4,1.65,5.84,5.84,0,0,0,2.28.14c2.13-.15,4.39-.34,6.3.61s3.48,3.19,5.71,3.35c1.09.08,2.39-.28,3.43-.18a1.81,1.81,0,0,1,1.44.8,6.86,6.86,0,0,1,.47,1.72c.41,1.41,1.79,2.27,2.69,3.43,1.38,1.78,1.58,4.2,1.44,6.45A27.5,27.5,0,0,1,813,471.2a10.87,10.87,0,0,1-5.39,3,5,5,0,0,1-5.34-2.37,8.1,8.1,0,0,0-1-2.2c-1.61-1.77-5.22.11-6.7-1.78-.92-1.18-.26-3.07-1.14-4.29s-3-1-4.63-1.07c-1.91-.1-3.68-1-5.53-1.47-3-.78-6.14-.49-9.21-.7a55.6,55.6,0,0,1-7.58-1.2l-12.72-2.6c-8.1-1.65-16.23-3.32-23.94-6.27-3-1.12-5.92-2.5-8-4.9a15,15,0,0,1-3.12-7.3c-1.81-10.67,7.79-19.79,9-30.54.43-3.92,2-7.62,3.48-11.26q4.07-9.76,8.12-19.53a17.92,17.92,0,0,1,1.7-3.46,25.09,25.09,0,0,1,3.87-3.77,26.63,26.63,0,0,0,7.83-12.84,3.5,3.5,0,0,1,.67-1.51,5.24,5.24,0,0,1,1.16-.75,3.81,3.81,0,0,0,1.51-4.45,2.61,2.61,0,0,0,2.38-2.42,4.22,4.22,0,0,1,.1-1.62c.24-.52.84-.78,1.19-1.24.57-.75.37-1.8.28-2.74a8.92,8.92,0,0,1,0-1.79,9.22,9.22,0,0,1,2.68-5.59c2.39-2.35,5.79-1.74,9.09-2.3a52.1,52.1,0,0,0,9.6-3.07,94.34,94.34,0,0,1,27.11-6.27,59.26,59.26,0,0,1,27.38,4.36,15.37,15.37,0,0,1,3.53,2,6.69,6.69,0,0,1,1.85,2.21,20,20,0,0,0,1.36,3.07c1.07,1.46,3.09,1.93,4.26,3.31s1.27,3.71,2.24,5.42c1.39,2.44,4.61,3.57,5.57,6.22.3.84.34,1.76.56,2.63.54,2.18,2.16,3.9,3.59,5.62a43.22,43.22,0,0,1,9.68,22c.32-5.07,3.73-9.56,8-12.36,1.15-.75,2.48-1.58,2.71-2.94.29-1.72-1.38-3.25-1.27-5a5,5,0,0,1,1-2.34,75.29,75.29,0,0,1,6.26-7.87c1.23-1.35,2.61-3,2.1-4.78-.39-1.33-1.75-2.11-2.5-3.27a4.16,4.16,0,0,1,.1-4.6c.7-.95,1.81-1.64,2.15-2.77.39-1.33-.48-2.77-.21-4.14a5.12,5.12,0,0,1,2.06-2.67,17.22,17.22,0,0,1,4.47-2.94c2.64-1,5.58-.63,8.38-.24,4.68.65,9.93,1.65,12.57,5.57C916,331.84,916.86,335.56,915.6,338.18Z"/><path class="k" d="M937.24,331.78c-.06,1.55-.25,3.28-1.45,4.25a5.47,5.47,0,0,1-3.52.83H932c.41-2.08,2.94-3.27,3.38-5.38a4.79,4.79,0,0,0-1.1-3.63c-2.14-2.89-5.58-4.49-9-5.66a59.61,59.61,0,0,0-30.06-2.25,30,30,0,0,0-7.9,2.43,26.69,26.69,0,0,0-2.4,1.7,8.45,8.45,0,0,1-1.12-3.31,5.11,5.11,0,0,1,1.14-3.2,9.62,9.62,0,0,1,6.55-3.37,28.89,28.89,0,0,1,7.54.4l24.62,3.54c1.9.27,3.81.54,5.68,1a11.12,11.12,0,0,1,4.88,2.14C937.15,323.71,937.39,328,937.24,331.78Z"/><path class="k" d="M830.84,454.72c-1.51,5.78-6.05,10.28-8.38,15.79-3.51,8.25-1.93,18.34-6.89,25.8a27.14,27.14,0,0,1-5.77,5.95,21.55,21.55,0,0,1-4,2.69,6.58,6.58,0,0,1-4.86.6c-2.11-.72-3.38-3-3.59-5.2a9.84,9.84,0,0,1,0-2.17l.06.16c.87,2.1,2.29,4.3,4.53,4.67a6.15,6.15,0,0,0,4.62-1.63c3.3-2.65,5.22-6.6,7.05-10.41a43.19,43.19,0,0,0,3.38-8.63c.4-1.7.59-3.44,1-5.14,1.9-8.26,8.37-15,9.8-23.37a5.72,5.72,0,0,0,.08-1.75,9.08,9.08,0,0,0-.86-2.18,10.8,10.8,0,0,1-.76-2.42c2,.72,4.12,1.83,4.75,3.85A6.3,6.3,0,0,1,830.84,454.72Z"/><path class="k" d="M815.74,440.38a14.48,14.48,0,0,1-4.51,6.16,22,22,0,0,1-9.71,4.2,9.64,9.64,0,0,1-5-.06c-2.22-.77-3.82-2.85-6.09-3.45-1.62-.44-3.36-.05-5-.29-2.95-.41-5.24-2.66-7.62-4.46-7.29-5.48-16.86-7.25-24.15-12.73a2.33,2.33,0,0,1-.78-.81,2.43,2.43,0,0,1-.15-1.13,23,23,0,0,1,2.19-9.61,33.31,33.31,0,0,1,4.12-5.87c6.53-8,13.09-16.06,20.91-22.81,3.28-2.83,6.86-5.47,11-6.75,2.3-.71,6.84-1.38,9.64-.18a5.56,5.56,0,0,0-1.11,1,13.7,13.7,0,0,0-2,4.1c-4.21,10.95-15.48,16.57-24.48,24l-8.22,6.81c-1.12.93-2.36,2.29-1.81,3.64a3.28,3.28,0,0,0,1.72,1.48c4.78,2.36,10.39,3.31,14.33,6.91,1.44,1.32,2.82,3.06,4.77,3.16a9.68,9.68,0,0,0,3-.67,10.09,10.09,0,0,1,8.81,1.76,8.63,8.63,0,0,0,2.4,1.65,5.84,5.84,0,0,0,2.28.14c2.13-.15,4.39-.34,6.3.61s3.48,3.19,5.71,3.35C813.4,440.64,814.7,440.26,815.74,440.38Z"/><path class="i" d="M723.77,304.66c-1.9,1.22-3.92,2.6-4.7,4.72-.64,1.73-.34,3.71-1.11,5.39s-2.5,2.85-2.88,4.65c-.27,1.31.26,2.69,0,4a16.77,16.77,0,0,0-.55,2.08c-.1,1.49,1.18,2.7,2.43,3.53a20.31,20.31,0,0,0,18.17,2c2.67-1,5.08-2.63,7.64-3.91a15.11,15.11,0,0,1,8.23-2c1.65.18,3.23.78,4.88,1a5.11,5.11,0,0,0,4.57-1.36,5.67,5.67,0,0,0,1-2.37c1.39-5.49.76-11.31-.56-16.83s-3.32-10.83-4.73-16.32c-1-4.07-1.77-8.24-3.44-12.09s-4.48-7.43-8.41-8.9a1.57,1.57,0,0,0-1-.13,1.72,1.72,0,0,0-.65.48,30.75,30.75,0,0,0-6.86,11.54c-1.57,4.79-2,9.87-3.44,14.68-.62,2-1.42,4.68-3,6.21S725.56,303.51,723.77,304.66Z"/><path class="k" d="M761.48,322.36a5.89,5.89,0,0,1-1.05,2.37,5.07,5.07,0,0,1-4.57,1.35c-1.64-.2-3.22-.81-4.87-1a15.11,15.11,0,0,0-8.23,2c-2.56,1.28-5,2.87-7.65,3.9a20.2,20.2,0,0,1-12.13.69,19.76,19.76,0,0,1-6-2.64c-1.26-.82-2.53-2-2.43-3.53a16.62,16.62,0,0,1,.55-2.07c.26-1.31-.26-2.69,0-4,.38-1.8,2.12-3,2.88-4.66s.47-3.65,1.1-5.38c.78-2.13,2.81-3.5,4.71-4.73s4.16-2.17,5.68-3.66a5.53,5.53,0,0,0,.53-.74,17.88,17.88,0,0,0,2.38-5.51c1.47-4.82,1.87-9.89,3.43-14.69a30.74,30.74,0,0,1,6.87-11.53,1.59,1.59,0,0,1,.64-.48,1.56,1.56,0,0,1,1,.12c3.92,1.48,6.73,5.06,8.41,8.91s2.39,8,3.44,12.08c1.4,5.49,3.41,10.82,4.73,16.33S762.87,316.86,761.48,322.36Z"/><path class="k" d="M791.22,200.4a20,20,0,0,1-24.36-11,23.72,23.72,0,0,1,.4-2.79c1-4.6,5.28-2.92,8.66-1.7A67.94,67.94,0,0,1,787.67,190a8.49,8.49,0,0,1,2.9,2.46C792.05,194.67,791.46,197.61,791.22,200.4Z"/><circle class="h" cx="785.18" cy="180.34" r="20"/><path class="k" d="M839.45,329.8c0,1.66-2.25,2.19-3.92,2.1-6-.35-11.87-2-17.81-1.5-7.51.68-14.41,4.83-21.94,5.21-2.9.15-5.85-.28-8.71.25-3.7.69-7,2.94-10.77,3.26-3.27.28-6.5-.95-9.77-.82a15.7,15.7,0,0,0-6.53,1.86,9.22,9.22,0,0,1,2.68-5.59c2.39-2.35,5.79-1.74,9.09-2.3a52.1,52.1,0,0,0,9.6-3.07,94.34,94.34,0,0,1,27.11-6.27,59.2,59.2,0,0,1,27.37,4.33,15.37,15.37,0,0,1,3.53,2A1.64,1.64,0,0,1,839.45,329.8Z"/><path class="l" d="M775.93,216.86l-8.1-3-3.42-1.26a16.82,16.82,0,0,0-4.36-1.16c-3.92-.3-7.61,2.31-9.7,5.64s-2.88,7.3-3.55,11.17q-1.38,7.94-2.34,15.94a104,104,0,0,0-1.05,14.54c.23,12.38,2.85,24.59,5.73,36.64a128.19,128.19,0,0,1,3.19,16.25c.24,2.26.35,4.53.59,6.8.26,2.55.68,5.07,1.1,7.6l2.41,14.37c3-2.13,6.41-4,10.1-4.11,3.27-.12,6.51,1.1,9.77.82,3.75-.31,7.07-2.56,10.77-3.25,2.86-.53,5.81-.11,8.72-.25,7.52-.38,14.43-4.54,21.93-5.21,5.95-.54,11.86,1.14,17.82,1.49,1.66.1,3.91-.43,3.91-2.1,0-1.16-1.16-1.93-2.17-2.51a107.54,107.54,0,0,1-13.55-9.67c-3.94-3.12-7.94-6.32-10.65-10.54-6.53-10.15-4.29-23.88-9.86-34.59-4.53-8.7,0-20.1,0-29.91,0-4.89,0-9.84-1.15-14.59a61.35,61.35,0,0,0-2.68-7.8l-3.89-9.85a1.58,1.58,0,0,0-.46-.75,1.56,1.56,0,0,0-.89-.27,9.38,9.38,0,0,0-6.46,2.07c-1.83,1.49-3,3.63-4.8,5.18C780.92,216.26,778.38,217.76,775.93,216.86Z"/><path class="i" d="M789,211.18c.64-2.74,1.33-5.59,3.16-7.73s5.17-3.27,7.53-1.74c2.68,1.74,2.79,5.76,5.08,8,2,1.92,5,2.07,7.72,2.32a52.72,52.72,0,0,1,14.27,3.36,5.81,5.81,0,0,1,2.37,1.42c1.25,1.42,1,3.6,1.62,5.37.85,2.28,3.2,3.73,4.11,6,1,2.52,0,5.34-.84,7.93-1.51,4.65-2.46,9.48-3.93,14.15s-3.56,9.27-7,12.79c-1.52,1.56-3.78,3-5.78,2.07l-.77,5.55a9.63,9.63,0,0,0,0,3.55,3.19,3.19,0,0,0,2.32,2.46c.15.86,1.06,1.27,1.8,1.74a5,5,0,0,1,1.3,6.95l0,.05c-.63.85-1.56,1.52-1.86,2.53-.45,1.46.62,3,1.92,3.8s2.83,1.17,4.15,1.94c2.74,1.58,4.21,4.69,5.15,7.71.7,2.28,1.28,4.75,3,6.41.66.63,1.45,1.11,2.08,1.77a7.59,7.59,0,0,1,1.79,4.59,9.16,9.16,0,0,1-1.3,6c-2,2.86-5.73,3.71-9,5-5.31,2.18-9.68,6.08-14.36,9.4a15.29,15.29,0,0,1-6.55,3.08c-3.24.43-6.43-1-9.69-1.13a24,24,0,0,0-5.78.76l-6,1.3c.32-4.65-2.24-9.31-3.67-13.74-2.7-8.34-3.2-17.26-2.56-26s2.42-17.36,4.18-25.94c1.23-6,1.11-12.27,3-18.1,1.77-5.61,4.3-11,5.23-16.84C793.18,228.51,786.86,220.5,789,211.18Z"/><path class="i" d="M834.49,229.67a11.06,11.06,0,0,1,1.15,3.25,11.74,11.74,0,0,0,2.53,4.76,16.15,16.15,0,0,1,2.66,3c.92,1.74.57,3.86,1,5.76.5,2.07,1.95,3.87,2.16,6a11.1,11.1,0,0,0,.17,1.82c.65,2.42,4.21,3,5,5.42.53,1.57-.38,3.28-.21,4.93a4.55,4.55,0,0,1,.09,1.56,3.16,3.16,0,0,1-1.14,1.46,23,23,0,0,0-6.58,11.71,66.93,66.93,0,0,0-1.51,13.53l-3.91-5.17a5.79,5.79,0,0,0-1.56-1.6c-.5-.3-1.08-.45-1.59-.75-1.48-.84-2.06-2.62-2.63-4.22a38.77,38.77,0,0,0-7-12.12c-1.59-1.87-3.44-3.75-3.79-6.18a11.69,11.69,0,0,1,.18-3.34c1-6.55,2.07-13.26,5.26-19.07,1.49-2.72,3.42-5.18,4.85-7.94C830.58,230.65,831.93,225.89,834.49,229.67Z"/><path class="i" d="M735.84,236a4.6,4.6,0,0,1-.62,2.4,3.17,3.17,0,0,1-3.16,1,9.25,9.25,0,0,1-3.16-1.48l-8.36-5.29a47.53,47.53,0,0,1-4.49-3.08,40.07,40.07,0,0,1-5.93-6.21c-4.86-6-9.16-12.51-14.57-18-1.47-1.5-3-2.94-4.42-4.51a66.8,66.8,0,0,1-5.34-7.18c-1.56-2.31-3.18-4.87-2.91-7.63.16-1.56.91-3,1.13-4.55s-.37-3.44-1.87-3.86l-.54-.09a4.22,4.22,0,0,1-.87-.19c-1.39-.58-1.18-2.73-.18-3.86s2.48-1.76,3.39-3a17.69,17.69,0,0,1,1.42-2.11,5.41,5.41,0,0,1,2.33-1.17,36.06,36.06,0,0,1,17.75-.67c1,.22,2.14.62,2.44,1.59a2.93,2.93,0,0,1,0,1.44,31.88,31.88,0,0,0-.76,6,10.64,10.64,0,0,0,.07,1.26c.47,4.24,3.22,7.83,5.9,11.14,3.18,3.94,6.41,7.85,9.65,11.75a46.13,46.13,0,0,0,5.85,6.25c2,1.66,4.59,3,6.15,5.13,1.27,1.72.86,4.07,1,6.14A135.3,135.3,0,0,1,735.84,236Z"/><path class="h" d="M862.84,277.68a16.13,16.13,0,0,0,4.66-7.62l5.8-16.45c.92-2.6,1.84-5.21,3-7.74,1.2-2.73,2.62-5.36,3.93-8A107,107,0,0,0,888,216.12a8,8,0,0,0,.31-3.19c-.28-1.73-1.59-3.08-2.84-4.31a20.85,20.85,0,0,0-4.26-3.52,7,7,0,0,0-5.34-.86c-2.56.75-4.17,3.37-4.76,6s-.37,5.32-.62,8c-.36,3.84-1.68,7.55-2,11.4-.17,2.23,0,4.48-.27,6.7a24.4,24.4,0,0,1-3,8.27,53.72,53.72,0,0,1-12.93,15.9,20.77,20.77,0,0,0-3.88,3.73,12.14,12.14,0,0,0-1.87,4.66,10.73,10.73,0,0,0,.81,7.57c1.63,2.78,4.76,4,7.75,4.62C859.14,281.93,860.07,280.55,862.84,277.68Z"/><path class="i" d="M785.3,151.36a9.33,9.33,0,0,1,9.06-4.91,10,10,0,0,1,7.86,7.06c.47,1.49.66,3.14,1.48,4.42,1.24,1.93,3.54,2.49,5.26,3.89a10.54,10.54,0,0,1,3.36,7.44,22.51,22.51,0,0,1-1.33,8.41,27.11,27.11,0,0,0-1,3.52c-.2,1.16-.22,2.34-.4,3.5a11.39,11.39,0,0,1-4.59,7.57,2,2,0,0,1-1.24.45c-.78-.09-1.26-1-1.55-1.82-1.59-4.59-1.21-10.2-4.14-13.86a15,15,0,0,0-4.74-3.53,6.19,6.19,0,0,0-2.42-.91,6.34,6.34,0,0,0-3.5,1.28,21.7,21.7,0,0,1-6.92,3.06,8.52,8.52,0,0,1-7.15-1.54c-1.38-1.14-2.39-2.85-3.92-3.74s-3.13-.84-4.64-1.45a6.86,6.86,0,0,1-3.63-9,6.94,6.94,0,0,1,.85-1.47c1-1.2,2.48-1.88,3.37-3.21,1.15-1.72,1-4.08,1.6-6.14a8.46,8.46,0,0,1,5.09-5.81,7.14,7.14,0,0,1,7.12,1.49c1,.9,1.8,2.06,2.78,3a8,8,0,0,0,7.4,2"/><path class="k" d="M801.74,298.55a3.88,3.88,0,0,0-1.06,4.24c.22.47,10.54-1.52,11.63-1.67,2.72-.39,7.49-.2,9.32-2.69,3.26-4.41-6.84-3.43-8.69-3.27C809.42,295.46,804.42,295.94,801.74,298.55Z"/><path class="i" d="M707.86,169.55a31.88,31.88,0,0,0-.76,6c-3,.61-6.12-.39-9-1.39l-8.27-2.82a2.35,2.35,0,0,0-3.16.59c-1.33,1.38-3.16,4-5,5.55a4.22,4.22,0,0,1-.87-.19c-1.39-.58-1.18-2.73-.18-3.86s2.48-1.76,3.39-3a17.69,17.69,0,0,1,1.42-2.11,5.41,5.41,0,0,1,2.33-1.17,36.06,36.06,0,0,1,17.75-.67c1,.22,2.14.62,2.44,1.59A2.87,2.87,0,0,1,707.86,169.55Z"/><path class="k" d="M707.86,169.55a31.88,31.88,0,0,0-.76,6c-3,.61-6.12-.39-9-1.39l-8.27-2.82a2.35,2.35,0,0,0-3.16.59c-1.33,1.38-3.16,4-5,5.55a4.22,4.22,0,0,1-.87-.19c-1.39-.58-1.18-2.73-.18-3.86s2.48-1.76,3.39-3a17.69,17.69,0,0,1,1.42-2.11,5.41,5.41,0,0,1,2.33-1.17,36.06,36.06,0,0,1,17.75-.67c1,.22,2.14.62,2.44,1.59A2.87,2.87,0,0,1,707.86,169.55Z"/><path class="k" d="M783.51,359.4c1.44.48,3,1.18,3.49,2.62l-11.58-2.94-6-1.53c-1.06-.27-4.86-.58-5.56-1.41-1-1.22,2.55-.38,3.19-.29,1.94.29,3.88.59,5.81.94C776.5,357.44,780,358.51,783.51,359.4Z"/><path class="k" d="M788,369.65c-1-.67-3.87-.59-5.1-.88-1.8-.43-3.57-1-5.34-1.55-3.59-1.17-7.15-2.5-10.84-3.36-.68-.15-3-.19-2.89-1.05s2.32-1.16,2.87-1.2c3.27-.24,7.35,1.29,10.39,2.38A46,46,0,0,1,788,369.65Z"/><path class="k" d="M780.66,350.26c-3.67-1-7-3.28-10.78-3.72a4.37,4.37,0,0,1-2.75-.84,3.31,3.31,0,0,1-.89-1.6c2.53-.13,5.47.94,7.77,1.95a24,24,0,0,1,3.64,1.94C778.49,348.5,779.75,350,780.66,350.26Z"/><path class="i" d="M850.62,260.72a17.49,17.49,0,0,0,12.26,19.33c-.49,2.37-2.94,3.68-4.67,5.37-2.44,2.37-3.7,5.92-6.58,7.72-3.21,2-7.34,1.22-11,.38a1.37,1.37,0,0,1-.86-.45,1.11,1.11,0,0,1-.16-.39c-1.21-4.43-2-9.16-.76-13.6,1-3.78,3.4-7,5.32-10.34S846.27,261.82,850.62,260.72Z"/><path class="i" d="M761.21,203.38a26,26,0,0,0-11,3.35c-2.24,1.28-4.54,3-7.1,2.69-1.51-.17-3-1-4.47-.6a8.56,8.56,0,0,0-2.29,1.36,2.58,2.58,0,0,1-2.52.4l-1,13.84c-.38,5.26-.75,10.63.51,15.76.65,2.62,2.08,5,2.24,7.66s-.08,5.39.11,8.08c.18,2.49.73,4.94.87,7.43.28,4.7-.88,9.36-2,13.93-1.69,6.74-2.71,13.63-6,19.73-.92,1.69-2,3.41-2,5.33a2.72,2.72,0,0,0,.06.7c-1,.55-1.93,1.07-2.78,1.61-1.9,1.23-3.93,2.6-4.71,4.73-.63,1.73-.34,3.71-1.1,5.38s-2.5,2.86-2.88,4.66c-.27,1.31.25,2.69,0,4a16.62,16.62,0,0,0-.55,2.07c-.1,1.5,1.17,2.71,2.43,3.53a19.76,19.76,0,0,0,6,2.64l6-23.7h0a191.46,191.46,0,0,0,13.53-31.47,68.45,68.45,0,0,1,3.91-10.36,49.25,49.25,0,0,0,3-5.88c.91-2.52,1-5.25,1.44-7.91a55.37,55.37,0,0,1,2.35-9.13c1.08-3.21,2.33-6.41,2.55-9.78.33-4.82-1.42-9.91.44-14.37a19.11,19.11,0,0,1,3-4.59c2.58-3.16,4.93-6.47,7.51-9.63C765.44,203.41,763.21,203.26,761.21,203.38Z"/><g class="m"><path d="M789.39,148.07l-1.25.09-.14.1A7.26,7.26,0,0,0,789.39,148.07Z"/><path d="M812.27,168.83a27.07,27.07,0,0,1-1.28,5.84,27.11,27.11,0,0,0-1,3.52c-.2,1.16-.22,2.34-.4,3.5a11.39,11.39,0,0,1-4.59,7.57,2,2,0,0,1-1.24.45c-.78-.09-1.26-1-1.55-1.82-1.59-4.59-1.21-10.2-4.14-13.86a15,15,0,0,0-4.74-3.53,6.19,6.19,0,0,0-2.42-.91,6.34,6.34,0,0,0-3.5,1.28,21.7,21.7,0,0,1-6.92,3.06,8.52,8.52,0,0,1-7.15-1.54c-1.38-1.14-2.39-2.85-3.92-3.74s-3.13-.84-4.64-1.45a6.84,6.84,0,0,1-3.9-4.46,2.33,2.33,0,0,1-.08-.38,7,7,0,0,0,.08,3.38,6.84,6.84,0,0,0,3.9,4.46c1.51.61,3.21.62,4.64,1.45s2.54,2.6,3.92,3.74a8.52,8.52,0,0,0,7.15,1.54,21.7,21.7,0,0,0,6.92-3.06,6.34,6.34,0,0,1,3.5-1.28,6.19,6.19,0,0,1,2.42.91,15.19,15.19,0,0,1,4.67,3.56c2.93,3.66,2.55,9.27,4.14,13.86.29.83.77,1.73,1.55,1.82a2,2,0,0,0,1.31-.48,11.39,11.39,0,0,0,4.6-7.6c.18-1.16.2-2.34.4-3.5a27.11,27.11,0,0,1,1-3.52,22.51,22.51,0,0,0,1.33-8.41C812.31,169.11,812.29,169,812.27,168.83Z"/></g><path class="c" d="M749,249.07l-.68,9.13c-.1,1.24-2.47,30.76-20,65.26-15,29.59-44.19,68.13-99.3,89.79q-6.45,2.55-13.39,4.76l-5.16-16.2a189.52,189.52,0,0,0,37.22-16.28c28.09-16.22,49.93-39.37,65.16-69.16a185.74,185.74,0,0,0,17.1-50.3H667.3v-17Z"/><path class="n" d="M622.32,413.26c55.1-21.66,84.3-60.19,99.29-89.78,17.48-34.5,19.86-64,19.95-65.26l.68-9.13h7l-.68,9.13c-.09,1.24-2.47,30.76-19.95,65.26-15,29.59-44.19,68.12-99.29,89.78q-6.45,2.55-13.4,4.77l-.68-2.13Q618.86,414.61,622.32,413.26Z"/><path class="c" d="M512,401.81,506.84,418q-6.94-2.22-13.4-4.77c-55.1-21.66-84.3-60.19-99.29-89.78-17.48-34.5-19.86-64-19.95-65.26l-.68-9.13h81.66v17H392.47a185.86,185.86,0,0,0,17.15,50.3c15.23,29.79,37.06,52.94,65.15,69.15A189.38,189.38,0,0,0,512,401.81Z"/><path class="n" d="M500.18,413.26c-55.1-21.66-84.3-60.19-99.29-89.78-17.48-34.5-19.86-64-19.95-65.26l-.68-9.13h-7l.68,9.13c.09,1.24,2.47,30.76,19.95,65.26,15,29.59,44.19,68.12,99.29,89.78q6.45,2.55,13.4,4.77l.68-2.13Q503.65,414.61,500.18,413.26Z"/><path class="c" d="M655.59,558.41v91.67H466.92V558.41l6-8c61.14-21.7,73.53-78.29,76-100.68a90.59,90.59,0,0,0,.63-9.32h23.33a90.59,90.59,0,0,0,.63,9.32c2.51,22.39,14.9,79,76,100.68Z"/><rect class="k" x="466.92" y="558.41" width="188.67" height="11.5"/><path class="n" d="M482.92,550.41c61.14-21.7,73.53-78.29,76-100.68a90.59,90.59,0,0,0,.63-9.32h-10a90.59,90.59,0,0,1-.63,9.32c-2.51,22.39-14.9,79-76,100.68l-6,8v91.67h10V558.41Z"/><path class="k" d="M438.26,249.07h16.92v17H439.76Q438.85,257.67,438.26,249.07Z"/><path class="k" d="M512,401.81,506.84,418q-6.94-2.22-13.4-4.77a179.86,179.86,0,0,1-18.67-27.72A189.38,189.38,0,0,0,512,401.81Z"/><path class="k" d="M610.51,401.81a189.52,189.52,0,0,0,37.22-16.28,179.94,179.94,0,0,1-18.67,27.73q-6.45,2.55-13.39,4.76Z"/><path class="k" d="M684.24,249.07q-.59,8.6-1.5,17H667.33v-17Z"/><path class="k" d="M573.55,449.73a64.78,64.78,0,0,1-24.59,0,90.59,90.59,0,0,0,.63-9.32h23.33A90.59,90.59,0,0,0,573.55,449.73Z"/><path class="c" d="M440.26,220.91c.43,126.06,54.43,228,121,228s120.56-101.94,121-228Z"/><polygon class="o" points="503.09 597 625.42 597 625.42 592.5 497.09 592.5 497.09 625.5 503.09 625.5 503.09 597"/><rect class="p" x="497.09" y="592.5" width="128.33" height="33"/><path class="n" d="M461.76,220.91h-21.5c.43,126.06,54.43,228,121,228A65.63,65.63,0,0,0,572,448C510.47,437.72,462.17,340.11,461.76,220.91Z"/><path class="q" d="M371.82,342.62c-2.31-.77-15.91-11.53-16.94-16.4S362.07,276,362.07,276a18.47,18.47,0,0,1-2-.15v-.73l1.69-59.6s6.93-40-6.16-37.67-4.88,37.67-4.88,37.67-1.49,17.94-2.54,23.32c-1,5.19-5.58,26.33-2.46,32.9a6.52,6.52,0,0,0,.38.68h0S346.62,295,341,298c-5.39,2.93-7.63,17.68-7.82,19l-.29-.12h0a15.78,15.78,0,0,1-4.17-3.81c-.12-.15-.21-.31-.32-.47a22,22,0,0,0-.59-29.87,22.42,22.42,0,0,0-6.19-4.52,14.25,14.25,0,0,0-1.33-5.52c-2.6-5.56-17-12.83-27.23-13-4.72-.14-8.59,1.2-10,4.89-.72,1.87-.5,4-.8,5.94-.6,4-3.17,7.13-6.47,9.62a40.24,40.24,0,0,0-4.31-4.15c-3.34-2.56-10-11-10-11s-20.79-21.53-22.33-27.43-22.31-41.33-26.93-35.16,15.91,33.06,15.91,33.06,3.9,9.77,6.9,13.07,26,36.7,26,36.7l1.1,2.28c-4.86,2.56-9.3,5.82-10.87,10.9-2.3,7.48,2.73,15,6.21,22,6.78,13.66,7.75,31.08-1,43.56-7.84,11-21.44,16.26-34.17,20.84a33.65,33.65,0,0,0,21.6,7.17c-2.94,8.52-13.36,11.34-22.24,12.92,4.66,4.48,11.33,6.11,17.73,7.1a53.84,53.84,0,0,0,9.49.75h.78l.78-.06a27.16,27.16,0,0,0,3.23-.41c4.62-.94,9.11-3.46,11.47-7.54,2-3.49,2.7-8.25,6.33-10a8,8,0,0,1,3-.71h1.95l15.13.15h1.93c4.27-.1,8.83-.84,11-4.37a12.18,12.18,0,0,0,1.37-5.55c.32-4.79,0-9.72.13-14.55,1.29,8.79,2.64,22.49-.57,27.55A47.21,47.21,0,0,1,296,407.46a17.52,17.52,0,0,0-2.48,2.54c-.49.35-.78.54-.78.54l-.31.93a17.48,17.48,0,0,0-2.44,5.66,4,4,0,0,0-.19,1.61c.35.71-2.5,3.64-1.67,4.87-7.12,8.35-8.47,21-8.47,21l-13,19.74C260,481.9,250,483.7,250,483.7s-23.49-15.76-24.13-16.53-9.62-4.62-9.62-4.62a10.21,10.21,0,0,0-4.62-4.22c-3.08-1.28-3.34-6-3.34-6-.38-11.15-6.93-12-6.93-12-5.28-.45-9.31.49-12.41,2.21l-.94.07c-4.54.37-10,.78-16,1.18-16.69,1.1-20.66,11.91-20.66,11.91s-2.05,2.31.64,4.81,19.91,0,20.64-.06a11.25,11.25,0,0,1-3.92-.27c2.71-.1,6.44-.2,9.62-.2h.77a41.09,41.09,0,0,0-.29,5.08c0,3.2,8.85,5.25,8.85,5.25l27,24s16.94,7.57,27.72,18.46,20.31,1.49,20.31,1.49c11.41-2.82,44.24-42.51,44.27-42.55h0c0,1.16.69,39.76,2,47.51h0a5.1,5.1,0,0,0,.29,1.15c1.54,3.33-.52,12.43-1.41,16.27a44.76,44.76,0,0,0-.65,9.74s-12.31,47-11.29,51.13-6.67,23.32-6.67,23.32v16l1.34-.07c-.17.26-.33.52-.48.8l-.09.17s8.21,1.79,13.73,1.28,15,4.25,15,4.25,3.21,1.52,13.09,2.16,9.88-4.36,9.88-4.36c-1.13-6.81-16.74-9.09-17.22-9.16-1.26-.79-2.44-1.65-3.41-2.39l-.2-.16a3.61,3.61,0,0,0,.17-.46c1.67-6.8-7.57-9.75-7.57-9.75v-1.66c6-3.08,7.19-24.22,7.19-24.22s9-26.14,10.26-30.5,0-10.89,0-10.89l.9-5.64s1.93-3.84,1.93-4.61a11.41,11.41,0,0,1,2.18-5.38c1.41-1.67-1.54-5.64-1.54-5.64l2.57-6.66v-7.31l6-26.52s6.29-30.89,4.11-41,2.57-15.25,2.57-15.25a11.15,11.15,0,0,1-1.32.6,38,38,0,0,0,1.55-4.26l13.5,1.67v.2h4.87s-1.54-19-1.54-26.66,5.19-35.15,5.19-35.15S374.13,343.39,371.82,342.62Zm-59.93-22.18c0,.75-.07,1.53-.12,2.33l-.27.41-.5-.42-.61.95-.18.09c-1.32-.68-2-4.57-2.95-3.73l-.13.11c-.21-.24-.42-.31-.64-.11l-.2.17v-.89a22.51,22.51,0,0,0,5.6.71C311.9,320.19,311.89,320.32,311.89,320.44Zm44.9,88.48h.29l-.48,1.26C356.66,409.76,356.72,409.35,356.79,408.92ZM307.5,635.69l-1.84-.46,1-.17.93.61.11.08ZM326.3,633c-.61-.32-1.23-.69-1.83-1.07C324.67,632,325.46,632.45,326.3,633Z"/><polygon class="r" points="363.43 390.03 351.32 421.59 354.26 421.59 342.87 430.67 363.43 433.23 363.43 390.03"/><polygon class="k" points="363.43 390.03 351.32 421.59 348.27 420.77 342.87 430.67 363.43 433.23 363.43 390.03"/><polygon class="r" points="344.44 410.22 363.43 410.22 370.4 352.87 344.44 352.87 344.44 410.22"/><polygon class="k" points="344.44 410.22 363.43 410.22 370.4 352.87 344.44 352.87 344.44 410.22"/><path class="s" d="M307.35,366.45l4.1-.69,9.42-1.6s28.29-6.38,34.13-6.9a36.49,36.49,0,0,0,10.24-2.92c1.53-.66,2.5-1.16,2.5-1.16l-10.19-18.61-15.81-11.72s-10-2.13-14.23-8A9.37,9.37,0,0,1,326.2,306c2.58-8-15.41,7.65-15.41,7.65s.17,3.75,0,8.53c0,.94-.09,1.92-.16,2.92a19.69,19.69,0,0,1-.16,2c-.44,4.75-1.34,9.64-3.12,12.56C303,346.82,307.35,366.45,307.35,366.45Z"/><path class="k" d="M310.79,322.6h.4c.72,0,1.3-1.53,2-1.6,5.63-.54,10.77-1.72,14.34-5.71a9.38,9.38,0,0,1-1.31-8.87c2.58-8-15.41,7.64-15.41,7.64S311,317.82,310.79,322.6Z"/><path class="s" d="M288.89,299.92a21.91,21.91,0,0,0,21.9,21.92h0a15.26,15.26,0,0,0,2.14-.1,21.92,21.92,0,1,0-24.06-21.82Z"/><path class="i" d="M282.16,266.65c-.72,1.86-.5,3.94-.79,5.91-1.07,7.11-8.3,11.37-14.84,14.35s-13.92,6.51-16,13.38c-2.28,7.43,2.7,14.88,6.16,21.85,6.74,13.58,7.7,30.9-1,43.32-7.73,11-21.2,16.22-33.88,20.8a33.38,33.38,0,0,0,21.45,7.14c-2.91,8.47-13.26,11.28-22.08,12.84,4.63,4.46,11.26,6.08,17.61,7.06,4.63.72,9.38,1.19,14,.26s9-3.44,11.38-7.5c2-3.47,2.68-8.2,6.29-9.95a11.38,11.38,0,0,1,5.13-.75l15,.16c4.67,0,10.2-.36,12.61-4.35a11.92,11.92,0,0,0,1.36-5.52c.65-9.84-1.24-20.24,2.81-29.22,1.22-2.71-6.61-7-5.79-9.87,2.82-9.87,3.53-17.64,3.5-27.91,0-7.95,5.17-14.8,9.44-21.51S322.36,282,319,274.76C315.19,266.73,286.65,255.06,282.16,266.65Z"/><path class="s" d="M302.13,632.81l3.82,2.53.59.39.11.07,4.53,3,10.58,1.78,9.3-.64s2.68-5.6-1.53-5.47a8.79,8.79,0,0,1-3.84-1.11l-.58-.29h0c-.61-.32-1.22-.68-1.82-1.06h0c-1.25-.79-2.43-1.65-3.38-2.38-1.4-1.08-2.33-1.9-2.33-1.9Z"/><path class="k" d="M306,635.34l.59.39.11.07,4.53,3,10.58,1.78,9.3-.64s2.68-5.6-1.53-5.47a8.79,8.79,0,0,1-3.84-1.11c.74.58,1.36,1.21,1.42,1.74.17,1.43-6.88,4-6.88,4l-9.94-2.63s-1.69-.48-4-1.08l-.22-.06Z"/><path class="i" d="M289,637.78s8.15,1.78,13.63,1.27,14.92,4.21,14.92,4.21,3.19,1.5,13,2.14,9.81-4.34,9.81-4.34c-1.12-6.77-16.62-9-17.1-9.1h0a19.06,19.06,0,0,1,1.82,1.06h0c1.1.72,2.29,1.66,2.38,2.42.17,1.42-6.88,4-6.88,4l-9.94-2.62s-1.69-.49-4-1.09h-.22A86.37,86.37,0,0,0,296,633.58c-4.28-.46-6.47,3.18-6.92,4A1.19,1.19,0,0,0,289,637.78Z"/><path class="s" d="M160.54,458l4.33,3.32s1.26-.06,3.14-.12h.6c2.69-.1,6.4-.2,9.55-.2a30.25,30.25,0,0,1,6.09.34c2.16.76,6-12.36,6-12.36l-4.34-1-1.44-.34-1-.24-3.53-.83-10.7,1.22-7.52,4.84Z"/><path class="k" d="M160.54,458l4.33,3.32s1.26-.06,3.14-.12a3.81,3.81,0,0,1-2-1.79c-2.8-7.77,11.09-11.09,11.09-11.09l6.47-.28,1.26-.06h1l-1.44-.34-1-.24-3.53-.83-10.7,1.22-7.52,4.84Z"/><path class="i" d="M152,461.46c2.62,2.42,19.78,0,20.5-.06a10.63,10.63,0,0,1-3.89-.27,4.3,4.3,0,0,1-3-2.15c-2.8-7.78,11.09-11.09,11.09-11.09l6.47-.28,1.25-.06,15.73-.68.76-4.33s-5.11.48-13.13,1.12c-4.51.37-10,.78-15.93,1.17-16.57,1.1-20.51,11.85-20.51,11.85S149.33,459,152,461.46Z"/><path class="s" d="M344.45,273.76a4.54,4.54,0,0,0,.38.68l3.82,5.6,9.94,1,.11-3.94,1.67-59.28s6.88-39.76-6.12-37.47-4.84,37.47-4.84,37.47-1.48,17.84-2.52,23.2C345.88,246.2,341.35,267.26,344.45,273.76Z"/><path class="s" d="M322.14,421l2.83,4.84,6.33,10.83s11.48,4.21,14.42,1c1.61-1.75,3.35-7.86,4.57-13,1-4.16,1.67-7.67,1.67-7.67Z"/><path class="k" d="M322.14,421l2.83,4.84a2.9,2.9,0,0,0,.48-.51c3.2-4.08,17.29-.87,24.84-.61,1-4.16,1.67-7.67,1.67-7.67Z"/><path class="k" d="M178.16,460.93a30.25,30.25,0,0,1,6.09.34c2.16.76,6-12.36,6-12.36l-5.78-1.36,15.73-.68.76-4.33s-5.11.48-13.13,1.12a16.32,16.32,0,0,0-4.37,3.65l-.24.3C179.87,451.72,178.63,457,178.16,460.93Z"/><path class="k" d="M302.13,632.81l4.41,2.92c6.58-1.19,12.59-3.06,13.3-6v-.14c-1.4-1.08-2.33-1.9-2.33-1.9Z"/><path class="k" d="M289.09,637.61a152.87,152.87,0,0,0,17.34-1.86A86.2,86.2,0,0,0,296,633.58C291.73,633.12,289.54,636.76,289.09,637.61Z"/><path class="i" d="M178.64,466c0,3.19,8.79,5.23,8.79,5.23L214.2,495s16.82,7.52,27.52,18.35,20.14,1.53,20.14,1.53c11.34-2.8,44-42.31,44-42.31s.76,45.12,2.29,48.43-.51,12.36-1.4,16.19a44.83,44.83,0,0,0-.64,9.68s-12.23,46.77-11.21,50.85-6.63,23.2-6.63,23.2v15.93s30-1.15,31.6-7.9-7.51-9.69-7.51-9.69v-1.66c6-3.06,7.13-24.08,7.13-24.08s8.93-26,10.2-30.33,0-10.84,0-10.84l.89-5.6s1.91-3.83,1.91-4.59a11.39,11.39,0,0,1,2.17-5.35c1.4-1.66-1.53-5.61-1.53-5.61l2.55-6.63v-7.26l6-26.38s6.25-30.72,4.08-40.79S348.31,435,348.31,435c-10.23,5.36-15.39-6.57-17.08-11.7-.43-1.32-.64-2.2-.64-2.2s-14-5.18-27.13-3.94a31.45,31.45,0,0,0-7.79,1.65c-14.53,5.23-16.82,26.89-16.82,26.89L266,465.35c-6.63,17.46-16.57,19.24-16.57,19.24s-23.32-15.67-24-16.44-9.56-4.59-9.56-4.59a10.1,10.1,0,0,0-4.59-4.2c-3.06-1.28-3.31-6-3.31-6-.38-11.09-6.88-12-6.88-12C178.51,439.48,178.64,462.8,178.64,466Z"/><rect class="r" x="308.38" y="360.98" width="13.76" height="42.69"/><rect class="k" x="308.38" y="360.98" width="13.76" height="42.69"/><path class="k" d="M344.44,273.67v.09a4.54,4.54,0,0,0,.38.68l3.82,5.6,9.94,1,.11-3.94C355.59,276.86,348.53,276,344.44,273.67Z"/><path class="r" d="M344.83,274.44s.51,22.42-5.1,25.48-7.79,19-7.79,19,17,11.18,20.79,16.1,12.49,16.64,10.7,19.44S367.77,370,367.77,370,356.55,393,359.1,401.62s2.8,31.6,2.8,31.6h4.85s-1.53-18.86-1.53-26.51,5.09-34.92,5.09-34.92,2.3-26.76,0-27.52S354.51,332.8,353.49,328s7.14-50,7.14-50S350.18,277.5,344.83,274.44Z"/><path class="k" d="M308.12,357a21.88,21.88,0,0,0,3.33,8.74l9.42-1.6s28.29-6.38,34.13-6.9a36.49,36.49,0,0,0,10.24-2.92,45.19,45.19,0,0,0-12.65-20.75L349,330.26a60.17,60.17,0,0,0-18.1-11.57c.42.35,30.1,25.69,23.6,30.66s-24-7.13-24-7.13l-19.9-17.1-.72-.62-1.15,1.79a14.92,14.92,0,0,1,1.71.82,29.27,29.27,0,0,1,14,17.4C328.53,358.26,308.12,357,308.12,357Z"/><path class="t" d="M302,420.74s18.86,10.45,23.44,4.59c1-1.29,3.11-1.85,5.74-2-.43-1.32-.64-2.2-.64-2.2s-14.05-5.18-27.13-3.94Z"/><path class="u" d="M310.68,324.52l20.62,17.74s17.43,12.14,24,7.13-23.61-30.67-23.61-30.67h0a61,61,0,0,1,18.09,11.54l3.59,3.33c9.44,8.75,11.57,8.75,11.89,21.61.08,3.17-1,7.72-1.83,8.54-3.06,3-5.2,24.79-4.73,27.34s-5.7,24.56-3.7,30.68-25-3.06-29.57,2.81S302,420,302,420s10.45-26.77,13-28.55,5.61-15.55,0-21.92S308.89,357,308.89,357s20.4,1.26,16.31-12.49a28.86,28.86,0,0,0-15.68-18.22Z"/><path class="k" d="M338.2,369.64s-7.91,14.91-18.14,18.78c-.33.12-.65.23-1,.33C308.38,392,339,374.26,338.2,369.64Z"/><path class="s" d="M227.58,237.73s3.82,9.69,6.88,13,25.74,36.45,25.74,36.45l1.92,4,1.65,3.41,14.53-1.53,1-5.86-.56-.68c-1.46-1.75-5.44-6.45-8.11-8.5-3.31-2.54-9.94-10.95-9.94-10.95s-20.64-21.42-22.17-27.28-22.18-41-26.76-34.92S227.58,237.73,227.58,237.73Z"/><g class="m"><path d="M269.74,395.36a11.38,11.38,0,0,0-5.13.74c-3.6,1.75-4.28,6.48-6.28,9.95-2.34,4.06-6.8,6.57-11.39,7.5a25.44,25.44,0,0,1-2.76.38,31.39,31.39,0,0,0,8.76-.38c4.59-.93,9.05-3.44,11.39-7.5,2-3.47,2.68-8.2,6.28-9.95a8,8,0,0,1,3-.7Z"/><path d="M305.26,318.65c0-7.95,5.17-14.8,9.43-21.51s7.84-15.18,4.47-22.38c-2.88-6.15-20.24-14.4-30.26-12.77,9.81,1.27,21.9,7.73,24.26,12.77,3.37,7.2-.21,15.67-4.47,22.38s-9.45,13.56-9.43,21.51c0,10.26-.69,18-3.51,27.91-.81,2.85,7,7.16,5.8,9.86-4.06,9-2.16,19.38-2.81,29.22a12.09,12.09,0,0,1-1.37,5.52c-2,3.29-6.1,4.14-10.09,4.32h3.49c4.66,0,10.19-.36,12.6-4.35a12.09,12.09,0,0,0,1.37-5.52c.65-9.84-1.25-20.23,2.81-29.22,1.22-2.7-6.61-7-5.8-9.86C304.57,336.69,305.28,328.91,305.26,318.65Z"/></g><path class="k" d="M262.12,291.16l1.65,3.41L278.3,293l1-5.86-.56-.68C277.19,287.26,265.58,292.85,262.12,291.16Z"/><path class="k" d="M315.77,329.49s-3.57-5.6-5.61-4.08-2.83-4.59-4-3.57-4.58,3.86-6-.11c-1.11-3.16-13.19-23.15-18.09-31.19-1.26-2.08-2.05-3.36-2.05-3.36s-13.76,6.88-17.07,4.59v4.84l2.8.26,15,28s4.72,7.51,4.4,10.13,6.05,14.09,7.07,14.85,12,13.51,12,13.51,5.61,27.53.76,35.18-13.25,13.25-13.25,13.25-2.53,7.39-2.16,8.16-2.94,4.08-1.41,5.1,3.57,8.15,3.57,8.15,7.14-11.47,11-13.25,8.8-25.24,8.8-25.24,1.41-13.82,1.52-22.74S312.71,329.49,315.77,329.49Z"/><path class="r" d="M315,329.49s-3.56-5.6-5.6-4.08-2.84-4.59-4-3.57-4.57,3.86-6-.11c-1.12-3.16-13.2-23.15-18.09-31.19l-2.05-3.36s-13.76,6.88-17.08,4.59v4.84l2.81.26,15,28s4.73,7.51,4.4,10.13,6,14.09,7.07,14.85,12,13.51,12,13.51,5.61,27.53.77,35.18A47,47,0,0,1,295,408.76a17.87,17.87,0,0,0-6,9.62,3.93,3.93,0,0,0-.18,1.6c.37.76-2.94,4.08-1.41,5.1s3.59,8.18,3.59,8.18,7.14-11.47,11-13.25,8.81-25.24,8.81-25.24,1.4-13.82,1.52-22.74S312,329.49,315,329.49Z"/><path class="k" d="M280.08,445.47s10.71,2,15,5.09-16.31-4.84-16.31-4.84Z"/><path class="k" d="M305.83,472.61S317,481.92,315,490.33s-7.16,29.57-7.16,29.57Z"/><path class="k" d="M208.14,454.71s-15.74,1.72-14.72,3.76,14.72-1.88,14.72-1.88Z"/><path class="k" d="M329,532.13s1,1.27-4.84,0-1.53-5.19-1.53-5.19Z"/><path class="k" d="M327,549.72s-8,1.27-12.29,0S327,549.72,327,549.72Z"/><path class="k" d="M310.54,618.54s-1.4-1.53-8.41,1.27-9.81,2.93-11.85,2S310.54,618.54,310.54,618.54Z"/><path class="k" d="M318.32,452.54l-9.94,13.83S313.73,454.26,318.32,452.54Z"/><path class="k" d="M299,325.41s-.43,4.59-6.84,6.38-7.63,3.24-7.63,3.24"/><path class="k" d="M282.34,292.14s-8.46,6-17.29,4.73"/><path class="k" d="M288.78,420.61s2.47,1.55,8.4-5.23"/><path class="k" d="M350.37,348.72c.24-1.24-.62-2.39-1.43-3.36l-1.66-2a7.69,7.69,0,0,0-1.09-1.12c-1-.77-2.28-1-3.32-1.69"/><ellipse class="c" cx="916.19" cy="643.96" rx="40.21" ry="6.8"/><path class="c" d="M932.82,632.84a11.67,11.67,0,0,0,3.83-5.79c.5-2.29-.48-5-2.68-5.89-2.46-.94-5.09.77-7.08,2.49s-4.28,3.69-6.88,3.32a10.5,10.5,0,0,0,3.24-9.81,4,4,0,0,0-.9-2c-1.37-1.46-3.84-.84-5.48.31-5.2,3.66-6.65,10.73-6.68,17.08-.52-2.29-.08-4.68-.09-7s-.66-5-2.65-6.23a8,8,0,0,0-4-.94c-2.33-.09-4.94.15-6.53,1.86-2,2.12-1.47,5.68.25,8s4.35,3.81,6.77,5.42a14.88,14.88,0,0,1,4.83,4.61,4.09,4.09,0,0,1,.36.83h14.66A40.82,40.82,0,0,0,932.82,632.84Z"/><path class="v" d="M764.93,266.32l9.71-11a.82.82,0,0,0-.06-1.12.92.92,0,0,0-.29-.17l-6-1.84a.81.81,0,0,1-.52-1h0l.19-.63,2.17-7.66a.76.76,0,0,0-1.29-.75l-9.72,11a.82.82,0,0,0,.06,1.12.79.79,0,0,0,.29.17l6.05,1.85a.79.79,0,0,1,.52,1h0l-.18.64-2.18,7.65A.77.77,0,0,0,764.93,266.32Z"/><g class="w"><path class="b" d="M550.55,113.22a2,2,0,0,0-3.25,2.32c.37.56.78,1.11,1.16,1.63,4.69,6.33,7.12,14,9.22,21.63.51,1.87,1,3.86.42,5.71a35.39,35.39,0,0,0-1-14.9,91.49,91.49,0,0,0-5.27-14.06A12,12,0,0,0,550.55,113.22Z"/><path class="c" d="M520.08,126.55c-3.16-.1-3.57,4.7-.41,5,.83.06,1.65.08,2.46.1,9.7.27,18.86,3.79,27.67,7.56,2.16.93,4.44,2,5.7,4a41.67,41.67,0,0,0-14.76-10.46,108.85,108.85,0,0,0-17.42-5.62A14.31,14.31,0,0,0,520.08,126.55Z"/><path class="d" d="M521,138.35c-2,.08-1.54,2.92.47,2.94H523c6.12-.25,12.38,1.44,18.46,3.29a9.54,9.54,0,0,1,4.16,2.09,33.41,33.41,0,0,0-10.79-5.54,82.47,82.47,0,0,0-11.73-2.62A10.7,10.7,0,0,0,521,138.35Z"/><path class="b" d="M561.88,191.18c.57,1.92,3.22.78,2.73-1.17-.13-.52-.28-1-.43-1.5-1.75-5.86-1.67-12.35-1.38-18.7a9.59,9.59,0,0,1,1-4.53,33.42,33.42,0,0,0-2.72,11.82,84.41,84.41,0,0,0,.41,12A12.3,12.3,0,0,0,561.88,191.18Z"/><path class="d" d="M524.62,110.56c-1.22-.21-1.3,1.54-.1,1.81.32.07.63.12.93.17,3.69.63,7.21,2.43,10.61,4.31a5.71,5.71,0,0,1,2.21,1.78,20.25,20.25,0,0,0-5.74-4.68,48.7,48.7,0,0,0-6.68-3A5.49,5.49,0,0,0,524.62,110.56Z"/><path class="c" d="M506,157c-3,1.57-.46,5.88,2.67,4.45.82-.37,1.62-.79,2.38-1.19,9.35-4.84,20.18-6.62,30.85-8,2.62-.33,5.4-.63,7.83.41a52.67,52.67,0,0,0-20.42-1.23,133.09,133.09,0,0,0-19.94,4.29A17.15,17.15,0,0,0,506,157Z"/><path class="b" d="M514.75,173.82c-2.2,2.05,1.23,4.47,3.54,2.5.59-.51,1.17-1.06,1.71-1.57,6.69-6.28,15.54-10.75,24.33-14.87,2.16-1,11-2,13.43-2-6.2.55-18.87,2.49-24.5,5.05a135.11,135.11,0,0,0-16,9A17,17,0,0,0,514.75,173.82Z"/><path class="c" d="M530.4,200.63c-.64,2.93,3.55,3,4.34,0,.2-.77.37-1.54.53-2.28,1.93-9,6.66-17.67,11.56-26.06,1.2-2,7.93-8,9.92-9.26-4.79,4-14.11,12.77-17.29,18.08a136.45,136.45,0,0,0-8,16.45A19.19,19.19,0,0,0,530.4,200.63Z"/><path class="c" d="M561.93,97.7c-1.5-3-5.78-.54-4.41,2.59.35.82.75,1.62,1.13,2.38,4.6,9.31,6.19,20.08,7.37,30.67.29,2.6.54,5.36-.52,7.75A53.26,53.26,0,0,0,567,120.87a133.67,133.67,0,0,0-3.94-19.82A17.67,17.67,0,0,0,561.93,97.7Z"/><path class="c" d="M538.08,102.89a.81.81,0,0,0,.25.08.46.46,0,0,0,.35-.32c.38-.81.16-1.86.74-2.55a8.28,8.28,0,0,1,1.39,2.34l2.27-.68a3.28,3.28,0,0,1-.41,2.52,3.12,3.12,0,0,1,1,.7,1.17,1.17,0,0,1,.26,1.16,5.79,5.79,0,0,1-1.55.15,10.32,10.32,0,0,1-.16,2.88.6.6,0,0,1-.19.37.53.53,0,0,1-.53-.09,5,5,0,0,1-1.81-1.91l-.81,2a.84.84,0,0,1-.37.48.58.58,0,0,1-.68-.23,1.66,1.66,0,0,1-.24-.74l-.31-1.86a.46.46,0,0,0-.1-.26.48.48,0,0,0-.32-.09h-2.32c-.14-.41.27-.8.67-1s.86-.3,1.06-.69c.41-.78-.64-1.87-.19-2.55S537.43,102.56,538.08,102.89Z"/><path class="b" d="M580.44,113.22a2,2,0,1,1,3.26,2.32h0c-.38.56-.78,1.11-1.16,1.63-4.69,6.33-7.14,14-9.22,21.63-.52,1.87-1,3.86-.43,5.71a35.39,35.39,0,0,1,1-14.9,90.09,90.09,0,0,1,5.27-14.06A12,12,0,0,1,580.44,113.22Z"/><path class="c" d="M610.9,126.55c3.16-.1,3.58,4.7.41,5-.82.06-1.66.08-2.45.1-9.7.27-18.87,3.79-27.68,7.56-2.16.93-4.43,2-5.69,4a41.67,41.67,0,0,1,14.76-10.46,108.73,108.73,0,0,1,17.41-5.62A14.41,14.41,0,0,1,610.9,126.55Z"/><path class="b" d="M610.08,138.35c2,.08,1.54,2.92-.46,2.94h-1.55c-6.12-.25-12.38,1.44-18.46,3.29a9.54,9.54,0,0,0-4.16,2.09,33.41,33.41,0,0,1,10.79-5.54A82.79,82.79,0,0,1,608,138.55,11.49,11.49,0,0,1,610.08,138.35Z"/><path class="d" d="M606.38,110.56c1.22-.21,1.3,1.54.1,1.81-.32.07-.63.12-.94.17-3.68.63-7.21,2.43-10.6,4.31a5.71,5.71,0,0,0-2.21,1.78,20.21,20.21,0,0,1,5.73-4.68,50.06,50.06,0,0,1,6.69-3A5.49,5.49,0,0,1,606.38,110.56Z"/><path class="d" d="M575.08,194.82c-.27,1.19-1.91.6-1.7-.61a4.17,4.17,0,0,1,.2-.93c.85-3.64.54-7.59.11-11.45a5.65,5.65,0,0,0-.79-2.72,19.82,19.82,0,0,1,2.1,7.1,49.8,49.8,0,0,1,.23,7.33A5.53,5.53,0,0,1,575.08,194.82Z"/><path class="b" d="M605.62,186.9c.94,1.59-1.37,1.48-2.38-.11-.28-.42-.51-.84-.75-1.24-2.86-4.87-7.22-9.69-11.61-14.34a16.14,16.14,0,0,0-3.59-3.11,56.66,56.66,0,0,1,9.42,8.07c2.83,2.94,5.3,6,7.74,9.08A14.87,14.87,0,0,1,605.62,186.9Z"/><path class="d" d="M522,186.9c-.94,1.59,1.37,1.48,2.39-.11.26-.42.51-.84.74-1.24,2.85-4.87,7.21-9.69,11.6-14.34a16.19,16.19,0,0,1,3.6-3.11,57.21,57.21,0,0,0-9.44,8.07c-2.81,2.94-5.3,6-7.74,9.08A14.72,14.72,0,0,0,522,186.9Z"/><path class="d" d="M552.56,194.82c.27,1.19,1.92.6,1.71-.61-.06-.32-.13-.63-.2-.93-.84-3.64-.53-7.59-.11-11.45a5.65,5.65,0,0,1,.79-2.72,19.82,19.82,0,0,0-2.1,7.1,48.46,48.46,0,0,0-.22,7.33A6.86,6.86,0,0,0,552.56,194.82Z"/><path class="d" d="M596.75,122.52c1.2-.21,1.29,1.55.1,1.81l-.93.18c-3.69.62-7.22,2.43-10.61,4.31a5.7,5.7,0,0,0-2.21,1.77,20.18,20.18,0,0,1,5.73-4.67,48.7,48.7,0,0,1,6.68-3A6.18,6.18,0,0,1,596.75,122.52Z"/><path class="d" d="M585.5,99c1-.64,1.79,1,.77,1.64l-.79.51c-3.18,2-5.79,5-8.23,8a5.51,5.51,0,0,0-1.38,2.47,20,20,0,0,1,3.57-6.48,48.81,48.81,0,0,1,5.06-5.31A6.12,6.12,0,0,1,585.5,99Z"/><path class="c" d="M625,157c3,1.57.46,5.88-2.67,4.45-.82-.37-1.62-.79-2.39-1.19-9.34-4.84-20.17-6.62-30.84-8-2.62-.33-5.4-.63-7.83.41a52.61,52.61,0,0,1,20.41-1.23,133.22,133.22,0,0,1,20,4.29A17.15,17.15,0,0,1,625,157Z"/><path class="b" d="M616.24,173.82c2.2,2.05-1.23,4.47-3.53,2.5-.6-.51-1.18-1.06-1.73-1.57-6.69-6.28-15.52-10.75-24.33-14.87-2.15-1-11-2-13.42-2,6.2.55,18.86,2.49,24.49,5.05a133.55,133.55,0,0,1,16,9A16.09,16.09,0,0,1,616.24,173.82Z"/><path class="c" d="M590.38,204c.27,3-3.9,2.5-4.3-.5-.09-.78-.16-1.57-.23-2.32-.79-9.14-4.41-18.37-8.22-27.3-.93-2.2-6.87-8.9-8.67-10.44,4.25,4.55,12.4,14.44,14.89,20.1a137.26,137.26,0,0,1,5.91,17.34A15.68,15.68,0,0,1,590.38,204Z"/><path class="c" d="M592.88,102.89a.66.66,0,0,1-.26.08c-.16,0-.28-.17-.35-.32-.37-.81-.15-1.86-.72-2.55a8.84,8.84,0,0,0-1.41,2.34l-2.19-.68a3.29,3.29,0,0,0,.42,2.52,3.12,3.12,0,0,0-1,.7,1.15,1.15,0,0,0-.27,1.16,5.79,5.79,0,0,0,1.55.15,10.71,10.71,0,0,0,.17,2.88.6.6,0,0,0,.19.37.53.53,0,0,0,.53-.09,5,5,0,0,0,1.81-1.91l.81,2a.87.87,0,0,0,.36.48.58.58,0,0,0,.69-.23,1.66,1.66,0,0,0,.24-.74l.31-1.86a.46.46,0,0,1,.1-.26.48.48,0,0,1,.32-.09h2.32c.14-.41-.28-.8-.67-1s-.87-.3-1.07-.69c-.4-.78.65-1.87.2-2.55S593.56,102.56,592.88,102.89Z"/><path class="d" d="M599.5,193.22a.66.66,0,0,1-.26.08c-.17,0-.28-.17-.35-.32-.37-.81-.15-1.86-.72-2.55a8.84,8.84,0,0,0-1.41,2.34l-2.19-.68a3.33,3.33,0,0,0,.41,2.52,3.47,3.47,0,0,0-1,.7,1.15,1.15,0,0,0-.27,1.16,5.79,5.79,0,0,0,1.55.15,10.78,10.78,0,0,0,.16,2.89.6.6,0,0,0,.19.36c.16.1.37,0,.54-.09a5.08,5.08,0,0,0,1.8-1.91l.82,1.95a.93.93,0,0,0,.36.49.58.58,0,0,0,.68-.24,1.67,1.67,0,0,0,.25-.74l.3-1.85a.63.63,0,0,1,.1-.27.45.45,0,0,1,.33-.09h2.32c.13-.41-.28-.8-.67-1s-.87-.3-1.07-.69c-.4-.78.64-1.87.2-2.55S600.18,192.89,599.5,193.22Z"/><path class="c" d="M618.08,132.67a.72.72,0,0,1-.26.08c-.17,0-.28-.17-.34-.32-.38-.81-.16-1.86-.74-2.55a8.52,8.52,0,0,0-1.39,2.34l-2.21-.68a3.33,3.33,0,0,0,.42,2.52,3.12,3.12,0,0,0-1,.7,1.15,1.15,0,0,0-.27,1.16,5.79,5.79,0,0,0,1.55.15A10.78,10.78,0,0,0,614,139a.6.6,0,0,0,.19.36.53.53,0,0,0,.53-.09,5,5,0,0,0,1.81-1.91l.82,2a.93.93,0,0,0,.36.49.58.58,0,0,0,.68-.24,1.44,1.44,0,0,0,.24-.74l.31-1.85a.49.49,0,0,1,.1-.27.48.48,0,0,1,.32-.09h2.33c.13-.41-.28-.8-.68-1s-.86-.3-1.06-.69c-.41-.78.64-1.87.2-2.55S618.76,132.34,618.08,132.67Z"/><path class="c" d="M543.77,202.28a.63.63,0,0,1-.35.11c-.23,0-.4-.23-.49-.44-.53-1.14-.22-2.6-1-3.55a11.83,11.83,0,0,0-1.94,3.26l-3.06-1a4.54,4.54,0,0,0,.58,3.5,4.66,4.66,0,0,0-1.44,1,1.59,1.59,0,0,0-.38,1.62,7.81,7.81,0,0,0,2.16.21,14.93,14.93,0,0,0,.22,4,.75.75,0,0,0,.28.51c.21.14.51,0,.73-.12a7.14,7.14,0,0,0,2.5-2.62l1.13,2.71a1.26,1.26,0,0,0,.52.68.82.82,0,0,0,1-.33,2.58,2.58,0,0,0,.34-1l.42-2.58a.61.61,0,0,1,.15-.37.65.65,0,0,1,.45-.13h3.23c.19-.57-.39-1.1-.94-1.35s-1.2-.42-1.48-.95c-.56-1.1.89-2.62.27-3.56C545.89,200.76,544.73,201.81,543.77,202.28Z"/><path class="c" d="M512.86,134.48a.94.94,0,0,1-.36.11c-.23,0-.39-.24-.49-.45-.52-1.13-.22-2.59-1-3.55a12,12,0,0,0-1.94,3.26l-3.06-.94a4.54,4.54,0,0,0,.58,3.5,4.49,4.49,0,0,0-1.44,1,1.55,1.55,0,0,0-.37,1.61,7.74,7.74,0,0,0,2.15.22,14.15,14.15,0,0,0,.23,4,.72.72,0,0,0,.27.52c.22.14.51,0,.74-.13a7.31,7.31,0,0,0,2.52-2.66l1.13,2.71a1.2,1.2,0,0,0,.51.68.81.81,0,0,0,.95-.33,2.58,2.58,0,0,0,.34-1l.42-2.58a.61.61,0,0,1,.15-.37.65.65,0,0,1,.45-.13h3.23c.19-.57-.38-1.11-.94-1.35s-1.2-.42-1.48-1c-.56-1.09.89-2.61.28-3.55C515,132.92,513.8,134,512.86,134.48Z"/><path class="d" d="M606.68,176.47a.31.31,0,0,1-.19,0,.32.32,0,0,1-.26-.23c-.28-.6-.11-1.38-.54-1.89a6.35,6.35,0,0,0-1,1.73l-1.63-.5a2.4,2.4,0,0,0,.31,1.86,2.24,2.24,0,0,0-.76.52.83.83,0,0,0-.21.86,4.45,4.45,0,0,0,1.15.12,6.93,6.93,0,0,0,.13,2.13.35.35,0,0,0,.14.27c.11.08.27,0,.39-.07a3.78,3.78,0,0,0,1.34-1.41l.6,1.44a.58.58,0,0,0,.27.36.47.47,0,0,0,.51-.17,1.78,1.78,0,0,0,.18-.55l.22-1.37a.28.28,0,0,1,.08-.2.33.33,0,0,1,.24-.07h1.71c.1-.31-.2-.59-.49-.72s-.65-.22-.79-.51c-.3-.58.47-1.39.14-1.89S607.18,176.22,606.68,176.47Z"/><path class="d" d="M564.68,200.76a.31.31,0,0,1-.19,0,.32.32,0,0,1-.26-.23c-.28-.6-.11-1.38-.54-1.89a6.35,6.35,0,0,0-1,1.73l-1.63-.5a2.4,2.4,0,0,0,.31,1.86,2.24,2.24,0,0,0-.76.52.83.83,0,0,0-.21.86,4,4,0,0,0,1.15.11,7,7,0,0,0,.13,2.14.37.37,0,0,0,.13.27.42.42,0,0,0,.4-.07,3.78,3.78,0,0,0,1.34-1.41l.6,1.44a.65.65,0,0,0,.27.36.47.47,0,0,0,.51-.17,1.53,1.53,0,0,0,.17-.55l.23-1.37a.28.28,0,0,1,.08-.2.29.29,0,0,1,.24-.07h1.71c.1-.31-.2-.59-.49-.72s-.65-.23-.79-.51c-.3-.58.47-1.39.14-1.89S565.18,200.47,564.68,200.76Z"/><path class="b" d="M524.08,115.84a.53.53,0,0,1-.19.06.37.37,0,0,1-.26-.24c-.28-.6-.12-1.38-.55-1.88a6.62,6.62,0,0,0-1,1.73l-1.62-.5a2.48,2.48,0,0,0,.3,1.86,2.45,2.45,0,0,0-.76.52.85.85,0,0,0-.2.86,4.08,4.08,0,0,0,1.15.11,8,8,0,0,0,.12,2.13.42.42,0,0,0,.14.28c.12.07.28,0,.4-.07a3.88,3.88,0,0,0,1.34-1.42l.6,1.44a.62.62,0,0,0,.27.37.45.45,0,0,0,.51-.18,1.37,1.37,0,0,0,.18-.55l.22-1.37a.27.27,0,0,1,.27-.27h1.76c.1-.3-.21-.59-.5-.71s-.64-.23-.78-.51c-.3-.58.46-1.39.15-1.89S524.54,115.59,524.08,115.84Z"/><path class="b" d="M545.67,163.67a.7.7,0,0,1-.19.06c-.12,0-.22-.13-.27-.24-.28-.6-.11-1.38-.53-1.88a5.88,5.88,0,0,0-1,1.73l-1.62-.5a2.35,2.35,0,0,0,.31,1.86,2.23,2.23,0,0,0-.77.52.86.86,0,0,0-.21.85,4.53,4.53,0,0,0,1.16.12,7.26,7.26,0,0,0,.12,2.13.35.35,0,0,0,.14.27c.12.08.28,0,.4-.06a3.94,3.94,0,0,0,1.33-1.42l.61,1.44a.54.54,0,0,0,.27.36.42.42,0,0,0,.5-.17,1.37,1.37,0,0,0,.18-.55l.23-1.37a.26.26,0,0,1,.07-.19.29.29,0,0,1,.24-.07h1.72c.09-.3-.22-.59-.5-.72s-.65-.22-.79-.51c-.29-.58.48-1.38.15-1.88S546.17,163.42,545.67,163.67Z"/><path class="b" d="M530,145a.31.31,0,0,1-.19,0c-.12,0-.21-.12-.26-.23-.28-.6-.12-1.38-.53-1.89a6.1,6.1,0,0,0-1,1.73l-1.62-.5a2.35,2.35,0,0,0,.31,1.86,2.54,2.54,0,0,0-.78.52.9.9,0,0,0-.2.86,4.12,4.12,0,0,0,1.16.11,7.34,7.34,0,0,0,.11,2.14.3.3,0,0,0,.54.2,3.75,3.75,0,0,0,1.33-1.41l.61,1.44a.75.75,0,0,0,.27.36.43.43,0,0,0,.5-.18,1.09,1.09,0,0,0,.18-.54l.23-1.38a.26.26,0,0,1,.24-.27h1.79c.1-.3-.21-.58-.5-.71s-.64-.23-.79-.51c-.3-.58.48-1.39.15-1.89S530.46,144.76,530,145Z"/><path class="b" d="M597.4,149.42a.38.38,0,0,1-.19.05c-.13,0-.21-.12-.26-.23-.28-.6-.12-1.38-.55-1.89a6.91,6.91,0,0,0-1,1.73l-1.61-.5a2.35,2.35,0,0,0,.29,1.86,2.45,2.45,0,0,0-.76.52.85.85,0,0,0-.2.86,4.08,4.08,0,0,0,1.15.11,7.71,7.71,0,0,0,.12,2.14.39.39,0,0,0,.15.27.4.4,0,0,0,.39-.07,3.86,3.86,0,0,0,1.34-1.41l.6,1.44a.65.65,0,0,0,.27.36.45.45,0,0,0,.51-.18,1.33,1.33,0,0,0,.18-.54l.22-1.38a.27.27,0,0,1,.08-.19.29.29,0,0,1,.24-.07h1.71c.1-.3-.21-.58-.5-.71s-.64-.23-.78-.51c-.3-.58.46-1.39.15-1.89S597.9,149.17,597.4,149.42Z"/><path class="d" d="M564.68,145.76a.31.31,0,0,1-.19,0,.32.32,0,0,1-.26-.23c-.28-.6-.11-1.38-.54-1.89a6.35,6.35,0,0,0-1,1.73l-1.63-.5a2.4,2.4,0,0,0,.31,1.86,2.24,2.24,0,0,0-.76.52.83.83,0,0,0-.21.86,4.45,4.45,0,0,0,1.15.12,6.93,6.93,0,0,0,.13,2.13.37.37,0,0,0,.13.27c.12.08.28,0,.4-.07a3.78,3.78,0,0,0,1.34-1.41l.6,1.44a.58.58,0,0,0,.27.36.47.47,0,0,0,.51-.17,1.53,1.53,0,0,0,.17-.55l.23-1.37a.28.28,0,0,1,.08-.2.33.33,0,0,1,.24-.07h1.71c.1-.31-.2-.59-.49-.72s-.65-.22-.79-.51c-.3-.58.47-1.39.14-1.89S565.18,145.5,564.68,145.76Z"/><path class="e" d="M554.42,150.21a.47.47,0,0,1-.21.06c-.11,0-.2-.12-.26-.23-.27-.6-.1-1.38-.53-1.89a6.35,6.35,0,0,0-1,1.73l-1.63-.5a2.4,2.4,0,0,0,.31,1.86,2.38,2.38,0,0,0-.77.52.85.85,0,0,0-.2.86,4,4,0,0,0,1.14.11,8.11,8.11,0,0,0,.13,2.14.39.39,0,0,0,.15.27.4.4,0,0,0,.39-.07,3.86,3.86,0,0,0,1.34-1.41l.6,1.44a.65.65,0,0,0,.27.36.45.45,0,0,0,.51-.18,1.72,1.72,0,0,0,.18-.54l.22-1.38a.27.27,0,0,1,.27-.27h1.77c.09-.3-.22-.58-.5-.71s-.65-.23-.79-.51c-.3-.58.46-1.39.14-1.89S554.92,150,554.42,150.21Z"/><path class="d" d="M544.83,123.18a.53.53,0,0,1-.19.06c-.12,0-.21-.13-.26-.24-.27-.6-.11-1.38-.53-1.88a5.88,5.88,0,0,0-1,1.73l-1.64-.51a2.49,2.49,0,0,0,.31,1.86,2.45,2.45,0,0,0-.76.52.87.87,0,0,0-.2.86,4.42,4.42,0,0,0,1.14.12,7.62,7.62,0,0,0,.13,2.13.46.46,0,0,0,.13.27c.12.08.29,0,.41-.06a3.88,3.88,0,0,0,1.34-1.42l.6,1.44a.58.58,0,0,0,.27.36.43.43,0,0,0,.51-.17,1.53,1.53,0,0,0,.17-.55l.23-1.37a.28.28,0,0,1,.08-.2.29.29,0,0,1,.24-.06h1.71c.1-.31-.2-.59-.49-.72s-.65-.22-.79-.51c-.3-.58.47-1.38.14-1.88S545.33,122.93,544.83,123.18Z"/><path class="e" d="M563.69,158.46a.38.38,0,0,1-.19,0c-.13,0-.21-.12-.26-.23-.28-.6-.12-1.38-.55-1.89a6.68,6.68,0,0,0-1,1.74l-1.62-.51a2.48,2.48,0,0,0,.3,1.86,2.57,2.57,0,0,0-.76.52.85.85,0,0,0-.2.86,4.5,4.5,0,0,0,1.15.12,8,8,0,0,0,.12,2.13.42.42,0,0,0,.14.27c.12.08.28,0,.39-.06a3.83,3.83,0,0,0,1.35-1.42l.59,1.44a.63.63,0,0,0,.28.36.47.47,0,0,0,.51-.17,1.55,1.55,0,0,0,.18-.55l.21-1.37a.37.37,0,0,1,.09-.2.32.32,0,0,1,.23-.07h1.72c.1-.31-.21-.59-.5-.72s-.64-.22-.79-.51c-.29-.58.48-1.39.16-1.89S564.19,158.21,563.69,158.46Z"/></g><path class="v" d="M555.38,371l39.44-43.3a3.11,3.11,0,0,0-.23-4.38,3.06,3.06,0,0,0-1.19-.67l-24.56-7.24a3.1,3.1,0,0,1-2.11-3.84v0l.74-2.5,8.84-30a3.11,3.11,0,0,0-5.28-3l-39.42,43.3a3.1,3.1,0,0,0,.21,4.38,3,3,0,0,0,1.21.68l24.55,7.24a3.1,3.1,0,0,1,2.11,3.85h0L559,338l-8.86,30A3.11,3.11,0,0,0,555.38,371Z"/><path class="v" d="M528,608l-1.8,6.73h-1.4L522.32,606h1.46l1.8,7,1.91-7h1.06l1.89,7,1.8-7h1.47l-2.48,8.71h-1.4Z"/><path class="v" d="M534.82,606h3.67a2.68,2.68,0,1,1,0,5.35h-2.37v3.36h-1.3Zm3.5,1.15h-2.2v3h2.2a1.53,1.53,0,1,0,0-3Z"/><path class="v" d="M545.62,610.34a4.36,4.36,0,0,1,4.47-4.51,3.94,3.94,0,0,1,3.46,1.85l-1.11.58a2.76,2.76,0,0,0-2.35-1.26,3.35,3.35,0,0,0,0,6.68,2.76,2.76,0,0,0,2.35-1.26l1.11.59a4,4,0,0,1-3.46,1.84A4.36,4.36,0,0,1,545.62,610.34Z"/><path class="v" d="M554.43,611.53a3.19,3.19,0,1,1,3.19,3.32A3.13,3.13,0,0,1,554.43,611.53Zm5.15,0a2,2,0,1,0-2,2.27A2,2,0,0,0,559.58,611.53Z"/><path class="v" d="M570,610.48c0-.73-.32-1.21-1.09-1.21a2,2,0,0,0-1.57.9v4.52h-1.18v-4.21c0-.73-.31-1.21-1.11-1.21a2.09,2.09,0,0,0-1.54.91v4.51H562.3v-6.31h1.17v.89a2.74,2.74,0,0,1,2-1,1.62,1.62,0,0,1,1.71,1.17,2.64,2.64,0,0,1,2.13-1.17c1.16,0,1.79.64,1.79,1.9v4.56H570Z"/><path class="v" d="M573,617.09v-8.71h1.17v.9a2.6,2.6,0,0,1,2.07-1c1.64,0,2.8,1.24,2.8,3.3s-1.16,3.32-2.8,3.32a2.52,2.52,0,0,1-2.07-1.07v3.31Zm2.92-7.82a2.17,2.17,0,0,0-1.75.93v2.67a2.19,2.19,0,0,0,1.75.93c1.18,0,1.9-.95,1.9-2.27S577.11,609.27,575.93,609.27Z"/><path class="v" d="M580.54,608.38h1.18v1a2.67,2.67,0,0,1,2.06-1.11v1.19a1.59,1.59,0,0,0-.4,0,2.22,2.22,0,0,0-1.66.91v4.39h-1.18Z"/><path class="v" d="M587.73,608.23a3.1,3.1,0,0,1,3.07,3.4v.29h-5a2.07,2.07,0,0,0,2.14,2,2.69,2.69,0,0,0,1.87-.74l.55.77a3.58,3.58,0,0,1-2.54.94,3.31,3.31,0,0,1-.1-6.62Zm-1.94,2.84h3.86a1.87,1.87,0,0,0-1.92-1.88A1.94,1.94,0,0,0,585.79,611.07Z"/><path class="v" d="M592.29,613a3,3,0,0,0,2.11.9c.89,0,1.36-.37,1.36-.9s-.72-.84-1.53-1c-1.07-.25-2.32-.54-2.32-1.9,0-1,.86-1.86,2.4-1.86a3.34,3.34,0,0,1,2.4.9l-.52.82a2.43,2.43,0,0,0-1.87-.77c-.79,0-1.29.31-1.29.82s.68.73,1.46.92c1.1.24,2.41.54,2.41,2,0,1.09-.89,1.94-2.55,1.94a3.57,3.57,0,0,1-2.62-1Z"/><path class="v" d="M598.4,613a3.06,3.06,0,0,0,2.11.9c.89,0,1.36-.37,1.36-.9s-.72-.84-1.53-1c-1.07-.25-2.32-.54-2.32-1.9,0-1,.86-1.86,2.4-1.86a3.39,3.39,0,0,1,2.41.9l-.53.82a2.42,2.42,0,0,0-1.86-.77c-.8,0-1.3.31-1.3.82s.68.73,1.47.92c1.09.24,2.4.54,2.4,2,0,1.09-.89,1.94-2.55,1.94a3.59,3.59,0,0,1-2.62-1Z"/><path class="v" d="M347.84,385.22l7.86-11.38a1,1,0,0,0-.05-1.16.56.56,0,0,0-.24-.17l-4.89-1.91a.88.88,0,0,1-.42-1h0l.15-.66L352,361c.19-.83-.61-1.42-1.05-.78l-7.86,11.39a1,1,0,0,0,0,1.16.56.56,0,0,0,.24.17l4.89,1.9a.9.9,0,0,1,.42,1h0l-.15.66-1.76,7.89C346.6,385.28,347.4,385.87,347.84,385.22Z"/></svg>