<svg width="12" height="12" viewBox="0 0 12 12" fill="none" xmlns="http://www.w3.org/2000/svg">
<path d="M6 0C2.69147 0 0 2.69147 0 6C0 9.30853 2.69147 12 6 12C9.30853 12 12 9.30853 12 6C12 2.69147 9.30853 0 6 0ZM6 2.50003C6.27603 2.50003 6.49997 2.72397 6.49997 3C6.49997 3.27603 6.27603 3.49997 6 3.49997C5.72397 3.49997 5.50003 3.27603 5.50003 3C5.50003 2.72397 5.72397 2.50003 6 2.50003ZM7.125 9.49997H4.875C4.59851 9.49997 4.37503 9.27603 4.37503 9C4.37503 8.72397 4.59851 8.50003 4.875 8.50003H5.50003V5.50003H5.12503C4.84854 5.50003 4.62497 5.276 4.62497 4.99997C4.62497 4.72403 4.84854 4.5 5.12503 4.5H6C6.27649 4.5 6.49997 4.72403 6.49997 4.99997V8.50003H7.125C7.40149 8.50003 7.62497 8.72397 7.62497 9C7.62497 9.27603 7.40149 9.49997 7.125 9.49997Z" fill="#5CB1FF"/>
</svg>
