<svg width="67" height="67" viewBox="0 0 67 67" fill="none" xmlns="http://www.w3.org/2000/svg">
<path d="M17.7044 15.7054C21.3115 12.0982 27.1596 12.0982 30.7667 15.7053L38.4864 23.4249C42.2175 27.1562 41.872 33.1014 38.4864 36.4872C37.9194 37.0542 37.2921 37.5165 36.6297 37.8962L35.2207 36.4872C34.2966 35.563 34.6219 34.4826 34.6385 33.7029C34.8414 33.5591 35.0386 33.4037 35.2207 33.2216C36.9582 31.4843 37.0363 28.506 35.2207 26.6905C34.9511 26.4208 27.6649 19.1346 27.5012 18.971C25.7002 17.1699 22.7711 17.1699 20.9701 18.971C19.1691 20.772 19.1691 23.7011 20.9701 25.5021L26.0727 30.6047C25.9251 31.4211 25.0396 33.3551 25.4951 36.5454C25.4729 36.5235 25.4462 36.5094 25.4241 36.4873L17.7044 28.7677C14.0974 25.1605 14.0974 19.3125 17.7044 15.7054Z" fill="#5498F9"/>
<path d="M30.3209 28.3239C30.8878 27.7569 31.5152 27.2946 32.1774 26.9149L33.5864 28.3239C34.5106 29.248 34.1854 30.3284 34.1687 31.108C33.9658 31.2518 33.7685 31.4072 33.5864 31.5893C31.8489 33.3268 31.7708 36.3049 33.5864 38.1205C33.8566 38.3907 41.7464 46.2805 41.9042 46.4383C43.7053 48.2394 46.6344 48.2394 48.4354 46.4383C50.2364 44.6373 50.2364 41.7082 48.4354 39.9072L42.7344 34.2062C42.882 33.3898 43.7676 31.4559 43.312 28.2656C43.3343 28.2875 43.3611 28.3017 43.3832 28.3238L51.701 36.6417C55.308 40.2489 55.308 46.0969 51.701 49.704C48.0939 53.311 42.2459 53.311 38.6388 49.704L30.3209 41.3862C26.659 37.7242 26.8591 31.7856 30.3209 28.3239Z" fill="#E7F4FE"/>
<path d="M43 13C42.7348 13 42.4804 12.8919 42.2929 12.6994C42.1054 12.5069 42 12.2459 42 11.9737V1.02632C42 0.75412 42.1054 0.493066 42.2929 0.300595C42.4804 0.108123 42.7348 0 43 0C43.2652 0 43.5196 0.108123 43.7071 0.300595C43.8946 0.493066 44 0.75412 44 1.02632V11.9737C44 12.2459 43.8946 12.5069 43.7071 12.6994C43.5196 12.8919 43.2652 13 43 13Z" fill="#4880ED"/>
<path d="M24 54C24.2652 54 24.5196 54.1081 24.7071 54.3006C24.8947 54.4931 25 54.7541 25 55.0263L25 65.9737C25 66.2459 24.8946 66.5069 24.7071 66.6994C24.5196 66.8919 24.2652 67 24 67C23.7348 67 23.4804 66.8919 23.2929 66.6994C23.1054 66.5069 23 66.2459 23 65.9737L23 55.0263C23 54.7541 23.1054 54.4931 23.2929 54.3006C23.4804 54.1081 23.7348 54 24 54Z" fill="#4880ED"/>
<path d="M66.0526 27H55.9474C55.6961 27 55.4551 26.8946 55.2775 26.7071C55.0998 26.5196 55 26.2652 55 26C55 25.7348 55.0998 25.4804 55.2775 25.2929C55.4551 25.1054 55.6961 25 55.9474 25H66.0526C66.3039 25 66.5449 25.1054 66.7225 25.2929C66.9002 25.4804 67 25.7348 67 26C67 26.2652 66.9002 26.5196 66.7225 26.7071C66.5449 26.8946 66.3039 27 66.0526 27Z" fill="#E7F4FE"/>
<path d="M0.947369 40L11.0526 40C11.3039 40 11.5449 40.1054 11.7225 40.2929C11.9002 40.4804 12 40.7348 12 41C12 41.2652 11.9002 41.5196 11.7225 41.7071C11.5449 41.8946 11.3039 42 11.0526 42L0.947369 42C0.696111 42 0.455139 41.8946 0.277473 41.7071C0.0998068 41.5196 6.42368e-08 41.2652 8.74228e-08 41C1.10609e-07 40.7348 0.0998069 40.4804 0.277473 40.2929C0.455139 40.1053 0.696111 40 0.947369 40Z" fill="#4880ED"/>
<path d="M52.9278 16.9999C52.8054 17.0009 52.6841 16.9746 52.571 16.9225C52.458 16.8703 52.3555 16.7934 52.2698 16.6963C52.0969 16.5014 52 16.2387 52 15.9651C52 15.6914 52.0969 15.4287 52.2698 15.2338L59.409 7.29983C59.5844 7.10771 59.8207 7 60.067 7C60.3133 7 60.5497 7.10771 60.7251 7.29983C60.8122 7.39545 60.8813 7.50932 60.9285 7.63485C60.9757 7.76038 61 7.89508 61 8.03113C61 8.16718 60.9757 8.30188 60.9285 8.42742C60.8813 8.55295 60.8122 8.66682 60.7251 8.76243L53.5859 16.6963C53.5005 16.794 53.3982 16.8714 53.285 16.9236C53.1719 16.9758 53.0503 17.0017 52.9278 16.9999Z" fill="#4880ED"/>
<path d="M14.0722 50.0001C14.1946 49.9991 14.3159 50.0254 14.429 50.0775C14.542 50.1297 14.6445 50.2066 14.7302 50.3037C14.9031 50.4986 15 50.7613 15 51.0349C15 51.3086 14.9031 51.5713 14.7302 51.7662L7.59103 59.7002C7.41563 59.8923 7.17925 60 6.93298 60C6.68671 60 6.45033 59.8923 6.27493 59.7002C6.18784 59.6046 6.11869 59.4907 6.0715 59.3652C6.02431 59.2396 6 59.1049 6 58.9689C6 58.8328 6.02431 58.6981 6.0715 58.5726C6.11869 58.447 6.18784 58.3332 6.27493 58.2376L13.4141 50.3037C13.4995 50.206 13.6018 50.1286 13.715 50.0764C13.8281 50.0242 13.9497 49.9983 14.0722 50.0001Z" fill="#E7F4FE"/>
</svg>
