<svg width="68" height="68" viewBox="0 0 68 68" fill="none" xmlns="http://www.w3.org/2000/svg">
<rect x="0.5" y="0.5" width="42.7054" height="42.7054" rx="3.5" stroke="#5498F9"/>
<rect x="24.7808" y="24.7808" width="42.7054" height="42.7054" rx="3.5" stroke="#E7F4FE"/>
<rect x="67.1216" y="31.9982" width="1.21404" height="49.498" transform="rotate(45 67.1216 31.9982)" fill="#E7F4FE"/>
<rect x="49.0391" y="24.3203" width="1.21404" height="8.81593" transform="rotate(45 49.0391 24.3203)" fill="#E7F4FE"/>
<rect x="30.8047" y="42.5546" width="1.21404" height="9.05446" transform="rotate(45 30.8047 42.5546)" fill="#E7F4FE"/>
<rect x="67.1357" y="40.5652" width="1.21404" height="37.2574" transform="rotate(45 67.1357 40.5652)" fill="#E7F4FE"/>
<rect x="39.3398" y="42.5977" width="1.21404" height="21.0598" transform="rotate(45 39.3398 42.5977)" fill="#E7F4FE"/>
<rect x="57.6084" y="24.3369" width="1.21404" height="21.2225" transform="rotate(45 57.6084 24.3369)" fill="#E7F4FE"/>
<rect x="66.9766" y="49.3105" width="1.21404" height="24.9707" transform="rotate(45 66.9766 49.3105)" fill="#E7F4FE"/>
<rect x="65.3052" y="25.2238" width="1.21404" height="56.9757" transform="rotate(45 65.3052 25.2238)" fill="#E7F4FE"/>
<rect x="67.0269" y="57.8439" width="1.21404" height="13.0024" transform="rotate(45 67.0269 57.8439)" fill="#E7F4FE"/>
<path d="M24.2808 26.2808C24.2808 25.1762 25.1762 24.2808 26.2808 24.2808H43.7054V41.7054C43.7054 42.8099 42.8099 43.7054 41.7054 43.7054H24.2808V26.2808Z" fill="#5498F9"/>
<rect x="10.0859" y="0.0585938" width="1.21404" height="14.1853" transform="rotate(45 10.0859 0.0585938)" fill="#5498F9"/>
<rect x="42.2383" y="2.24609" width="1.21404" height="56.6967" transform="rotate(45 42.2383 2.24609)" fill="#5498F9"/>
<rect x="18.4287" y="0.303528" width="1.21404" height="25.9379" transform="rotate(45 18.4287 0.303528)" fill="#5498F9"/>
<rect x="42.7891" y="10.2793" width="1.21404" height="20.0274" transform="rotate(45 42.7891 10.2793)" fill="#5498F9"/>
<rect x="24.6094" y="28.4629" width="1.21404" height="20.3032" transform="rotate(45 24.6094 28.4629)" fill="#5498F9"/>
<rect x="27.1167" y="0.199158" width="1.21404" height="37.8501" transform="rotate(45 27.1167 0.199158)" fill="#5498F9"/>
<rect x="24.5034" y="37.1539" width="1.21404" height="7.98285" transform="rotate(45 24.5034 37.1539)" fill="#5498F9"/>
<rect x="42.8008" y="18.8555" width="1.21404" height="8.02098" transform="rotate(45 42.8008 18.8555)" fill="#5498F9"/>
<rect x="35.7461" y="0.148438" width="1.21404" height="50.4107" transform="rotate(45 35.7461 0.148438)" fill="#5498F9"/>
</svg>
