<svg width="221" height="122" viewBox="0 0 221 122" fill="none" xmlns="http://www.w3.org/2000/svg">
<path d="M166.5 63.9707C166.5 95.179 141.424 120.471 110.5 120.471C79.5762 120.471 54.5 95.179 54.5 63.9707C54.5 32.7625 79.5762 7.4707 110.5 7.4707C141.424 7.4707 166.5 32.7625 166.5 63.9707Z" stroke="#EFF7FF"/>
<rect x="0.5" y="10.4707" width="90" height="64" rx="5.5" fill="white" stroke="#EFF7FF"/>
<circle cx="6" cy="13.9707" r="1" fill="#5498F9"/>
<circle cx="10" cy="13.9707" r="1" fill="#5498F9"/>
<circle cx="14" cy="13.9707" r="1" fill="#5498F9"/>
<rect x="4.41016" y="16.9121" width="82.3529" height="5.88235" rx="2.94118" fill="#DDEAFE"/>
<rect x="5.14844" y="25" width="33.8235" height="45.5882" rx="4" fill="#EFF7FF"/>
<path d="M12 53.9707C12 53.9707 12.5235 41.5585 18.0561 40.7239C23.7589 39.8638 21.6123 52.9213 27.3565 52.4252C33.6413 51.8825 32.98 36.9707 32.98 36.9707" stroke="#5498F9"/>
<rect x="10.293" y="61.7656" width="22.7941" height="5.88235" rx="2.94118" fill="#5498F9"/>
<rect x="42.6484" y="48.5293" width="44.8529" height="21.3235" rx="4" fill="#EFF7FF"/>
<rect x="45.5898" y="57.3535" width="37.5" height="0.735294" rx="0.367647" fill="#DDEAFE"/>
<rect x="45.5898" y="61.0293" width="37.5" height="0.735294" rx="0.367647" fill="#DDEAFE"/>
<rect x="45.5898" y="64.7051" width="22.7941" height="0.735294" rx="0.367647" fill="#DDEAFE"/>
<rect x="45.5898" y="51.4707" width="14.7059" height="1.47059" rx="0.735294" fill="#DDEAFE"/>
<rect x="63.2354" y="51.4706" width="6.61765" height="1.47059" rx="0.735294" fill="#DDEAFE"/>
<rect x="50" width="30.1471" height="44.8529" rx="4" fill="#5498F9"/>
<rect x="55.1484" y="26.4707" width="22.0588" height="5.88235" rx="2.94118" fill="#EFF7FF"/>
<rect x="61.7646" y="36.0294" width="22.7941" height="5.88235" rx="2.94118" fill="#EFF7FF"/>
<rect x="53.5" y="4.4707" width="23" height="19" rx="3.5" stroke="#EFF7FF"/>
<rect x="129.913" y="58.5886" width="90.1765" height="62.2353" rx="5.5" fill="white" stroke="#EFF7FF"/>
<path d="M207.463 73.5508L205.909 71.1332C206.265 70.4318 206.566 69.7022 206.811 68.9529L209.62 68.3422C210.122 68.233 210.48 67.7887 210.48 67.2754L210.48 61.0878C210.48 60.5745 210.122 60.1301 209.62 60.0209L206.811 59.4102C206.566 58.6609 206.265 57.9313 205.909 57.2299L207.463 54.8123C207.74 54.3804 207.679 53.813 207.316 53.4499L202.941 49.0748C202.578 48.7117 202.011 48.6506 201.579 48.9283L199.161 50.4825C198.46 50.1265 197.73 49.8247 196.981 49.5804L196.37 46.7709C196.261 46.269 195.817 45.911 195.303 45.911L189.116 45.911C188.602 45.911 188.158 46.269 188.049 46.7709L187.438 49.5804C186.689 49.8247 185.959 50.1265 185.258 50.4825L182.84 48.9283C182.408 48.6508 181.841 48.7117 181.478 49.0748L177.103 53.4499C176.74 53.813 176.679 54.3802 176.956 54.8123L178.51 57.2299C178.154 57.9313 177.853 58.6609 177.608 59.4102L174.799 60.0209C174.297 60.1301 173.939 60.5745 173.939 61.0878L173.939 67.2753C173.939 67.7887 174.297 68.233 174.799 68.3422L177.608 68.9529C177.853 69.7022 178.154 70.4318 178.51 71.1332L176.956 73.5508C176.678 73.9828 176.74 74.5501 177.103 74.9132L181.478 79.2883C181.841 79.6515 182.408 79.7126 182.84 79.4348L185.258 77.8806C185.959 78.2367 186.689 78.5385 187.438 78.7827L188.049 81.5922C188.158 82.0941 188.602 82.4523 189.116 82.4521L195.303 82.4521C195.817 82.4521 196.261 82.0941 196.37 81.5922L196.981 78.7827C197.73 78.5385 198.46 78.2367 199.161 77.8806L201.579 79.4348C202.011 79.7124 202.578 79.6515 202.941 79.2883L207.316 74.9132C207.679 74.5501 207.74 73.9829 207.463 73.5508ZM196.842 68.814C194.288 71.3682 190.131 71.3682 187.577 68.814C185.023 66.2597 185.023 62.1034 187.577 59.5492C190.131 56.9949 194.288 56.9949 196.842 59.5492C199.396 62.1034 199.396 66.2597 196.842 68.814Z" fill="#5498F9"/>
<circle cx="135.999" cy="62.9705" r="1" fill="#5498F9"/>
<circle cx="139.999" cy="62.9705" r="1" fill="#5498F9"/>
<circle cx="143.999" cy="62.9705" r="1" fill="#5498F9"/>
<rect x="135.296" y="67.6475" width="33.8235" height="47.7941" rx="4" fill="#EFF7FF"/>
<rect x="139.706" y="100.736" width="25" height="5.88235" rx="2.94118" fill="#5498F9"/>
<rect x="172.796" y="90.9705" width="41.9118" height="18.3824" rx="4" fill="#EFF7FF"/>
<rect x="175.738" y="99.0583" width="34.5588" height="0.735294" rx="0.367647" fill="#DDEAFE"/>
<rect x="175.738" y="102.735" width="34.5588" height="0.735294" rx="0.367647" fill="#DDEAFE"/>
<rect x="175.738" y="93.9119" width="13.2353" height="1.47059" rx="0.735294" fill="#DDEAFE"/>
<rect x="190.445" y="93.9119" width="6.61765" height="1.47059" rx="0.735294" fill="#DDEAFE"/>
<rect x="139.706" y="75.7357" width="25" height="22.0588" rx="4" fill="#DDEAFE"/>
<path d="M101.407 55.0891C103.292 53.2047 106.347 53.2047 108.231 55.0891L112.264 59.1221C114.214 61.0714 114.033 64.1773 112.264 65.9462C111.968 66.2424 111.64 66.4839 111.294 66.6822L110.558 65.9462C110.076 65.4633 110.245 64.8989 110.254 64.4916C110.36 64.4165 110.463 64.3353 110.558 64.2401C111.466 63.3325 111.507 61.7766 110.558 60.8281C110.417 60.6872 106.611 56.8807 106.525 56.7952C105.585 55.8543 104.054 55.8543 103.113 56.7952C102.172 57.7361 102.172 59.2663 103.113 60.2072L105.779 62.873C105.702 63.2995 105.239 64.3099 105.477 65.9765C105.466 65.9651 105.452 65.9578 105.44 65.9462L101.407 61.9133C99.5229 60.0288 99.5229 56.9736 101.407 55.0891Z" fill="#5498F9"/>
<path d="M107.999 61.6815C108.295 61.3853 108.623 61.1438 108.969 60.9454L109.705 61.6815C110.188 62.1643 110.018 62.7287 110.009 63.136C109.903 63.2111 109.8 63.2923 109.705 63.3875C108.797 64.2952 108.757 65.851 109.705 66.7995C109.846 66.9407 113.968 71.0625 114.051 71.145C114.992 72.0859 116.522 72.0859 117.463 71.145C118.404 70.2041 118.404 68.6739 117.463 67.733L114.484 64.7546C114.561 64.3281 115.024 63.3177 114.786 61.6511C114.798 61.6625 114.812 61.6699 114.823 61.6815L119.169 66.027C121.053 67.9115 121.053 70.9666 119.169 72.8511C117.284 74.7355 114.229 74.7355 112.345 72.8511L107.999 68.5056C106.086 66.5925 106.191 63.49 107.999 61.6815Z" fill="#5498F9"/>
</svg>
