<svg width="51" height="39" viewBox="0 0 51 39" fill="none" xmlns="http://www.w3.org/2000/svg">
<rect x="0.5" y="4.43408" width="49.4902" height="34.0174" rx="5.5" fill="white" stroke="#EFF7FF"/>
<rect x="-0.5" y="0.5" width="14.4311" height="14.4311" rx="3.5" transform="matrix(-1 0 0 1 48.0039 -0.000976562)" stroke="#5498F9"/>
<rect x="-0.5" y="0.5" width="14.4311" height="14.4311" rx="3.5" transform="matrix(-1 0 0 1 39.4309 8.57202)" stroke="#E7F4FE"/>
<rect width="0.428642" height="16.8369" transform="matrix(-0.707107 0.707107 0.707107 0.707107 25.5815 11.5703)" fill="#E7F4FE"/>
<rect width="0.428642" height="3.11265" transform="matrix(-0.707107 0.707107 0.707107 0.707107 31.6934 8.58643)" fill="#E7F4FE"/>
<rect width="0.428642" height="3.19687" transform="matrix(-0.707107 0.707107 0.707107 0.707107 38.1301 15.0244)" fill="#E7F4FE"/>
<rect width="0.428642" height="13.1545" transform="matrix(-0.707107 0.707107 0.707107 0.707107 25.3035 14.322)" fill="#E7F4FE"/>
<rect width="0.428642" height="7.4356" transform="matrix(-0.707107 0.707107 0.707107 0.707107 35.1169 15.0396)" fill="#E7F4FE"/>
<rect width="0.428642" height="7.49303" transform="matrix(-0.707107 0.707107 0.707107 0.707107 28.666 8.59229)" fill="#E7F4FE"/>
<rect width="0.428642" height="8.81641" transform="matrix(-0.707107 0.707107 0.707107 0.707107 25.3596 17.4104)" fill="#E7F4FE"/>
<rect width="0.428642" height="17.8068" transform="matrix(-0.707107 0.707107 0.707107 0.707107 26.739 9.69458)" fill="#E7F4FE"/>
<rect width="0.428642" height="4.59078" transform="matrix(-0.707107 0.707107 0.707107 0.707107 25.3408 20.4224)" fill="#E7F4FE"/>
<path d="M40.4309 10.572C40.4309 9.46745 39.5355 8.57202 38.4309 8.57202H33.5726V13.4303C33.5726 14.5349 34.4681 15.4303 35.5726 15.4303H40.4309V10.572Z" fill="#5498F9"/>
<rect width="0.428642" height="5.00841" transform="matrix(-0.707107 0.707107 0.707107 0.707107 45.4419 0.0200195)" fill="#5498F9"/>
<rect width="0.428642" height="17.7617" transform="matrix(-0.707107 0.707107 0.707107 0.707107 34.8828 1.58691)" fill="#5498F9"/>
<rect width="0.428642" height="9.15793" transform="matrix(-0.707107 0.707107 0.707107 0.707107 42.4968 0.105713)" fill="#5498F9"/>
<rect width="0.428642" height="7.07109" transform="matrix(-0.707107 0.707107 0.707107 0.707107 33.8955 3.62891)" fill="#5498F9"/>
<rect width="0.428642" height="7.16847" transform="matrix(-0.707107 0.707107 0.707107 0.707107 40.3159 10.0481)" fill="#5498F9"/>
<rect width="0.428642" height="13.3638" transform="matrix(-0.707107 0.707107 0.707107 0.707107 39.4297 0.0693359)" fill="#5498F9"/>
<rect width="0.428642" height="2.81851" transform="matrix(-0.707107 0.707107 0.707107 0.707107 40.3511 13.1177)" fill="#5498F9"/>
<rect width="0.428642" height="2.83198" transform="matrix(-0.707107 0.707107 0.707107 0.707107 33.8933 6.65625)" fill="#5498F9"/>
<rect width="0.428642" height="17.2833" transform="matrix(-0.707107 0.707107 0.707107 0.707107 36.6055 0.272461)" fill="#5498F9"/>
<circle cx="3.648" cy="6.63775" r="0.553764" fill="#5498F9"/>
<circle cx="5.86236" cy="6.63775" r="0.553764" fill="#5498F9"/>
<circle cx="8.0772" cy="6.63775" r="0.553764" fill="#5498F9"/>
<rect x="3.25781" y="9.22778" width="18.7302" height="26.4667" rx="4" fill="#EFF7FF"/>
<rect x="5.69922" y="27.5508" width="13.8441" height="3.25743" rx="1.62872" fill="#5498F9"/>
<rect x="5.69922" y="13.707" width="13.8441" height="12.2154" rx="4" fill="#DDEAFE"/>
</svg>
