<svg width="40" height="40" viewBox="0 0 40 40" fill="none" xmlns="http://www.w3.org/2000/svg">
<rect opacity="0.1" width="40" height="40" rx="4" fill="#5CB1FF"/>
<path d="M14.0193 26.4524C12.4293 26.4524 11.015 25.3502 10.5015 23.7093L10.4667 23.5856C10.3456 23.1511 10.2949 22.7857 10.2949 22.42V15.0886L7.88542 23.7963C7.57553 25.0771 8.28169 26.4049 9.4665 26.7587L24.8243 31.2116C25.016 31.2653 25.2077 31.2911 25.3965 31.2911C26.3856 31.2911 27.2894 30.5804 27.5428 29.5329L28.4375 26.4524H14.0193Z" fill="#5CB1FF"/>
<path d="M16.7189 15.0885C18.0115 15.0885 19.0625 14.1801 19.0625 13.0632C19.0625 11.9462 18.0115 11.0378 16.7189 11.0378C15.4262 11.0378 14.375 11.9462 14.375 13.0632C14.375 14.1801 15.4262 15.0885 16.7189 15.0885Z" fill="#5CB1FF"/>
<path d="M28.9061 8H14.8437C13.5519 8 12.5 9.20728 12.5 10.69V22.5252C12.5 24.0079 13.5519 25.2151 14.8437 25.2151H28.9061C30.1981 25.2151 31.25 24.0079 31.25 22.5252V10.69C31.25 9.20728 30.1981 8 28.9061 8ZM14.8437 10.1519H28.9061C29.165 10.1519 29.3749 10.3929 29.3749 10.69V18.3281L26.4135 14.3621C26.0993 13.9393 25.6446 13.7133 25.1562 13.7005C24.6706 13.7036 24.215 13.9511 23.9038 14.3794L20.4218 19.1758L19.2875 17.8771C18.6463 17.1413 17.6028 17.1413 16.9625 17.8771L14.3751 20.8457V10.69C14.3751 10.3929 14.585 10.1519 14.8437 10.1519Z" fill="#5CB1FF"/>
</svg>
