<svg width="10" height="10" viewBox="0 0 10 10" fill="none" xmlns="http://www.w3.org/2000/svg">
<g clip-path="url(#clip0)">
<path d="M6.57565 6.69395C6.59884 6.45022 6.59183 6.20738 6.5566 5.97029L7.10465 5.72602C7.05288 5.46053 6.97146 5.19864 6.85858 4.9452C6.7457 4.69194 6.60549 4.45629 6.443 4.24006L5.8946 4.48415C5.74199 4.29955 5.5662 4.13203 5.36956 3.98607L5.58453 3.42599C5.36003 3.275 5.11737 3.14738 4.85836 3.04798C4.60042 2.94894 4.33548 2.88046 4.06604 2.84253L3.85088 3.40316C3.60715 3.37997 3.36431 3.38698 3.12722 3.42221L2.88439 2.87686C2.34191 2.98345 1.83503 3.21353 1.39986 3.54228L1.64108 4.08404C1.45612 4.23664 1.2886 4.41261 1.14265 4.60907L0.583995 4.39482C0.431571 4.61878 0.303771 4.86162 0.204192 5.12045C0.105511 5.37929 0.0379264 5.64495 0 5.91259L0.560089 6.12757C0.536902 6.37131 0.543912 6.61414 0.579142 6.85123L0.0310961 7.09532C0.082863 7.36099 0.164288 7.6227 0.277169 7.87614C0.390229 8.12958 0.530251 8.36505 0.692922 8.58129L1.24097 8.33719C1.39357 8.52197 1.56936 8.68949 1.76619 8.83545L1.55121 9.3959C1.77571 9.54706 2.01837 9.6745 2.27738 9.7739C2.53532 9.87294 2.80027 9.94143 3.06971 9.97935L3.28486 9.41872C3.5286 9.44173 3.77143 9.43472 4.00852 9.39949L4.25136 9.94466C4.79383 9.83807 5.30107 9.608 5.73606 9.27924L5.49466 8.73748C5.67944 8.58488 5.84714 8.40909 5.9931 8.21245L6.55139 8.4267C6.70381 8.20274 6.83161 7.9599 6.93119 7.70125C7.03059 7.44241 7.098 7.17657 7.13592 6.90875L6.57565 6.69395ZM5.08682 6.99359C4.76489 7.83264 3.82392 8.25145 2.98469 7.92953C2.14653 7.60778 1.72718 6.66699 2.04893 5.82811C2.37085 4.98924 3.31182 4.57043 4.15052 4.892C4.98939 5.21374 5.40856 6.15489 5.08682 6.99359Z" fill="#549CE7" fill-opacity="0.93"/>
<path d="M9.61055 2.22852C9.61055 2.11995 9.59941 2.01372 9.58035 1.91055L10.0004 1.66789C9.89868 1.28108 9.69665 0.934707 9.42038 0.661133L8.99923 0.90433C8.83854 0.766644 8.65232 0.658797 8.44867 0.586898V0.101044C8.26317 0.050176 8.06887 0.0210571 7.86773 0.0210571C7.6666 0.0210571 7.47247 0.0505355 7.28679 0.101044V0.587078C7.08314 0.658976 6.8971 0.767004 6.73623 0.90451L6.3149 0.661313C6.03899 0.934887 5.83678 1.28126 5.73486 1.66807L6.15511 1.91073C6.13606 2.01408 6.12473 2.11995 6.12473 2.2287C6.12473 2.33745 6.13606 2.4435 6.15511 2.54667L5.73486 2.78933C5.83678 3.17614 6.03899 3.52269 6.3149 3.79609L6.73605 3.55289C6.89692 3.69058 7.08296 3.79842 7.28661 3.87032V4.35636C7.47229 4.40704 7.66642 4.43634 7.86755 4.43634C8.06869 4.43634 8.26317 4.40686 8.44849 4.35636V3.87032C8.65214 3.79842 8.83836 3.6904 8.99905 3.55289L9.4202 3.79609C9.69647 3.52251 9.8985 3.17614 10.0002 2.78933L9.58017 2.54667C9.59941 2.44314 9.61055 2.33727 9.61055 2.22852ZM7.86791 3.04205C7.41855 3.04205 7.0542 2.67789 7.0542 2.2287C7.0542 1.77951 7.41855 1.41517 7.86791 1.41517C8.31674 1.41517 8.68108 1.77933 8.68108 2.22852C8.68108 2.67771 8.31674 3.04205 7.86791 3.04205Z" fill="#549CE7" fill-opacity="0.93"/>
</g>
<defs>
<clipPath id="clip0">
<rect width="10" height="10" fill="white"/>
</clipPath>
</defs>
</svg>
