<svg width="68" height="68" viewBox="0 0 68 68" fill="none" xmlns="http://www.w3.org/2000/svg">
<path d="M58.6074 10.5471L55.0908 12.8914L49.2298 11.7193L45.7132 10.5471L41.0244 11.7193L37.5078 10.5471L39.8521 5.85831H44.5409L49.136 3.56085C52.6797 5.31326 55.8856 7.67869 58.6074 10.5471Z" fill="#E7F4FE"/>
<path d="M58.6074 10.5468L55.7801 12.4316C55.3387 12.7258 54.7986 12.8327 54.2785 12.7287L49.2298 11.719L46.2657 10.731C45.9049 10.6107 45.5172 10.5958 45.1482 10.688L41.5894 11.5777C41.2204 11.67 40.8328 11.6551 40.4719 11.5348L39.6955 11.276C38.5409 10.8911 37.9948 9.57283 38.5391 8.48421L39.2994 6.9636C39.6381 6.28602 40.3307 5.858 41.0882 5.858H44.0688C44.3793 5.858 44.6855 5.78572 44.9632 5.64687L49.136 3.56055C52.6797 5.31295 55.8856 7.67839 58.6074 10.5468Z" fill="#4880ED"/>
<path d="M31.6483 5.86032L30.4762 9.37694L26.9596 10.5491L23.4429 16.4101L17.582 19.9267L9.3767 21.0988V24.6155L11.721 26.9598V31.6486L8.20466 29.3041L4.68804 26.9598L2.64844 20.8293C6.15909 12.4632 12.87 5.8497 21.2862 2.46094L24.6152 4.68815L31.6483 5.86032Z" fill="#E7F4FE"/>
<path d="M29.3396 5.47554C30.5519 5.67758 31.2968 6.91487 30.9082 8.08077L30.7924 8.42823C30.5933 9.02546 30.1247 9.4941 29.5275 9.69317L27.6614 10.3152C27.2085 10.4661 26.8245 10.7741 26.5789 11.1835L23.7002 15.9813C23.5313 16.2628 23.2957 16.4984 23.0142 16.6673L17.9283 19.7189C17.6997 19.856 17.446 19.9461 17.1821 19.9838L11.0939 20.8535C10.1086 20.9943 9.3767 21.8381 9.3767 22.8334V23.787C9.3767 24.3175 9.58741 24.8262 9.96248 25.2013L11.1352 26.374C11.5103 26.7491 11.721 27.2578 11.721 27.7882V27.9114C11.721 29.5088 9.94065 30.4616 8.61155 29.5754L8.20466 29.3041L5.25956 27.3408C4.88916 27.0939 4.61173 26.7304 4.4712 26.308L2.64844 20.8293C6.15909 12.4632 12.87 5.8497 21.2862 2.46094L24.257 4.4485C24.4931 4.60646 24.7601 4.71231 25.0403 4.75901L29.3396 5.47554Z" fill="#4880ED"/>
<path d="M33.9915 38.6811L32.8193 44.542L28.1305 49.2308V52.7475L23.4417 56.2639V62.1249L19.9252 60.9527L17.5808 55.0918V43.3699L11.7198 42.1977L9.37549 37.5089V33.9923L11.7198 31.648L15.2364 28.1313L17.5808 32.8201H25.786L29.3027 38.6811H33.9915Z" fill="#E7F4FE"/>
<path d="M30.7886 38.6816C32.4453 38.6816 33.6878 40.1972 33.363 41.8218L33.0519 43.377C32.8999 44.137 32.5264 44.835 31.9784 45.383L29.2567 48.1047C28.5353 48.8261 28.13 49.8044 28.13 50.8246C28.13 52.0354 27.56 53.1755 26.5913 53.9019L24.6834 55.3329C23.9014 55.9193 23.4412 56.8397 23.4412 57.8171V59.3473C23.4412 60.714 22.1023 61.6791 20.8057 61.2469C20.247 61.0606 19.7986 60.6378 19.5798 60.091L17.9379 55.9863C17.7017 55.3957 17.5803 54.7654 17.5803 54.1293V47.114C17.5803 44.9372 16.0438 43.0631 13.9094 42.6362C12.5276 42.3598 11.3507 41.461 10.7205 40.2006L9.90284 38.5651C9.55572 37.8709 9.375 37.1053 9.375 36.3291V36.0639C9.375 34.7378 9.90178 33.466 10.8395 32.5283L11.7193 31.6485L12.6715 30.6963C13.9331 29.4347 16.0599 29.7798 16.8578 31.3757C17.3006 32.2612 18.2057 32.8206 19.1958 32.8206H22.9546C24.7109 32.8206 26.3385 33.7421 27.2421 35.2481L28.5374 37.407C29.0119 38.1977 29.8664 38.6816 30.7886 38.6816Z" fill="#4880ED"/>
<path d="M63.6488 17.3828C70.0478 28.7988 69.3187 42.8756 61.7733 53.5682L58.6084 50.4033V45.7145L56.2641 41.0258L53.9198 36.337V31.6482L50.4031 29.3039L45.7144 30.476L37.5091 26.9594L36.3369 18.7541L39.8535 15.2375H46.8867L49.231 18.7541L56.2641 19.9263L63.2972 17.5819L63.6488 17.3828Z" fill="#E7F4FE"/>
<path d="M63.6478 17.3826C70.0468 28.7986 69.3177 42.8754 61.7723 53.568L60.0719 51.8676C59.1342 50.9299 58.6074 49.6582 58.6074 48.3321V46.8947C58.6074 46.1185 58.4267 45.3529 58.0796 44.6587L56.2631 41.0256L54.4466 37.3925C54.0995 36.6982 53.9188 35.9327 53.9188 35.1565V33.9619C53.9188 32.5163 53.1963 31.1664 51.9935 30.3645C50.98 29.6889 49.7285 29.4721 48.5468 29.7675L47.3475 30.0673C46.2873 30.3323 45.1696 30.2428 44.1652 29.8123L40.0908 28.0661C38.487 27.3787 37.3575 25.9049 37.1107 24.1775L36.6895 21.2288C36.4669 19.6708 36.9909 18.099 38.1037 16.9862L38.3881 16.7018C39.3258 15.7641 40.5975 15.2373 41.9236 15.2373H44.55C46.0092 15.2373 47.3718 15.9666 48.1812 17.1807C48.8504 18.1845 49.9051 18.8664 51.095 19.0648L55.0382 19.7219C55.8426 19.856 56.6676 19.7913 57.4413 19.5334L63.2962 17.5818L63.6478 17.3826Z" fill="#4880ED"/>
<path d="M41.0219 11.7217L45.7107 10.5495L49.2273 11.7217L55.0882 12.8939L58.6049 10.5495C60.5683 12.6044 62.2621 14.9007 63.6453 17.3833L63.2937 17.5826L56.2605 19.927L49.2274 18.7548L46.8831 15.2382H39.85L36.3334 18.7548L37.5055 26.9601L45.7108 30.4767L50.3996 29.3046L53.9162 31.6489V36.3377L56.2605 41.0265L58.6049 45.7152V50.404L61.7698 53.5689C50.9446 68.9082 29.7338 72.5667 14.3956 61.7414C1.36907 52.5467 -3.51782 35.5346 2.6444 20.8296L4.684 26.9601L8.20063 29.3044L11.7173 31.6487L9.37279 33.9932V37.5098L11.7171 42.1986L17.5781 43.3708V55.0927L19.9224 60.9536L23.439 62.1258V56.2649L28.1278 52.7482V49.2316L32.8166 44.5428L33.9888 38.6819H29.3L25.7834 32.8209H17.5781L15.2337 28.1321L11.7171 31.6487V26.96L9.37279 24.6158V21.0991L17.5781 19.927L23.439 16.4104L26.9556 10.5494L30.4723 9.37724L31.6444 5.86061L24.6113 4.68845L21.2823 2.46123C30.2965 -1.16905 40.4335 -0.768194 49.1335 3.56316L44.5385 5.86061H39.8497L37.5054 10.5494L41.0219 11.7217Z" fill="#E7F4FE"/>
</svg>
