<svg width="219" height="135" viewBox="0 0 219 135" fill="none" xmlns="http://www.w3.org/2000/svg">
<path d="M166.5 63.9707C166.5 95.179 141.424 120.471 110.5 120.471C79.5762 120.471 54.5 95.179 54.5 63.9707C54.5 32.7625 79.5762 7.4707 110.5 7.4707C141.424 7.4707 166.5 32.7625 166.5 63.9707Z" stroke="#EFF7FF"/>
<rect x="0.5" y="10.4707" width="90" height="64" rx="5.5" fill="white" stroke="#EFF7FF"/>
<circle cx="6" cy="13.9707" r="1" fill="#5498F9"/>
<circle cx="10" cy="13.9707" r="1" fill="#5498F9"/>
<circle cx="14" cy="13.9707" r="1" fill="#5498F9"/>
<rect x="4.41162" y="16.9117" width="82.3529" height="5.88235" rx="2.94118" fill="#DDEAFE"/>
<rect x="5.14697" y="25" width="33.8235" height="45.5882" rx="4" fill="#EFF7FF"/>
<path d="M12 53.9707C12 53.9707 12.5235 41.5585 18.0561 40.7239C23.7589 39.8638 21.6123 52.9213 27.3565 52.4252C33.6413 51.8825 32.98 36.9707 32.98 36.9707" stroke="#5498F9"/>
<rect x="10.2939" y="61.7646" width="22.7941" height="5.88235" rx="2.94118" fill="#5498F9"/>
<rect x="42.647" y="48.5294" width="44.8529" height="21.3235" rx="4" fill="#EFF7FF"/>
<rect x="45.5884" y="57.3529" width="37.5" height="0.735294" rx="0.367647" fill="#DDEAFE"/>
<rect x="45.5884" y="61.0294" width="37.5" height="0.735294" rx="0.367647" fill="#DDEAFE"/>
<rect x="45.5884" y="64.7059" width="22.7941" height="0.735294" rx="0.367647" fill="#DDEAFE"/>
<rect x="45.5884" y="51.4706" width="14.7059" height="1.47059" rx="0.735294" fill="#DDEAFE"/>
<rect x="63.2354" y="51.4706" width="6.61765" height="1.47059" rx="0.735294" fill="#DDEAFE"/>
<rect x="50" width="30.1471" height="44.8529" rx="4" fill="#5498F9"/>
<rect x="55.147" y="26.4706" width="22.0588" height="5.88235" rx="2.94118" fill="#EFF7FF"/>
<rect x="61.7646" y="36.0294" width="22.7941" height="5.88235" rx="2.94118" fill="#EFF7FF"/>
<rect x="53.5" y="4.4707" width="23" height="19" rx="3.5" stroke="#EFF7FF"/>
<path d="M101.409 55.0891C103.293 53.2047 106.349 53.2047 108.233 55.0891L112.266 59.1221C114.215 61.0714 114.035 64.1773 112.266 65.9462C111.97 66.2424 111.642 66.4839 111.296 66.6822L110.56 65.9462C110.077 65.4633 110.247 64.8989 110.256 64.4916C110.362 64.4165 110.465 64.3353 110.56 64.2401C111.468 63.3325 111.509 61.7766 110.56 60.8281C110.419 60.6872 106.613 56.8807 106.527 56.7952C105.586 55.8543 104.056 55.8543 103.115 56.7952C102.174 57.7361 102.174 59.2663 103.115 60.2072L105.781 62.873C105.704 63.2995 105.241 64.3099 105.479 65.9765C105.467 65.9651 105.454 65.9578 105.442 65.9462L101.409 61.9133C99.5246 60.0288 99.5246 56.9736 101.409 55.0891Z" fill="#5498F9"/>
<path d="M108.001 61.6815C108.297 61.3853 108.625 61.1438 108.971 60.9454L109.707 61.6815C110.189 62.1643 110.02 62.7287 110.011 63.136C109.905 63.2111 109.802 63.2923 109.707 63.3875C108.799 64.2952 108.758 65.851 109.707 66.7995C109.848 66.9407 113.97 71.0625 114.052 71.145C114.993 72.0859 116.523 72.0859 117.464 71.145C118.405 70.2041 118.405 68.6739 117.464 67.733L114.486 64.7546C114.563 64.3281 115.026 63.3177 114.788 61.6511C114.799 61.6625 114.813 61.6699 114.825 61.6815L119.17 66.027C121.055 67.9115 121.055 70.9666 119.17 72.8511C117.286 74.7355 114.231 74.7355 112.346 72.8511L108.001 68.5056C106.088 66.5925 106.192 63.49 108.001 61.6815Z" fill="#5498F9"/>
<g opacity="0.2">
<path d="M207.804 72.4561L203.976 75.0087L197.594 73.7324L193.765 72.4561L188.66 73.7324L184.831 72.4561L187.384 67.351H192.489L197.492 64.8495C201.35 66.7575 204.841 69.333 207.804 72.4561Z" fill="#DDEAFE"/>
<path d="M178.451 67.3521L177.175 71.1811L173.346 72.4573L169.517 78.8387L163.136 82.6677L154.202 83.9439V87.7728L156.754 90.3254V95.4305L152.926 92.8779L149.097 90.3254L146.876 83.6504C150.698 74.5414 158.005 67.3406 167.169 63.6509L170.794 66.0759L178.451 67.3521Z" fill="#DDEAFE"/>
<path d="M181.003 103.088L179.727 109.47L174.622 114.575V118.404L169.517 122.233V128.614L165.688 127.338L163.135 120.956V108.194L156.754 106.917L154.201 101.812V97.9832L156.754 95.4307L160.583 91.6018L163.135 96.707H172.069L175.898 103.088H181.003Z" fill="#DDEAFE"/>
<path d="M213.293 79.8987C220.26 92.3285 219.466 107.655 211.25 119.298L207.805 115.852V110.746L205.252 105.641L202.699 100.536V95.4309L198.871 92.8784L193.765 94.1546L184.831 90.3257L183.555 81.3918L187.384 77.5629H195.042L197.594 81.3918L205.252 82.668L212.91 80.1155L213.293 79.8987Z" fill="#DDEAFE"/>
<path d="M188.665 73.7333L193.77 72.4571L197.599 73.7333L203.98 75.0096L207.809 72.4571C209.947 74.6944 211.791 77.1946 213.297 79.8978L212.914 80.1148L205.257 82.6673L197.599 81.391L195.047 77.5621H187.389L183.56 81.391L184.836 90.325L193.77 94.1539L198.875 92.8776L202.704 95.4302V100.535L205.257 105.641L207.809 110.746V115.851L211.255 119.297C199.469 135.998 176.374 139.982 159.674 128.195C145.491 118.184 140.17 99.661 146.879 83.6501L149.1 90.325L152.929 92.8775L156.758 95.43L154.205 97.9827V101.812L156.758 106.917L163.139 108.193V120.956L165.692 127.337L169.521 128.614V122.232L174.626 118.403V114.574L179.731 109.469L181.007 103.088H175.902L172.073 96.7063H163.139L160.587 91.6011L156.758 95.43V90.3248L154.205 87.7725V83.9436L163.139 82.6673L169.521 78.8384L173.349 72.4569L177.178 71.1807L178.455 67.3518L170.797 66.0755L167.172 63.6505C176.987 59.6978 188.024 60.1343 197.497 64.8503L192.494 67.3518H187.389L184.836 72.4569L188.665 73.7333Z" fill="#DDEAFE"/>
</g>
<path d="M200.804 65.4561L196.976 68.0087L190.594 66.7324L186.765 65.4561L181.66 66.7324L177.831 65.4561L180.384 60.351H185.489L190.492 57.8495C194.35 59.7575 197.841 62.333 200.804 65.4561Z" fill="#4880ED"/>
<path d="M171.451 60.3521L170.175 64.1811L166.346 65.4573L162.517 71.8387L156.136 75.6677L147.202 76.9439V80.7728L149.754 83.3254V88.4305L145.926 85.8779L142.097 83.3254L139.876 76.6504C143.698 67.5414 151.005 60.3406 160.169 56.6509L163.794 59.0759L171.451 60.3521Z" fill="#4880ED"/>
<path d="M174.003 96.0884L172.727 102.47L167.622 107.575V111.404L162.517 115.233V121.614L158.688 120.338L156.135 113.956V101.194L149.754 99.9173L147.201 94.8122V90.9832L149.754 88.4307L153.583 84.6018L156.135 89.707H165.069L168.898 96.0884H174.003Z" fill="#4880ED"/>
<path d="M206.293 72.8987C213.26 85.3285 212.466 100.655 204.25 112.298L200.805 108.852V103.746L198.252 98.6413L195.699 93.5361V88.4309L191.871 85.8784L186.765 87.1546L177.831 83.3257L176.555 74.3918L180.384 70.5629H188.042L190.594 74.3918L198.252 75.668L205.91 73.1155L206.293 72.8987Z" fill="#4880ED"/>
<path d="M181.665 66.7333L186.77 65.4571L190.599 66.7333L196.98 68.0096L200.809 65.4571C202.947 67.6944 204.791 70.1946 206.297 72.8978L205.914 73.1148L198.257 75.6673L190.599 74.391L188.047 70.5621H180.389L176.56 74.391L177.836 83.325L186.77 87.1539L191.875 85.8776L195.704 88.4302V93.5353L198.257 98.6405L200.809 103.746V108.851L204.255 112.297C192.469 128.998 169.374 132.982 152.674 121.195C138.491 111.184 133.17 92.661 139.879 76.6501L142.1 83.325L145.929 85.8775L149.758 88.43L147.205 90.9827V94.8116L149.758 99.9168L156.139 101.193V113.956L158.692 120.337L162.521 121.614V115.232L167.626 111.403V107.574L172.731 102.469L174.007 96.0877H168.902L165.073 89.7063H156.139L153.587 84.6011L149.758 88.43V83.3248L147.205 80.7725V76.9436L156.139 75.6673L162.521 71.8384L166.349 65.4569L170.178 64.1807L171.455 60.3518L163.797 59.0755L160.172 56.6505C169.987 52.6978 181.024 53.1343 190.497 57.8503L185.494 60.3518H180.389L177.836 65.4569L181.665 66.7333Z" fill="#E7F4FE"/>
</svg>
