<svg width="76" height="45" viewBox="0 0 76 45" fill="none" xmlns="http://www.w3.org/2000/svg">
<path d="M74.038 18.4829L62.622 18.5148C61.8934 18.5168 61.3048 19.1091 61.3066 19.8376L61.3242 26.1433C61.3265 26.8718 61.9185 27.4608 62.6471 27.4588L74.0631 27.4269C74.7914 27.4248 75.3804 26.8326 75.3781 26.104L75.3605 19.7984C75.3587 19.0698 74.7667 18.4809 74.038 18.4829Z" fill="url(#paint0_linear)"/>
<path d="M71.7992 23.7183L68.1191 27.4284H74.3615C74.5131 27.4241 74.6624 27.3864 74.7979 27.318C74.9337 27.2496 75.0523 27.1522 75.1463 27.0327L71.7992 23.7183Z" fill="#D1E0F2"/>
<path d="M62.3664 27.4682L68.8262 27.4517H72.3185L67.0423 22.2048C66.9813 22.1472 66.9005 22.1152 66.8167 22.1152C66.7325 22.1152 66.652 22.1472 66.5906 22.2048L61.6445 27.1912C61.8395 27.3746 62.0988 27.4741 62.3664 27.4682Z" fill="#E3EDFB"/>
<path d="M64.5753 21.7101C64.9487 21.7101 65.2515 21.4074 65.2515 21.034C65.2515 20.6606 64.9487 20.3579 64.5753 20.3579C64.2022 20.3579 63.8994 20.6606 63.8994 21.034C63.8994 21.4074 64.2022 21.7101 64.5753 21.7101Z" fill="#E3EDFB"/>
<path d="M58.1025 18.4829L46.6865 18.5148C45.9583 18.5169 45.3692 19.1091 45.3711 19.8377L45.3887 26.1433C45.3909 26.8719 45.983 27.4608 46.7116 27.4588L58.1276 27.4269C58.8558 27.4249 59.4448 26.8326 59.443 26.104L59.425 19.7984C59.4231 19.0698 58.8311 18.4809 58.1025 18.4829Z" fill="url(#paint1_linear)"/>
<path d="M55.8637 23.7183L52.1836 27.4284H58.426C58.5779 27.424 58.7269 27.3864 58.8623 27.3179C58.9982 27.2496 59.1168 27.1522 59.2107 27.0327L55.8637 23.7183Z" fill="#D1E0F2"/>
<path d="M46.4279 27.4687L52.8881 27.4522H56.38L51.1038 22.2052C51.0428 22.1477 50.962 22.1157 50.8782 22.1157C50.794 22.1157 50.7135 22.1477 50.6521 22.2052L45.7061 27.1917C45.901 27.3751 46.1604 27.4745 46.4279 27.4687Z" fill="#E3EDFB"/>
<path d="M48.6387 21.71C49.0122 21.71 49.315 21.4074 49.315 21.034C49.315 20.6606 49.0122 20.3579 48.6387 20.3579C48.2656 20.3579 47.9629 20.6606 47.9629 21.034C47.9629 21.4074 48.2656 21.71 48.6387 21.71Z" fill="#E3EDFB"/>
<path d="M48.6842 12.8778V32.9951H47.2169L26.6765 33.0512C26.366 33.0505 26.0684 32.9269 25.8485 32.7076C25.6287 32.4883 25.5043 32.1911 25.5026 31.8805L25.4531 14.108C25.4527 13.9542 25.4825 13.8019 25.541 13.6597C25.5994 13.5174 25.6853 13.3882 25.7937 13.2791C25.902 13.1701 26.0309 13.0835 26.1727 13.0243C26.3146 12.965 26.4667 12.9343 26.6204 12.9339L47.2169 12.8745L48.6842 12.8778Z" fill="#E3EDFB"/>
<path d="M48.6842 25.0312V32.9826L47.2169 32.9793L40.7803 32.9759L47.2169 26.5054L48.6842 25.0312Z" fill="#C8DAED"/>
<path d="M48.684 31.4581V32.9949H47.2167H42.3859L27.857 33.0379C27.2534 33.0349 26.6745 32.7984 26.2412 32.3784L37.3571 21.1653C37.4922 21.0316 37.6748 20.9565 37.8649 20.9565C38.055 20.9565 38.2376 21.0316 38.3727 21.1653L47.2167 29.9642L48.684 31.4581Z" fill="#D3E2F4"/>
<path d="M32.8291 20.1171C33.6705 20.1171 34.3526 19.4349 34.3526 18.5935C34.3526 17.752 33.6705 17.0698 32.8291 17.0698C31.9877 17.0698 31.3057 17.752 31.3057 18.5935C31.3057 19.4349 31.9877 20.1171 32.8291 20.1171Z" fill="#C8DAED"/>
<path d="M48.9961 1.66504H31.1895V44.5382H48.9961V1.66504Z" fill="url(#paint2_linear)"/>
<path d="M48.9456 1.52686H47.9004V44.4362H48.9456V1.52686Z" fill="url(#paint3_linear)"/>
<path d="M20.3807 3.56294e-06L7.66069 0.0342762C7.14875 0.0356555 6.73491 0.437196 6.73633 0.931145L6.75706 8.09058C6.75848 8.58453 7.17466 8.98382 7.68659 8.98245L20.4066 8.94817C20.9186 8.9468 21.3324 8.54525 21.331 8.0513L21.3103 0.891875C21.3088 0.397928 20.8927 -0.0013758 20.3807 3.56294e-06Z" fill="#E3EDFB"/>
<path d="M17.5802 5.23975L13.8477 8.98244H20.1643C20.3178 8.97773 20.4684 8.93958 20.6054 8.87062C20.7426 8.80169 20.8628 8.70362 20.9579 8.58336L17.5802 5.23975Z" fill="#C8DAED"/>
<path d="M7.864 8.98244L14.6616 8.96498H18.338L12.7846 3.83255C12.7221 3.77499 12.6375 3.74268 12.5494 3.74268C12.4613 3.74268 12.3768 3.77499 12.3142 3.83255L7.11133 8.70095C7.31404 8.88086 7.58348 8.98165 7.864 8.98244Z" fill="#D3E2F4"/>
<path d="M10.1059 3.36866C10.5192 3.36866 10.8543 3.03354 10.8543 2.62012C10.8543 2.20671 10.5192 1.87158 10.1059 1.87158C9.69252 1.87158 9.35742 2.20671 9.35742 2.62012C9.35742 3.03354 9.69252 3.36866 10.1059 3.36866Z" fill="#C8DAED"/>
<path d="M13.5718 23.5791L0.996996 23.6144C0.444831 23.6159 -0.00153796 24.0672 3.98287e-06 24.6222L0.0203152 31.9336C0.0218572 32.4887 0.470725 32.9372 1.02289 32.9358L13.5977 32.9005C14.1498 32.899 14.5962 32.4477 14.5946 31.8928L14.5743 24.5813C14.5728 24.0263 14.1239 23.5776 13.5718 23.5791Z" fill="#E3EDFB"/>
<path d="M11.0409 29.1929L7.11133 32.9356H13.759C13.9208 32.9314 14.0797 32.8933 14.2243 32.8246C14.3689 32.7556 14.4957 32.6574 14.5958 32.5368L11.0409 29.1929Z" fill="#C8DAED"/>
<path d="M1.13071 32.9352L7.92706 32.9174H11.6017L6.05046 27.4196C6.01935 27.3884 5.98242 27.3637 5.94173 27.3468C5.90104 27.3302 5.85741 27.3213 5.81334 27.3213C5.76928 27.3213 5.72565 27.3302 5.68499 27.3468C5.64429 27.3637 5.60734 27.3884 5.57623 27.4196L0.375 32.6448C0.579689 32.8354 0.850561 32.9395 1.13071 32.9352Z" fill="#D3E2F4"/>
<path d="M3.36758 26.9478C3.78093 26.9478 4.11603 26.6128 4.11603 26.1992C4.11603 25.7859 3.78093 25.4507 3.36758 25.4507C2.95423 25.4507 2.61914 25.7859 2.61914 26.1992C2.61914 26.6128 2.95423 26.9478 3.36758 26.9478Z" fill="#C8DAED"/>
<defs>
<linearGradient id="paint0_linear" x1="7429.95" y1="3923.73" x2="8029.64" y2="3923.73" gradientUnits="userSpaceOnUse">
<stop stop-color="#3CA2E5"/>
<stop offset="0.55" stop-color="#387EEF"/>
<stop offset="1" stop-color="#3665F6"/>
</linearGradient>
<linearGradient id="paint1_linear" x1="7414" y1="3923.72" x2="8013.69" y2="3923.72" gradientUnits="userSpaceOnUse">
<stop stop-color="#3CA2E5"/>
<stop offset="0.55" stop-color="#387EEF"/>
<stop offset="1" stop-color="#3665F6"/>
</linearGradient>
<linearGradient id="paint2_linear" x1="41.082" y1="23.1016" x2="55.9207" y2="23.1016" gradientUnits="userSpaceOnUse">
<stop stop-color="#3CA2E5" stop-opacity="0.02"/>
<stop offset="1" stop-color="#3665F6" stop-opacity="0.2"/>
</linearGradient>
<linearGradient id="paint3_linear" x1="553.499" y1="18737.1" x2="556.826" y2="18737.1" gradientUnits="userSpaceOnUse">
<stop stop-color="#3CA2E5"/>
<stop offset="0.55" stop-color="#387EEF"/>
<stop offset="1" stop-color="#3665F6"/>
</linearGradient>
</defs>
</svg>
