<svg width="159" height="108" viewBox="0 0 159 108" fill="none" xmlns="http://www.w3.org/2000/svg">
<g clip-path="url(#clip0)">
<path d="M156 53H133C131.483 53.0043 129.994 54.592 129.998 56.1089V69C130.003 70.5169 130.483 71.9806 132 71.9764H157C158.516 71.9722 159.005 70.5169 159 69V56.1089C158.996 54.592 157.517 52.9957 156 53Z" fill="url(#paint0_linear)"/>
<path d="M151.847 64.1875L144 71.9995H156C157 71.9995 158.5 71.9995 158.5 70.9995L151.847 64.1875Z" fill="#D1E0F2"/>
<path d="M132.201 71.9948L145.307 71.9997H153L141.938 61.0359C141.811 60.9162 141.643 60.8496 141.468 60.8496C141.293 60.8496 141.125 60.9162 140.998 61.0359L130.698 71.418C131 71.9997 131.5 71.9997 132.201 71.9948Z" fill="#E3EDFB"/>
<path d="M136.801 60.0066C137.579 60.0066 138.209 59.3764 138.209 58.599C138.209 57.8215 137.579 57.1914 136.801 57.1914C136.024 57.1914 135.394 57.8215 135.394 58.599C135.394 59.3764 136.024 60.0066 136.801 60.0066Z" fill="#E3EDFB"/>
<path d="M123.002 53H100.002C98.4848 53.0043 96.9961 54.592 97 56.1089V69C97.0047 70.5169 97.4848 71.9806 99.002 71.9764H124.002C125.518 71.9722 126.007 70.5169 126.002 69V56.1089C125.998 54.592 124.519 52.9957 123.002 53Z" fill="url(#paint1_linear)"/>
<path d="M118.849 64.1875L111.002 71.9995H123.002C124.002 71.9995 125.502 71.9995 125.502 70.9995L118.849 64.1875Z" fill="#D1E0F2"/>
<path d="M99.2034 71.9948L112.309 71.9997H120.002L108.94 61.0359C108.813 60.9162 108.645 60.8496 108.47 60.8496C108.295 60.8496 108.127 60.9162 107.999 61.0359L97.7002 71.418C98.002 71.9997 98.502 71.9997 99.2034 71.9948Z" fill="#E3EDFB"/>
<path d="M103.803 60.0066C104.581 60.0066 105.211 59.3764 105.211 58.599C105.211 57.8215 104.581 57.1914 103.803 57.1914C103.026 57.1914 102.396 57.8215 102.396 58.599C102.396 59.3764 103.026 60.0066 103.803 60.0066Z" fill="#E3EDFB"/>
<path d="M104 42.0069V83.8831H100.968L58.5277 84C57.8862 83.9984 57.2713 83.7413 56.817 83.2848C56.3627 82.8283 56.1058 82.2097 56.1022 81.563L56 44.5675C55.9991 44.2475 56.0608 43.9304 56.1815 43.6344C56.3023 43.3383 56.4796 43.0692 56.7036 42.8423C56.9276 42.6153 57.1937 42.435 57.4868 42.3117C57.78 42.1885 58.0943 42.1245 58.4119 42.1236L100.968 42L104 42.0069Z" fill="#E3EDFB"/>
<path d="M104 67V84L100.844 83.9928L87 83.9856L100.844 70.1518L104 67Z" fill="#C8DAED"/>
<path d="M104 80.6002V83.9074H100.862H90.5297L59.4558 84C58.1649 83.9936 56.9267 83.4845 56 82.5808L79.7742 58.4493C80.0632 58.1615 80.4538 58 80.8604 58C81.267 58 81.6575 58.1615 81.9465 58.4493L100.862 77.3851L104 80.6002Z" fill="#D3E2F4"/>
<path d="M70.6977 56.6903C72.4497 56.6903 73.87 55.2699 73.87 53.518C73.87 51.766 72.4497 50.3457 70.6977 50.3457C68.9456 50.3457 67.5254 51.766 67.5254 53.518C67.5254 55.2699 68.9456 56.6903 70.6977 56.6903Z" fill="#C8DAED"/>
<path d="M104.358 18.2715H67.2793V107.535H104.358V18.2715Z" fill="url(#paint2_linear)"/>
<path d="M104.255 17.9844H102.078V107.323H104.255V17.9844Z" fill="url(#paint3_linear)"/>
<path d="M67.2003 1.11063e-05L29.7234 0.106845C28.2151 0.111145 26.9958 1.36282 27 2.90255L27.0611 25.2199C27.0653 26.7596 28.2914 28.0043 29.7998 28L67.2766 27.8931C68.7849 27.8889 70.0042 26.6371 70 25.0974L69.9389 2.78014C69.9348 1.24042 68.7086 -0.00428863 67.2003 1.11063e-05Z" fill="#E3EDFB"/>
<path d="M59.5492 16L48 28H67.5447C68.0195 27.9849 68.4854 27.8626 68.9096 27.6415C69.3338 27.4205 69.706 27.106 70 26.7205L59.5492 16Z" fill="#C8DAED"/>
<path d="M30.1454 28L49.521 27.9434H60L44.1709 11.2916C43.9927 11.1049 43.7517 11 43.5005 11C43.2494 11 43.0084 11.1049 42.8301 11.2916L28 27.0867C28.5778 27.6704 29.3458 27.9974 30.1454 28Z" fill="#D3E2F4"/>
<path d="M36.6469 9.91494C37.796 9.91494 38.7275 8.98351 38.7275 7.83444C38.7275 6.68539 37.796 5.75391 36.6469 5.75391C35.4979 5.75391 34.5664 6.68539 34.5664 7.83444C34.5664 8.98351 35.4979 9.91494 36.6469 9.91494Z" fill="#C8DAED"/>
<path d="M37.1965 72L2.7325 72.1019C1.21916 72.1063 -0.00421513 73.4084 1.0916e-05 75.01L0.0556786 96.1079C0.0599047 97.7099 1.29013 99.0041 2.80347 99L37.2675 98.898C38.7808 98.8939 40.0043 97.5914 40 95.9902L39.9443 74.892C39.9401 73.2903 38.7099 71.9956 37.1965 72Z" fill="#E3EDFB"/>
<path d="M30.0258 87L19 99H37.6523C38.1063 98.9867 38.5519 98.8646 38.9576 98.6443C39.3634 98.4231 39.7193 98.108 40 97.7213L30.0258 87Z" fill="#C8DAED"/>
<path d="M3.01942 98.9996L21.1807 98.949H31L16.166 83.2802C16.0829 83.1911 15.9842 83.1209 15.8755 83.0727C15.7667 83.0253 15.6502 83 15.5324 83C15.4147 83 15.2981 83.0253 15.1894 83.0727C15.0807 83.1209 14.9819 83.1911 14.8988 83.2802L1 98.1722C1.54697 98.7154 2.2708 99.0119 3.01942 98.9996Z" fill="#D3E2F4"/>
<path d="M9.32596 81.5657C10.3916 81.5657 11.2554 80.7023 11.2554 79.6363C11.2554 78.571 10.3916 77.707 9.32596 77.707C8.26035 77.707 7.39648 78.571 7.39648 79.6363C7.39648 80.7023 8.26035 81.5657 9.32596 81.5657Z" fill="#C8DAED"/>
</g>
<defs>
<linearGradient id="paint0_linear" x1="15473.8" y1="8184.17" x2="16722.5" y2="8184.17" gradientUnits="userSpaceOnUse">
<stop stop-color="#3CA2E5"/>
<stop offset="0.55" stop-color="#387EEF"/>
<stop offset="1" stop-color="#3665F6"/>
</linearGradient>
<linearGradient id="paint1_linear" x1="15440.8" y1="8184.17" x2="16689.5" y2="8184.17" gradientUnits="userSpaceOnUse">
<stop stop-color="#3CA2E5"/>
<stop offset="0.55" stop-color="#387EEF"/>
<stop offset="1" stop-color="#3665F6"/>
</linearGradient>
<linearGradient id="paint2_linear" x1="87.8787" y1="62.9033" x2="118.777" y2="62.9033" gradientUnits="userSpaceOnUse">
<stop stop-color="#3CA2E5" stop-opacity="0.02"/>
<stop offset="1" stop-color="#3665F6" stop-opacity="0.2"/>
</linearGradient>
<linearGradient id="paint3_linear" x1="1154.89" y1="39026.2" x2="1161.82" y2="39026.2" gradientUnits="userSpaceOnUse">
<stop stop-color="#3CA2E5"/>
<stop offset="0.55" stop-color="#387EEF"/>
<stop offset="1" stop-color="#3665F6"/>
</linearGradient>
<clipPath id="clip0">
<rect width="159" height="108" fill="white"/>
</clipPath>
</defs>
</svg>
