<svg width="7" height="10" viewBox="0 0 7 10" fill="none" xmlns="http://www.w3.org/2000/svg">
<path d="M6.80555 3.75H6.22222V2.91666C6.22222 1.3084 5.00106 0 3.5 0C1.99894 0 0.777784 1.3084 0.777784 2.91666V3.75H0.194451C0.0869714 3.75 0 3.84318 0 3.95834V9.16668C0 9.62627 0.348815 10 0.777784 10H6.22223C6.65119 10 7 9.62627 7 9.16666V3.95834C7 3.84318 6.91303 3.75 6.80555 3.75ZM4.0822 8.10201C4.08827 8.1608 4.07063 8.2198 4.03379 8.26396C3.99695 8.30811 3.94415 8.33334 3.8889 8.33334H3.11112C3.05586 8.33334 3.00307 8.30811 2.96623 8.26396C2.92939 8.21982 2.91173 8.16082 2.91781 8.10201L3.04048 6.92018C2.84129 6.76494 2.72223 6.51937 2.72223 6.25C2.72223 5.79041 3.07105 5.41666 3.50002 5.41666C3.92899 5.41666 4.2778 5.79039 4.2778 6.25C4.2778 6.51937 4.15875 6.76494 3.95956 6.92018L4.0822 8.10201ZM5.05555 3.75H1.94445V2.91666C1.94445 1.99768 2.64228 1.25 3.5 1.25C4.35772 1.25 5.05555 1.99768 5.05555 2.91666V3.75Z" fill="white"/>
</svg>
