<svg width="197" height="40" viewBox="0 0 197 40" fill="none" xmlns="http://www.w3.org/2000/svg">
<path d="M58.5746 28.0642H54.5493L52.2934 19.3107C52.2105 18.9971 52.07 18.3553 51.8682 17.3783C51.6664 16.4013 51.5511 15.7451 51.5078 15.4099C51.4646 15.8208 51.3445 16.4806 51.1475 17.3891C50.9505 18.2976 50.8099 18.9454 50.7258 19.3323L48.4808 28.0642H44.4987L40.25 11.3972H43.7239L45.8573 20.4968C46.2297 22.1793 46.4987 23.6346 46.6645 24.8628C46.7102 24.4301 46.8147 23.7596 46.978 22.851C47.1414 21.9425 47.2951 21.2371 47.4393 20.7348L49.8682 11.3972H53.2051L55.634 20.7348C55.7397 21.153 55.8719 21.7911 56.0304 22.6492C56.1926 23.5108 56.3115 24.2463 56.3908 24.8628C56.4665 24.2679 56.5854 23.5288 56.7511 22.6455C56.9169 21.7623 57.0683 21.0448 57.2052 20.4824L59.3242 11.3828H62.8017L58.5746 28.0642Z" fill="#0A0641"/>
<path d="M76.4088 16.5952C76.4088 18.3906 75.8491 19.763 74.7295 20.7124C73.61 21.6618 72.0172 22.1425 69.9511 22.1545H68.4339V28.0635H64.9023V11.3965H70.2213C72.2442 11.3965 73.7818 11.8315 74.834 12.7016C75.8863 13.5716 76.4112 14.8695 76.4088 16.5952ZM68.4339 19.2415H69.5943C70.6754 19.2415 71.4934 19.0251 72.034 18.5961C72.3074 18.3698 72.5234 18.082 72.6643 17.7561C72.8053 17.4303 72.8671 17.0757 72.8448 16.7214C72.8724 16.3846 72.826 16.0459 72.709 15.7289C72.592 15.4119 72.4071 15.1243 72.1673 14.8863C71.7133 14.4898 71.0069 14.2951 70.0412 14.2951H68.4339V19.2415Z" fill="#0A0641"/>
<path d="M92.6978 14.1002C92.099 14.0735 91.5029 14.1967 90.9637 14.4585C90.4244 14.7204 89.959 15.1127 89.6095 15.6C88.8888 16.5998 88.5284 17.9915 88.5284 19.7748C88.5284 23.4906 89.9218 25.3497 92.7086 25.3521C94.1649 25.2963 95.6019 24.999 96.9609 24.4724V27.4359C95.5055 28.0251 93.947 28.3168 92.3771 28.294C89.9554 28.294 88.102 27.5585 86.8167 26.0876C85.5313 24.6167 84.8863 22.5052 84.8815 19.7532C84.8464 18.1834 85.1693 16.6262 85.8256 15.1998C86.4125 13.9469 87.3648 12.9012 88.5572 12.2003C89.8181 11.4853 91.2489 11.1252 92.6978 11.1583C94.3884 11.1787 96.0526 11.5804 97.5664 12.3336L96.424 15.2178C95.8118 14.9275 95.1852 14.6688 94.5465 14.4427C93.9539 14.2255 93.3289 14.1097 92.6978 14.1002V14.1002Z" fill="#0A0641"/>
<path d="M111.792 21.6663C111.792 23.7429 111.245 25.3664 110.152 26.5369C109.059 27.7074 107.536 28.2927 105.582 28.2927C104.449 28.3164 103.33 28.039 102.339 27.4887C101.401 26.9551 100.647 26.1493 100.177 25.1778C99.6549 24.0823 99.397 22.8796 99.4238 21.6663C99.4238 19.5848 99.9667 17.9661 101.053 16.81C102.134 15.6564 103.665 15.0795 105.636 15.0795C106.769 15.056 107.887 15.3308 108.88 15.8763C109.815 16.4055 110.568 17.2046 111.042 18.1692C111.563 19.2596 111.82 20.4578 111.792 21.6663V21.6663ZM102.981 21.6663C102.981 22.9281 103.188 23.8823 103.604 24.5288C104.02 25.1754 104.694 25.4986 105.626 25.4986C106.553 25.4986 107.22 25.1778 107.626 24.536C108.033 23.8943 108.235 22.9353 108.235 21.6518C108.235 20.3684 108.029 19.4454 107.622 18.8145C107.215 18.1836 106.541 17.87 105.604 17.87C104.667 17.87 104.008 18.1836 103.597 18.8073C103.186 19.431 102.966 20.3972 102.966 21.6663H102.981Z" fill="#0A0641"/>
<path d="M126.075 28.0614H122.601V20.6202C122.649 19.9004 122.489 19.1819 122.14 18.5508C121.979 18.3209 121.762 18.1364 121.51 18.0151C121.257 17.8938 120.978 17.8399 120.698 17.8586C120.317 17.8313 119.936 17.9081 119.595 18.0808C119.254 18.2535 118.966 18.5157 118.763 18.8392C118.359 19.4918 118.158 20.5697 118.158 22.0839V28.0614H114.684V15.3169H117.339L117.804 16.9465H117.999C118.349 16.3548 118.864 15.8776 119.48 15.5729C120.171 15.2338 120.934 15.0645 121.704 15.079C123.611 15.079 124.902 15.7015 125.577 16.9465H125.884C126.236 16.3452 126.763 15.865 127.394 15.5693C128.094 15.2353 128.863 15.0675 129.639 15.079C131.08 15.079 132.172 15.4491 132.914 16.1894C133.657 16.9297 134.027 18.117 134.024 19.7514V28.0434H130.536V20.6202C130.586 19.9003 130.426 19.1813 130.075 18.5508C129.915 18.3202 129.699 18.135 129.446 18.0137C129.193 17.8923 128.913 17.8388 128.633 17.8586C128.264 17.8348 127.895 17.9061 127.561 18.0658C127.227 18.2255 126.94 18.4682 126.727 18.7707C126.307 19.3812 126.095 20.3426 126.093 21.6549L126.075 28.0614Z" fill="#0A0641"/>
<path d="M144.577 28.2937C143.902 28.3229 143.23 28.1898 142.618 27.9056C142.005 27.6215 141.47 27.1945 141.056 26.6605H140.876C140.995 27.7421 141.056 28.3406 141.056 28.51V33.6727H137.582V15.3185H140.407L140.897 16.9733H141.056C141.434 16.3659 141.968 15.8704 142.601 15.5377C143.234 15.205 143.945 15.0472 144.66 15.0805C145.347 15.0544 146.029 15.1999 146.646 15.504C147.262 15.808 147.793 16.2609 148.191 16.8219C149.042 17.9852 149.467 19.6003 149.467 21.6673C149.498 22.8776 149.299 24.0827 148.879 25.2184C148.548 26.1321 147.955 26.9282 147.175 27.5078C146.415 28.0401 145.504 28.3155 144.577 28.2937V28.2937ZM143.553 17.8602C142.692 17.8602 142.069 18.127 141.672 18.6533C141.276 19.1797 141.07 20.0522 141.056 21.2707V21.6312C141.056 23.0012 141.261 23.9782 141.665 24.5731C141.884 24.8739 142.177 25.1136 142.515 25.2695C142.853 25.4253 143.225 25.4922 143.597 25.4636C145.158 25.4636 145.938 24.1789 145.935 21.6096C145.935 20.355 145.741 19.414 145.359 18.7867C145.17 18.4828 144.903 18.2359 144.585 18.0727C144.267 17.9094 143.91 17.836 143.553 17.8602V17.8602Z" fill="#0A0641"/>
<path d="M159.465 15.0792C159.859 15.0716 160.252 15.1054 160.639 15.1801L160.376 18.4428C160.041 18.3583 159.695 18.3195 159.349 18.3275C158.408 18.2707 157.481 18.5764 156.758 19.1819C156.441 19.4908 156.193 19.8644 156.033 20.2775C155.872 20.6906 155.803 21.1334 155.828 21.5758V28.0652H152.344V15.3171H154.974L155.49 17.4802H155.659C156.04 16.7803 156.59 16.1867 157.259 15.7533C157.91 15.3133 158.679 15.0785 159.465 15.0792V15.0792Z" fill="#0A0641"/>
<path d="M168.486 28.2942C166.434 28.2942 164.832 27.727 163.679 26.5926C162.526 25.4581 161.948 23.855 161.945 21.7832C161.945 19.6489 162.48 17.9977 163.549 16.8296C164.618 15.6615 166.093 15.0787 167.974 15.0811C169.776 15.0811 171.178 15.5942 172.18 16.6205C173.182 17.6468 173.682 19.0636 173.682 20.8711V22.5583H165.466C165.457 23.4088 165.771 24.2311 166.345 24.8584C166.652 25.147 167.015 25.3697 167.411 25.5129C167.807 25.6561 168.228 25.7168 168.648 25.6912C169.376 25.6946 170.101 25.6136 170.81 25.4497C171.549 25.272 172.266 25.0171 172.951 24.689V27.3821C172.333 27.6886 171.679 27.9163 171.005 28.0599C170.176 28.2242 169.331 28.3028 168.486 28.2942V28.2942ZM167.999 17.5542C167.677 17.5372 167.355 17.591 167.055 17.7119C166.756 17.8327 166.487 18.0176 166.266 18.2537C165.81 18.8178 165.557 19.5184 165.545 20.2437H170.421C170.455 19.5192 170.214 18.8087 169.747 18.2537C169.523 18.0192 169.25 17.8355 168.949 17.7149C168.648 17.5942 168.324 17.5395 167.999 17.5542V17.5542Z" fill="#0A0641"/>
<path d="M185.398 24.2802C185.398 25.5853 184.944 26.5804 184.036 27.2654C183.128 27.9504 181.771 28.2929 179.964 28.2929C179.169 28.3035 178.375 28.2395 177.593 28.1018C176.965 27.9856 176.353 27.8006 175.766 27.5502V24.666C176.46 24.9936 177.184 25.2532 177.928 25.4411C178.624 25.6304 179.34 25.7333 180.061 25.7476C181.323 25.7476 181.953 25.387 181.953 24.666C181.958 24.5439 181.939 24.4219 181.896 24.3074C181.854 24.1928 181.788 24.088 181.705 23.999C181.449 23.7645 181.162 23.5679 180.85 23.415C180.444 23.1939 179.898 22.9403 179.211 22.6543C178.447 22.3636 177.721 21.981 177.049 21.515C176.621 21.204 176.276 20.7915 176.047 20.3145C175.823 19.7862 175.716 19.2154 175.733 18.6417C175.711 18.1278 175.82 17.6169 176.05 17.157C176.281 16.6971 176.624 16.3035 177.049 16.0135C177.924 15.397 179.171 15.0869 180.778 15.0869C182.327 15.0888 183.856 15.431 185.258 16.0892L184.209 18.6128C183.57 18.3388 182.969 18.1141 182.407 17.9386C181.858 17.7653 181.286 17.6765 180.71 17.6755C179.684 17.6755 179.171 17.9531 179.171 18.5083C179.178 18.6742 179.227 18.8355 179.314 18.9774C179.4 19.1192 179.521 19.2369 179.665 19.3194C180.354 19.7201 181.078 20.0591 181.827 20.3325C182.612 20.6089 183.36 20.9806 184.054 21.4393C184.487 21.7546 184.837 22.1687 185.078 22.6471C185.306 23.1604 185.415 23.7187 185.398 24.2802V24.2802Z" fill="#0A0641"/>
<path d="M196.997 24.2816C196.997 25.5867 196.543 26.5817 195.635 27.2667C194.727 27.9517 193.369 28.2942 191.563 28.2942C190.768 28.3048 189.974 28.2408 189.191 28.1031C188.561 27.9875 187.946 27.8025 187.357 27.5515V24.6674C188.058 24.9925 188.79 25.2485 189.541 25.4317C190.237 25.6209 190.953 25.7238 191.674 25.7381C192.936 25.7381 193.566 25.3776 193.566 24.6565C193.571 24.5344 193.552 24.4124 193.509 24.2979C193.467 24.1833 193.401 24.0785 193.318 23.9896C193.057 23.7577 192.765 23.5647 192.449 23.4163C192.043 23.1952 191.496 22.9417 190.809 22.6556C190.045 22.3649 189.319 21.9824 188.647 21.5164C188.222 21.202 187.882 20.787 187.656 20.3086C187.432 19.7803 187.325 19.2095 187.343 18.6358C187.32 18.122 187.43 17.611 187.66 17.1511C187.89 16.6912 188.234 16.2977 188.658 16.0076C189.534 15.3911 190.781 15.0811 192.388 15.0811C193.936 15.083 195.465 15.4251 196.867 16.0833L195.818 18.607C195.182 18.333 194.581 18.1082 194.017 17.9328C193.476 17.7542 192.911 17.6582 192.341 17.648C191.313 17.648 190.8 17.9256 190.802 18.4808C190.809 18.6467 190.858 18.8081 190.945 18.9499C191.031 19.0917 191.152 19.2094 191.296 19.292C191.985 19.6926 192.709 20.0316 193.458 20.305C194.23 20.5912 194.965 20.9701 195.645 21.4335C196.077 21.7512 196.427 22.1678 196.665 22.6484C196.899 23.1604 197.012 23.719 196.997 24.2816Z" fill="#0A0641"/>
<path d="M16.2374 38.8839C32.1692 34.1286 31.3728 21.2832 31.3728 17.559V7.33096L16.2374 1.16602L1.10206 7.33096V17.559C1.09485 21.2832 0.302048 34.1286 16.2374 38.8839Z" fill="#5CB1FF"/>
<path d="M16.2311 40L15.9212 39.9063C-0.133071 35.1293 -0.0321682 22.2767 0.00386835 18.055C0.00386835 17.8747 0.00386835 17.6945 0.00386835 17.5575V6.60117L16.2203 0L32.4368 6.60117V17.5575C32.4368 17.7089 32.4368 17.8747 32.4368 18.055C32.4692 22.2767 32.5737 35.1293 16.5194 39.9207L16.2311 40ZM2.17687 8.04326V17.5575C2.17687 17.7125 2.17687 17.8855 2.17687 18.073C2.14084 22.2659 2.05435 33.3592 16.2311 37.7539C30.4187 33.3592 30.3286 22.2515 30.2854 18.073C30.2854 17.8855 30.2854 17.7125 30.2854 17.5575V8.05768L16.2311 2.33258L2.17687 8.04326Z" fill="#87CCFF"/>
<path d="M16.2299 6.22754V17.9265H24.5219L15.6642 33.3028V22.5087H7.10547L16.2299 6.22754Z" fill="white"/>
</svg>
