<svg width="45" height="45" viewBox="0 0 45 45" fill="none" xmlns="http://www.w3.org/2000/svg">
<g clip-path="url(#clip0)">
<path d="M41.8048 34.6524C41.7962 34.64 41.7881 34.6275 41.7801 34.6147L24.682 7.51582C23.6685 5.91006 21.3286 5.9127 20.3167 7.51591L3.14523 34.7313C2.06286 36.4469 3.2986 38.6891 5.32781 38.6891H39.6737C41.7479 38.6891 42.9695 36.3549 41.8048 34.6524Z" fill="#C6271A"/>
<path d="M39.6731 41.4293H5.32716C1.1448 41.4293 -1.40525 36.8073 0.826991 33.2688L17.9988 6.05357C20.0877 2.74335 24.9128 2.74704 26.9989 6.05339L44.0837 33.1309C46.4653 36.6536 43.926 41.4293 39.6731 41.4293ZM20.5072 7.63639L3.33565 34.8517C2.34802 36.4172 3.47557 38.4632 5.32725 38.4632H39.6732C41.5644 38.4632 42.6814 36.3346 41.6188 34.7811C41.6083 34.766 41.5984 34.7507 41.5887 34.7351L24.4904 7.6363C23.5657 6.17108 21.4305 6.17327 20.5072 7.63639Z" fill="#EB4136"/>
<path d="M22.4987 16.2832C21.6798 16.2832 21.0156 16.9472 21.0156 17.7663V26.3784C21.0156 27.1974 21.6798 27.8614 22.4987 27.8614C23.3179 27.8614 23.9818 27.1974 23.9818 26.3784V17.7663C23.9818 16.9472 23.3179 16.2832 22.4987 16.2832Z" fill="#F2F2F2"/>
<path d="M22.4987 33.5843C23.3178 33.5843 23.9817 32.9203 23.9817 32.1012C23.9817 31.2822 23.3178 30.6182 22.4987 30.6182C21.6796 30.6182 21.0156 31.2822 21.0156 32.1012C21.0156 32.9203 21.6796 33.5843 22.4987 33.5843Z" fill="#F2F2F2"/>
</g>
<defs>
<clipPath id="clip0">
<rect width="45" height="45" fill="white"/>
</clipPath>
</defs>
</svg>
