<svg width="10" height="9" viewBox="0 0 10 9" fill="none" xmlns="http://www.w3.org/2000/svg">
<path d="M0.809096 4.5C0.809096 2.46659 2.4392 0.818182 4.45003 0.818182C6.18532 0.818182 7.63708 2.04579 8.00235 3.68905L7.01816 3.04547C6.83055 2.92279 6.5801 2.97713 6.45878 3.16686C6.33746 3.35658 6.3912 3.60984 6.57882 3.73252L8.25133 4.8262C8.31919 4.87822 8.40379 4.90909 8.49551 4.90909C8.53116 4.90909 8.56574 4.90443 8.59868 4.89567C8.69335 4.87084 8.77945 4.81144 8.83675 4.72184L9.93511 3.00421C10.0564 2.81449 10.0027 2.56123 9.81508 2.43855C9.62746 2.31586 9.37702 2.37021 9.25569 2.55993L8.75257 3.34672C8.24891 1.42021 6.51348 0 4.45003 0C1.99235 0 0 2.01472 0 4.5C0 6.98528 1.99235 9 4.45003 9C4.67345 9 4.85458 8.81684 4.85458 8.59091C4.85458 8.36497 4.67345 8.18182 4.45003 8.18182C2.4392 8.18182 0.809096 6.53341 0.809096 4.5Z" fill="#5CB1FF"/>
</svg>
