<svg width="18" height="17" viewBox="0 0 18 17" fill="none" xmlns="http://www.w3.org/2000/svg">
<path d="M7.13517 1.81152C7.7952 0.108545 10.2048 0.108544 10.8648 1.81152L11.5669 3.62299C11.8507 4.35514 12.5366 4.8535 13.3206 4.89713L15.2604 5.00507C17.084 5.10656 17.8286 7.39822 16.4129 8.5522L14.9071 9.77969C14.2984 10.2758 14.0364 11.0822 14.2372 11.8413L14.734 13.7195C15.201 15.4852 13.2516 16.9015 11.7166 15.9117L10.0839 14.8589C9.42393 14.4334 8.57607 14.4334 7.91615 14.8589L6.2834 15.9117C4.74844 16.9015 2.79903 15.4852 3.26604 13.7195L3.76279 11.8413C3.96357 11.0822 3.70156 10.2758 3.09294 9.77969L1.58709 8.5522C0.171421 7.39822 0.916028 5.10656 2.73962 5.00507L4.67938 4.89713C5.46338 4.8535 6.14932 4.35514 6.43308 3.62299L7.13517 1.81152Z" fill="#477FEE"/>
</svg>
