<svg width="271" height="55" viewBox="0 0 271 55" fill="none" xmlns="http://www.w3.org/2000/svg">
<path d="M80.5706 38.5863H75.0334L71.9302 26.5503C71.8162 26.119 71.6229 25.2366 71.3453 23.8932C71.0676 22.5498 70.909 21.6476 70.8495 21.1866C70.79 21.7517 70.6248 22.6589 70.3538 23.9081C70.0828 25.1573 69.8895 26.0479 69.7738 26.58L66.6855 38.5863H61.2078L55.3633 15.6692H60.142L63.0767 28.1812C63.5889 30.4945 63.959 32.4956 64.1871 34.1843C64.2499 33.5895 64.3936 32.6674 64.6184 31.4182C64.8431 30.169 65.0546 29.1991 65.2529 28.5084L68.594 15.6692H73.1844L76.5255 28.5084C76.6709 29.0834 76.8527 29.9608 77.0708 31.1406C77.2939 32.3254 77.4575 33.3367 77.5665 34.1843C77.6706 33.3664 77.8342 32.3502 78.0622 31.1357C78.2903 29.9212 78.4985 28.9347 78.6869 28.1614L81.6017 15.6494H86.3854L80.5706 38.5863Z" fill="white"/>
<path d="M105.113 22.8172C105.113 25.2859 104.343 27.1729 102.803 28.4783C101.263 29.7837 99.0718 30.4447 96.2297 30.4612H94.1427V38.586H89.2847V15.6689H96.6015C99.3841 15.6689 101.499 16.2671 102.947 17.4634C104.394 18.6598 105.116 20.4444 105.113 22.8172ZM94.1427 26.4558H95.7389C97.2261 26.4558 98.3514 26.1584 99.0949 25.5685C99.4711 25.2573 99.7682 24.8615 99.9621 24.4135C100.156 23.9655 100.241 23.4779 100.21 22.9907C100.248 22.5276 100.185 22.0618 100.024 21.626C99.8625 21.1901 99.6082 20.7947 99.2784 20.4675C98.6538 19.9222 97.6821 19.6545 96.3536 19.6545H94.1427V26.4558Z" fill="white"/>
<path d="M127.513 19.3878C126.69 19.3511 125.87 19.5204 125.128 19.8805C124.386 20.2406 123.746 20.78 123.265 21.45C122.274 22.8248 121.778 24.7382 121.778 27.1904C121.778 32.2996 123.695 34.8559 127.528 34.8592C129.532 34.7824 131.508 34.3736 133.378 33.6496V37.7244C131.376 38.5345 129.232 38.9356 127.072 38.9042C123.741 38.9042 121.191 37.893 119.423 35.8704C117.655 33.8479 116.768 30.9446 116.761 27.1607C116.713 25.0021 117.157 22.861 118.06 20.8997C118.867 19.177 120.177 17.7391 121.818 16.7753C123.552 15.7923 125.52 15.2972 127.513 15.3427C129.839 15.3707 132.128 15.9231 134.211 16.9588L132.639 20.9245C131.797 20.5253 130.935 20.1696 130.057 19.8587C129.241 19.5601 128.382 19.4009 127.513 19.3878Z" fill="white"/>
<path d="M153.785 29.7926C153.785 32.6479 153.033 34.8803 151.53 36.4897C150.026 38.0992 147.931 38.9039 145.244 38.9039C143.685 38.9365 142.146 38.555 140.782 37.7984C139.492 37.0647 138.455 35.9567 137.808 34.6209C137.09 33.1146 136.735 31.4609 136.772 29.7926C136.772 26.9306 137.519 24.7049 139.013 23.1153C140.5 21.529 142.607 20.7358 145.318 20.7358C146.876 20.7035 148.414 21.0813 149.78 21.8313C151.066 22.559 152.103 23.6578 152.754 24.9841C153.471 26.4834 153.825 28.1309 153.785 29.7926ZM141.665 29.7926C141.665 31.5276 141.951 32.8396 142.522 33.7286C143.094 34.6176 144.021 35.0621 145.303 35.0621C146.579 35.0621 147.496 34.6209 148.055 33.7385C148.615 32.8561 148.892 31.5375 148.892 29.7728C148.892 28.008 148.61 26.739 148.05 25.8714C147.49 25.0039 146.563 24.5727 145.274 24.5727C143.985 24.5727 143.078 25.0039 142.513 25.8615C141.947 26.7191 141.645 28.0477 141.645 29.7926H141.665Z" fill="white"/>
<path d="M173.427 38.5864H168.648V28.3548C168.715 27.365 168.495 26.377 168.014 25.5093C167.793 25.1932 167.495 24.9395 167.147 24.7727C166.8 24.606 166.415 24.5318 166.031 24.5576C165.507 24.52 164.982 24.6256 164.513 24.8631C164.044 25.1006 163.649 25.461 163.369 25.9059C162.814 26.8032 162.536 28.2854 162.536 30.3674V38.5864H157.757V21.0627H161.411L162.05 23.3034H162.318C162.8 22.4898 163.508 21.8337 164.355 21.4147C165.306 20.9484 166.355 20.7156 167.414 20.7356C170.038 20.7356 171.814 21.5915 172.743 23.3034H173.164C173.649 22.4767 174.373 21.8164 175.241 21.4097C176.205 20.9504 177.262 20.7197 178.33 20.7356C180.313 20.7356 181.815 21.2445 182.836 22.2624C183.857 23.2802 184.366 24.9128 184.363 27.1601V38.5616H179.564V28.3548C179.633 27.3648 179.412 26.3762 178.929 25.5093C178.71 25.1922 178.412 24.9376 178.064 24.7707C177.716 24.6038 177.331 24.5304 176.947 24.5576C176.439 24.5248 175.931 24.6229 175.472 24.8425C175.013 25.062 174.618 25.3958 174.324 25.8117C173.746 26.6511 173.455 27.9731 173.452 29.7775L173.427 38.5864Z" fill="white"/>
<path d="M198.884 38.9041C197.956 38.9442 197.032 38.7612 196.189 38.3705C195.346 37.9798 194.609 37.3927 194.04 36.6585H193.793C193.956 38.1456 194.04 38.9685 194.04 39.2015V46.3002H189.262V21.0632H193.148L193.822 23.3385H194.04C194.561 22.5034 195.295 21.822 196.166 21.3646C197.037 20.9071 198.015 20.6902 198.998 20.736C199.943 20.7 200.882 20.9001 201.73 21.3182C202.578 21.7362 203.309 22.359 203.856 23.1303C205.026 24.7298 205.611 26.9507 205.611 29.7928C205.653 31.4569 205.379 33.114 204.803 34.6756C204.346 35.9319 203.531 37.0265 202.458 37.8234C201.412 38.5554 200.16 38.934 198.884 38.9041ZM197.476 24.558C196.291 24.558 195.433 24.9248 194.888 25.6486C194.343 26.3723 194.06 27.572 194.04 29.2475V29.7432C194.04 31.6269 194.323 32.9703 194.878 33.7883C195.18 34.2019 195.583 34.5315 196.048 34.7458C196.513 34.9601 197.025 35.052 197.535 35.0127C199.683 35.0127 200.756 33.2463 200.752 29.7135C200.752 27.9884 200.485 26.6945 199.959 25.832C199.7 25.414 199.332 25.0746 198.894 24.8501C198.457 24.6257 197.966 24.5247 197.476 24.558Z" fill="white"/>
<path d="M219.358 20.7358C219.9 20.7254 220.442 20.7719 220.974 20.8746L220.613 25.3609C220.151 25.2446 219.676 25.1912 219.2 25.2022C217.905 25.1242 216.63 25.5445 215.636 26.3771C215.199 26.8017 214.858 27.3155 214.637 27.8835C214.417 28.4515 214.321 29.0604 214.357 29.6687V38.5916H209.563V21.063H213.182L213.891 24.0373H214.124C214.648 23.0749 215.405 22.2587 216.325 21.6628C217.221 21.0578 218.277 20.7349 219.358 20.7358Z" fill="white"/>
<path d="M231.768 38.9044C228.946 38.9044 226.741 38.1245 225.155 36.5646C223.569 35.0048 222.774 32.8005 222.771 29.9518C222.771 27.0171 223.506 24.7467 224.976 23.1406C226.447 21.5344 228.476 20.733 231.064 20.7363C233.542 20.7363 235.471 21.4419 236.849 22.8531C238.227 24.2642 238.916 26.2124 238.916 28.6976V31.0175H227.614C227.601 32.187 228.033 33.3176 228.823 34.1802C229.245 34.577 229.744 34.8832 230.289 35.0801C230.833 35.2771 231.413 35.3605 231.991 35.3253C232.992 35.33 233.99 35.2185 234.965 34.9932C235.981 34.7489 236.968 34.3983 237.91 33.9472V37.6503C237.06 38.0717 236.161 38.3848 235.233 38.5822C234.092 38.8082 232.931 38.9162 231.768 38.9044ZM231.099 24.137C230.655 24.1136 230.212 24.1876 229.8 24.3537C229.388 24.5198 229.017 24.7741 228.714 25.0987C228.087 25.8743 227.738 26.8377 227.723 27.835H234.43C234.476 26.8388 234.145 25.8618 233.503 25.0987C233.194 24.7763 232.819 24.5237 232.405 24.3578C231.99 24.1919 231.545 24.1166 231.099 24.137Z" fill="white"/>
<path d="M255.033 33.3869C255.033 35.1814 254.409 36.5496 253.16 37.4915C251.91 38.4333 250.043 38.9043 247.558 38.9043C246.465 38.9189 245.373 38.8309 244.296 38.6415C243.433 38.4818 242.59 38.2275 241.783 37.8831V33.9173C242.738 34.3677 243.734 34.7247 244.757 34.9831C245.714 35.2434 246.7 35.3849 247.692 35.4045C249.427 35.4045 250.294 34.9088 250.294 33.9173C250.301 33.7494 250.275 33.5817 250.216 33.4242C250.157 33.2667 250.068 33.1226 249.952 33.0003C249.601 32.6778 249.205 32.4074 248.777 32.1972C248.219 31.8932 247.467 31.5445 246.522 31.1512C245.471 30.7515 244.472 30.2255 243.548 29.5848C242.959 29.1571 242.485 28.5898 242.17 27.934C241.861 27.2076 241.714 26.4228 241.738 25.6339C241.708 24.9274 241.858 24.2248 242.174 23.5924C242.491 22.9601 242.964 22.4189 243.548 22.0201C244.752 21.1724 246.467 20.7461 248.678 20.7461C250.808 20.7487 252.912 21.2192 254.84 22.1242L253.398 25.5942C252.518 25.2175 251.692 24.9085 250.919 24.6672C250.164 24.4289 249.376 24.3068 248.584 24.3054C247.173 24.3054 246.467 24.6871 246.467 25.4505C246.477 25.6786 246.545 25.9005 246.664 26.0955C246.782 26.2905 246.948 26.4523 247.147 26.5658C248.095 27.1167 249.09 27.5828 250.121 27.9588C251.2 28.3389 252.229 28.85 253.184 29.4807C253.779 29.9142 254.262 30.4835 254.592 31.1413C254.906 31.8472 255.057 32.6147 255.033 33.3869Z" fill="white"/>
<path d="M270.987 33.3871C270.987 35.1816 270.363 36.5498 269.113 37.4916C267.864 38.4335 265.997 38.9044 263.512 38.9044C262.419 38.919 261.327 38.831 260.25 38.6417C259.384 38.4827 258.537 38.2283 257.727 37.8832V33.9175C258.692 34.3646 259.698 34.7166 260.731 34.9684C261.688 35.2286 262.674 35.3701 263.666 35.3898C265.401 35.3898 266.268 34.8941 266.268 33.9026C266.275 33.7347 266.249 33.567 266.19 33.4095C266.131 33.252 266.041 33.1078 265.926 32.9855C265.568 32.6668 265.165 32.4013 264.731 32.1973C264.173 31.8933 263.421 31.5447 262.476 31.1514C261.425 30.7517 260.426 30.2256 259.501 29.5849C258.917 29.1526 258.448 28.582 258.138 27.9243C257.83 27.1978 257.683 26.413 257.707 25.6241C257.676 24.9176 257.827 24.215 258.143 23.5827C258.46 22.9503 258.932 22.4092 259.516 22.0103C260.721 21.1626 262.436 20.7363 264.647 20.7363C266.777 20.7389 268.881 21.2094 270.809 22.1144L269.366 25.5845C268.491 25.2077 267.664 24.8987 266.888 24.6575C266.143 24.412 265.366 24.2799 264.583 24.2658C263.168 24.2658 262.463 24.6475 262.466 25.411C262.476 25.6391 262.543 25.861 262.662 26.056C262.781 26.251 262.947 26.4128 263.145 26.5263C264.094 27.0772 265.089 27.5433 266.119 27.9193C267.181 28.3128 268.192 28.8338 269.128 29.4709C269.723 29.9078 270.204 30.4806 270.531 31.1415C270.853 31.8454 271.009 32.6135 270.987 33.3871Z" fill="white"/>
<path d="M22.3316 53.4637C44.2473 46.9251 43.1518 29.2627 43.1518 24.1419V10.0784L22.3316 1.60156L1.51143 10.0784V24.1419C1.50152 29.2627 0.410935 46.9251 22.3316 53.4637Z" fill="#5CB1FF"/>
<path d="M22.3275 55L21.9012 54.8711C-0.183052 48.3028 -0.0442506 30.6305 0.0053213 24.8256C0.0053213 24.5777 0.0053213 24.3299 0.0053213 24.1415V9.07661L22.3127 0L44.62 9.07661V24.1415C44.62 24.3497 44.62 24.5777 44.62 24.8256C44.6646 30.6305 44.8084 48.3028 22.7241 54.8909L22.3275 55ZM2.99451 11.0595V24.1415C2.99451 24.3547 2.99451 24.5926 2.99451 24.8504C2.94493 30.6156 2.82596 45.8689 22.3275 51.9117C41.844 45.8689 41.7201 30.5958 41.6606 24.8504C41.6606 24.5926 41.6606 24.3547 41.6606 24.1415V11.0793L22.3275 3.2073L2.99451 11.0595Z" fill="#87CCFF"/>
<path d="M22.325 8.56152V24.6476H33.7315L21.5468 45.79V30.9482H9.77344L22.325 8.56152Z" fill="white"/>
</svg>
