<svg width="221" height="122" viewBox="0 0 221 122" fill="none" xmlns="http://www.w3.org/2000/svg">
<path d="M166.5 64C166.5 95.2083 141.424 120.5 110.5 120.5C79.5762 120.5 54.5 95.2083 54.5 64C54.5 32.7917 79.5762 7.5 110.5 7.5C141.424 7.5 166.5 32.7917 166.5 64Z" stroke="#EFF7FF"/>
<rect x="0.5" y="10.5" width="90" height="64" rx="5.5" fill="white" stroke="#EFF7FF"/>
<circle cx="6" cy="14" r="1" fill="#5498F9"/>
<circle cx="10" cy="14" r="1" fill="#5498F9"/>
<circle cx="14" cy="14" r="1" fill="#5498F9"/>
<rect x="4.41162" y="16.9409" width="82.3529" height="5.88235" rx="2.94118" fill="#DDEAFE"/>
<rect x="5.14697" y="25.0293" width="33.8235" height="45.5882" rx="4" fill="#EFF7FF"/>
<path d="M12 54C12 54 12.5235 41.5877 18.0561 40.7532C23.7589 39.8931 21.6123 52.9506 27.3565 52.4545C33.6413 51.9118 32.98 37 32.98 37" stroke="#5498F9"/>
<rect x="10.2939" y="61.7939" width="22.7941" height="5.88235" rx="2.94118" fill="#5498F9"/>
<rect x="42.647" y="48.5586" width="44.8529" height="21.3235" rx="4" fill="#EFF7FF"/>
<rect x="45.5881" y="57.3823" width="37.5" height="0.735294" rx="0.367647" fill="#DDEAFE"/>
<rect x="45.5881" y="61.0586" width="37.5" height="0.735294" rx="0.367647" fill="#DDEAFE"/>
<rect x="45.5881" y="64.7354" width="22.7941" height="0.735294" rx="0.367647" fill="#DDEAFE"/>
<rect x="45.5881" y="51.5" width="14.7059" height="1.47059" rx="0.735294" fill="#DDEAFE"/>
<rect x="63.2354" y="51.5" width="6.61765" height="1.47059" rx="0.735294" fill="#DDEAFE"/>
<rect x="50" y="0.0292969" width="30.1471" height="44.8529" rx="4" fill="#5498F9"/>
<rect x="55.147" y="26.5" width="22.0588" height="5.88235" rx="2.94118" fill="#EFF7FF"/>
<rect x="61.7646" y="36.0586" width="22.7941" height="5.88235" rx="2.94118" fill="#EFF7FF"/>
<rect x="53.5" y="4.5" width="23" height="19" rx="3.5" stroke="#EFF7FF"/>
<rect x="129.913" y="58.6182" width="90.1765" height="62.2353" rx="5.5" fill="white" stroke="#EFF7FF"/>
<path d="M207.463 73.5803L205.909 71.1626C206.265 70.4612 206.566 69.7317 206.811 68.9824L209.62 68.3716C210.122 68.2624 210.48 67.8181 210.48 67.3048L210.48 61.1172C210.48 60.6039 210.122 60.1595 209.62 60.0503L206.811 59.4396C206.566 58.6903 206.265 57.9607 205.909 57.2593L207.463 54.8417C207.74 54.4098 207.679 53.8425 207.316 53.4793L202.941 49.1042C202.578 48.7411 202.011 48.68 201.579 48.9577L199.161 50.5119C198.46 50.1559 197.73 49.8541 196.981 49.6098L196.37 46.8003C196.261 46.2984 195.817 45.9404 195.303 45.9404L189.116 45.9404C188.602 45.9404 188.158 46.2984 188.049 46.8003L187.438 49.6098C186.689 49.8541 185.959 50.1559 185.258 50.5119L182.84 48.9577C182.408 48.6802 181.841 48.7411 181.478 49.1042L177.103 53.4793C176.74 53.8425 176.679 54.4096 176.956 54.8417L178.51 57.2593C178.154 57.9607 177.853 58.6903 177.608 59.4396L174.799 60.0503C174.297 60.1595 173.939 60.6039 173.939 61.1172L173.939 67.3048C173.939 67.8181 174.297 68.2624 174.799 68.3716L177.608 68.9824C177.853 69.7317 178.154 70.4612 178.51 71.1626L176.956 73.5803C176.678 74.0122 176.74 74.5795 177.103 74.9426L181.478 79.3178C181.841 79.6809 182.408 79.742 182.84 79.4642L185.258 77.9101C185.959 78.2661 186.689 78.5679 187.438 78.8121L188.049 81.6216C188.158 82.1235 188.602 82.4817 189.116 82.4815L195.303 82.4815C195.817 82.4815 196.261 82.1235 196.37 81.6216L196.981 78.8121C197.73 78.5679 198.46 78.2661 199.161 77.9101L201.579 79.4642C202.011 79.7418 202.578 79.6809 202.941 79.3178L207.316 74.9426C207.679 74.5795 207.74 74.0124 207.463 73.5803ZM196.842 68.8434C194.288 71.3976 190.131 71.3976 187.577 68.8434C185.023 66.2891 185.023 62.1328 187.577 59.5786C190.131 57.0244 194.288 57.0244 196.842 59.5786C199.396 62.1328 199.396 66.2891 196.842 68.8434Z" fill="#5498F9"/>
<circle cx="135.999" cy="63" r="1" fill="#5498F9"/>
<circle cx="139.999" cy="63" r="1" fill="#5498F9"/>
<circle cx="143.999" cy="63" r="1" fill="#5498F9"/>
<rect x="135.296" y="67.6768" width="33.8235" height="47.7941" rx="4" fill="#EFF7FF"/>
<rect x="139.708" y="100.765" width="25" height="5.88235" rx="2.94118" fill="#5498F9"/>
<rect x="172.796" y="91" width="41.9118" height="18.3824" rx="4" fill="#EFF7FF"/>
<rect x="175.738" y="99.0879" width="34.5588" height="0.735294" rx="0.367647" fill="#DDEAFE"/>
<rect x="175.738" y="102.765" width="34.5588" height="0.735294" rx="0.367647" fill="#DDEAFE"/>
<rect x="175.738" y="93.9414" width="13.2353" height="1.47059" rx="0.735294" fill="#DDEAFE"/>
<rect x="190.445" y="93.9414" width="6.61765" height="1.47059" rx="0.735294" fill="#DDEAFE"/>
<rect x="139.708" y="75.7651" width="25" height="22.0588" rx="4" fill="#DDEAFE"/>
<path d="M101.409 55.1184C103.293 53.234 106.348 53.234 108.233 55.1184L112.266 59.1514C114.215 61.1007 114.035 64.2066 112.266 65.9755C111.97 66.2717 111.642 66.5132 111.296 66.7115L110.56 65.9755C110.077 65.4926 110.247 64.9282 110.256 64.5209C110.362 64.4458 110.465 64.3646 110.56 64.2694C111.467 63.3618 111.508 61.8059 110.56 60.8574C110.419 60.7165 106.612 56.91 106.527 56.8245C105.586 55.8836 104.056 55.8836 103.115 56.8245C102.174 57.7654 102.174 59.2956 103.115 60.2365L105.781 62.9023C105.703 63.3288 105.241 64.3392 105.479 66.0058C105.467 65.9944 105.453 65.9871 105.442 65.9755L101.409 61.9426C99.5243 60.0581 99.5243 57.0029 101.409 55.1184Z" fill="#5498F9"/>
<path d="M108.001 61.7107C108.297 61.4145 108.625 61.173 108.971 60.9746L109.707 61.7107C110.189 62.1935 110.02 62.7579 110.011 63.1652C109.905 63.2403 109.802 63.3215 109.707 63.4166C108.799 64.3243 108.758 65.8802 109.707 66.8287C109.848 66.9699 113.97 71.0917 114.052 71.1742C114.993 72.1151 116.523 72.1151 117.464 71.1742C118.405 70.2333 118.405 68.703 117.464 67.7621L114.486 64.7838C114.563 64.3573 115.026 63.3469 114.788 61.6802C114.799 61.6917 114.813 61.6991 114.825 61.7106L119.17 66.0562C121.055 67.9406 121.055 70.9958 119.17 72.8803C117.286 74.7647 114.231 74.7647 112.346 72.8803L108.001 68.5348C106.088 66.6217 106.192 63.5192 108.001 61.7107Z" fill="#5498F9"/>
</svg>
