<svg width="10" height="10" viewBox="0 0 10 10" fill="none" xmlns="http://www.w3.org/2000/svg">
<g clip-path="url(#clip0_696:52)">
<path d="M6.64842 5.04679C6.62265 5.021 6.62265 4.97902 6.64842 4.95323L9.79653 1.80359C10.0657 1.5343 10.0657 1.0961 9.79653 0.826788L9.17244 0.202388C9.04199 0.0718615 8.86855 0 8.68407 0C8.49958 0 8.32613 0.0718615 8.19568 0.202368L5.04757 3.35205C5.03164 3.36799 5.01347 3.37134 5.00105 3.37134C4.98864 3.37134 4.97046 3.368 4.95453 3.35205L1.8064 0.202368C1.67596 0.0718615 1.50252 0 1.31802 0C1.13351 0 0.960093 0.0718615 0.829645 0.202368L0.205557 0.826788C-0.0636361 1.0961 -0.0636361 1.5343 0.205557 1.80359L3.35366 4.95323C3.37943 4.97902 3.37943 5.021 3.35366 5.04679L0.205557 8.19643C-0.0636166 8.46574 -0.0636166 8.90392 0.205557 9.17323L0.829645 9.79763C0.960093 9.92814 1.13353 10 1.31802 10C1.5025 10 1.67596 9.92814 1.8064 9.79763L4.95451 6.64798C4.97044 6.63203 4.9886 6.6287 5.00103 6.6287C5.01347 6.6287 5.0316 6.63203 5.04755 6.648L8.19566 9.79765C8.32611 9.92816 8.49954 10 8.68405 10C8.86855 10 9.04197 9.92816 9.17242 9.79765L9.79651 9.17325C10.0657 8.90396 10.0657 8.46576 9.79651 8.19645L6.64842 5.04679Z" fill="#6F7787"/>
</g>
<defs>
<clipPath id="clip0_696:52">
<rect width="10" height="10" fill="white"/>
</clipPath>
</defs>
</svg>
