<svg width="16" height="16" viewBox="0 0 16 16" fill="none" xmlns="http://www.w3.org/2000/svg">
<path d="M3.67552 1.57114C3.50272 1.43546 3.23392 1.45146 3.0784 1.60698L1.6064 3.07956C1.45152 3.23443 1.43552 3.50322 1.57184 3.67729L2.45888 4.80621C2.18368 5.28235 1.96992 5.79753 1.82464 6.34215L0.39744 6.51302L3.43202 1.96046L3.43195 1.96054L3.39712 1.92571L3.36674 1.9644L3.36659 1.96428L3.39699 1.92558L3.07854 1.60711L3.39706 1.92551L3.67552 1.57114ZM3.67552 1.57114L4.80512 2.45878L3.67552 1.57114ZM12.9203 1.6057L14.3917 3.07764C14.5485 3.23379 14.5638 3.50194 14.4282 3.67537M12.9203 1.6057L14.1754 6.34023C14.0294 5.79561 13.8157 5.28107 13.5405 4.80365L14.4282 3.67537M12.9203 1.6057C12.7654 1.45018 12.4966 1.43354 12.3226 1.56922L12.9203 1.6057ZM14.4282 3.67537L14.0739 3.39669L14.0731 3.39605L14.0352 3.36621L14.0344 3.36729L14.0722 3.39694L14.0731 3.39757L14.4282 3.67537ZM13.6924 6.46963L13.7799 6.79632L14.1157 6.83666L15.5 7.00294V8.99699L14.1157 9.16335L13.7801 9.20367L13.6925 9.53009C13.5577 10.0319 13.3613 10.5057 13.1078 10.9432L12.9379 11.2365L13.1475 11.503L14.0091 12.5979L12.5989 14.0092L11.5031 13.1486L11.2371 12.9398L10.9442 13.1088C10.5068 13.3614 10.0328 13.5584 9.53013 13.6931L9.20345 13.7806L9.16309 14.1164L8.99681 15.5H7.00319L6.83691 14.1164L6.79647 13.7799L6.46895 13.6929C5.96799 13.5597 5.49431 13.3623 5.05595 13.109L4.76269 12.9395L4.49652 13.149L3.40146 14.0108L1.9927 12.5991L2.85284 11.5031L3.06167 11.2371L2.89241 10.9442C2.6394 10.5065 2.44291 10.0325 2.30813 9.53123L2.22039 9.20492L1.88491 9.16462L0.5 8.99827V7.00431L1.88408 6.8386L2.22043 6.79833L2.30775 6.47102C2.44176 5.96865 2.63869 5.49429 2.89177 5.05641L3.06113 4.7634L2.85203 4.49729L1.99125 3.4018L3.4011 1.9914L4.49619 2.85192L4.76217 3.06093L5.05512 2.89179C5.4928 2.63909 5.96733 2.44157 6.46884 2.30764L6.79589 2.2203L6.83627 1.8842L7.00255 0.5H8.99678L9.16242 1.88398L9.2027 2.22055L9.53026 2.30774C10.031 2.44104 10.5046 2.63785 10.9419 2.8909L11.2351 3.0606L11.5014 2.85115L12.597 1.98949L14.0079 3.40093L13.1475 4.49448L12.9384 4.76031L13.1073 5.05335C13.3607 5.49298 13.5577 5.96708 13.6924 6.46963ZM15.543 8.99182L15.5429 8.99183L15.543 8.99182ZM7.00844 15.5437L7.00843 15.5436L7.00844 15.5437ZM14.0389 3.43192C14.0386 3.43165 14.0383 3.43139 14.0381 3.43112L14.0389 3.43192ZM1.96251 12.5688C1.96263 12.5689 1.96276 12.5691 1.96289 12.5692L1.96251 12.5688ZM3.50064 7.99968C3.50064 10.485 5.51524 12.4995 8.00064 12.4995C10.4867 12.4995 12.5006 10.485 12.5006 7.99968C12.5006 5.51433 10.486 3.49984 8.00064 3.49984C5.51524 3.49984 3.50064 5.51433 3.50064 7.99968Z" fill="#39BCE9" stroke="#39BCE9"/>
</svg>
