<svg width="16" height="16" viewBox="0 0 16 16" fill="none" xmlns="http://www.w3.org/2000/svg">
<path d="M15.6032 6.51174L14.1754 6.34023C14.0294 5.79561 13.8157 5.28107 13.5405 4.80365L14.4282 3.67537C14.5638 3.50194 14.5485 3.23379 14.3917 3.07764L12.9203 1.6057C12.7654 1.45018 12.4966 1.43354 12.3226 1.56922L11.1923 2.45814C10.7168 2.18295 10.2022 1.9692 9.65888 1.82457L9.488 0.396784C9.46176 0.178553 9.26016 0 9.04 0H6.95872C6.73856 0 6.53696 0.178553 6.51136 0.396784L6.33984 1.82457C5.79584 1.96984 5.28064 2.18423 4.80512 2.45878L3.67552 1.57114C3.50272 1.43546 3.23392 1.45146 3.0784 1.60698L1.6064 3.07956C1.45152 3.23443 1.43552 3.50322 1.57184 3.67729L2.45888 4.80621C2.18368 5.28235 1.96992 5.79753 1.82464 6.34215L0.39744 6.51302C0.1792 6.53862 0 6.74021 0 6.961V9.0422C0 9.26235 0.17856 9.46266 0.39744 9.48954L1.82528 9.66105C1.9712 10.2038 2.18432 10.7183 2.45952 11.1944L1.57248 12.3246C1.43744 12.4981 1.4528 12.7662 1.60896 12.9224L3.0784 14.3949C3.23392 14.5498 3.50272 14.5671 3.67552 14.4314L4.80576 13.5419C5.28192 13.817 5.79648 14.0314 6.34048 14.1761L6.512 15.6032C6.53824 15.8221 6.7392 16 6.95936 16H9.04064C9.26144 16 9.4624 15.8221 9.488 15.6032L9.65952 14.1761C10.2042 14.0302 10.7187 13.8164 11.1942 13.5419L12.3245 14.4295C12.4979 14.5652 12.7661 14.5492 12.9216 14.3937L14.393 12.9211C14.5491 12.7662 14.5651 12.4974 14.4288 12.3227L13.5405 11.1938C13.8163 10.7177 14.0294 10.2031 14.1754 9.65977L15.6026 9.48826C15.8214 9.46202 16 9.26235 16 9.04092V6.95972C16.0006 6.73829 15.8227 6.53798 15.6032 6.51174ZM8.00064 11.9995C5.79136 11.9995 4.00064 10.2089 4.00064 7.99968C4.00064 5.79049 5.79136 3.99984 8.00064 3.99984C10.2099 3.99984 12.0006 5.79049 12.0006 7.99968C12.0006 10.2089 10.2106 11.9995 8.00064 11.9995Z" fill="#314B72"/>
</svg>
