<svg width="18" height="18" viewBox="0 0 18 18" fill="none" xmlns="http://www.w3.org/2000/svg">
<g clip-path="url(#clip0_696:63)">
<path d="M17.1115 7.22743L15.1041 6.73377C14.9835 6.35325 14.8283 5.98425 14.641 5.63127C14.9424 5.12959 15.5758 4.07367 15.5758 4.07367C15.697 3.87191 15.6649 3.61354 15.4987 3.44733L14.0487 1.99736C13.8825 1.83063 13.6246 1.7986 13.4224 1.92025L11.8622 2.85503C11.5112 2.66926 11.1443 2.51556 10.7663 2.39589L10.2726 0.388555C10.2155 0.160234 10.0107 0 9.77539 0H7.72461C7.48928 0 7.284 0.160234 7.22743 0.38852C7.22743 0.38852 6.88546 1.78955 6.73425 2.39538C6.33121 2.52304 5.94169 2.68878 5.57067 2.89105L3.95298 1.92025C3.75071 1.80007 3.49337 1.83114 3.32664 1.99736L1.87667 3.44733C1.71045 3.61354 1.67839 3.87191 1.79956 4.07367L2.79993 5.74444C2.63871 6.06238 2.50353 6.39331 2.39589 6.73227L0.388555 7.22743C0.160234 7.28451 0 7.48928 0 7.72461V9.77539C0 10.0107 0.160234 10.216 0.38852 10.2726L2.39637 10.7662C2.51805 11.1523 2.67624 11.5273 2.86802 11.8873L1.97282 13.3793C1.85165 13.581 1.88371 13.8394 2.04993 14.0056L3.4999 15.4556C3.66563 15.6213 3.92396 15.6528 4.12624 15.5327C4.12624 15.5327 5.1301 14.9309 5.62177 14.6365C5.97775 14.8262 6.35024 14.9829 6.73429 15.1046L7.22747 17.1114C7.284 17.3398 7.48928 17.5 7.72461 17.5H9.77539C10.0107 17.5 10.2155 17.3398 10.2726 17.1115L10.7657 15.1046C11.1608 14.9795 11.5413 14.8177 11.9033 14.6215C12.4085 14.9244 13.4223 15.5327 13.4223 15.5327C13.6241 15.6533 13.8825 15.6223 14.0487 15.4556L15.4986 14.0056C15.6649 13.8394 15.6969 13.581 15.5758 13.3793L14.654 11.8437C14.8357 11.4987 14.9865 11.1377 15.1041 10.7662L17.1114 10.2726C17.3398 10.2155 17.5 10.0107 17.5 9.77539V7.72461C17.5 7.48928 17.3398 7.28451 17.1115 7.22743ZM8.75 12.3389C6.7713 12.3389 5.16113 10.7287 5.16113 8.75C5.16113 6.7713 6.7713 5.16113 8.75 5.16113C10.7287 5.16113 12.3389 6.7713 12.3389 8.75C12.3389 10.7287 10.7287 12.3389 8.75 12.3389Z" fill="#6F7787"/>
</g>
<defs>
<clipPath id="clip0_696:63">
<rect width="17.5" height="17.5" fill="white"/>
</clipPath>
</defs>
</svg>
