<svg width="14" height="14" viewBox="0 0 14 14" fill="none" xmlns="http://www.w3.org/2000/svg">
<path d="M0.960904 0.961066C2.24232 -0.320351 4.31981 -0.320351 5.60123 0.961039L8.3436 3.70341C9.66906 5.02893 9.54635 7.14093 8.3436 8.34373C8.14219 8.54514 7.91934 8.70937 7.68402 8.84425L7.1835 8.34373C6.85522 8.01539 6.97077 7.63157 6.97668 7.35461C7.04873 7.30354 7.11881 7.24833 7.1835 7.18364C7.80072 6.56647 7.82848 5.50845 7.1835 4.86348C7.08772 4.76769 4.49932 2.17929 4.44119 2.12116C3.80138 1.48135 2.76083 1.48135 2.12103 2.12116C1.48122 2.76097 1.48122 3.80152 2.12103 4.44132L3.9337 6.25399C3.88128 6.54402 3.56669 7.23105 3.72851 8.36438C3.72061 8.35661 3.71115 8.35161 3.70327 8.34376L0.960904 5.60139C-0.320458 4.31997 -0.320458 2.24248 0.960904 0.961066Z" fill="#72BCFF"/>
<path d="M5.44404 5.44388C5.64543 5.24247 5.8683 5.07824 6.10356 4.94336L6.60408 5.44388C6.93242 5.77216 6.81687 6.15598 6.81096 6.43294C6.73886 6.48402 6.66878 6.53922 6.60408 6.60392C5.98686 7.22114 5.95911 8.27911 6.60408 8.92408C6.70009 9.02008 9.50289 11.8229 9.55897 11.879C10.1988 12.5188 11.2393 12.5188 11.8791 11.879C12.5189 11.2392 12.5189 10.1986 11.8791 9.5588L9.85389 7.53356C9.90631 7.24353 10.2209 6.55651 10.0591 5.42318C10.067 5.43095 10.0765 5.436 10.0844 5.44385L13.0392 8.39876C14.3206 9.68018 14.3206 11.7577 13.0392 13.0391C11.7578 14.3204 9.68034 14.3204 8.39893 13.0391L5.44404 10.0842C4.14316 8.78332 4.21425 6.67364 5.44404 5.44388Z" fill="#72BCFF"/>
</svg>
