<svg width="16" height="14" viewBox="0 0 16 14" fill="none" xmlns="http://www.w3.org/2000/svg">
<path d="M7.46803 3.62841L4.26599 2.06055V5.59983L7.46803 7.02476V3.62841Z" fill="#DDE2FA"/>
<path d="M0.209963 12.3258L3.20204 13.6563V10.2598L0 8.69189V12.0026C0 12.1424 0.0822791 12.269 0.209963 12.3258Z" fill="#DDE2FA"/>
<path d="M7.46807 8.69189L4.26306 10.2601V13.657L7.46807 12.2338V8.69189Z" fill="#DDE2FA"/>
<path d="M6.74457 7.86438L3.7368 6.52686L0.723755 7.86488L3.73258 9.33816L6.74457 7.86438Z" fill="#DDE2FA"/>
<path d="M15.9999 8.75L12.792 10.2652V13.6571L15.7561 12.3408C15.9044 12.2749 15.9999 12.1279 15.9999 11.9657V8.75Z" fill="#DDE2FA"/>
<path d="M11.0034 1.2916L8.29314 0.0655423C8.10308 -0.0204243 7.88553 -0.0218931 7.69434 0.0615423L4.99841 1.23792L8.00265 2.70894L11.0034 1.2916Z" fill="#DDE2FA"/>
<path d="M15.2764 7.91844L12.2633 6.52832L9.25281 7.86522L12.2657 9.3405L15.2764 7.91844Z" fill="#DDE2FA"/>
<path d="M8.53176 12.2339L11.7311 13.6566V10.26L8.52954 8.69238L8.53176 12.2339Z" fill="#DDE2FA"/>
<path d="M11.737 5.60113V2.11865L8.52905 3.63386V7.02568L9.9477 6.3957L11.737 5.60113Z" fill="#DDE2FA"/>
</svg>
