<svg width="16" height="15" viewBox="0 0 16 15" fill="none" xmlns="http://www.w3.org/2000/svg">
<path d="M15.8416 7.45116C15.6476 7.27978 15.3514 7.29821 15.18 7.49218L15.1724 7.50073V7.17223C15.1724 5.25646 14.4263 3.45532 13.0716 2.10058C11.717 0.745971 9.91583 0 8.00006 0C6.84284 0 5.69294 0.282226 4.6745 0.816039C3.68915 1.33252 2.82429 2.08386 2.17341 2.98901C2.02229 3.19909 2.07014 3.49206 2.28034 3.64318C2.49055 3.79443 2.78352 3.74658 2.93464 3.53637C3.5008 2.74902 4.253 2.09546 5.10981 1.64636C5.99445 1.18262 6.99384 0.937499 8.00006 0.937499C11.4379 0.937499 14.2349 3.73449 14.2349 7.17236V7.50085L14.2272 7.4923C14.0558 7.29821 13.7596 7.2799 13.5656 7.45129C13.3715 7.62267 13.3532 7.91894 13.5246 8.11291L14.3522 9.04992C14.4412 9.15063 14.5691 9.20824 14.7035 9.20824C14.8379 9.20824 14.9659 9.15063 15.0549 9.04992L15.8825 8.11291C16.054 7.91882 16.0357 7.62255 15.8416 7.45116Z" fill="#5CB1FF"/>
<path d="M13.7197 10.6999C13.5095 10.5488 13.2167 10.5966 13.0654 10.8068C12.4993 11.594 11.7471 12.2476 10.8903 12.6968C10.0056 13.1605 9.00611 13.4056 8.00001 13.4056C4.56215 13.4056 1.76515 10.6086 1.76515 7.17077V6.84228L1.77284 6.85095C1.94423 7.04492 2.24049 7.06335 2.43446 6.89184C2.62855 6.72046 2.64686 6.42419 2.47548 6.23022L1.64784 5.29321C1.55873 5.1925 1.43092 5.13477 1.29652 5.13477C1.16213 5.13477 1.03407 5.1925 0.945206 5.29321L0.117448 6.23022C-0.0539381 6.42432 -0.0356276 6.72046 0.158464 6.89184C0.247575 6.9707 0.358293 7.0094 0.468644 7.0094C0.598283 7.0094 0.727433 6.95581 0.820084 6.85095L0.827653 6.84228V7.17077C0.827653 9.08667 1.57375 10.8877 2.92848 12.2424C4.28309 13.5972 6.08424 14.3431 8.00001 14.3431C9.15711 14.3431 10.3071 14.0609 11.3256 13.5271C12.3108 13.0106 13.1757 12.2591 13.8265 11.3541C13.9777 11.1439 13.9299 10.8511 13.7197 10.6999Z" fill="#5CB1FF"/>
<path d="M3.37636 8.37145C3.34413 8.49145 3.36098 8.61938 3.42323 8.72704L4.36073 10.3509C4.42286 10.4586 4.52528 10.5371 4.64528 10.5693C4.76539 10.6014 4.89332 10.5847 5.00099 10.5225L5.69032 10.1245C5.96559 10.3396 6.27064 10.5161 6.59364 10.6472V11.442C6.59364 11.7008 6.80348 11.9108 7.06239 11.9108H8.93739C9.19618 11.9108 9.40614 11.7008 9.40614 11.442V10.6472C9.72913 10.5161 10.0342 10.3396 10.3095 10.1245L10.9988 10.5225C11.1063 10.5846 11.2344 10.6014 11.3544 10.5693C11.4745 10.5371 11.5769 10.4586 11.639 10.3509L12.5765 8.72704C12.6387 8.61938 12.6555 8.49145 12.6234 8.37145C12.5912 8.25134 12.5126 8.14892 12.405 8.08679L11.7142 7.68798C11.7379 7.51684 11.7499 7.34362 11.7499 7.17041C11.7499 6.99511 11.7377 6.82019 11.7134 6.64709L12.405 6.2478C12.5127 6.18567 12.5912 6.08325 12.6234 5.96313C12.6555 5.84301 12.6387 5.71508 12.5765 5.60742L11.639 3.98364C11.5096 3.75952 11.2229 3.68274 10.9988 3.81213L10.3049 4.21277C10.0308 3.99927 9.7273 3.82397 9.40614 3.6936V2.89258C9.40614 2.63379 9.1963 2.42383 8.93739 2.42383H7.06239C6.80348 2.42383 6.59364 2.63379 6.59364 2.89258V3.6936C6.27259 3.82397 5.96901 3.99927 5.69496 4.21277L5.00099 3.81213C4.77687 3.68262 4.49012 3.75952 4.36073 3.98364L3.42323 5.60742C3.3611 5.71508 3.34425 5.84314 3.37636 5.96313C3.40858 6.08325 3.48707 6.18567 3.59474 6.2478L4.28639 6.64709C4.2621 6.82019 4.24989 6.99511 4.24989 7.17041C4.24989 7.34362 4.26185 7.51672 4.28554 7.68798L3.59486 8.08679C3.48707 8.14892 3.40858 8.25134 3.37636 8.37145ZM7.99989 5.76416C8.7765 5.76416 9.40614 6.39379 9.40614 7.17041C9.40614 7.94702 8.7765 8.57665 7.99989 8.57665C7.22315 8.57665 6.59364 7.94702 6.59364 7.17041C6.59364 6.39379 7.22328 5.76416 7.99989 5.76416Z" fill="#5CB1FF"/>
</svg>
