<svg width="14" height="14" viewBox="0 0 14 14" fill="none" xmlns="http://www.w3.org/2000/svg">
<path d="M4.47937 4.12888H6.58949V0.888672C5.70864 1.17791 4.91646 2.41434 4.47937 4.12888Z" fill="#5CB1FF"/>
<path d="M4.47937 9.87109C4.91646 11.5856 5.70864 12.8221 6.58949 13.1113V9.87109H4.47937Z" fill="#5CB1FF"/>
<path d="M13.5898 4.94922H0.410156C0.183641 4.94922 0 5.1328 0 5.35938V8.64062C0 8.86714 0.183641 9.05078 0.410156 9.05078H13.5898C13.8164 9.05078 14 8.86714 14 8.64062V5.35938C14 5.1328 13.8164 4.94922 13.5898 4.94922ZM13.1091 6.36314L12.2888 8.00376C12.2191 8.14275 12.0773 8.23047 11.9219 8.23047C11.7665 8.23047 11.6247 8.14275 11.555 8.00376L11.1016 7.09693L10.6481 8.00376C10.5087 8.28174 10.0538 8.28174 9.91435 8.00376L9.12849 6.43163C9.08121 6.37361 9.05428 6.30071 9.04553 6.22289C9.04047 6.2703 9.03011 6.31796 9.00752 6.36314L8.18721 8.00376C8.11751 8.14275 7.97573 8.23047 7.82031 8.23047C7.66489 8.23047 7.52311 8.14275 7.45341 8.00376L7 7.09693L6.54659 8.00376C6.40719 8.28174 5.95219 8.28174 5.81279 8.00376L4.99248 6.36314C4.97074 6.31969 4.96139 6.2738 4.95592 6.2282C4.94561 6.31657 4.91225 6.39713 4.85827 6.45846L4.08562 8.00376C4.01595 8.14275 3.87417 8.23047 3.71875 8.23047C3.56333 8.23047 3.42155 8.14275 3.35185 8.00376L2.89844 7.09693L2.44502 8.00376C2.37532 8.14275 2.23355 8.23047 2.07812 8.23047C1.9227 8.23047 1.78093 8.14275 1.71123 8.00376L0.890914 6.36314C0.789578 6.16046 0.871691 5.91413 1.07436 5.81279C1.27663 5.71266 1.52258 5.79316 1.62471 5.99624L2.07812 6.90307L2.53154 5.99624C2.67665 5.70505 3.11363 5.6928 3.26534 5.99624L3.71875 6.90307L4.17216 5.99624C4.24586 5.84883 4.40087 5.76874 4.5655 5.77032C4.7775 5.78424 4.94602 5.95908 4.95493 6.16705C4.95983 6.02156 5.03655 5.88246 5.17593 5.81276C5.37901 5.71263 5.62453 5.79313 5.72627 5.99621L6.17969 6.90307L6.6331 5.99624C6.7725 5.71826 7.2275 5.71826 7.3669 5.99624L7.82031 6.90307L8.27373 5.99624C8.37506 5.79316 8.6214 5.71266 8.82407 5.81279C8.96227 5.88189 9.03842 6.01921 9.04457 6.16331C9.05253 5.95727 9.19904 5.78575 9.40964 5.77194C9.57868 5.76795 9.75412 5.84886 9.82784 5.99624L10.2812 6.90307L10.7347 5.99624C10.8741 5.71826 11.3291 5.71826 11.4685 5.99624L11.9219 6.90307L12.3753 5.99624C12.477 5.79316 12.7226 5.71266 12.9256 5.81279C13.1283 5.91413 13.2104 6.16046 13.1091 6.36314Z" fill="#5CB1FF"/>
<path d="M7.41016 9.87109V13.1113C8.29101 12.8221 9.08318 11.5856 9.52027 9.87109H7.41016Z" fill="#5CB1FF"/>
<path d="M7.41016 0.888672V4.12888H9.52027C9.08318 2.41434 8.29101 1.17791 7.41016 0.888672Z" fill="#5CB1FF"/>
<path d="M3.63726 9.87109H0.671143C1.79226 12.3326 4.27478 14 7.00002 14C5.51837 14 4.224 12.3683 3.63726 9.87109Z" fill="#5CB1FF"/>
<path d="M10.3628 9.87109C9.77602 12.3683 8.48165 14 7 14C9.72524 14 12.2078 12.3326 13.3289 9.87109H10.3628Z" fill="#5CB1FF"/>
<path d="M0.671143 4.12891H3.63726C4.224 1.63171 5.51837 0 7.00002 0C4.27478 0 1.79226 1.66737 0.671143 4.12891Z" fill="#5CB1FF"/>
<path d="M7 0C8.48165 0 9.77602 1.63171 10.3628 4.12891H13.3289C12.2078 1.66737 9.72524 0 7 0Z" fill="#5CB1FF"/>
</svg>
