<svg width="471" height="182" viewBox="0 0 471 182" fill="none" xmlns="http://www.w3.org/2000/svg">
<path d="M358.629 56.6709C358.629 52.6614 361.879 49.4111 365.889 49.4111H454.176C458.186 49.4111 461.436 52.6614 461.436 56.6709V115.558H358.629V56.6709Z" fill="#BAD3FF"/>
<path d="M351.674 119.22C350.379 117.827 351.367 115.559 353.269 115.559H466.001C467.903 115.559 468.891 117.827 467.596 119.22L464.976 122.036C464.564 122.479 463.987 122.731 463.382 122.731H355.888C355.283 122.731 354.706 122.479 354.294 122.036L351.674 119.22Z" fill="#2052CE"/>
<path opacity="0.3" d="M400.07 115.559H419.994V115.843C419.994 117.446 418.694 118.746 417.09 118.746H402.974C401.37 118.746 400.07 117.446 400.07 115.843V115.559Z" fill="#BAD3FF"/>
<rect x="365.801" y="55.7866" width="89.2589" height="59.7716" fill="white"/>
<ellipse cx="409.236" cy="84.477" rx="14.7437" ry="14.3452" fill="#2052CE"/>
<path d="M406.007 70.4813C406.5 70.8701 407.173 71.3489 407.761 71.5844C408.177 71.7508 408.627 71.7013 409.047 71.6551C409.631 71.5907 410.159 71.5325 410.464 72.0686C410.71 72.4999 410.405 72.8885 410.1 73.2783C409.796 73.6666 409.49 74.056 409.727 74.4898C409.907 74.8186 410.106 74.9602 410.398 75.1685C410.419 75.184 410.442 75.1998 410.464 75.2161C411.089 75.6639 411.759 75.4465 412.432 75.2279C413.096 75.0121 413.764 74.7952 414.396 75.2161C415.256 75.7889 415.928 76.374 415.87 77.3952C415.818 78.3273 415.021 78.579 414.137 78.8586C413.729 78.9874 413.303 79.1221 412.922 79.3321C412.465 79.5839 411.945 79.6653 411.457 79.7417C410.664 79.8659 409.954 79.9772 409.727 80.7848C409.665 81.0068 409.699 81.1935 409.734 81.3784C409.77 81.5729 409.805 81.7654 409.727 81.9953C409.557 82.4997 409.034 82.5536 408.508 82.6079C407.987 82.6617 407.463 82.7158 407.27 83.2059C407.041 83.7881 407.249 84.2297 407.488 84.7374C407.583 84.9386 407.682 85.1501 407.761 85.3849C407.825 85.5721 407.918 85.7197 408.006 85.8599C408.146 86.0814 408.274 86.2843 408.253 86.5955C408.177 87.7433 406.123 87.6447 405.304 87.0797C405.135 86.9631 404.956 86.8473 404.77 86.7276C404.057 86.2679 403.255 85.7503 402.601 84.9007C402.153 84.319 401.894 83.694 401.669 83.1502C401.568 82.9066 401.474 82.6793 401.373 82.4796C401.239 82.216 400.781 82.0965 400.262 81.9611C399.51 81.7648 398.63 81.5351 398.424 80.7848C398.289 80.2925 398.526 79.9237 398.769 79.5473C398.996 79.1951 399.227 78.8363 399.161 78.3636C399.035 77.461 398.035 76.8624 397.045 76.4863C395.434 78.8146 394.492 81.6283 394.492 84.6587C394.492 91.5668 399.386 97.3487 405.944 98.8222C405.383 98.1833 404.645 97.1503 404.813 96.2801C404.947 95.5819 405.396 95.2509 405.892 94.8857C406.19 94.6658 406.505 94.4334 406.779 94.1011C406.951 93.8911 407.112 93.7126 407.263 93.5448C407.64 93.1256 407.957 92.7733 408.253 92.1641C408.366 91.9307 408.404 91.7161 408.441 91.5093C408.489 91.2381 408.535 90.9805 408.744 90.7115C409.574 89.6471 410.901 90.2072 412.182 90.7482C412.348 90.8182 412.513 90.8878 412.676 90.9536C413.717 91.3734 414.118 92.2529 414.519 93.1326C414.921 94.012 415.322 94.8914 416.362 95.3116C417.094 95.6073 418.069 95.6465 418.939 95.596C422.029 92.9332 423.979 89.0204 423.979 84.6587C423.979 76.6357 417.379 70.1318 409.236 70.1318C408.127 70.1318 407.046 70.2525 406.007 70.4813Z" fill="#E3EDFB"/>
<path d="M265.053 41.4039L250.055 22.3149L255.509 37.3134L250.055 42.7674L266.417 61.8564L259.599 45.4944L265.053 41.4039Z" fill="#3CA2E5"/>
<path opacity="0.2" d="M296.792 62.5378L307.324 55.0386L299.049 57.7656L296.04 55.0386L285.508 63.2196L294.536 59.8108L296.792 62.5378Z" fill="#3CA2E5"/>
<path opacity="0.2" d="M231.343 106.171L241.875 98.6714L233.6 101.398L230.591 98.6714L220.059 106.852L229.086 103.444L231.343 106.171Z" fill="#3CA2E5"/>
<path d="M277.811 124.96L275.16 112.306L274.343 120.98L270.638 122.644L273.914 135.572L274.408 125.935L277.811 124.96Z" fill="#3CA2E5"/>
<path opacity="0.2" d="M250.675 121.033L260.652 101.124L250.236 112.164L243.421 110.77L233.999 131.67L245.009 118.996L250.675 121.033Z" fill="#3CA2E5"/>
<path d="M154.609 112.306C159.583 110.874 182.726 102.284 195.514 83.6724C206.172 66.4916 219.619 56.4685 247.327 75.0815" stroke="#2052CE"/>
<rect x="262.633" y="71.8174" width="10.908" height="2.727" rx="1.3635" transform="rotate(22.6099 262.633 71.8174)" fill="#3CA2E5"/>
<rect x="257.391" y="84.4038" width="10.908" height="2.727" rx="1.3635" transform="rotate(22.6099 257.391 84.4038)" fill="#3CA2E5"/>
<path d="M244.383 73.0797C247.278 66.1281 255.26 62.8396 262.212 65.7347L267.247 67.8315L256.763 93.0057L251.728 90.9089C244.776 88.0137 241.488 80.0314 244.383 73.0797V73.0797Z" fill="#3CA2E5"/>
<path d="M293.672 93.2158C299.526 93.6556 303.23 96.3238 322.305 117.76C333.224 130.03 355.04 135.484 359.131 120.486" stroke="#2052CE"/>
<path d="M296.291 91.7778C294.564 99.1075 287.222 103.649 279.893 101.922L274.584 100.671L280.839 74.1281L286.147 75.379C293.477 77.1061 298.019 84.4481 296.291 91.7778V91.7778Z" fill="#3CA2E5"/>
<path d="M236.694 181.706C357.294 181.706 455.059 179.208 455.059 176.127C455.059 173.046 357.294 170.548 236.694 170.548C116.094 170.548 18.3281 173.046 18.3281 176.127C18.3281 179.208 116.094 181.706 236.694 181.706Z" fill="#E3EDFB"/>
<rect x="24.707" width="132.294" height="113.168" fill="#2052CE"/>
<rect x="24.707" y="1.59375" width="132.294" height="109.98" fill="#BAD3FF"/>
<rect x="24.707" y="1.59375" width="11.1574" height="121.137" fill="#2052CE"/>
<rect x="146.641" y="1.59375" width="10.3604" height="121.137" fill="#2052CE"/>
<rect x="40.8398" y="8.64893" width="100.321" height="21.3072" rx="3" fill="white"/>
<path fill-rule="evenodd" clip-rule="evenodd" d="M127.071 13.5317C127.131 13.5317 127.188 13.5557 127.229 13.5981L129.555 15.9656C129.641 16.0531 129.64 16.1936 129.552 16.2795C129.465 16.3654 129.324 16.3641 129.239 16.2767L127.071 14.0704L123.159 18.0523C123.118 18.0948 123.061 18.1187 123.001 18.1187C122.941 18.1187 122.884 18.0948 122.843 18.0523L119.9 15.0568L115.794 19.236C115.708 19.3235 115.568 19.3247 115.48 19.2388C115.393 19.1529 115.392 19.0124 115.478 18.9249L119.742 14.5846C119.783 14.5421 119.84 14.5182 119.9 14.5182C119.959 14.5182 120.017 14.5421 120.058 14.5846L123.001 17.58L126.913 13.5981C126.955 13.5557 127.012 13.5317 127.071 13.5317Z" fill="#3CA2E5"/>
<circle cx="51.0512" cy="19.3027" r="3.5512" fill="#2052CE"/>
<circle cx="60.3733" cy="19.3029" r="1.7756" fill="#E3EDFB"/>
<circle cx="66.5881" cy="19.3029" r="1.7756" fill="#E3EDFB"/>
<circle cx="72.799" cy="19.3029" r="1.7756" fill="#E3EDFB"/>
<circle cx="79.0139" cy="19.3029" r="1.7756" fill="#E3EDFB"/>
<circle cx="85.2326" cy="19.3029" r="1.7756" fill="#E3EDFB"/>
<circle cx="91.4436" cy="19.3029" r="1.7756" fill="#E3EDFB"/>
<circle cx="110.088" cy="24.1853" r="1.7756" fill="#2052CE"/>
<circle cx="97.6584" cy="19.3029" r="1.7756" fill="#E3EDFB"/>
<circle cx="116.303" cy="24.1853" r="1.7756" fill="#2052CE"/>
<rect x="102.988" y="8.64893" width="0.887799" height="21.3072" fill="#3CA2E5"/>
<rect x="108.812" y="12.2563" width="27.4096" height="7.87799" rx="2.5" stroke="#E3EDFB"/>
<rect x="123.406" y="22.4097" width="13.317" height="3.5512" rx="1.7756" fill="#2052CE"/>
<rect x="40.8398" y="58.3657" width="100.321" height="21.3072" rx="3" fill="white"/>
<path fill-rule="evenodd" clip-rule="evenodd" d="M127.071 63.2485C127.131 63.2485 127.188 63.2725 127.229 63.3149L129.555 65.6824C129.641 65.7698 129.64 65.9104 129.552 65.9963C129.465 66.0822 129.324 66.0809 129.239 65.9935L127.071 63.7872L123.159 67.7691C123.118 67.8116 123.061 67.8355 123.001 67.8355C122.941 67.8355 122.884 67.8116 122.843 67.7691L119.9 64.7736L115.794 68.9528C115.708 69.0403 115.568 69.0415 115.48 68.9556C115.393 68.8697 115.392 68.7292 115.478 68.6417L119.742 64.3014C119.783 64.2589 119.84 64.235 119.9 64.235C119.959 64.235 120.017 64.2589 120.058 64.3014L123.001 67.2968L126.913 63.3149C126.955 63.2725 127.012 63.2485 127.071 63.2485Z" fill="#3CA2E5"/>
<circle cx="51.0512" cy="69.0195" r="3.5512" fill="#2052CE"/>
<circle cx="60.3733" cy="69.0197" r="1.7756" fill="#E3EDFB"/>
<circle cx="66.5881" cy="69.0197" r="1.7756" fill="#E3EDFB"/>
<circle cx="72.799" cy="69.0197" r="1.7756" fill="#E3EDFB"/>
<circle cx="79.0139" cy="69.0197" r="1.7756" fill="#E3EDFB"/>
<circle cx="85.2326" cy="69.0197" r="1.7756" fill="#E3EDFB"/>
<circle cx="91.4436" cy="69.0197" r="1.7756" fill="#E3EDFB"/>
<circle cx="110.088" cy="73.9021" r="1.7756" fill="#2052CE"/>
<circle cx="97.6584" cy="69.0197" r="1.7756" fill="#E3EDFB"/>
<circle cx="116.303" cy="73.9021" r="1.7756" fill="#2052CE"/>
<rect x="102.988" y="58.3657" width="0.887799" height="21.3072" fill="#3CA2E5"/>
<rect x="108.812" y="61.9731" width="27.4096" height="7.87799" rx="2.5" stroke="#E3EDFB"/>
<rect x="123.406" y="72.1265" width="13.317" height="3.5512" rx="1.7756" fill="#2052CE"/>
<rect x="40.8398" y="33.5068" width="100.321" height="21.3072" rx="3" fill="white"/>
<path fill-rule="evenodd" clip-rule="evenodd" d="M127.071 38.3896C127.131 38.3896 127.188 38.4136 127.229 38.4561L129.555 40.8235C129.641 40.911 129.64 41.0515 129.552 41.1374C129.465 41.2233 129.324 41.222 129.239 41.1346L127.071 38.9283L123.159 42.9102C123.118 42.9527 123.061 42.9766 123.001 42.9766C122.941 42.9766 122.884 42.9527 122.843 42.9102L119.9 39.9148L115.794 44.0939C115.708 44.1814 115.568 44.1826 115.48 44.0967C115.393 44.0108 115.392 43.8703 115.478 43.7828L119.742 39.4425C119.783 39.4 119.84 39.3761 119.9 39.3761C119.959 39.3761 120.017 39.4 120.058 39.4425L123.001 42.438L126.913 38.4561C126.955 38.4136 127.012 38.3896 127.071 38.3896Z" fill="#3CA2E5"/>
<circle cx="51.0512" cy="44.1606" r="3.5512" fill="#2052CE"/>
<circle cx="60.3733" cy="44.1609" r="1.7756" fill="#E3EDFB"/>
<circle cx="66.5881" cy="44.1609" r="1.7756" fill="#E3EDFB"/>
<circle cx="72.799" cy="44.1609" r="1.7756" fill="#E3EDFB"/>
<circle cx="79.0139" cy="44.1609" r="1.7756" fill="#E3EDFB"/>
<circle cx="85.2326" cy="44.1609" r="1.7756" fill="#E3EDFB"/>
<circle cx="91.4436" cy="44.1609" r="1.7756" fill="#E3EDFB"/>
<circle cx="110.088" cy="49.0432" r="1.7756" fill="#2052CE"/>
<circle cx="97.6584" cy="44.1609" r="1.7756" fill="#E3EDFB"/>
<circle cx="116.303" cy="49.0432" r="1.7756" fill="#2052CE"/>
<rect x="102.988" y="33.5068" width="0.887799" height="21.3072" fill="#3CA2E5"/>
<rect x="108.812" y="37.1143" width="27.4096" height="7.87799" rx="2.5" stroke="#E3EDFB"/>
<rect x="123.406" y="47.2676" width="13.317" height="3.5512" rx="1.7756" fill="#2052CE"/>
<rect x="40.8398" y="83.2236" width="100.321" height="21.3072" rx="3" fill="white"/>
<path fill-rule="evenodd" clip-rule="evenodd" d="M127.071 88.1064C127.131 88.1064 127.188 88.1304 127.229 88.1729L129.555 90.5403C129.641 90.6278 129.64 90.7683 129.552 90.8542C129.465 90.9401 129.324 90.9388 129.239 90.8514L127.071 88.6451L123.159 92.627C123.118 92.6695 123.061 92.6934 123.001 92.6934C122.941 92.6934 122.884 92.6695 122.843 92.627L119.9 89.6315L115.794 93.8107C115.708 93.8982 115.568 93.8994 115.48 93.8135C115.393 93.7276 115.392 93.5871 115.478 93.4996L119.742 89.1593C119.783 89.1168 119.84 89.0929 119.9 89.0929C119.959 89.0929 120.017 89.1168 120.058 89.1593L123.001 92.1547L126.913 88.1729C126.955 88.1304 127.012 88.1064 127.071 88.1064Z" fill="#3CA2E5"/>
<circle cx="51.0512" cy="93.8774" r="3.5512" fill="#2052CE"/>
<circle cx="60.3733" cy="93.8776" r="1.7756" fill="#E3EDFB"/>
<circle cx="66.5881" cy="93.8776" r="1.7756" fill="#E3EDFB"/>
<circle cx="72.799" cy="93.8776" r="1.7756" fill="#E3EDFB"/>
<circle cx="79.0139" cy="93.8776" r="1.7756" fill="#E3EDFB"/>
<circle cx="85.2326" cy="93.8776" r="1.7756" fill="#E3EDFB"/>
<circle cx="91.4436" cy="93.8776" r="1.7756" fill="#E3EDFB"/>
<circle cx="110.088" cy="98.76" r="1.7756" fill="#2052CE"/>
<circle cx="97.6584" cy="93.8776" r="1.7756" fill="#E3EDFB"/>
<circle cx="116.303" cy="98.76" r="1.7756" fill="#2052CE"/>
<rect x="102.988" y="83.2236" width="0.887799" height="21.3072" fill="#3CA2E5"/>
<rect x="108.812" y="86.8311" width="27.4096" height="7.87799" rx="2.5" stroke="#E3EDFB"/>
<rect x="123.406" y="96.9844" width="13.317" height="3.5512" rx="1.7756" fill="#2052CE"/>
<path d="M157 14.3452H157.398C160.259 14.3452 162.579 16.6645 162.579 19.5254V19.5254C162.579 22.3864 160.259 24.7056 157.398 24.7056H157V14.3452Z" fill="#2052CE"/>
<path d="M24.707 14.3452H23.5116C20.6507 14.3452 18.3314 16.6645 18.3314 19.5254V19.5254C18.3314 22.3864 20.6507 24.7056 23.5116 24.7056H24.707V14.3452Z" fill="#2052CE"/>
<path d="M157 63.7563H157.398C160.259 63.7563 162.579 66.0756 162.579 68.9366V68.9366C162.579 71.7975 160.259 74.1168 157.398 74.1168H157V63.7563Z" fill="#2052CE"/>
<path d="M24.707 63.7563H23.5116C20.6507 63.7563 18.3314 66.0756 18.3314 68.9366V68.9366C18.3314 71.7975 20.6507 74.1168 23.5116 74.1168H24.707V63.7563Z" fill="#2052CE"/>
<path d="M157 39.0508H157.398C160.259 39.0508 162.579 41.37 162.579 44.231V44.231C162.579 47.0919 160.259 49.4112 157.398 49.4112H157V39.0508Z" fill="#2052CE"/>
<path d="M24.707 39.0508H23.5116C20.6507 39.0508 18.3314 41.37 18.3314 44.231V44.231C18.3314 47.0919 20.6507 49.4112 23.5116 49.4112H24.707V39.0508Z" fill="#2052CE"/>
<path d="M157 88.4619H157.398C160.259 88.4619 162.579 90.7812 162.579 93.6421V93.6421C162.579 96.5031 160.259 98.8223 157.398 98.8223H157V88.4619Z" fill="#2052CE"/>
<path d="M24.707 88.4619H23.5116C20.6507 88.4619 18.3314 90.7812 18.3314 93.6421V93.6421C18.3314 96.5031 20.6507 98.8223 23.5116 98.8223H24.707V88.4619Z" fill="#2052CE"/>
<path fill-rule="evenodd" clip-rule="evenodd" d="M170.466 31.8783C170.466 24.8497 165.122 19.2042 158.594 19.2042V18.3301C165.664 18.3301 171.345 24.4247 171.345 31.8783C171.345 39.3319 165.664 45.4265 158.594 45.4265V44.5524C165.122 44.5524 170.466 38.9069 170.466 31.8783Z" fill="#2052CE"/>
<path fill-rule="evenodd" clip-rule="evenodd" d="M1.43087 44.6296C1.43087 30.9858 10.1137 20.0268 20.7227 20.0268V18.3301C9.23324 18.3301 0.00184482 30.1608 0.00184482 44.6296C0.00184482 59.0983 9.23324 70.9291 20.7227 70.9291V69.2323C10.1137 69.2323 1.43087 58.2734 1.43087 44.6296Z" fill="#2052CE"/>
<path fill-rule="evenodd" clip-rule="evenodd" d="M1.43087 68.9367C1.43087 55.4996 10.1137 44.7067 20.7227 44.7067V43.0356C9.23324 43.0356 0.00184482 54.6872 0.00184482 68.9367C0.00184482 83.1862 9.23324 94.8377 20.7227 94.8377V93.1666C10.1137 93.1666 1.43087 82.3737 1.43087 68.9367Z" fill="#2052CE"/>
<path fill-rule="evenodd" clip-rule="evenodd" d="M170.466 81.2894C170.466 74.2608 165.122 68.6153 158.594 68.6153V67.7412C165.664 67.7412 171.345 73.8358 171.345 81.2894C171.345 88.743 165.664 94.8377 158.594 94.8377V93.9636C165.122 93.9636 170.466 88.3181 170.466 81.2894Z" fill="#2052CE"/>
</svg>
