<svg width="920" height="501" viewBox="0 0 920 501" fill="none" xmlns="http://www.w3.org/2000/svg">
<path d="M331 400.74L403.715 159L509.175 162.371L582.853 400.74C582.853 400.74 504.924 410.503 454.76 410.372C406.282 410.245 331 400.74 331 400.74Z" fill="url(#paint0_linear_426:220)"/>
<path d="M456.893 302.282C459.973 302.282 462.47 299.785 462.47 296.705C462.47 293.625 459.973 291.128 456.893 291.128C453.813 291.128 451.316 293.625 451.316 296.705C451.316 299.785 453.813 302.282 456.893 302.282Z" fill="#2052CE"/>
<path d="M477.678 274.714L477.883 274.398C478.085 274.085 478.222 273.735 478.288 273.369C478.353 273.002 478.345 272.626 478.263 272.263C478.182 271.9 478.029 271.556 477.814 271.253C477.599 270.949 477.325 270.691 477.009 270.494C470.965 266.76 464 264.784 456.895 264.787C455.854 264.787 454.832 264.787 453.828 264.917L459.795 270.884C464.805 271.327 469.642 272.931 473.923 275.569C474.538 275.941 475.273 276.06 475.974 275.901C476.674 275.741 477.286 275.316 477.678 274.714Z" fill="#2052CE"/>
<path d="M484.331 259.228C478.135 255.364 471.194 252.851 463.96 251.855C456.727 250.859 449.365 251.401 442.355 253.446L447.245 258.336C458.925 255.828 471.123 257.975 481.245 264.321C481.856 264.682 482.582 264.795 483.274 264.636C483.966 264.477 484.57 264.058 484.963 263.466L485.167 263.15C485.373 262.839 485.516 262.49 485.585 262.123C485.655 261.756 485.651 261.379 485.573 261.013C485.495 260.648 485.345 260.302 485.132 259.995C484.918 259.689 484.646 259.428 484.331 259.228Z" fill="#2052CE"/>
<path d="M429.009 250.621L434.772 256.384C432.905 257.246 431.092 258.22 429.344 259.302C429.024 259.498 428.746 259.755 428.527 260.06C428.309 260.364 428.153 260.71 428.07 261.075C427.987 261.441 427.978 261.819 428.043 262.189C428.109 262.558 428.248 262.91 428.452 263.225L428.656 263.541C429.048 264.133 429.652 264.551 430.344 264.71C431.036 264.87 431.763 264.757 432.374 264.396C434.545 263.03 436.827 261.849 439.196 260.864L445.033 266.701C442.08 267.651 439.252 268.955 436.612 270.586C436.298 270.785 436.026 271.044 435.813 271.348C435.599 271.652 435.448 271.996 435.369 272.359C435.289 272.723 435.282 273.098 435.349 273.464C435.416 273.829 435.555 274.178 435.757 274.49L435.962 274.806C436.354 275.398 436.958 275.817 437.65 275.976C438.342 276.135 439.068 276.022 439.68 275.661C442.833 273.711 446.298 272.315 449.922 271.534L456.615 278.226C452.162 278.272 447.803 279.511 443.992 281.814C443.679 282.011 443.407 282.268 443.194 282.571C442.981 282.874 442.83 283.216 442.75 283.578C442.67 283.939 442.664 284.313 442.73 284.677C442.797 285.042 442.935 285.389 443.137 285.699L443.323 285.997C443.732 286.601 444.359 287.024 445.073 287.177C445.787 287.329 446.532 287.2 447.153 286.815C449.654 285.329 452.465 284.438 455.366 284.213C458.267 283.987 461.182 284.432 463.883 285.514L477.342 298.954L479.963 296.333L431.63 248L429.009 250.621Z" fill="#2052CE"/>
<ellipse cx="455.241" cy="140.83" rx="115.573" ry="32.2642" fill="#2052CE"/>
<circle cx="361.819" cy="136.495" r="9.63109" fill="#E3EDFB"/>
<circle cx="409.01" cy="149.016" r="9.63109" fill="#E3EDFB"/>
<circle cx="455.24" cy="155.758" r="9.63109" fill="#E3EDFB"/>
<circle cx="504.362" cy="149.016" r="9.63109" fill="#E3EDFB"/>
<circle cx="549.627" cy="136.495" r="9.63109" fill="#E3EDFB"/>
<path d="M533.015 117.314C533.309 121.09 531.134 124.611 527.648 126.092C509.964 133.606 494.025 133.606 454.761 133.606C427.689 133.606 396.783 132.072 381.203 125.925C378.007 124.664 376.22 121.4 376.459 117.972C379.292 77.1975 413.266 45 454.761 45C496.032 45 529.863 76.8515 533.015 117.314Z" fill="white"/>
<path fill-rule="evenodd" clip-rule="evenodd" d="M454.761 132.606C494.094 132.606 509.8 132.589 527.257 125.172C530.354 123.856 532.278 120.732 532.018 117.391C528.907 77.4457 495.506 46 454.761 46C413.796 46 380.254 77.7872 377.456 118.041C377.244 121.094 378.833 123.915 381.57 124.995C389.218 128.012 400.718 129.924 413.76 131.075C426.778 132.223 441.24 132.606 454.761 132.606ZM527.648 126.092C531.134 124.611 533.309 121.09 533.015 117.314C529.863 76.8515 496.032 45 454.761 45C413.266 45 379.292 77.1975 376.459 117.972C376.22 121.4 378.007 124.664 381.203 125.925C396.783 132.072 427.689 133.606 454.761 133.606C494.025 133.606 509.964 133.606 527.648 126.092Z" fill="#2052CE"/>
<path fill-rule="evenodd" clip-rule="evenodd" d="M380.245 127.854C375.378 126.534 372.5 124.136 372 118.5L376.267 117.233C376.267 120.541 378.251 123.322 381.254 124.136C391.481 126.912 414.855 131.68 454.76 131.68C494.665 131.68 518.039 126.912 528.266 124.136C531.269 123.322 533.253 120.541 533.253 117.233L537.106 118.197C537.106 123.043 534.142 126.534 529.275 127.854C518.689 130.727 494.973 135.532 454.76 135.532C414.547 135.532 390.831 130.727 380.245 127.854Z" fill="white"/>
<path d="M503.57 115.254C504.066 89.1373 485.312 68.6043 475.465 61.373C510.644 74.2959 521.517 100.765 522.966 114.835C523.132 116.441 521.862 117.777 520.249 117.856L506.815 118.511C505.004 118.6 503.536 117.068 503.57 115.254Z" fill="#E3EDFB"/>
<path d="M382.705 246.356C382.4 245.774 382.232 245.126 382.243 244.468C382.245 244.375 382.246 244.281 382.246 244.187C382.246 235.247 374.98 228 366.018 228C359.241 228 353.435 232.143 351.006 238.028C350.481 239.3 349.308 240.25 347.932 240.25H345.404C339.106 240.25 334 245.343 334 251.625C334 257.907 339.106 263 345.404 263H372.596C378.894 263 384 257.907 384 251.625C384 249.724 383.532 247.931 382.705 246.356Z" fill="#BAD3FF"/>
<path d="M585.705 346.356C585.4 345.774 585.232 345.126 585.243 344.468C585.245 344.375 585.246 344.281 585.246 344.187C585.246 335.247 577.98 328 569.018 328C562.241 328 556.435 332.143 554.006 338.028C553.481 339.3 552.308 340.25 550.932 340.25H548.404C542.106 340.25 537 345.343 537 351.625C537 357.907 542.106 363 548.404 363H575.596C581.894 363 587 357.907 587 351.625C587 349.724 586.532 347.931 585.705 346.356Z" fill="#BAD3FF"/>
<path d="M384.195 247.481C384.229 247.054 384.246 246.623 384.246 246.187C384.246 237.247 376.98 230 368.018 230C360.417 230 354.036 235.213 352.273 242.25H347.404C341.106 242.25 336 247.343 336 253.625C336 259.907 341.106 265 347.404 265H374.596C380.894 265 386 259.907 386 253.625C386 251.362 385.337 249.253 384.195 247.481Z" fill="white"/>
<path fill-rule="evenodd" clip-rule="evenodd" d="M383.171 247.738L383.198 247.402C383.23 247.001 383.246 246.596 383.246 246.187C383.246 237.802 376.43 231 368.018 231C360.885 231 354.897 235.892 353.243 242.493L353.053 243.25H347.404C341.655 243.25 337 247.898 337 253.625C337 259.353 341.655 264 347.404 264H374.596C380.345 264 385 259.353 385 253.625C385 251.56 384.396 249.638 383.354 248.022L383.171 247.738ZM384.246 246.187C384.246 246.623 384.229 247.054 384.195 247.481C385.337 249.253 386 251.362 386 253.625C386 259.907 380.894 265 374.596 265H347.404C341.106 265 336 259.907 336 253.625C336 247.343 341.106 242.25 347.404 242.25H352.273C354.036 235.213 360.417 230 368.018 230C376.98 230 384.246 237.247 384.246 246.187Z" fill="#2052CE"/>
<path d="M587.195 347.481C587.229 347.054 587.246 346.623 587.246 346.187C587.246 337.247 579.98 330 571.018 330C563.417 330 557.036 335.213 555.273 342.25H550.404C544.106 342.25 539 347.343 539 353.625C539 359.907 544.106 365 550.404 365H577.596C583.894 365 589 359.907 589 353.625C589 351.362 588.337 349.253 587.195 347.481Z" fill="white"/>
<path fill-rule="evenodd" clip-rule="evenodd" d="M586.171 347.738L586.198 347.402C586.23 347.001 586.246 346.596 586.246 346.187C586.246 337.802 579.43 331 571.018 331C563.885 331 557.897 335.892 556.243 342.493L556.053 343.25H550.404C544.655 343.25 540 347.898 540 353.625C540 359.353 544.655 364 550.404 364H577.596C583.345 364 588 359.353 588 353.625C588 351.56 587.396 349.638 586.354 348.022L586.171 347.738ZM587.246 346.187C587.246 346.623 587.229 347.054 587.195 347.481C588.337 349.253 589 351.362 589 353.625C589 359.907 583.894 365 577.596 365H550.404C544.106 365 539 359.907 539 353.625C539 347.343 544.106 342.25 550.404 342.25H555.273C557.036 335.213 563.417 330 571.018 330C579.98 330 587.246 337.247 587.246 346.187Z" fill="#2052CE"/>
<path fill-rule="evenodd" clip-rule="evenodd" d="M397.554 81.7679C394.535 85.9422 392.456 90.3738 391.47 93.1663L390.527 92.8335C391.542 89.9593 393.663 85.4409 396.744 81.1819C399.82 76.9292 403.891 72.8813 408.823 71.0317L409.174 71.9681C404.507 73.7185 400.578 77.5873 397.554 81.7679Z" fill="#2052CE"/>
<path fill-rule="evenodd" clip-rule="evenodd" d="M420.352 95.3536L408.352 107.354L407.645 106.646L419.645 94.6465L420.352 95.3536Z" fill="#E3EDFB"/>
<path fill-rule="evenodd" clip-rule="evenodd" d="M459.39 63.3127L455.39 68.3127L454.609 67.688L458.609 62.688L459.39 63.3127Z" fill="#E3EDFB"/>
<path fill-rule="evenodd" clip-rule="evenodd" d="M420.352 103.354L408.352 115.354L407.645 114.646L419.645 102.646L420.352 103.354Z" fill="#E3EDFB"/>
<path fill-rule="evenodd" clip-rule="evenodd" d="M433.352 100.354L421.352 112.354L420.645 111.646L432.645 99.6465L433.352 100.354Z" fill="#E3EDFB"/>
<path fill-rule="evenodd" clip-rule="evenodd" d="M465.352 65.3536L460.352 70.3536L459.645 69.6465L464.645 64.6465L465.352 65.3536Z" fill="#E3EDFB"/>
<path opacity="0.2" d="M359.473 44.5226L375.43 47.4521L365.743 42.3842L365.568 37.2917L348.998 34.9579L359.957 40.1074L359.473 44.5226Z" fill="#3CA2E5"/>
<path opacity="0.2" d="M404.314 14.7471L404.941 30.958L407.771 20.3978L412.702 19.1153L411.36 2.43553L408.728 14.2541L404.314 14.7471Z" fill="#3CA2E5"/>
<path opacity="0.2" d="M375.424 24.8174L389.457 48.981L385.035 30.4568L391.184 24.2629L375.73 -0.000129734L381.459 20.2713L375.424 24.8174Z" fill="#3CA2E5"/>
<path d="M441.375 94.3103L462 75L454.5 90.1724L462 95.6897L439.5 115L448.875 98.4483L441.375 94.3103Z" fill="#2052CE"/>
<path d="M883.759 432.25C902.646 425.5 916.355 430.167 924.164 435.157C925.45 435.979 925.197 437.847 923.767 438.381C903.191 446.072 888.452 442.176 880.627 438.75C879.38 438.204 879.129 436.583 880.095 435.624L883.029 432.71C883.235 432.506 883.486 432.347 883.759 432.25Z" fill="white"/>
<path fill-rule="evenodd" clip-rule="evenodd" d="M923.625 436C916.043 431.154 902.655 426.558 884.095 433.192C883.962 433.239 883.835 433.319 883.734 433.42L880.8 436.333C880.299 436.831 880.473 437.591 881.028 437.834C888.661 441.176 903.127 445.029 923.417 437.445C924.135 437.176 924.163 436.343 923.625 436ZM924.164 435.157C916.355 430.167 902.646 425.5 883.759 432.25C883.486 432.347 883.235 432.506 883.029 432.71L880.095 435.624C879.129 436.583 879.38 438.204 880.627 438.75C888.452 442.176 903.191 446.072 923.767 438.381C925.197 437.847 925.45 435.979 924.164 435.157Z" fill="#2052CE"/>
<path fill-rule="evenodd" clip-rule="evenodd" d="M926.021 423.445C820.898 402.729 727.114 444.726 693.394 468.294L692.821 467.474C726.699 443.797 820.755 401.681 926.215 422.464L926.021 423.445Z" fill="#2052CE"/>
<path d="M778.314 425.93L770.557 432.742C821.751 442.808 862.28 426.979 876.146 417.806L867.61 414.162C832.298 409.421 793.366 420.032 778.314 425.93Z" fill="white"/>
<path fill-rule="evenodd" clip-rule="evenodd" d="M770.557 432.742C770.972 432.823 771.386 432.903 771.8 432.981C821.213 442.326 860.502 427.628 875.13 418.459C875.483 418.238 875.822 418.02 876.146 417.806L867.61 414.162C832.298 409.421 793.366 420.032 778.314 425.93L770.557 432.742ZM772.755 432.142C820.889 441.021 859.206 426.993 874.005 417.979L867.343 415.135C832.426 410.487 793.907 420.927 778.841 426.798L772.755 432.142Z" fill="#2052CE"/>
<path d="M860.677 416.179C830.855 426.488 800.414 427.918 784.891 427.182C783.809 427.131 783.659 425.718 784.694 425.398C821.283 414.106 848.374 413.208 860.511 414.464C861.52 414.568 861.636 415.848 860.677 416.179Z" fill="#BAD3FF"/>
<path d="M772.594 462.944C738.492 467.919 720.041 487.241 713.708 498.456C713.007 499.697 713.932 501.152 715.357 501.148C751.587 501.028 775.28 481.039 784.178 469.063C784.963 468.006 784.433 466.529 783.179 466.126L773.491 463.018C773.203 462.926 772.893 462.901 772.594 462.944Z" fill="white"/>
<path fill-rule="evenodd" clip-rule="evenodd" d="M772.739 463.934C738.965 468.86 720.771 487.981 714.578 498.948C714.288 499.462 714.628 500.15 715.354 500.148C751.204 500.029 774.623 480.246 783.375 468.467C783.721 468.001 783.525 467.288 782.873 467.079L773.185 463.97C773.043 463.925 772.887 463.912 772.739 463.934ZM773.491 463.018L783.179 466.126C784.433 466.529 784.963 468.006 784.178 469.063C775.28 481.039 751.587 501.028 715.357 501.148C713.932 501.152 713.007 499.697 713.708 498.456C720.041 487.241 738.492 467.919 772.594 462.944C772.893 462.901 773.203 462.926 773.491 463.018Z" fill="#2052CE"/>
<path d="M769.826 465.921C747.54 467.57 728.9 482.278 720.906 490.951C720.325 491.581 720.793 492.562 721.649 492.521C745.879 491.337 763.555 476.311 770.634 467.425C771.151 466.776 770.654 465.86 769.826 465.921Z" fill="#BAD3FF"/>
<path d="M919.234 435.549C903.636 439.786 892.217 436.914 887.035 434.238C886.317 433.867 886.438 432.885 887.206 432.635C901.16 428.096 913.387 431.078 919.413 433.885C920.198 434.251 920.069 435.322 919.234 435.549Z" fill="#BAD3FF"/>
<path d="M687.993 466.016L692.249 467.686C693.449 468.156 693.896 469.626 693.13 470.664C681.075 487.004 666.378 494 658.389 496.031C657.089 496.361 655.967 495.224 656.313 493.929C660.292 479.07 677.471 469.362 686.612 465.993C687.06 465.828 687.548 465.841 687.993 466.016Z" fill="white"/>
<path fill-rule="evenodd" clip-rule="evenodd" d="M693.13 470.664L692.326 470.07C692.688 469.578 692.491 468.855 691.884 468.616L687.628 466.947C687.399 466.857 687.165 466.855 686.957 466.932C682.471 468.585 675.988 471.806 670.148 476.436C664.3 481.073 659.191 487.048 657.279 494.188C657.13 494.745 657.583 495.204 658.143 495.062C665.925 493.084 680.418 486.211 692.326 470.07L693.13 470.664ZM692.249 467.686L687.993 466.016C687.548 465.841 687.06 465.828 686.612 465.993C677.471 469.362 660.292 479.07 656.313 493.929C655.967 495.224 657.089 496.361 658.389 496.031C666.378 494 681.075 487.004 693.13 470.664C693.896 469.626 693.449 468.156 692.249 467.686Z" fill="#2052CE"/>
<path d="M661.947 489.166C671.757 482.607 679.06 475.483 683.03 470.965C683.709 470.193 682.916 469.195 681.998 469.657C669.484 475.966 663.185 483.519 660.75 488.174C660.322 488.991 661.181 489.678 661.947 489.166Z" fill="#BAD3FF"/>
<ellipse cx="783.151" cy="497.04" rx="6.9986" ry="2.07366" transform="rotate(-12.7917 783.151 497.04)" fill="#BAD3FF"/>
<ellipse cx="810.284" cy="463.572" rx="6.9986" ry="2.07366" transform="rotate(-12.7917 810.284 463.572)" fill="#BAD3FF"/>
<ellipse cx="894.831" cy="473.572" rx="6.9986" ry="2.07366" transform="rotate(-12.7917 894.831 473.572)" fill="#BAD3FF"/>
<ellipse cx="842.353" cy="481.054" rx="8.03543" ry="2.33287" transform="rotate(-12.7917 842.353 481.054)" fill="#BAD3FF"/>
<ellipse cx="747.353" cy="451.054" rx="8.03543" ry="2.33287" transform="rotate(-12.7917 747.353 451.054)" fill="#BAD3FF"/>
<ellipse cx="857.468" cy="452.147" rx="6.22098" ry="1.81445" transform="rotate(-12.7917 857.468 452.147)" fill="#BAD3FF"/>
<path d="M4.05859 342.5L-5.44141 351V502H674L570.059 477.5H553.559C551.392 474.833 546.659 469.5 545.059 469.5H531.559L534.059 448L509.559 441L326.059 454.5L309.059 443L221.559 448V437.5L183.059 431V419.5L176.559 416H164.059L148.059 374.5L120.059 352.5L110.059 314L90.0586 317.5L83.5586 346L73.0586 306.5L55.0586 298L42.0586 256L27.0586 261L23.0586 292L8.55859 310.5L4.05859 342.5Z" fill="white"/>
<path fill-rule="evenodd" clip-rule="evenodd" d="M42.3852 255.364L55.4711 297.642L73.4821 306.147L83.5215 343.914L89.645 317.065L110.427 313.428L120.5 352.211L148.476 374.192L164.402 415.5H176.685L183.559 419.202V430.577L222.059 437.078V447.471L309.199 442.491L326.195 453.989L509.611 440.495L534.604 447.636L532.12 469H545.059C545.381 469 545.717 469.129 546.027 469.292C546.349 469.462 546.699 469.699 547.062 469.979C547.79 470.54 548.617 471.308 549.451 472.148C551.045 473.754 552.701 475.663 553.796 477H570.117L674.115 501.514L674 502.5H-5.94141V350.777L3.58893 342.249L8.08218 310.297L22.5803 291.8L26.6029 260.625L42.3852 255.364ZM27.5143 261.375L23.5369 292.2L9.03501 310.703L4.52826 342.751L-4.94141 351.224V501.5H669.699L570 478H553.321L553.171 477.815C552.094 476.49 550.38 474.504 548.741 472.852C547.921 472.026 547.129 471.293 546.452 470.771C546.113 470.51 545.813 470.31 545.561 470.177C545.298 470.038 545.136 470 545.059 470H530.997L533.513 448.364L509.507 441.505L325.922 455.012L308.918 443.509L221.059 448.53V437.923L182.559 431.423V419.799L176.433 416.5H163.715L147.642 374.808L119.617 352.789L109.691 314.572L90.4722 317.935L84.0461 346.111L83.0754 346.129L72.6351 306.853L54.646 298.358L41.732 256.636L27.5143 261.375Z" fill="#2052CE"/>
<path d="M130.059 370L126.559 362L133.559 371.5V388.5L130.059 370Z" fill="#AAC5F5"/>
<path d="M40.3305 256.576C37.8166 258.98 34.6028 262.049 32.5591 264L34.5591 320.5L29.5591 300L22.5591 308V325L27.0591 330.5L22.5591 328.5V362L16.5591 377.5L9.05912 412L5.55912 432L-5.44141 432.805V351L4.05859 342.5L8.55859 310.5L23.0586 292L27.0586 261L40.3305 256.576Z" fill="#BAD3FF"/>
<path fill-rule="evenodd" clip-rule="evenodd" d="M119.886 351.835L112.559 363L106.559 391.5L121.059 369.5L122.406 354.344L120.059 352.5L119.886 351.835Z" fill="#BAD3FF"/>
<path d="M56.3594 298.614C58.9585 311.128 62.7534 329.682 65.059 341L60.1254 300.393L56.3594 298.614Z" fill="#BAD3FF"/>
<path d="M85.0586 352L78.0586 357.5L75.5586 389.5V360L54.5586 374L67.0586 393L65.0586 423.5L63.0586 394.5L52.0586 381.5V407L48.5586 394.5L39.5586 401.5L33.5586 434L10.0586 432.5L28.5586 372.5C42.7253 365.167 73.8586 350.8 85.0586 352Z" fill="#BAD3FF"/>
<path d="M65.0586 436.5C65.4586 435.7 82.5586 409.167 91.0586 396L108.559 387.5L137.059 396L123.059 399L121.559 427.5L115.059 399L101.559 402.5L91.0586 438L65.0586 436.5Z" fill="#BAD3FF"/>
<path d="M123.583 398.888L123.059 399L121.559 427.5L115.059 399L114.3 399.197L107.559 396.5L123.559 398.5L123.583 398.888Z" fill="#AAC5F5"/>
<path d="M83.8633 344.661L84.0579 350.5L96.0579 367.5L99.0579 322.5L102.058 320.5L104.558 350.5V318L109.011 314.184L90.0579 317.5L83.8633 344.661Z" fill="#BAD3FF"/>
<path fill-rule="evenodd" clip-rule="evenodd" d="M42.3865 255.364L55.4725 297.642L73.4835 306.147L83.5229 343.914L89.6464 317.065L110.428 313.428L120.501 352.211L148.477 374.192L164.403 415.5H176.686L183.56 419.202V430.577L222.06 437.078V447.471L309.2 442.491L326.196 453.989L509.612 440.495L534.606 447.636L532.121 469H545.06C545.382 469 545.718 469.129 546.029 469.292C546.35 469.462 546.7 469.699 547.064 469.979C547.792 470.54 548.619 471.308 549.452 472.148C551.047 473.754 552.702 475.663 553.797 477H570.118L674.116 501.514L673.887 502.487L570.002 478H553.322L553.172 477.815C552.095 476.49 550.382 474.504 548.743 472.852C547.922 472.026 547.13 471.293 546.453 470.771C546.114 470.51 545.815 470.31 545.563 470.177C545.299 470.038 545.138 470 545.06 470H530.998L533.514 448.364L509.508 441.505L325.924 455.012L308.92 443.509L221.06 448.53V437.923L182.56 431.423V419.799L176.434 416.5H163.717L147.643 374.808L119.618 352.789L109.692 314.572L90.4735 317.935L84.0474 346.111L83.0767 346.129L72.6364 306.853L54.6474 298.358L41.7334 256.636L27.5157 261.375L23.5383 292.2L9.03638 310.703L4.52963 342.751L-5.10664 351.373L-5.77344 350.628L3.59029 342.249L8.08354 310.297L22.5817 291.8L26.6042 260.625L42.3865 255.364Z" fill="#2052CE"/>
<path d="M87.32 494.022L45.5938 483.145L60.5 501L101.558 501.932L87.32 494.022Z" fill="#BAD3FF"/>
<path d="M17.7106 469.698L-2.85591 484.727L-12.9414 515.181L35.5 487.5L17.7106 469.698Z" fill="white"/>
<path fill-rule="evenodd" clip-rule="evenodd" d="M-2.00731 485.346L-11.1717 513.018L33.8675 487.281L17.6088 471.011L-2.00731 485.346ZM17.7106 469.698L-2.85591 484.727L-12.9414 515.181L35.5 487.5L17.7106 469.698Z" fill="#2052CE"/>
<path d="M34.3223 486.902L17.7109 469.5L39.2662 486.111L34.3223 486.902Z" fill="#BAD3FF"/>
<path d="M34.3214 486.902L10 501H60.5L45.5934 483.145L34.3214 486.902Z" fill="white"/>
<path fill-rule="evenodd" clip-rule="evenodd" d="M10 501H60.5L45.5934 483.145L34.3214 486.902L10 501ZM13.7193 500H58.3624L45.2628 484.309L34.7345 487.819L13.7193 500Z" fill="#2052CE"/>
<path d="M290 472C285.286 474.127 274.686 476.824 274 477L285 483L290 472Z" fill="#BAD3FF"/>
<path d="M308 483L290 472L285 483H308Z" fill="white"/>
<path fill-rule="evenodd" clip-rule="evenodd" d="M290 472L285 483H308L290 472ZM290.443 473.443L286.553 482H304.446L290.443 473.443Z" fill="#2052CE"/>
<path d="M260.039 469.5C257.924 470.904 252.508 473.832 252 474L264.059 481.5L260.039 469.5Z" fill="#AAC5F5"/>
<path d="M286.059 483.5L260.059 469.5L262.19 483.5H286.059Z" fill="white"/>
<path fill-rule="evenodd" clip-rule="evenodd" d="M260.059 469.5L262.19 483.5H286.059L260.059 469.5ZM261.349 471.33L263.049 482.5H282.092L261.349 471.33Z" fill="#2052CE"/>
<path d="M251.728 486.5L242 468L268.059 483.577L251.728 486.5Z" fill="white"/>
<path fill-rule="evenodd" clip-rule="evenodd" d="M252.272 485.387L244.541 470.684L265.251 483.064L252.272 485.387ZM242 468L251.728 486.5L268.059 483.577L242 468Z" fill="#2052CE"/>
<path d="M242 468L217 486L252.059 486.5L242 468Z" fill="#BAD3FF"/>
<path d="M236.296 466L210 486H217L242 468L236.296 466Z" fill="#AAC5F5"/>
<path d="M505 474C500.286 476.127 489.744 480.924 489.059 481.1L500 486L505 474Z" fill="#BAD3FF"/>
<path d="M523 486L505 474L500 486H523Z" fill="white"/>
<path fill-rule="evenodd" clip-rule="evenodd" d="M505 474L500 486H523L505 474ZM505.456 475.506L501.5 485H519.697L505.456 475.506Z" fill="#2052CE"/>
<path d="M476 471C473.885 472.404 465.508 474.832 465 475L479 484L476 471Z" fill="#BAD3FF"/>
<path d="M500 486L476 471L477.19 485.5L500 486Z" fill="white"/>
<path fill-rule="evenodd" clip-rule="evenodd" d="M476 471L477.19 485.5L500 486L476 471ZM477.16 472.904L478.113 484.52L496.386 484.921L477.16 472.904Z" fill="#2052CE"/>
<path d="M467 488L457 469L483 486L467 488Z" fill="white"/>
<path fill-rule="evenodd" clip-rule="evenodd" d="M467.563 486.922L459.682 471.948L480.172 485.346L467.563 486.922ZM457 469L467 488L483 486L457 469Z" fill="#2052CE"/>
<path d="M457 469L433 488H467.02L457 469Z" fill="#BAD3FF"/>
<path d="M452.354 467.5L423 488H433L457.059 469.202L452.354 467.5Z" fill="#AAC5F5"/>
<path d="M261.084 434.5L241.5 447L276.5 444.5L261.084 434.5Z" fill="#BAD3FF"/>
<path d="M266.084 434.5L246.5 447L281.5 444.5L266.084 434.5Z" fill="white"/>
<path fill-rule="evenodd" clip-rule="evenodd" d="M246.5 447L281.5 444.5L266.084 434.5L246.5 447ZM250.361 445.722L278.452 443.715L266.079 435.689L250.361 445.722Z" fill="#2052CE"/>
<path d="M363 441L345 453L381.5 450.5L363 441Z" fill="#BAD3FF"/>
<path d="M416 440L402.5 449L432.5 446.5L416 440Z" fill="#BAD3FF"/>
<path d="M420 440L406.5 449L436.5 446.5L420 440Z" fill="white"/>
<path fill-rule="evenodd" clip-rule="evenodd" d="M406.5 449L436.5 446.5L420 440L406.5 449ZM410.281 447.681L432.146 445.859L420.12 441.122L410.281 447.681Z" fill="#2052CE"/>
<path d="M368 441L350 453L386.5 450.5L368 441Z" fill="white"/>
<path fill-rule="evenodd" clip-rule="evenodd" d="M350 453L386.5 450.5L368 441L350 453ZM353.685 451.745L382.846 449.748L368.066 442.158L353.685 451.745Z" fill="#2052CE"/>
<defs>
<linearGradient id="paint0_linear_426:220" x1="456.927" y1="159" x2="456.927" y2="410.373" gradientUnits="userSpaceOnUse">
<stop stop-color="#2052CE" stop-opacity="0.1"/>
<stop offset="1" stop-color="#2052CE" stop-opacity="0"/>
</linearGradient>
</defs>
</svg>
