<svg width="34" height="28" viewBox="0 0 34 28" fill="none" xmlns="http://www.w3.org/2000/svg">
<path d="M32.9375 10.25H21.0625C20.8906 10.25 20.75 10.3906 20.75 10.5625V14.9375C20.75 15.1094 20.8906 15.25 21.0625 15.25H22.9375C23.1094 15.25 23.25 15.1094 23.25 14.9375V12.75H25.5938V25.25H23.7969C23.625 25.25 23.4844 25.3906 23.4844 25.5625V27.4375C23.4844 27.6094 23.625 27.75 23.7969 27.75H30.2031C30.375 27.75 30.5156 27.6094 30.5156 27.4375V25.5625C30.5156 25.3906 30.375 25.25 30.2031 25.25H28.4062V12.75H30.75V14.9375C30.75 15.1094 30.8906 15.25 31.0625 15.25H32.9375C33.1094 15.25 33.25 15.1094 33.25 14.9375V10.5625C33.25 10.3906 33.1094 10.25 32.9375 10.25ZM22.625 5.5625V0.5625C22.625 0.390625 22.4844 0.25 22.3125 0.25H1.0625C0.890625 0.25 0.75 0.390625 0.75 0.5625V5.5625C0.75 5.73438 0.890625 5.875 1.0625 5.875H3.25C3.42188 5.875 3.5625 5.73438 3.5625 5.5625V3.0625H10.125V24.9375H6.53125C6.35938 24.9375 6.21875 25.0781 6.21875 25.25V27.4375C6.21875 27.6094 6.35938 27.75 6.53125 27.75H16.8438C17.0156 27.75 17.1562 27.6094 17.1562 27.4375V25.25C17.1562 25.0781 17.0156 24.9375 16.8438 24.9375H13.25V3.0625H19.8125V5.5625C19.8125 5.73438 19.9531 5.875 20.125 5.875H22.3125C22.4844 5.875 22.625 5.73438 22.625 5.5625Z" fill="#559EE6"/>
</svg>
