<svg width="28" height="34" viewBox="0 0 28 34" fill="none" xmlns="http://www.w3.org/2000/svg">
<path d="M17.3346 0.333008H4.0013C3.11725 0.333008 2.2694 0.684197 1.64428 1.30932C1.01916 1.93444 0.667969 2.78229 0.667969 3.66634V30.333C0.667969 31.2171 1.01916 32.0649 1.64428 32.69C2.2694 33.3152 3.11725 33.6663 4.0013 33.6663H24.0013C24.8854 33.6663 25.7332 33.3152 26.3583 32.69C26.9834 32.0649 27.3346 31.2171 27.3346 30.333V10.333L17.3346 0.333008ZM12.8896 26.6197C12.1639 26.8599 11.4057 26.988 10.6413 26.9997C9.41297 26.9997 8.52297 26.6897 7.9013 26.0897C7.28297 25.5097 6.94297 24.6313 6.95297 23.6413C6.96297 21.4013 8.5913 20.123 10.8013 20.123C11.6696 20.123 12.3413 20.2947 12.6696 20.453L12.3513 21.6713C11.9813 21.5113 11.5213 21.3813 10.783 21.3813C9.51297 21.3813 8.55297 22.1013 8.55297 23.5613C8.55297 24.9497 9.42297 25.7697 10.6713 25.7697C11.0213 25.7697 11.3013 25.7297 11.4213 25.668V24.258H10.3813V23.0697H12.8896V26.6197ZM15.613 26.9297H14.083V20.193H15.613V26.9297ZM21.0496 21.443H18.4613V22.9813H20.8796V24.2213H18.4613V26.9297H16.9313V20.193H21.0496V21.443ZM17.3346 11.9997H15.668V3.66634L24.0013 11.9997H17.3346Z" fill="#559EE6"/>
</svg>
