<svg width="40" height="40" viewBox="0 0 40 40" fill="none" xmlns="http://www.w3.org/2000/svg">
<path d="M30.0013 36.6668H10.0013C9.11725 36.6668 8.2694 36.3156 7.64428 35.6905C7.01916 35.0654 6.66797 34.2176 6.66797 33.3335V6.66683C6.66797 5.78278 7.01916 4.93493 7.64428 4.30981C8.2694 3.68469 9.11725 3.3335 10.0013 3.3335H21.668C21.6829 3.33154 21.698 3.33154 21.713 3.3335H21.723C21.7387 3.33842 21.7549 3.34177 21.7713 3.3435C21.918 3.3535 22.063 3.38183 22.203 3.4285H22.273C22.3037 3.45003 22.3327 3.474 22.3596 3.50016C22.5412 3.5809 22.7066 3.69383 22.848 3.8335L32.848 13.8335C32.9877 13.9748 33.1006 14.1403 33.1813 14.3218C33.1958 14.3579 33.2086 14.3946 33.2196 14.4318L33.2363 14.4785C33.283 14.6168 33.3096 14.7618 33.318 14.9085C33.3194 14.9251 33.3234 14.9414 33.3296 14.9568V14.9668C33.3323 14.9778 33.334 14.9889 33.3346 15.0002V33.3335C33.3346 34.2176 32.9834 35.0654 32.3583 35.6905C31.7332 36.3156 30.8854 36.6668 30.0013 36.6668ZM25.7696 23.3335C25.3906 23.3124 25.0122 23.3841 24.6671 23.5424C24.3221 23.7007 24.0209 23.9408 23.7896 24.2418C23.2936 25.0066 23.0564 25.9104 23.113 26.8202V28.2802C23.0646 29.1802 23.3263 30.0702 23.8513 30.8035C24.3513 31.3868 25.0946 31.7068 25.863 31.6668C26.3396 31.6718 26.813 31.5835 27.2563 31.4102H27.2696H27.2596C27.2751 31.401 27.2912 31.3932 27.308 31.3868H27.3163L27.343 31.3735L27.378 31.3568C27.7413 31.1902 28.0646 30.9452 28.3246 30.6402V27.2885H25.7513V28.5252H26.813V30.0135L26.6796 30.1135C26.4631 30.2513 26.2094 30.3193 25.953 30.3085C25.7549 30.3241 25.5563 30.2859 25.3783 30.1979C25.2002 30.1098 25.0492 29.9753 24.9413 29.8085C24.7038 29.3049 24.5988 28.749 24.6363 28.1935V26.7218C24.6075 26.1923 24.7063 25.6635 24.9246 25.1802C25.0126 25.0235 25.1428 24.8948 25.3005 24.8087C25.4582 24.7226 25.637 24.6827 25.8163 24.6935C25.9537 24.6821 26.0918 24.7017 26.2205 24.7511C26.3492 24.8004 26.4651 24.8782 26.5596 24.9785C26.7596 25.2952 26.863 25.6585 26.8596 26.0318H28.3346C28.3376 25.2873 28.0826 24.5646 27.613 23.9868C27.118 23.5202 26.4463 23.2852 25.7696 23.3335ZM11.668 29.1668C11.633 29.8268 11.8346 30.4785 12.2413 31.0002C12.648 31.4535 13.238 31.6985 13.8463 31.6668C14.4496 31.6818 15.028 31.4185 15.4146 30.9552C15.8399 30.4178 16.056 29.7446 16.023 29.0602V23.4452H14.5013V28.9818C14.5013 29.8618 14.2796 30.3152 13.8346 30.3152C13.3896 30.3152 13.1796 29.9285 13.1796 29.1668H11.668ZM17.213 23.4518V31.5618H18.7296V28.7035H19.7413C20.4163 28.7402 21.078 28.4902 21.558 28.0135C22.0141 27.4956 22.2487 26.8193 22.2113 26.1302C22.2408 25.4227 22.0028 24.73 21.5446 24.1902C21.0946 23.6902 20.443 23.4168 19.7696 23.4452L17.213 23.4518V23.4518ZM21.668 6.66683V15.0002H30.0013L21.668 6.66683ZM19.7713 27.3335H18.7296V24.8085H19.788C20.0546 24.8085 20.2996 24.9485 20.438 25.1768C20.613 25.4668 20.698 25.8018 20.6813 26.1402C20.7021 26.4553 20.6189 26.7685 20.4446 27.0318C20.3646 27.1322 20.2617 27.2119 20.1446 27.2644C20.0274 27.3168 19.8995 27.3405 19.7713 27.3335Z" fill="#559EE6"/>
</svg>
