<svg width="33" height="34" viewBox="0 0 33 34" fill="none" xmlns="http://www.w3.org/2000/svg">
<path d="M19.0013 10.333V0.333008H9.0013C8.11725 0.333008 7.2694 0.684197 6.64428 1.30932C6.01916 1.93444 5.66797 2.78229 5.66797 3.66634V20.363C6.26378 20.2769 6.87164 20.3772 7.40817 20.6502C7.94469 20.9233 8.38359 21.3556 8.66464 21.888C9.12388 21.3967 9.67928 21.0051 10.2963 20.7376C10.9133 20.4701 11.5788 20.3324 12.2513 20.333H12.418C13.7219 20.333 14.9725 20.851 15.8946 21.7731C16.8166 22.6951 17.3346 23.9457 17.3346 25.2497V25.333C17.3346 26.083 17.0513 26.7663 16.5846 27.283C17.0646 28.0147 17.3346 28.883 17.3346 29.7947V30.4163C17.3346 31.6613 16.8713 32.7997 16.108 33.6663H29.0013C29.8854 33.6663 30.7332 33.3152 31.3583 32.69C31.9834 32.0649 32.3346 31.2171 32.3346 30.333V13.6663H22.3346C21.4506 13.6663 20.6027 13.3152 19.9776 12.69C19.3525 12.0649 19.0013 11.2171 19.0013 10.333ZM21.5013 10.333V1.16634L31.5013 11.1663H22.3346C22.1136 11.1663 21.9017 11.0785 21.7454 10.9223C21.5891 10.766 21.5013 10.554 21.5013 10.333ZM6.08464 21.9997C6.41616 21.9997 6.7341 22.1314 6.96852 22.3658C7.20294 22.6002 7.33464 22.9182 7.33464 23.2497V30.333C7.33464 31.2171 6.98345 32.0649 6.35832 32.69C5.7332 33.3152 4.88536 33.6663 4.0013 33.6663C3.11725 33.6663 2.2694 33.3152 1.64428 32.69C1.01916 32.0649 0.667969 31.2171 0.667969 30.333V29.9163C0.667969 29.5848 0.799665 29.2669 1.03409 29.0325C1.26851 28.798 1.58645 28.6663 1.91797 28.6663C2.24949 28.6663 2.56743 28.798 2.80185 29.0325C3.03627 29.2669 3.16797 29.5848 3.16797 29.9163V30.333C3.16797 30.554 3.25577 30.766 3.41205 30.9223C3.56833 31.0785 3.78029 31.1663 4.0013 31.1663C4.22232 31.1663 4.43428 31.0785 4.59056 30.9223C4.74684 30.766 4.83464 30.554 4.83464 30.333V23.2497C4.83464 22.9182 4.96633 22.6002 5.20075 22.3658C5.43517 22.1314 5.75311 21.9997 6.08464 21.9997ZM12.2513 21.9997C11.3893 21.9997 10.5627 22.3421 9.95321 22.9516C9.34371 23.5611 9.0013 24.3877 9.0013 25.2497V25.6397C9.0013 26.663 9.53963 27.613 10.418 28.1397L12.9663 29.6697C13.0278 29.7067 13.0787 29.759 13.114 29.8215C13.1493 29.884 13.1679 29.9546 13.168 30.0263V30.4163C13.168 30.6153 13.089 30.806 12.9483 30.9467C12.8076 31.0873 12.6169 31.1663 12.418 31.1663H12.2513C12.0524 31.1663 11.8616 31.0873 11.721 30.9467C11.5803 30.806 11.5013 30.6153 11.5013 30.4163V30.333C11.5013 30.0015 11.3696 29.6835 11.1352 29.4491C10.9008 29.2147 10.5828 29.083 10.2513 29.083C9.91978 29.083 9.60184 29.2147 9.36742 29.4491C9.133 29.6835 9.0013 30.0015 9.0013 30.333V30.4163C9.0013 31.2783 9.34371 32.1049 9.95321 32.7144C10.5627 33.3239 11.3893 33.6663 12.2513 33.6663H12.418C13.2799 33.6663 14.1066 33.3239 14.7161 32.7144C15.3256 32.1049 15.668 31.2783 15.668 30.4163V30.0263C15.6677 29.5228 15.5371 29.0279 15.2889 28.5898C15.0406 28.1517 14.6832 27.7853 14.2513 27.5263L11.703 25.9963C11.6415 25.9593 11.5906 25.907 11.5553 25.8445C11.5199 25.782 11.5013 25.7115 11.5013 25.6397V25.2497C11.5013 25.0508 11.5803 24.86 11.721 24.7193C11.8616 24.5787 12.0524 24.4997 12.2513 24.4997H12.418C12.6169 24.4997 12.8076 24.5787 12.9483 24.7193C13.089 24.86 13.168 25.0508 13.168 25.2497V25.333C13.168 25.6645 13.2997 25.9825 13.5341 26.2169C13.7685 26.4513 14.0864 26.583 14.418 26.583C14.7495 26.583 15.0674 26.4513 15.3019 26.2169C15.5363 25.9825 15.668 25.6645 15.668 25.333V25.2497C15.668 24.3877 15.3256 23.5611 14.7161 22.9516C14.1066 22.3421 13.2799 21.9997 12.418 21.9997H12.2513Z" fill="#559EE6"/>
</svg>
