<svg width="28" height="34" viewBox="0 0 28 34" fill="none" xmlns="http://www.w3.org/2000/svg">
<path d="M24.0013 33.6668H4.0013C3.11725 33.6668 2.2694 33.3156 1.64428 32.6905C1.01916 32.0654 0.667969 31.2176 0.667969 30.3335V3.66683C0.667969 2.78278 1.01916 1.93493 1.64428 1.30981C2.2694 0.684687 3.11725 0.333498 4.0013 0.333498H15.668C15.6829 0.331542 15.698 0.331542 15.713 0.333498H15.723C15.7387 0.338417 15.7549 0.341767 15.7713 0.343498C15.918 0.353498 16.063 0.381831 16.203 0.428498H16.273C16.3037 0.450029 16.3327 0.473995 16.3596 0.500164C16.5412 0.580902 16.7066 0.693834 16.848 0.833498L26.848 10.8335C26.9877 10.9748 27.1006 11.1403 27.1813 11.3218C27.1958 11.3579 27.2086 11.3946 27.2196 11.4318L27.2363 11.4785C27.283 11.6168 27.3096 11.7618 27.318 11.9085C27.3194 11.9251 27.3234 11.9414 27.3296 11.9568V11.9668C27.3323 11.9778 27.334 11.9889 27.3346 12.0002V30.3335C27.3346 31.2176 26.9834 32.0654 26.3583 32.6905C25.7332 33.3156 24.8854 33.6668 24.0013 33.6668ZM19.9046 20.3335C19.5407 20.3149 19.1779 20.3883 18.8499 20.5471C18.5218 20.7059 18.2391 20.9448 18.028 21.2418C17.5561 22.0157 17.3327 22.9155 17.388 23.8202V25.2802C17.341 26.1747 17.5861 27.0603 18.0863 27.8035C18.548 28.3835 19.2613 28.7035 20.0013 28.6668C20.453 28.6718 20.9013 28.5835 21.3196 28.4102L21.3546 28.3952C21.738 28.2256 22.0743 27.9654 22.3346 27.6368V24.2885H19.8863V25.5252H20.8863V27.0135L20.7596 27.1135C20.5563 27.2505 20.3146 27.3188 20.0696 27.3085C19.8793 27.3217 19.689 27.2821 19.5199 27.1938C19.3507 27.1055 19.2093 26.9722 19.1113 26.8085C18.8863 26.3013 18.7874 25.7472 18.823 25.1935V23.7218C18.7963 23.1935 18.8896 22.6668 19.098 22.1802C19.1767 22.026 19.2984 21.898 19.4484 21.8116C19.5983 21.7253 19.7701 21.6842 19.943 21.6935C20.2096 21.6718 20.4713 21.7768 20.648 21.9785C20.8363 22.2968 20.933 22.6618 20.9313 23.0318H22.3346C22.3397 22.2933 22.0993 21.574 21.6513 20.9868C21.4246 20.7587 21.1514 20.5822 20.8502 20.4695C20.549 20.3567 20.2271 20.3103 19.9063 20.3335H19.9046ZM12.808 23.2435L14.9063 28.5552H16.3346V20.4452H14.9096V25.7702L12.8046 20.4452H11.368V28.5552H12.8046V23.2435H12.808ZM5.66797 20.4452V28.5552H7.10464V25.7035H8.06297C8.70964 25.7368 9.33963 25.4852 9.78297 25.0135C10.2196 24.4852 10.4413 23.8135 10.4046 23.1302C10.435 22.4285 10.2106 21.7395 9.77297 21.1902C9.56813 20.9459 9.31007 20.7517 9.01857 20.6226C8.72707 20.4934 8.40988 20.4327 8.0913 20.4452H5.66797ZM15.668 3.66683V12.0002H24.0013L15.668 3.66683ZM8.0913 24.3335H7.10464V21.8085H8.10464C8.23067 21.8105 8.35396 21.8456 8.46218 21.9103C8.5704 21.9749 8.65975 22.0668 8.7213 22.1768C8.88797 22.4702 8.96797 22.8035 8.9513 23.1402C8.97151 23.4536 8.89281 23.7655 8.7263 24.0318C8.65336 24.1304 8.55728 24.2095 8.44653 24.2621C8.33578 24.3147 8.21378 24.3392 8.0913 24.3335Z" fill="#559EE6"/>
</svg>
