<svg width="28" height="34" viewBox="0 0 28 34" fill="none" xmlns="http://www.w3.org/2000/svg">
<path d="M24.0013 33.6668H4.0013C3.11725 33.6668 2.2694 33.3156 1.64428 32.6905C1.01916 32.0654 0.667969 31.2176 0.667969 30.3335V3.66683C0.667969 2.78278 1.01916 1.93493 1.64428 1.30981C2.2694 0.684687 3.11725 0.333498 4.0013 0.333498H15.668C15.6829 0.331542 15.698 0.331542 15.713 0.333498H15.723C15.7387 0.338417 15.7549 0.341767 15.7713 0.343498C15.918 0.353498 16.063 0.381831 16.203 0.428498H16.273C16.3037 0.450029 16.3327 0.473995 16.3596 0.500164C16.5412 0.580902 16.7066 0.693834 16.848 0.833498L26.848 10.8335C26.9877 10.9748 27.1006 11.1403 27.1813 11.3218C27.1958 11.3579 27.2086 11.3946 27.2196 11.4318L27.2363 11.4785C27.283 11.6168 27.3096 11.7618 27.318 11.9085C27.3194 11.9251 27.3233 11.9414 27.3296 11.9568V11.9668C27.3323 11.9778 27.334 11.9889 27.3346 12.0002V30.3335C27.3346 31.2176 26.9834 32.0654 26.3583 32.6905C25.7332 33.3156 24.8854 33.6668 24.0013 33.6668ZM19.8346 20.3335C19.078 20.2935 18.3513 20.6335 17.8996 21.2418C17.4123 22.01 17.179 22.912 17.233 23.8202V25.2802C17.1858 26.1779 17.4391 27.0658 17.953 27.8035C18.4363 28.3868 19.1663 28.7052 19.9213 28.6668C20.388 28.6718 20.8496 28.5835 21.2813 28.4102L21.303 28.4018L21.2763 28.4135C21.6846 28.2452 22.043 27.9802 22.3263 27.6402V24.2885H19.8113V25.5252H20.8496V27.0135L20.7196 27.1135C20.5086 27.2513 20.2597 27.3195 20.008 27.3085C19.8135 27.3231 19.6188 27.2843 19.4449 27.1961C19.271 27.108 19.1245 26.9739 19.0213 26.8085C18.79 26.3031 18.688 25.7481 18.7246 25.1935V23.7218C18.694 23.1928 18.7888 22.664 19.0013 22.1785C19.0851 22.0228 19.2117 21.8942 19.3661 21.808C19.5206 21.7218 19.6964 21.6815 19.873 21.6918C20.0075 21.6809 20.1428 21.7009 20.2685 21.7503C20.3942 21.7997 20.5069 21.8772 20.598 21.9768C20.793 22.2935 20.893 22.6602 20.8896 23.0302H22.3346C22.3387 22.2882 22.0901 21.567 21.6296 20.9852C21.3933 20.7561 21.1112 20.5796 20.8019 20.4673C20.4925 20.355 20.1629 20.3094 19.8346 20.3335ZM5.66797 26.0002C5.65797 26.4935 5.77297 26.9835 6.0013 27.4202C6.2113 27.8102 6.52963 28.1302 6.91797 28.3452C7.31297 28.5602 7.7563 28.6702 8.2063 28.6668C8.8163 28.7002 9.41297 28.4835 9.86297 28.0718C10.0725 27.8524 10.2347 27.5923 10.3397 27.3076C10.4446 27.0229 10.49 26.7198 10.473 26.4168C10.4946 25.8502 10.323 25.2902 9.98463 24.8335C9.5668 24.3523 9.03005 23.9891 8.42797 23.7802C8.11078 23.6495 7.8208 23.4607 7.57297 23.2235C7.41877 23.0572 7.33357 22.8386 7.33463 22.6118C7.32201 22.3664 7.39901 22.1247 7.5513 21.9318C7.62605 21.8459 7.71937 21.7782 7.82419 21.7337C7.92902 21.6892 8.04259 21.6692 8.1563 21.6752C8.40297 21.6618 8.63963 21.7752 8.78463 21.9768C8.94602 22.2321 9.02191 22.5322 9.0013 22.8335H10.478C10.4851 22.3827 10.3869 21.9364 10.1913 21.5302C10.0139 21.1616 9.7315 20.8537 9.37963 20.6452C9.01467 20.433 8.5984 20.3251 8.1763 20.3335C7.56049 20.3146 6.96191 20.5385 6.50963 20.9568C6.291 21.1693 6.11964 21.4254 6.00678 21.7086C5.89391 21.9918 5.84206 22.2956 5.85463 22.6002C5.84432 23.1311 6.01541 23.6496 6.33963 24.0702C6.76963 24.5585 7.31463 24.9302 7.92463 25.1518C8.23463 25.2718 8.51797 25.4518 8.75797 25.6802C8.9263 25.8918 9.00797 26.1585 8.98963 26.4268C8.98963 27.0285 8.72797 27.3335 8.21463 27.3335C8.06481 27.3471 7.91387 27.3256 7.77383 27.2706C7.63379 27.2156 7.50851 27.1287 7.40797 27.0168C7.21938 26.7117 7.13297 26.3544 7.1613 25.9968L5.66797 26.0002ZM10.9713 20.4468L13.0713 28.5568H14.613L16.728 20.4468H15.0763L13.8346 26.3335L12.6063 20.4518L10.9713 20.4468ZM15.668 3.66683V12.0002H24.0013L15.668 3.66683Z" fill="#559EE6"/>
</svg>
