<svg width="13" height="13" viewBox="0 0 13 13" fill="none" xmlns="http://www.w3.org/2000/svg">
<path d="M12.5 6.24622C12.5011 7.42493 12.1683 8.5799 11.5402 9.57774C10.9121 10.5756 10.0142 11.3756 8.95031 11.8854C7.88638 12.3952 6.69979 12.594 5.52757 12.4588C4.35536 12.3236 3.24533 11.8599 2.3257 11.1213C2.25953 11.0687 2.20508 11.0029 2.16583 10.9281C2.12659 10.8533 2.10341 10.7711 2.09779 10.6868C2.09216 10.6025 2.10421 10.518 2.13317 10.4386C2.16212 10.3593 2.20735 10.2868 2.26594 10.2259L2.54981 9.94235C2.65449 9.838 2.79369 9.77538 2.9413 9.76622C3.0889 9.75706 3.23479 9.802 3.3516 9.8926C4.0477 10.4431 4.8874 10.7824 5.77089 10.8701C6.65438 10.9578 7.54451 10.7903 8.33549 10.3875C9.12646 9.98468 9.78502 9.36346 10.2329 8.59769C10.6807 7.83192 10.8991 6.95381 10.8619 6.06771C10.8248 5.18162 10.5337 4.32481 10.0233 3.59912C9.51296 2.87343 8.80472 2.30939 7.9828 1.97402C7.16088 1.63865 6.25984 1.54607 5.38678 1.70727C4.51373 1.86847 3.70536 2.27669 3.05777 2.88339L4.33765 4.16186C4.39312 4.21915 4.43057 4.29142 4.44538 4.36973C4.46019 4.44804 4.45171 4.52897 4.42098 4.60253C4.39026 4.67608 4.33864 4.73903 4.27249 4.7836C4.20635 4.82817 4.12859 4.85242 4.04881 4.85333H0.398412C0.292293 4.85202 0.190965 4.80899 0.116389 4.73357C0.0418133 4.65814 -1.82503e-06 4.5564 6.26302e-06 4.45039V0.774158C-0.000438371 0.694438 0.0228008 0.616377 0.0667834 0.549854C0.110766 0.483331 0.173515 0.431335 0.24709 0.400446C0.320666 0.369557 0.401761 0.361163 0.480113 0.376327C0.558465 0.39149 0.630554 0.42953 0.687257 0.485632L1.93228 1.72928C2.81745 0.884429 3.93153 0.317868 5.13623 0.099934C6.34092 -0.118 7.58316 0.0222923 8.70873 0.503393C9.8343 0.984494 10.7936 1.78522 11.4676 2.80615C12.1416 3.82709 12.5006 5.02328 12.5 6.24622V6.24622Z" fill="white"/>
<path d="M7.50729 8.40111L7.70627 8.13091C7.74669 8.07702 7.77657 8.01519 7.79418 7.949C7.81179 7.88282 7.81677 7.8136 7.80884 7.74536C7.8009 7.67713 7.78021 7.61124 7.74796 7.55152C7.71572 7.4918 7.67256 7.43944 7.62099 7.39749L6.78447 6.68552V4.42952C6.78501 4.36065 6.77256 4.29235 6.74786 4.22861C6.72315 4.16487 6.68668 4.10695 6.64057 4.05825C6.59446 4.00955 6.53963 3.97103 6.47928 3.94493C6.41892 3.91884 6.35426 3.9057 6.28905 3.90627H5.96012C5.89526 3.90627 5.83103 3.91983 5.77115 3.94618C5.71127 3.97253 5.65692 4.01114 5.61124 4.05978C5.56556 4.10843 5.52945 4.16615 5.505 4.22961C5.48054 4.29307 5.46823 4.36101 5.46877 4.42952V7.37176L6.81289 8.47831C6.91484 8.56487 7.04507 8.60534 7.17516 8.59087C7.30525 8.57641 7.42464 8.5082 7.50729 8.40111Z" fill="white"/>
</svg>
