<svg width="13" height="13" viewBox="0 0 13 13" fill="none" xmlns="http://www.w3.org/2000/svg">
<path d="M6.25 0C2.79817 0 0 2.79817 0 6.25C0 9.70183 2.79817 12.5 6.25 12.5C9.70183 12.5 12.5 9.70183 12.5 6.25C12.5 2.79817 9.70183 0 6.25 0ZM2.28367 8.71265C2.2209 8.61155 2.16165 8.50769 2.10671 8.40156C1.79211 7.7978 1.60581 7.11792 1.58364 6.39622C1.50222 3.7551 3.65151 1.5574 6.29365 1.58159C7.05369 1.5884 7.77012 1.77722 8.40237 2.10593C8.5085 2.16113 8.61211 2.22039 8.71318 2.2834C8.75906 2.31189 8.76663 2.37566 8.72856 2.41372L2.41423 8.72803C2.37617 8.76609 2.3124 8.75852 2.28367 8.71265V8.71265ZM6.25 10.9187C5.47383 10.9187 4.74202 10.7291 4.09844 10.3941C3.99231 10.3389 3.88821 10.2796 3.78711 10.2168C3.74097 10.1881 3.73342 10.1243 3.77148 10.0863L10.0863 3.77148C10.1243 3.73342 10.1881 3.74099 10.2168 3.78711C10.2796 3.88821 10.3388 3.99231 10.3941 4.09844C10.7291 4.74277 10.9187 5.47383 10.9187 6.25C10.9187 8.82834 8.8291 10.9187 6.25 10.9187V10.9187Z" fill="white"/>
<path d="M9.82483 1.12329C11.1979 2.26953 12.0714 3.99407 12.0714 5.92278C12.0714 9.37461 9.27327 12.1728 5.82144 12.1728C4.49219 12.1728 3.25947 11.7576 2.24658 11.05C3.33081 11.9557 4.72686 12.5005 6.24998 12.5005C9.70181 12.5005 12.5 9.70232 12.5 6.25049C12.5 4.12817 11.4422 2.25288 9.82483 1.12329V1.12329Z" fill="white"/>
</svg>
