<svg width="45" height="56" viewBox="0 0 45 56" fill="none" xmlns="http://www.w3.org/2000/svg">
<path d="M22.5011 53C43.0171 46.6962 41.9915 29.6679 41.9915 24.731V11.1724L22.5011 3L3.0107 11.1724V24.731C3.00142 29.6679 1.98049 46.6962 22.5011 53Z" fill="#FF451F"/>
<path d="M22.1341 54.1949L22.5012 54.3077L22.8682 54.1949C33.4879 50.9319 38.6488 44.8314 41.0973 38.8248C43.3128 33.3899 43.2683 28.1076 43.2455 25.4028C43.2434 25.157 43.2415 24.9324 43.2415 24.731V11.1724V10.3411L42.4749 10.0197L22.9845 1.84724L22.5011 1.64456L22.0178 1.84724L2.52734 10.0197L1.7607 10.3411V11.1724V24.7299C1.76033 24.9252 1.7582 25.1423 1.75588 25.3793C1.72943 28.0793 1.67756 33.375 3.89971 38.8249C6.34891 44.8317 11.5123 50.932 22.1341 54.1949Z" stroke="#FF451F" stroke-opacity="0.2" stroke-width="2.5"/>
<path d="M17.327 35.5986C16.9838 35.6196 16.6463 35.4992 16.3856 35.2627C15.8715 34.7168 15.8715 33.8351 16.3856 33.2893L27.6428 21.4068C28.1775 20.8787 29.0165 20.9081 29.5169 21.4725C29.9693 21.9829 29.9957 22.7673 29.5786 23.3103L18.2551 35.2627C17.9978 35.4958 17.6657 35.616 17.327 35.5986V35.5986Z" fill="white"/>
<path d="M28.5736 35.5983C28.2257 35.5967 27.8924 35.451 27.6454 35.1924L16.3882 23.31C15.9119 22.7229 15.9766 21.8393 16.5328 21.3365C17.0292 20.8878 17.7614 20.8878 18.2577 21.3365L29.5812 33.219C30.1158 33.7472 30.1435 34.6329 29.643 35.1972C29.6231 35.2197 29.6025 35.2414 29.5812 35.2624C29.304 35.5169 28.9391 35.6385 28.5736 35.5983V35.5983Z" fill="white"/>
</svg>
