<svg width="45" height="56" viewBox="0 0 45 56" fill="none" xmlns="http://www.w3.org/2000/svg">
<path d="M22.5011 53C43.0171 46.6962 41.9915 29.6679 41.9915 24.731V11.1724L22.5011 3L3.0107 11.1724V24.731C3.00142 29.6679 1.98049 46.6962 22.5011 53Z" fill="#5CB1FF"/>
<path d="M22.1341 54.1949L22.5012 54.3077L22.8682 54.1949C33.4879 50.9319 38.6488 44.8314 41.0973 38.8248C43.3128 33.3899 43.2683 28.1076 43.2455 25.4028C43.2434 25.157 43.2415 24.9324 43.2415 24.731V11.1724V10.3411L42.4749 10.0197L22.9845 1.84724L22.5011 1.64456L22.0178 1.84724L2.52734 10.0197L1.7607 10.3411V11.1724V24.7299C1.76033 24.9252 1.7582 25.1423 1.75588 25.3793C1.72943 28.0793 1.67756 33.375 3.89971 38.8249C6.34891 44.8317 11.5123 50.932 22.1341 54.1949Z" stroke="#5CB1FF" stroke-opacity="0.35" stroke-width="2.5"/>
<path d="M22.5944 13.1797V25.6833H31.2034L22.007 42.1172V30.5807H13.1211L22.5944 13.1797Z" fill="white"/>
</svg>
