<svg width="16" height="14" viewBox="0 0 16 14" fill="none" xmlns="http://www.w3.org/2000/svg">
<path d="M7.46767 3.62841L4.26562 2.06055V5.59983L7.46767 7.02476V3.62841Z" fill="white"/>
<path d="M0.209963 12.3263L3.20204 13.6568V10.2602L0 8.69238V12.0031C0 12.1429 0.0822791 12.2695 0.209963 12.3263Z" fill="white"/>
<path d="M7.46673 8.69141L4.26172 10.2596V13.6566L7.46673 12.2333V8.69141Z" fill="white"/>
<path d="M6.74347 7.86487L3.7357 6.52734L0.722656 7.86537L3.73149 9.33865L6.74347 7.86487Z" fill="white"/>
<path d="M16.0009 8.75L12.793 10.2652V13.6571L15.7571 12.3408C15.9053 12.2749 16.0009 12.1279 16.0009 11.9657V8.75Z" fill="white"/>
<path d="M11.0049 1.2916L8.29473 0.0655423C8.10467 -0.0204243 7.88711 -0.0218931 7.69593 0.0615423L5 1.23792L8.00424 2.70894L11.0049 1.2916Z" fill="white"/>
<path d="M15.2775 7.91844L12.2644 6.52832L9.25391 7.86522L12.2668 9.3405L15.2775 7.91844Z" fill="white"/>
<path d="M8.53347 12.2339L11.7328 13.6566V10.26L8.53125 8.69238L8.53347 12.2339Z" fill="white"/>
<path d="M11.7353 5.60064V2.11816L8.52734 3.63338V7.02519L9.946 6.39521L11.7353 5.60064Z" fill="white"/>
</svg>
