<svg width="79" height="86" viewBox="0 0 79 86" fill="none" xmlns="http://www.w3.org/2000/svg">
<rect width="69.2796" height="50.4404" rx="4" fill="#1A355E"/>
<path d="M0 4C0 1.79086 1.79086 0 4 0H65.2796C67.4888 0 69.2796 1.79086 69.2796 4V6.07716H0V4Z" fill="#2F4971"/>
<path d="M0 40.7158H69.2796V46.4393C69.2796 48.6484 67.4888 50.4393 65.2796 50.4393H4.00001C1.79087 50.4393 0 48.6484 0 46.4393V40.7158Z" fill="#3CA2E5"/>
<path d="M29.7734 60.7715H39.4969V50.4403H29.7734V60.7715Z" fill="#3CA2E5"/>
<path d="M21.8789 59.8599C21.8789 60.3634 22.287 60.7715 22.7905 60.7715H46.4914C46.9949 60.7715 47.403 60.3634 47.403 59.8599C47.403 59.3565 46.9949 58.9483 46.4914 58.9483H22.7905C22.287 58.9483 21.8789 59.3565 21.8789 59.8599Z" fill="#3CA2E5"/>
<rect x="52.1523" y="16.9092" width="26.3472" height="42.1478" rx="1.5" fill="white" stroke="#3CA2E5"/>
<path d="M65.1133 53.5368L67.6237 51.2033C68.0806 50.7786 68.7877 50.7786 69.2446 51.2033V51.2033C69.7175 51.6429 70.4546 51.6253 70.906 51.1637L72.8847 49.1405C73.5721 48.4377 74.7387 48.5765 75.2419 49.421V49.421" stroke="#D1E3FA"/>
<circle cx="59.3275" cy="50.6429" r="2.89389" fill="#D1E3FA"/>
<path d="M69.9299 16.9092C69.7096 17.7332 68.9578 18.34 68.0644 18.34H62.5949C61.7015 18.34 60.9497 17.7332 60.7294 16.9092H69.9299Z" stroke="#3CA2E5"/>
<circle cx="34.6418" cy="45.5793" r="2.43086" fill="#D1E3FA"/>
<rect x="12.1523" y="20.0557" width="16.4083" height="1.21543" rx="0.607716" fill="#2F4971"/>
<rect x="18.2344" y="11.5469" width="9.11574" height="1.21543" rx="0.607716" fill="#2F4971"/>
<rect x="63.8125" y="26.7402" width="9.11574" height="1.21543" rx="0.607716" fill="#3CA2E5"/>
<rect x="57.125" y="34.6406" width="15.8006" height="1.21543" rx="0.607716" fill="#3CA2E5"/>
<rect x="57.125" y="38.2871" width="15.8006" height="1.21543" rx="0.607716" fill="#3CA2E5"/>
<rect x="28.5625" y="11.5469" width="9.11574" height="1.21543" rx="0.607716" fill="#2F4971"/>
<rect x="12.1523" y="23.0928" width="16.4083" height="1.21543" rx="0.607716" fill="#2F4971"/>
<path d="M21.7031 37.6201L26.6696 33.8914C27.3811 33.3573 28.3598 33.3573 29.0712 33.8914L29.6943 34.3593C30.4333 34.9141 31.4562 34.8904 32.1687 34.302L37.0343 30.2837C37.9191 29.553 39.2361 29.715 39.9173 30.6385L40.5134 31.4465" stroke="#2F4971"/>
<circle cx="14.472" cy="34.7269" r="2.89389" fill="#2F4971"/>
<circle cx="13.9755" cy="12.1542" r="1.82315" fill="#2F4971"/>
<circle cx="58.9481" cy="27.3466" r="1.82315" fill="#3CA2E5"/>
<g opacity="0.05" filter="url(#filter0_f_1485_143)">
<ellipse cx="35" cy="78.5" rx="18" ry="3.5" fill="black"/>
</g>
<defs>
<filter id="filter0_f_1485_143" x="13" y="71" width="44" height="15" filterUnits="userSpaceOnUse" color-interpolation-filters="sRGB">
<feFlood flood-opacity="0" result="BackgroundImageFix"/>
<feBlend mode="normal" in="SourceGraphic" in2="BackgroundImageFix" result="shape"/>
<feGaussianBlur stdDeviation="2" result="effect1_foregroundBlur_1485_143"/>
</filter>
</defs>
</svg>
