<svg width="40" height="40" viewBox="0 0 40 40" fill="none" xmlns="http://www.w3.org/2000/svg">
<rect opacity="0.1" width="40" height="40" rx="4" fill="#5CB1FF"/>
<path d="M14.0325 17.3408H8.80967C8.33023 17.3408 7.9426 17.7595 7.9375 18.2829V32.3868C7.9375 32.9101 8.33023 33.3289 8.80967 33.3289H14.0325C14.517 33.3289 14.9047 32.9046 14.9047 32.3868V18.2829C14.9047 17.7595 14.5119 17.3408 14.0325 17.3408Z" fill="#5CB1FF"/>
<path d="M22.7356 7H17.5128C17.0334 7 16.6406 7.41871 16.6406 7.93658V32.3868C16.6406 32.9102 17.0334 33.3289 17.5128 33.3289H22.7356C23.2202 33.3289 23.6078 32.9046 23.6078 32.3868V7.94209C23.6078 7.41871 23.2151 7 22.7356 7Z" fill="#5CB1FF"/>
<path d="M31.4417 14.5212H26.2189C25.7344 14.5212 25.3467 14.9399 25.3467 15.4633V32.3879C25.3467 32.9112 25.7395 33.33 26.2189 33.33H31.4417C31.9262 33.33 32.3138 32.9057 32.3138 32.3879V15.4633C32.3138 14.9399 31.9211 14.5212 31.4417 14.5212Z" fill="#5CB1FF"/>
</svg>
