<svg width="40" height="40" viewBox="0 0 40 40" fill="none" xmlns="http://www.w3.org/2000/svg">
<rect opacity="0.1" width="40" height="40" rx="4" fill="#5CB1FF"/>
<path d="M15.3125 16.076C15.3125 17.1945 14.4731 18.1012 13.4376 18.1012C12.4019 18.1012 11.5625 17.1945 11.5625 16.076C11.5625 14.9573 12.4019 14.0505 13.4376 14.0505C14.4731 14.0505 15.3125 14.9573 15.3125 16.076Z" fill="#5CB1FF"/>
<path d="M29.1406 10H10.8594C9.17954 10 7.8125 11.5145 7.8125 13.3755V26.8776C7.8125 26.9407 7.82663 27.0002 7.82979 27.0633C7.81548 27.1982 7.82161 27.3344 7.86624 27.4628C8.11711 29.0448 9.3603 30.2532 10.8594 30.2532H29.1406C30.8205 30.2532 32.1875 28.7387 32.1875 26.8776V13.3755C32.1875 11.5145 30.8205 10 29.1406 10ZM10.8594 12.2504H29.1406C29.7002 12.2504 30.1562 12.7556 30.1562 13.3755V22.3084L24.8141 16.3899C24.1193 15.6202 22.989 15.6202 22.2954 16.3899L17.461 21.7457L16.1812 20.3281C15.4866 19.5584 14.3561 19.5584 13.6624 20.3281L9.84381 24.5586V13.3755C9.84381 12.7556 10.2998 12.2504 10.8594 12.2504Z" fill="#5CB1FF"/>
</svg>
