<svg width="14" height="12" viewBox="0 0 14 12" fill="none" xmlns="http://www.w3.org/2000/svg">
<path d="M0 2.667C0 1.194 2.985 0 6.667 0C10.349 0 13.334 1.194 13.334 2.667V4C13.334 5.473 10.349 6.667 6.667 6.667C2.985 6.667 0 5.473 0 4V2.667Z" fill="white"/>
<path d="M0 6.33398V9.33398C0 10.805 2.985 12 6.667 12C10.349 12 13.334 10.806 13.334 9.33298V6.33398C12.8837 6.65839 12.3937 6.92388 11.876 7.12398C10.477 7.68398 8.634 7.99998 6.667 7.99998C4.701 7.99998 2.858 7.68298 1.459 7.12398C0.941302 6.9239 0.451325 6.65841 0.00100005 6.33398H0Z" fill="white"/>
</svg>
