<svg width="24" height="24" viewBox="0 0 24 24" fill="none" xmlns="http://www.w3.org/2000/svg">
<path fill-rule="evenodd" clip-rule="evenodd" d="M14.545 2.5979C14.3149 2.11874 13.9541 1.71433 13.5042 1.43128C13.0543 1.14823 12.5335 0.998047 12.002 0.998047C11.4704 0.998047 10.9497 1.14823 10.4998 1.43128C10.0499 1.71433 9.68909 2.11874 9.459 2.5979L1.343 18.5629C0.371996 20.4689 1.599 22.9999 3.885 22.9999H20.118C22.405 22.9999 23.63 20.4699 22.661 18.5629L14.545 2.5979ZM12.002 7.9999C12.2672 7.9999 12.5216 8.10526 12.7091 8.2928C12.8966 8.48033 13.002 8.73469 13.002 8.9999V13.9999C13.002 14.2651 12.8966 14.5195 12.7091 14.707C12.5216 14.8945 12.2672 14.9999 12.002 14.9999C11.7368 14.9999 11.4824 14.8945 11.2949 14.707C11.1074 14.5195 11.002 14.2651 11.002 13.9999V8.9999C11.002 8.73469 11.1074 8.48033 11.2949 8.2928C11.4824 8.10526 11.7368 7.9999 12.002 7.9999ZM12.002 16.4999C12.2672 16.4999 12.5216 16.6053 12.7091 16.7928C12.8966 16.9803 13.002 17.2347 13.002 17.4999V17.9999C13.002 18.2651 12.8966 18.5195 12.7091 18.707C12.5216 18.8945 12.2672 18.9999 12.002 18.9999C11.7368 18.9999 11.4824 18.8945 11.2949 18.707C11.1074 18.5195 11.002 18.2651 11.002 17.9999V17.4999C11.002 17.2347 11.1074 16.9803 11.2949 16.7928C11.4824 16.6053 11.7368 16.4999 12.002 16.4999Z" fill="white"/>
</svg>
