<svg width="141" height="139" viewBox="0 0 141 139" fill="none" xmlns="http://www.w3.org/2000/svg">
<rect x="12.6172" y="18.5273" width="115.07" height="119.621" rx="2" fill="white"/>
<rect x="19.1172" y="36.4062" width="102.068" height="30.2302" rx="2" fill="#E7EEF6"/>
<rect x="19.1172" y="72.6367" width="102.068" height="22.754" rx="2" fill="#E7EEF6"/>
<rect x="27.2422" y="106.293" width="23.4041" height="3.25056" fill="#E7EEF6"/>
<rect x="58.4453" y="106.293" width="23.4041" height="3.25056" fill="#E7EEF6"/>
<rect x="89.6562" y="106.293" width="23.4041" height="3.25056" fill="#E7EEF6"/>
<rect x="27.2422" y="113.443" width="23.4041" height="3.25056" fill="#E7EEF6"/>
<rect x="58.4453" y="113.443" width="23.4041" height="3.25056" fill="#E7EEF6"/>
<rect x="89.6562" y="113.443" width="23.4041" height="3.25056" fill="#E7EEF6"/>
<rect x="27.2422" y="120.596" width="23.4041" height="3.25056" fill="#E7EEF6"/>
<rect x="58.4453" y="120.596" width="23.4041" height="3.25056" fill="#E7EEF6"/>
<rect x="89.6562" y="120.596" width="23.4041" height="3.25056" fill="#E7EEF6"/>
<path d="M19.1183 18.5273C15.5278 18.5273 12.6172 21.438 12.6172 25.0285V29.9043H127.687V25.0285C127.687 21.438 124.777 18.5273 121.186 18.5273H19.1183Z" fill="#1C254F"/>
<path fill-rule="evenodd" clip-rule="evenodd" d="M119.929 115.71L127.779 117.813L126.938 120.953L115.948 118.009L118.893 107.019L122.033 107.861L119.929 115.71Z" fill="#DE5570"/>
<path d="M86.6828 46.1582H66.5746H53.4552C52.5678 46.1582 51.8484 46.8776 51.8484 47.765C51.8484 53.9768 46.8127 59.0124 40.6009 59.0124H35.375V87.0921C39.4684 113.25 60.5427 126.612 70.5682 130.023C99.2219 117.443 105.637 96.1608 105.262 87.0921V59.0124H99.537C93.3252 59.0124 88.2895 53.9768 88.2895 47.765C88.2895 46.8776 87.5702 46.1582 86.6828 46.1582Z" fill="url(#paint0_linear_2474_181)"/>
<path d="M84.6778 51.2754H67.0145H55.49C54.7109 51.2754 54.0793 51.907 54.0793 52.6861C54.0793 58.1399 49.6581 62.5611 44.2043 62.5611H39.6094V87.2144C43.2049 110.18 61.7162 121.912 70.5224 124.906C95.6912 113.862 101.326 95.1765 100.997 87.2144V62.5611H95.9635C90.5097 62.5611 86.0885 58.1399 86.0885 52.6861C86.0885 51.907 85.4569 51.2754 84.6778 51.2754Z" fill="#C6425C"/>
<path d="M70.8047 124.78V51.2754H84.6735C85.4526 51.2754 86.0842 51.907 86.0842 52.6861C86.0842 58.1399 90.5054 62.5611 95.9592 62.5611H100.993V87.2144C101.32 95.1461 95.7298 113.72 70.8047 124.78Z" fill="#E07087"/>
<g clip-path="url(#clip0_2474_181)">
<path d="M83.921 88.9899C82.3326 87.4002 80.1284 86.7267 77.2977 87.4854L67.2038 77.3812L67.3372 76.8768C67.9186 74.6955 67.2904 72.3508 65.6984 70.7588C64.0774 69.1365 61.773 68.5413 59.5936 69.14C59.2828 69.2253 59.0409 69.4695 58.9585 69.7811C58.8762 70.0928 58.9665 70.424 59.1943 70.652L61.6247 73.0824C62.3353 73.7947 62.3284 74.9355 61.6265 75.6392C60.9302 76.3374 59.7597 76.3363 59.0662 75.6409L56.6353 73.2098C56.4073 72.9818 56.0751 72.8923 55.7635 72.9752C55.4518 73.0579 55.2085 73.3004 55.1235 73.6115C54.5335 75.767 55.1139 78.0857 56.7426 79.7145C58.3304 81.3034 60.5318 81.9793 63.3642 81.2191L73.4589 91.3232C72.7055 94.1531 73.3554 96.3358 74.9652 97.9457C76.5882 99.5699 78.8937 100.161 81.0684 99.5641C81.3792 99.4788 81.6212 99.2345 81.7036 98.9229C81.786 98.6112 81.6958 98.2799 81.4678 98.0519L79.0379 95.622C78.3274 94.9097 78.3343 93.7689 79.0362 93.0652C79.7412 92.3639 80.909 92.375 81.5965 93.0643L84.0276 95.4948C84.2555 95.7227 84.5877 95.8121 84.8993 95.7293C85.2109 95.6465 85.4542 95.4041 85.5393 95.0931C86.1292 92.938 85.549 90.6186 83.921 88.9899Z" fill="white" fill-opacity="0.95"/>
<path d="M64.5657 84.9902L55.9414 93.6156C54.53 95.027 54.53 97.3222 55.9414 98.7335C57.3527 100.145 59.6479 100.145 61.0592 98.7335L69.6834 90.1084L64.5657 84.9902ZM60.2093 95.9259C59.8559 96.2793 59.2835 96.2793 58.9301 95.9259C58.5767 95.5725 58.5767 95 58.9301 94.6466L64.4174 89.1583C64.7707 88.8049 65.3433 88.8049 65.6966 89.1583C66.05 89.5117 66.05 90.0842 65.6966 90.4375L60.2093 95.9259Z" fill="white" fill-opacity="0.95"/>
<path d="M85.4938 70.7368L83.9341 69.1771C83.6406 68.8836 83.185 68.8275 82.8291 69.0409L78.0313 71.9193C77.5265 72.2221 77.4408 72.9185 77.857 73.3348L78.2389 73.7165L72.1484 79.7821L74.7078 82.3415L80.7983 76.2759L81.3362 76.814C81.7524 77.2301 82.4489 77.1444 82.7517 76.6396L85.63 71.8419C85.8434 71.4859 85.7873 71.0303 85.4938 70.7368Z" fill="white" fill-opacity="0.95"/>
</g>
<circle cx="20.7425" cy="24.055" r="1.62528" fill="#F3F8FE"/>
<circle cx="27.2503" cy="24.055" r="1.62528" fill="#F3F8FE"/>
<circle cx="33.7425" cy="24.055" r="1.62528" fill="#F3F8FE"/>
<path fill-rule="evenodd" clip-rule="evenodd" d="M70.1528 3.25056C33.3504 3.25056 3.51619 33.0848 3.51619 69.8871C3.51619 83.0901 7.35428 95.3916 13.975 105.743L11.2367 107.494C4.29145 96.6358 0.265625 83.7291 0.265625 69.8871C0.265625 31.2895 31.5552 0 70.1528 0C108.75 0 140.04 31.2895 140.04 69.8871C140.04 88.4974 132.764 105.412 120.904 117.935L118.544 115.699C129.855 103.756 136.789 87.6332 136.789 69.8871C136.789 33.0848 106.955 3.25056 70.1528 3.25056Z" fill="url(#paint1_linear_2474_181)"/>
<defs>
<linearGradient id="paint0_linear_2474_181" x1="105.277" y1="46.1582" x2="35.375" y2="130.268" gradientUnits="userSpaceOnUse">
<stop stop-color="#D25770"/>
<stop offset="0.496032" stop-color="#E9617C"/>
<stop offset="1" stop-color="#BD324D"/>
</linearGradient>
<linearGradient id="paint1_linear_2474_181" x1="140.04" y1="4.88368e-06" x2="52.92" y2="149.055" gradientUnits="userSpaceOnUse">
<stop stop-color="#D25770"/>
<stop offset="0.496032" stop-color="#E9617C"/>
<stop offset="1" stop-color="#BD324D"/>
</linearGradient>
<clipPath id="clip0_2474_181">
<rect width="30.8804" height="30.8804" fill="white" transform="translate(54.8828 68.9121)"/>
</clipPath>
</defs>
</svg>
