<svg width="24" height="24" viewBox="0 0 24 24" fill="none" xmlns="http://www.w3.org/2000/svg">
<g clip-path="url(#clip0_2474_123)">
<path d="M5.71873 15.5625C5.71873 10.1347 10.1346 5.71875 15.5625 5.71875C15.6214 5.71875 15.6802 5.71931 15.7389 5.72039C16.0789 5.72667 16.3091 5.37492 16.1729 5.0633C14.8711 2.08298 11.8977 4.26333e-10 8.43753 4.26333e-10C3.77159 -4.68746e-05 -0.0501737 3.86531 0.000498143 8.53097C0.0235606 10.6562 0.832764 12.5926 2.15051 14.064C1.40342 14.0957 0.807123 14.71 0.804826 15.4644C0.802436 16.2403 1.46548 16.875 2.2415 16.875H5.285C5.55978 16.875 5.77409 16.6399 5.75169 16.366C5.72984 16.0998 5.71873 15.8317 5.71873 15.5625Z" fill="#467BEF"/>
<path d="M21.8495 21.189C23.1865 19.696 24 17.7244 24 15.5625C24 10.9026 20.2224 7.125 15.5625 7.125C10.9026 7.125 7.125 10.9026 7.125 15.5625C7.125 19.9055 10.4064 23.4815 14.625 23.9479V24H21.789C22.5656 24 23.1952 23.3704 23.1952 22.5938C23.1952 21.8374 22.598 21.2208 21.8495 21.189ZM11.8125 16.5C11.2947 16.5 10.875 16.0803 10.875 15.5625C10.875 15.0447 11.2947 14.625 11.8125 14.625C12.3303 14.625 12.75 15.0447 12.75 15.5625C12.75 16.0803 12.3303 16.5 11.8125 16.5ZM15.5625 16.5C15.0447 16.5 14.625 16.0803 14.625 15.5625C14.625 15.0447 15.0447 14.625 15.5625 14.625C16.0803 14.625 16.5 15.0447 16.5 15.5625C16.5 16.0803 16.0803 16.5 15.5625 16.5ZM19.3125 16.5C18.7947 16.5 18.375 16.0803 18.375 15.5625C18.375 15.0447 18.7947 14.625 19.3125 14.625C19.8303 14.625 20.25 15.0447 20.25 15.5625C20.25 16.0803 19.8303 16.5 19.3125 16.5Z" fill="#467BEF"/>
</g>
<defs>
<clipPath id="clip0_2474_123">
<rect width="24" height="24" fill="white"/>
</clipPath>
</defs>
</svg>
