<svg width="16" height="16" viewBox="0 0 16 16" fill="none" xmlns="http://www.w3.org/2000/svg">
<g clip-path="url(#clip0_1681_666)">
<path d="M15.355 3.64501L12.355 0.645008C12.3083 0.598668 12.2529 0.562005 12.192 0.537123C12.131 0.51224 12.0658 0.499628 12 0.500008H11V4.50001C11 4.76523 10.8946 5.01958 10.7071 5.20712C10.5196 5.39465 10.2652 5.50001 10 5.50001H6C5.73478 5.50001 5.48043 5.39465 5.29289 5.20712C5.10536 5.01958 5 4.76523 5 4.50001V0.500008H2C1.60218 0.500008 1.22064 0.658044 0.93934 0.939348C0.658035 1.22065 0.5 1.60218 0.5 2.00001V14C0.5 14.3978 0.658035 14.7794 0.93934 15.0607C1.22064 15.342 1.60218 15.5 2 15.5H3V11C3 10.6022 3.15804 10.2207 3.43934 9.93935C3.72064 9.65804 4.10218 9.50001 4.5 9.50001H11.5C11.8978 9.50001 12.2794 9.65804 12.5607 9.93935C12.842 10.2207 13 10.6022 13 11V15.5H14C14.3978 15.5 14.7794 15.342 15.0607 15.0607C15.342 14.7794 15.5 14.3978 15.5 14V4.00001C15.5004 3.93421 15.4878 3.86897 15.4629 3.80806C15.438 3.74714 15.4013 3.69173 15.355 3.64501Z" fill="white"/>
<path d="M6 0.5H10V4.5H6V0.5Z" fill="white"/>
<path d="M11.5 10.5H4.5C4.36739 10.5 4.24021 10.5527 4.14645 10.6464C4.05268 10.7402 4 10.8674 4 11V15.5H12V11C12 10.8674 11.9473 10.7402 11.8536 10.6464C11.7598 10.5527 11.6326 10.5 11.5 10.5Z" fill="white"/>
</g>
<defs>
<clipPath id="clip0_1681_666">
<rect width="16" height="16" fill="white"/>
</clipPath>
</defs>
</svg>
