<svg width="1416" height="300" viewBox="0 0 472 100" fill="none" xmlns="http://www.w3.org/2000/svg">
<path d="M141.978 68.3286H132.583L127.317 48.0682C127.124 47.3423 126.796 45.8569 126.325 43.5956C125.854 41.3342 125.584 39.8156 125.483 39.0395C125.382 39.9908 125.102 41.5178 124.642 43.6206C124.182 45.7234 123.854 47.2227 123.658 48.1183L118.418 68.3286H109.123L99.2061 29.7521H107.315L112.294 50.8136C113.163 54.7076 113.792 58.076 114.178 60.9187C114.285 59.9174 114.529 58.3653 114.91 56.2625C115.292 54.1597 115.65 52.5269 115.987 51.3643L121.656 29.7521H129.445L135.115 51.3643C135.361 52.3322 135.67 53.8092 136.04 55.7952C136.418 57.7895 136.696 59.4918 136.881 60.9187C137.058 59.5419 137.335 57.8312 137.722 55.7869C138.109 53.7425 138.462 52.0819 138.782 50.7802L143.728 29.7188H151.845L141.978 68.3286Z" fill="#0A0641"/>
<path d="M183.623 41.7905C183.623 45.9461 182.317 49.1225 179.704 51.3199C177.091 53.5173 173.373 54.6299 168.55 54.6577H165.009V68.3342H156.766V29.7578H169.181C173.903 29.7578 177.491 30.7647 179.948 32.7785C182.404 34.7923 183.629 37.7963 183.623 41.7905ZM165.009 47.9153H167.717C170.241 47.9153 172.15 47.4147 173.412 46.4217C174.05 45.8979 174.554 45.2317 174.883 44.4775C175.212 43.7234 175.357 42.9027 175.305 42.0826C175.369 41.3031 175.261 40.519 174.988 39.7853C174.714 39.0516 174.283 38.3861 173.723 37.8352C172.663 36.9174 171.015 36.4668 168.76 36.4668H165.009V47.9153Z" fill="#0A0641"/>
<path d="M221.633 36.0092C220.235 35.9474 218.844 36.2325 217.585 36.8386C216.327 37.4448 215.24 38.3528 214.425 39.4805C212.742 41.7947 211.901 45.0157 211.901 49.1434C211.901 57.7438 215.154 62.0467 221.658 62.0523C225.058 61.923 228.412 61.235 231.584 60.0162V66.8754C228.187 68.2389 224.549 68.9142 220.885 68.8614C215.232 68.8614 210.906 67.1591 207.906 63.7546C204.906 60.35 203.4 55.463 203.389 49.0933C203.307 45.4599 204.061 41.8556 205.593 38.5543C206.962 35.6544 209.185 33.234 211.969 31.6117C214.911 29.9569 218.251 29.1235 221.633 29.2002C225.579 29.2472 229.464 30.1771 232.997 31.9205L230.331 38.596C228.902 37.9241 227.439 37.3253 225.948 36.802C224.565 36.2993 223.106 36.0313 221.633 36.0092Z" fill="#0A0641"/>
<path d="M266.216 53.5298C266.216 58.3362 264.941 62.094 262.389 64.8032C259.838 67.5123 256.282 68.8669 251.723 68.8669C249.078 68.9218 246.466 68.2797 244.153 67.0061C241.964 65.7711 240.204 63.9059 239.106 61.6573C237.888 59.1217 237.286 56.3381 237.348 53.5298C237.348 48.7123 238.615 44.9656 241.15 42.2898C243.674 39.6196 247.248 38.2845 251.85 38.2845C254.492 38.23 257.103 38.866 259.42 40.1286C261.602 41.3534 263.361 43.2031 264.467 45.4357C265.684 47.9595 266.283 50.7328 266.216 53.5298ZM245.65 53.5298C245.65 56.4504 246.135 58.6589 247.105 60.1553C248.076 61.6517 249.649 62.4 251.824 62.4C253.989 62.4 255.545 61.6573 256.493 60.172C257.443 58.6867 257.914 56.467 257.914 53.4964C257.914 50.5258 257.435 48.3896 256.484 46.9293C255.534 45.4691 253.961 44.7431 251.774 44.7431C249.587 44.7431 248.048 45.4691 247.089 46.9126C246.13 48.3562 245.617 50.5925 245.617 53.5298H245.65Z" fill="#0A0641"/>
<path d="M299.541 68.3316H291.432V51.1087C291.545 49.4426 291.171 47.7795 290.355 46.319C289.981 45.7869 289.475 45.3598 288.885 45.079C288.296 44.7983 287.643 44.6735 286.991 44.7168C286.101 44.6536 285.211 44.8313 284.416 45.2311C283.62 45.6309 282.949 46.2376 282.474 46.9865C281.532 48.4969 281.061 50.9918 281.061 54.4965V68.3316H272.952V38.834H279.151L280.236 42.6057H280.691C281.508 41.2362 282.709 40.1317 284.148 39.4264C285.762 38.6415 287.541 38.2496 289.338 38.2832C293.79 38.2832 296.804 39.7241 298.38 42.6057H299.095C299.918 41.214 301.147 40.1026 302.619 39.4181C304.255 38.6449 306.048 38.2566 307.86 38.2832C311.224 38.2832 313.773 39.1399 315.506 40.8533C317.238 42.5667 318.102 45.3148 318.096 49.0977V68.2899H309.954V51.1087C310.071 49.4423 309.697 47.7781 308.877 46.319C308.505 45.7851 307.999 45.3566 307.409 45.0757C306.819 44.7947 306.166 44.6711 305.513 44.7168C304.651 44.6616 303.789 44.8268 303.01 45.1964C302.231 45.566 301.561 46.1278 301.063 46.828C300.082 48.241 299.588 50.4662 299.583 53.5035L299.541 68.3316Z" fill="#0A0641"/>
<path d="M342.732 68.866C341.157 68.9335 339.589 68.6255 338.159 67.9678C336.729 67.3101 335.479 66.3219 334.514 65.086H334.093C334.371 67.5893 334.514 68.9745 334.514 69.3667V81.3159H326.405V38.8343H333L334.144 42.6644H334.514C335.397 41.2586 336.642 40.1116 338.12 39.3416C339.599 38.5716 341.257 38.2064 342.925 38.2836C344.529 38.2231 346.122 38.5599 347.561 39.2636C349 39.9672 350.24 41.0156 351.168 42.3139C353.154 45.0064 354.146 48.7447 354.146 53.5289C354.219 56.3301 353.754 59.1195 352.775 61.7482C352.001 63.863 350.617 65.7055 348.796 67.0469C347.022 68.279 344.897 68.9164 342.732 68.866ZM340.343 44.7171C338.333 44.7171 336.877 45.3346 335.952 46.5529C335.027 47.7712 334.548 49.7906 334.514 52.611V53.4454C334.514 56.6163 334.993 58.8777 335.935 60.2545C336.448 60.9508 337.131 61.5056 337.92 61.8663C338.709 62.2271 339.578 62.3817 340.444 62.3156C344.089 62.3156 345.909 59.3422 345.903 53.3954C345.903 50.4915 345.449 48.3136 344.557 46.8617C344.117 46.1581 343.493 45.5868 342.75 45.2089C342.008 44.8311 341.176 44.6611 340.343 44.7171Z" fill="#0A0641"/>
<path d="M377.473 38.2837C378.392 38.2661 379.311 38.3444 380.215 38.5173L379.601 46.069C378.817 45.8733 378.011 45.7835 377.203 45.802C375.007 45.6706 372.843 46.3782 371.156 47.7797C370.414 48.4945 369.836 49.3593 369.462 50.3154C369.087 51.2715 368.925 52.2964 368.985 53.3204V68.3404H360.852V38.8344H366.992L368.195 43.8411H368.59C369.48 42.2211 370.764 40.8472 372.325 39.8441C373.845 38.8256 375.638 38.2822 377.473 38.2837Z" fill="#0A0641"/>
<path d="M398.533 68.8715C393.744 68.8715 390.004 67.5587 387.313 64.9329C384.621 62.3072 383.272 58.5967 383.267 53.8014C383.267 48.8615 384.514 45.0397 387.01 42.3361C389.505 39.6325 392.948 38.2835 397.339 38.2891C401.545 38.2891 404.817 39.4768 407.155 41.8522C409.494 44.2276 410.663 47.5069 410.663 51.6903V55.5955H391.485C391.463 57.5641 392.197 59.4672 393.537 60.9193C394.253 61.5871 395.099 62.1026 396.024 62.4341C396.948 62.7655 397.931 62.906 398.912 62.8468C400.61 62.8546 402.304 62.667 403.959 62.2877C405.682 61.8765 407.357 61.2864 408.955 60.5271V66.7604C407.513 67.4697 405.987 67.9968 404.413 68.3291C402.477 68.7095 400.507 68.8913 398.533 68.8715ZM397.398 44.0134C396.645 43.974 395.893 44.0985 395.194 44.3782C394.495 44.6578 393.866 45.0859 393.352 45.6322C392.288 46.9379 391.696 48.5596 391.67 50.2383H403.05C403.129 48.5614 402.567 46.9168 401.477 45.6322C400.953 45.0895 400.318 44.6643 399.614 44.3851C398.911 44.1059 398.155 43.9792 397.398 44.0134Z" fill="#0A0641"/>
<path d="M438.01 59.5831C438.01 62.6038 436.95 64.9068 434.83 66.4923C432.71 68.0777 429.542 68.8704 425.325 68.8704C423.47 68.895 421.617 68.7469 419.79 68.4282C418.326 68.1593 416.896 67.7312 415.526 67.1515V60.4759C417.146 61.2341 418.836 61.8349 420.573 62.27C422.197 62.708 423.869 62.9462 425.552 62.9793C428.496 62.9793 429.968 62.1448 429.968 60.4759C429.98 60.1932 429.935 59.911 429.835 59.6458C429.736 59.3807 429.583 59.138 429.388 58.9322C428.792 58.3895 428.12 57.9342 427.394 57.5804C426.447 57.0686 425.171 56.4817 423.567 55.8197C421.783 55.1468 420.089 54.2614 418.52 53.1829C417.521 52.4629 416.717 51.5081 416.182 50.4042C415.658 49.1813 415.409 47.8603 415.45 46.5323C415.398 45.3431 415.653 44.1604 416.19 43.096C416.727 42.0316 417.529 41.1206 418.52 40.4492C420.564 39.0223 423.474 38.3047 427.226 38.3047C430.84 38.3091 434.41 39.101 437.682 40.6244L435.234 46.4656C433.742 45.8314 432.34 45.3113 431.028 44.9052C429.746 44.5039 428.41 44.2985 427.066 44.296C424.672 44.296 423.474 44.9385 423.474 46.2236C423.491 46.6076 423.606 46.9811 423.807 47.3093C424.009 47.6376 424.291 47.91 424.627 48.1011C426.236 49.0284 427.925 49.813 429.674 50.4459C431.506 51.0856 433.251 51.946 434.872 53.0076C435.881 53.7373 436.7 54.6958 437.261 55.803C437.794 56.9912 438.049 58.2833 438.01 59.5831Z" fill="#0A0641"/>
<path d="M465.085 59.5841C465.085 62.6048 464.025 64.9079 461.905 66.4933C459.786 68.0788 456.617 68.8715 452.4 68.8715C450.546 68.8961 448.692 68.748 446.866 68.4292C445.395 68.1616 443.959 67.7334 442.584 67.1525V60.477C444.221 61.2296 445.928 61.8221 447.681 62.246C449.306 62.684 450.978 62.9222 452.661 62.9553C455.605 62.9553 457.077 62.1208 457.077 60.4519C457.089 60.1692 457.044 59.887 456.944 59.6218C456.845 59.3567 456.692 59.1141 456.497 58.9082C455.889 58.3717 455.206 57.9248 454.469 57.5815C453.522 57.0697 452.246 56.4828 450.642 55.8208C448.859 55.1479 447.164 54.2625 445.595 53.1839C444.603 52.4562 443.808 51.4957 443.282 50.3885C442.759 49.1657 442.509 47.8446 442.551 46.5167C442.499 45.3274 442.754 44.1447 443.291 43.0803C443.828 42.0159 444.63 41.105 445.621 40.4336C447.665 39.0067 450.575 38.2891 454.327 38.2891C457.941 38.2935 461.51 39.0854 464.782 40.6088L462.334 46.4499C460.848 45.8158 459.446 45.2956 458.128 44.8895C456.865 44.4763 455.547 44.254 454.217 44.2303C451.817 44.2303 450.62 44.8728 450.625 46.1579C450.642 46.5419 450.757 46.9154 450.958 47.2436C451.16 47.5719 451.442 47.8443 451.778 48.0354C453.387 48.9627 455.076 49.7473 456.825 50.3802C458.627 51.0425 460.341 51.9196 461.93 52.992C462.939 53.7274 463.755 54.6917 464.311 55.8041C464.856 56.989 465.121 58.282 465.085 59.5841Z" fill="#0A0641"/>
<path d="M43.1502 93.3701C80.3372 82.3637 78.4783 52.6324 78.4783 44.0126V20.3393L43.1502 6.07031L7.82213 20.3393V44.0126C7.80531 52.6324 5.95479 82.3637 43.1502 93.3701Z" fill="#5CB1FF"/>
<path d="M43.1504 95.9607L42.427 95.7437C4.95404 84.6873 5.18956 54.9393 5.27368 45.168C5.27368 44.7507 5.27368 44.3335 5.27368 44.0164V18.6576L43.1252 3.37891L80.9767 18.6576V44.0164C80.9767 44.3669 80.9767 44.7507 80.9767 45.168C81.0524 54.9393 81.2963 84.6873 43.8233 95.7771L43.1504 95.9607ZM10.3458 21.9954V44.0164C10.3458 44.3752 10.3458 44.7758 10.3458 45.2097C10.2617 54.9143 10.0598 80.5902 43.1504 90.7621C76.2663 80.5902 76.056 54.8809 75.9551 45.2097C75.9551 44.7758 75.9551 44.3752 75.9551 44.0164V22.0288L43.1504 8.77777L10.3458 21.9954Z" fill="#87CCFF"/>
<path d="M43.1484 17.7891V44.8668H62.5031L41.8278 80.456V55.4726H21.8506L43.1484 17.7891Z" fill="white"/>
</svg>
