<svg width="16" height="15" viewBox="0 0 16 15" fill="none" xmlns="http://www.w3.org/2000/svg">
<path d="M15.8423 7.45116C15.6484 7.27978 15.3521 7.29821 15.1807 7.49218L15.1732 7.50073V7.17223C15.1732 5.25646 14.4271 3.45532 13.0723 2.10058C11.7177 0.745971 9.91657 0 8.0008 0C6.84357 0 5.69367 0.282226 4.67524 0.816039C3.68989 1.33252 2.82502 2.08386 2.17414 2.98901C2.02302 3.19909 2.07087 3.49206 2.28107 3.64319C2.49128 3.79443 2.78425 3.74658 2.93537 3.53637C3.50153 2.74902 4.25373 2.09546 5.11054 1.64636C5.99518 1.18262 6.99457 0.937499 8.0008 0.937499C11.4387 0.937499 14.2357 3.73449 14.2357 7.17236V7.50085L14.228 7.4923C14.0566 7.29821 13.7603 7.2799 13.5663 7.45129C13.3723 7.62267 13.3539 7.91894 13.5253 8.11291L14.353 9.04992C14.442 9.15063 14.5699 9.20824 14.7043 9.20824C14.8387 9.20824 14.9666 9.15063 15.0556 9.04992L15.8832 8.11291C16.0547 7.91882 16.0364 7.62255 15.8423 7.45116V7.45116Z" fill="white"/>
<path d="M13.7197 10.6999C13.5095 10.5488 13.2167 10.5966 13.0654 10.8068C12.4993 11.594 11.7471 12.2476 10.8903 12.6968C10.0056 13.1605 9.00611 13.4056 8.00001 13.4056C4.56215 13.4056 1.76515 10.6086 1.76515 7.17077V6.84228L1.77284 6.85095C1.94423 7.04492 2.24049 7.06335 2.43446 6.89184C2.62855 6.72046 2.64686 6.42419 2.47548 6.23022L1.64784 5.29321C1.55873 5.1925 1.43092 5.13477 1.29652 5.13477C1.16213 5.13477 1.03407 5.1925 0.945206 5.29321L0.117448 6.23022C-0.0539381 6.42432 -0.0356276 6.72046 0.158464 6.89184C0.247575 6.9707 0.358293 7.0094 0.468644 7.0094C0.598283 7.0094 0.727433 6.95581 0.820084 6.85095L0.827653 6.84228V7.17077C0.827653 9.08667 1.57375 10.8877 2.92848 12.2424C4.28309 13.5972 6.08424 14.3431 8.00001 14.3431C9.15711 14.3431 10.3071 14.0609 11.3256 13.5271C12.3108 13.0106 13.1757 12.2591 13.8265 11.3541C13.9777 11.1439 13.9299 10.8511 13.7197 10.6999V10.6999Z" fill="white"/>
<path d="M3.37538 8.37145C3.34315 8.49145 3.36 8.61938 3.42225 8.72704L4.35975 10.3509C4.42189 10.4586 4.5243 10.5371 4.6443 10.5693C4.76442 10.6014 4.89235 10.5847 5.00001 10.5225L5.68934 10.1245C5.96461 10.3396 6.26966 10.5161 6.59266 10.6472V11.442C6.59266 11.7008 6.8025 11.9108 7.06141 11.9108H8.93641C9.1952 11.9108 9.40516 11.7008 9.40516 11.442V10.6472C9.72816 10.5161 10.0332 10.3396 10.3085 10.1245L10.9978 10.5225C11.1054 10.5846 11.2334 10.6014 11.3534 10.5693C11.4735 10.5371 11.5759 10.4586 11.6381 10.3509L12.5756 8.72704C12.6377 8.61938 12.6545 8.49145 12.6224 8.37145C12.5902 8.25134 12.5116 8.14892 12.4041 8.08679L11.7133 7.68798C11.7369 7.51684 11.7489 7.34362 11.7489 7.17041C11.7489 6.99511 11.7367 6.82019 11.7124 6.64709L12.4041 6.2478C12.5117 6.18567 12.5902 6.08325 12.6224 5.96313C12.6545 5.84301 12.6377 5.71508 12.5756 5.60742L11.6381 3.98364C11.5087 3.75952 11.2219 3.68274 10.9978 3.81213L10.304 4.21277C10.0298 3.99927 9.72633 3.82397 9.40516 3.6936V2.89258C9.40516 2.63379 9.19532 2.42383 8.93641 2.42383H7.06141C6.8025 2.42383 6.59266 2.63379 6.59266 2.89258V3.6936C6.27162 3.82397 5.96803 3.99927 5.69398 4.21277L5.00001 3.81213C4.77589 3.68262 4.48915 3.75952 4.35975 3.98364L3.42225 5.60742C3.36012 5.71508 3.34328 5.84314 3.37538 5.96313C3.40761 6.08325 3.4861 6.18567 3.59376 6.2478L4.28541 6.64709C4.26112 6.82019 4.24891 6.99511 4.24891 7.17041C4.24891 7.34362 4.26088 7.51672 4.28456 7.68798L3.59389 8.08679C3.4861 8.14892 3.40761 8.25134 3.37538 8.37145ZM7.99891 5.76416C8.77552 5.76416 9.40516 6.39379 9.40516 7.17041C9.40516 7.94702 8.77552 8.57665 7.99891 8.57665C7.22218 8.57665 6.59266 7.94702 6.59266 7.17041C6.59266 6.39379 7.2223 5.76416 7.99891 5.76416V5.76416Z" fill="white"/>
</svg>
