<svg width="62" height="77" viewBox="0 0 62 77" fill="none" xmlns="http://www.w3.org/2000/svg">
<path d="M30.9116 74.0254C61.2579 64.9716 59.7409 40.5147 59.7409 33.4241V13.9505L30.9116 2.21289L2.08224 13.9505V33.4241C2.06851 40.5147 0.558398 64.9716 30.9116 74.0254Z" fill="none"/>
<path d="M30.9165 76.1575L30.3262 75.979C-0.253469 66.8841 -0.061273 42.4134 0.00736831 34.3756C0.00736831 34.0323 0.00736831 33.6891 0.00736831 33.4283V12.5682L30.8959 0L61.7845 12.5682V33.4283C61.7845 33.7166 61.7845 34.0323 61.7845 34.3756C61.8463 42.4134 62.0453 66.8841 31.4657 76.0065L30.9165 76.1575ZM4.14644 15.3139V33.4283C4.14644 33.7235 4.14644 34.0529 4.14644 34.4099C4.0778 42.3929 3.91306 63.5138 30.9165 71.8811C57.9406 63.5138 57.769 42.3654 57.6866 34.4099C57.6866 34.0529 57.6866 33.7235 57.6866 33.4283V15.3413L30.9165 4.44109L4.14644 15.3139Z" fill="white"/>
<path d="M30.9229 11.8555V34.1296H46.7173L29.8453 63.4051V42.8539H13.543L30.9229 11.8555Z" fill="white"/>
</svg>
