<svg width="170" height="170" viewBox="0 0 170 170" fill="none" xmlns="http://www.w3.org/2000/svg">
<path d="M162.06 34.3204L43.5042 2.55352C39.5032 1.48145 35.3907 3.85582 34.3187 7.85682L2.55172 126.413C1.47966 130.414 3.85403 134.526 7.85502 135.598L126.411 167.365C130.412 168.437 134.524 166.063 135.596 162.062L167.363 43.506C168.435 39.505 166.061 35.3925 162.06 34.3204Z" stroke="#DEEFFF"/>
<path d="M72.9196 93.4192C70.32 92.7227 68.4906 90.3011 68.3697 87.3933L68.3671 87.176C68.3595 86.4125 68.4366 85.7928 68.5968 85.195L71.8085 73.2086L64.0545 86.3896C62.9868 88.3478 63.5596 90.8281 65.3417 91.9256L88.5001 105.934C88.79 106.106 89.0921 106.232 89.4007 106.314C91.0179 106.748 92.807 105.982 93.68 104.38L96.4924 99.7355L72.9196 93.4192Z" fill="#5CB1FF"/>
<path d="M82.3075 76.0244C84.4209 76.5907 86.5372 75.566 87.0265 73.7398C87.5158 71.9136 86.1954 69.9681 84.0821 69.4018C81.9687 68.8355 79.8521 69.8601 79.3627 71.6863C78.8734 73.5125 80.1942 75.4581 82.3075 76.0244Z" fill="#5CB1FF"/>
<path d="M105.339 69.7732L82.3474 63.6127C80.2355 63.0468 77.9867 64.5598 77.3372 66.9839L72.1524 86.3337C71.5029 88.7579 72.6939 91.1925 74.8058 91.7584L97.7971 97.9189C99.9093 98.4849 102.158 96.9719 102.808 94.5477L107.992 75.1979C108.642 72.7738 107.451 70.3391 105.339 69.7732ZM81.4047 67.131L104.396 73.2915C104.819 73.4049 105.057 73.8908 104.927 74.3765L101.581 86.8643L98.4762 79.0827C98.1478 78.2539 97.5034 77.6852 96.7105 77.4503C95.9151 77.2428 95.0619 77.4477 94.3654 78.0116L86.5714 84.3281L85.2858 81.7079C84.5599 80.224 82.8538 79.7668 81.4846 80.6894L75.9538 84.4092L80.4028 67.8053C80.5329 67.3196 80.9817 67.0176 81.4047 67.131Z" fill="#5CB1FF"/>
<path d="M126.413 2.55372L7.85682 34.3207C3.85582 35.3927 1.48145 39.5052 2.55352 43.5062L34.3204 162.062C35.3925 166.063 39.505 168.437 43.506 167.365L162.062 135.598C166.063 134.526 168.437 130.414 167.365 126.413L135.598 7.85702C134.526 3.85602 130.414 1.48166 126.413 2.55372Z" stroke="#DEEFFF"/>
<path d="M78.7589 98.3033C76.1593 98.9998 73.3641 97.8174 71.8056 95.3596L71.6947 95.1727C71.3063 94.5153 71.0633 93.9401 70.9031 93.3423L67.6913 81.3559L67.5667 96.648C67.6211 98.8777 69.3574 100.739 71.4495 100.799L98.5093 101.351C98.8462 101.355 99.1709 101.313 99.4795 101.23C101.097 100.797 102.263 99.239 102.218 97.4155L102.332 91.987L78.7589 98.3033Z" fill="#5CB1FF"/>
<path d="M78.2003 78.545C80.3137 77.9787 81.6341 76.0332 81.1448 74.207C80.6555 72.3808 78.5392 71.3561 76.4258 71.9224C74.3124 72.4887 72.9917 74.4343 73.481 76.2605C73.9703 78.0867 76.087 79.1113 78.2003 78.545Z" fill="#5CB1FF"/>
<path d="M95.0184 61.6175L72.0271 67.778C69.9152 68.3439 68.7242 70.7785 69.3737 73.2026L74.5585 92.5525C75.2081 94.9766 77.4568 96.4896 79.5687 95.9237L102.56 89.7632C104.672 89.1972 105.863 86.7626 105.214 84.3385L100.029 64.9886C99.3793 62.5645 97.1306 61.0515 95.0184 61.6175ZM72.9698 71.2963L95.9611 65.1358C96.3843 65.0224 96.8331 65.3243 96.9633 65.81L100.309 78.2979L93.7301 73.111C93.0313 72.5574 92.1888 72.3872 91.3847 72.5802C90.5921 72.7981 89.9557 73.4022 89.6345 74.2388L86.0429 83.6061L83.6194 81.9797C82.2488 81.0575 80.5427 81.5147 79.8182 82.9982L76.8883 88.9852L72.4393 72.3812C72.3092 71.8955 72.5469 71.4096 72.9698 71.2963Z" fill="#5CB1FF"/>
<path d="M146.347 15.6094H23.6094C19.1911 15.6094 15.6094 19.1911 15.6094 23.6094V146.347C15.6094 150.766 19.1911 154.347 23.6094 154.347H146.347C150.766 154.347 154.347 150.766 154.347 146.347V23.6094C154.347 19.1911 150.766 15.6094 146.347 15.6094Z" fill="#EFF7FF"/>
<g clip-path="url(#clip0_1_18)">
<path d="M70.9263 51.8368C76.9591 41.3877 92.0409 41.3877 98.0737 51.8368L127.877 103.457C133.91 113.906 126.369 126.967 114.303 126.967H54.6969C42.6314 126.967 35.0905 113.906 41.1232 103.457L70.9263 51.8368Z" fill="#6698F2"/>
<path d="M73.8669 59.654C78.5878 51.5008 90.3902 51.5008 95.1111 59.654L118.434 99.9328C123.155 108.086 117.253 118.278 107.812 118.278H61.1665C51.7246 118.278 45.8234 108.086 50.5444 99.9328L73.8669 59.654Z" fill="#DFEAFC"/>
<path d="M51.6641 98.003L73.87 59.654C78.5896 51.5008 90.3927 51.5008 95.1123 59.654L109.742 84.9178C102.377 96.7632 89.2454 104.648 74.2693 104.648C65.9374 104.648 58.1778 102.208 51.6641 98.003Z" fill="#D3E1F8"/>
<path d="M84.6613 64.1016H84.6612C81.7115 64.1016 79.3203 66.4928 79.3203 69.4425V87.2457C79.3203 90.1954 81.7115 92.5866 84.6612 92.5866H84.6613C87.611 92.5866 90.0022 90.1954 90.0022 87.2457V69.4425C90.0022 66.4928 87.611 64.1016 84.6613 64.1016Z" fill="#6698F2"/>
<path d="M84.6613 97.0371H84.6612C81.7115 97.0371 79.3203 99.4283 79.3203 102.378V102.378C79.3203 105.328 81.7115 107.719 84.6612 107.719H84.6613C87.611 107.719 90.0022 105.328 90.0022 102.378V102.378C90.0022 99.4283 87.611 97.0371 84.6613 97.0371Z" fill="#6698F2"/>
</g>
<defs>
<clipPath id="clip0_1_18">
<rect width="91" height="83" fill="white" transform="translate(39 44)"/>
</clipPath>
</defs>
</svg>
