<svg width="12" height="12" viewBox="0 0 12 12" fill="none" xmlns="http://www.w3.org/2000/svg">
<g clip-path="url(#clip0_1487_230)">
<path fill-rule="evenodd" clip-rule="evenodd" d="M7.2725 1.29993C7.15745 1.06035 6.97706 0.858141 6.7521 0.716615C6.52714 0.575089 6.26677 0.5 6.001 0.5C5.73522 0.5 5.47486 0.575089 5.2499 0.716615C5.02494 0.858141 4.84455 1.06035 4.7295 1.29993L0.671498 9.28243C0.185998 10.2354 0.799498 11.5009 1.9425 11.5009H10.059C11.2025 11.5009 11.815 10.2359 11.3305 9.28243L7.2725 1.29993ZM6.001 4.00093C6.13361 4.00093 6.26078 4.05361 6.35455 4.14737C6.44832 4.24114 6.501 4.36832 6.501 4.50093V7.00093C6.501 7.13354 6.44832 7.26071 6.35455 7.35448C6.26078 7.44825 6.13361 7.50093 6.001 7.50093C5.86839 7.50093 5.74121 7.44825 5.64744 7.35448C5.55368 7.26071 5.501 7.13354 5.501 7.00093V4.50093C5.501 4.36832 5.55368 4.24114 5.64744 4.14737C5.74121 4.05361 5.86839 4.00093 6.001 4.00093ZM6.001 8.25093C6.13361 8.25093 6.26078 8.30361 6.35455 8.39737C6.44832 8.49114 6.501 8.61832 6.501 8.75093V9.00093C6.501 9.13354 6.44832 9.26071 6.35455 9.35448C6.26078 9.44825 6.13361 9.50093 6.001 9.50093C5.86839 9.50093 5.74121 9.44825 5.64744 9.35448C5.55368 9.26071 5.501 9.13354 5.501 9.00093V8.75093C5.501 8.61832 5.55368 8.49114 5.64744 8.39737C5.74121 8.30361 5.86839 8.25093 6.001 8.25093Z" fill="#F4F6F8"/>
</g>
<defs>
<clipPath id="clip0_1487_230">
<rect width="12" height="12" fill="white"/>
</clipPath>
</defs>
</svg>
