<svg width="64" height="99" viewBox="0 0 64 99" fill="none" xmlns="http://www.w3.org/2000/svg">
<path d="M0 33.3291V72.2538C0 74.3755 0.842854 76.4104 2.34315 77.9107C3.84344 79.411 5.87827 80.2538 8 80.2538H56C58.1217 80.2538 60.1566 79.411 61.6569 77.9107C61.9735 77.594 62.2608 77.2536 62.5171 76.8936C25.039 67.8731 7.9324 49.7173 0 33.3291Z" fill="#D1E3FA"/>
<path d="M56 80.2535H8C5.87827 80.2535 3.84344 79.4107 2.34315 77.9104C0.842854 76.4101 0 74.3753 0 72.2535V8.25352C0 6.13179 0.842854 4.09696 2.34315 2.59667C3.84344 1.09637 5.87827 0.25352 8 0.25352H36C36.0358 0.248827 36.0722 0.248827 36.108 0.25352H36.132C36.1698 0.265326 36.2086 0.273366 36.248 0.27752C36.6 0.30152 36.948 0.369519 37.284 0.481519H37.452C37.5258 0.533195 37.5954 0.590713 37.66 0.653519C38.0957 0.847291 38.4928 1.11833 38.832 1.45352L62.832 25.4535C63.1673 25.7927 63.4383 26.1897 63.632 26.6255C63.6668 26.712 63.6975 26.8001 63.724 26.8895L63.764 27.0015C63.876 27.3335 63.94 27.6815 63.96 28.0335C63.9635 28.0734 63.9729 28.1125 63.988 28.1495V28.1735C63.9944 28.1998 63.9984 28.2265 64 28.2535V72.2535C64 74.3753 63.1571 76.4101 61.6569 77.9104C60.1566 79.4107 58.1217 80.2535 56 80.2535Z" fill="#19335B"/>
<path d="M32.2361 62.3274C32.2121 63.5114 32.4881 64.6874 33.0361 65.7354C33.5438 66.6691 34.3069 67.4391 35.2361 67.9554C36.1841 68.4714 37.2441 68.7354 38.3241 68.7274C39.7881 68.8034 41.2201 68.2874 42.3001 67.2994C42.8044 66.7734 43.1952 66.1494 43.4484 65.4662C43.7016 64.7829 43.8118 64.0549 43.7721 63.3274C43.8147 61.9612 43.3916 60.6212 42.5721 59.5274C41.5725 58.3725 40.2868 57.5007 38.8441 56.9994C38.0822 56.6847 37.3851 56.2317 36.7881 55.6634C36.4193 55.2678 36.2123 54.7482 36.2081 54.2074C36.1748 53.6179 36.3599 53.0369 36.7281 52.5754C36.9068 52.3695 37.1301 52.2071 37.381 52.1003C37.6319 51.9936 37.9038 51.9454 38.1761 51.9594C38.4687 51.9426 38.7609 52.0002 39.0252 52.1268C39.2896 52.2534 39.5177 52.4448 39.6881 52.6834C40.0791 53.2992 40.264 54.0235 40.2161 54.7514H43.7721C43.7893 53.6694 43.5537 52.5983 43.0841 51.6234C42.6609 50.7383 41.9843 49.999 41.1401 49.4994C40.2666 48.9817 39.2674 48.7146 38.2521 48.7274C36.774 48.6811 35.3371 49.2185 34.2521 50.2234C33.728 50.7335 33.3175 51.3485 33.0474 52.0281C32.7772 52.7077 32.6534 53.4367 32.6841 54.1674C32.6582 55.4411 33.0673 56.6855 33.8441 57.6954C34.8761 58.8634 36.1841 59.7554 37.6481 60.2914C38.3921 60.5794 39.0721 61.0114 39.6481 61.5594C40.0521 62.0674 40.2481 62.7074 40.2041 63.3514C40.2041 64.7954 39.5761 65.5274 38.3441 65.5274C37.9851 65.5601 37.6234 65.5084 37.288 65.3764C36.9525 65.2445 36.6526 65.0359 36.4121 64.7674C35.9594 64.0351 35.7521 63.1776 35.8201 62.3194L32.2361 62.3274ZM19.7721 62.7274C19.6841 64.3074 20.1601 65.8634 21.1121 67.1274C22.0521 68.2074 23.4361 68.7994 24.8681 68.7274C26.2921 68.7594 27.6481 68.1274 28.5401 67.0194C29.5401 65.7194 30.0441 64.1074 29.9641 62.4714V48.9954H26.4161V62.2834C26.4161 64.3954 25.8961 65.4834 24.8681 65.4834C23.8401 65.4834 23.3361 64.5554 23.3361 62.7274H19.7721Z" fill="#5CB1FF"/>
<path d="M36.7031 9.19531V29.1953H56.7031L36.7031 9.19531Z" fill="#2F4971"/>
<g opacity="0.05" filter="url(#filter0_f_1467_4863)">
<ellipse cx="31" cy="91.5" rx="18" ry="3.5" fill="black"/>
</g>
<defs>
<filter id="filter0_f_1467_4863" x="9" y="84" width="44" height="15" filterUnits="userSpaceOnUse" color-interpolation-filters="sRGB">
<feFlood flood-opacity="0" result="BackgroundImageFix"/>
<feBlend mode="normal" in="SourceGraphic" in2="BackgroundImageFix" result="shape"/>
<feGaussianBlur stdDeviation="2" result="effect1_foregroundBlur_1467_4863"/>
</filter>
</defs>
</svg>
