<svg width="14" height="14" viewBox="0 0 14 14" fill="none" xmlns="http://www.w3.org/2000/svg">
<path d="M6.9987 4.66699V1.16699H3.4987C3.18928 1.16699 2.89253 1.28991 2.67374 1.5087C2.45495 1.72749 2.33203 2.02424 2.33203 2.33366V8.17749C2.54056 8.14734 2.75332 8.18246 2.9411 8.27802C3.12889 8.37358 3.2825 8.52491 3.38086 8.71124C3.5416 8.53929 3.73599 8.40223 3.95195 8.3086C4.16791 8.21498 4.40082 8.16677 4.6362 8.16699H4.69453C5.15092 8.16699 5.58863 8.34829 5.91134 8.67101C6.23406 8.99373 6.41536 9.43143 6.41536 9.88783V9.91699C6.41536 10.1795 6.3162 10.4187 6.15286 10.5995C6.32086 10.8556 6.41536 11.1595 6.41536 11.4786V11.6962C6.41536 12.1319 6.2532 12.5303 5.98603 12.8337H10.4987C10.8081 12.8337 11.1049 12.7107 11.3237 12.492C11.5424 12.2732 11.6654 11.9764 11.6654 11.667V5.83366H8.16536C7.85595 5.83366 7.5592 5.71074 7.34041 5.49195C7.12161 5.27316 6.9987 4.97641 6.9987 4.66699ZM7.8737 4.66699V1.45866L11.3737 4.95866H8.16536C8.08801 4.95866 8.01382 4.92793 7.95912 4.87323C7.90443 4.81853 7.8737 4.74435 7.8737 4.66699ZM2.47786 8.75033C2.5939 8.75033 2.70518 8.79642 2.78722 8.87847C2.86927 8.96051 2.91536 9.07179 2.91536 9.18783V11.667C2.91536 11.9764 2.79245 12.2732 2.57366 12.492C2.35486 12.7107 2.05812 12.8337 1.7487 12.8337C1.43928 12.8337 1.14253 12.7107 0.92374 12.492C0.704948 12.2732 0.582031 11.9764 0.582031 11.667V11.5212C0.582031 11.4051 0.628125 11.2938 0.710172 11.2118C0.792219 11.1298 0.903499 11.0837 1.01953 11.0837C1.13556 11.0837 1.24684 11.1298 1.32889 11.2118C1.41094 11.2938 1.45703 11.4051 1.45703 11.5212V11.667C1.45703 11.7443 1.48776 11.8185 1.54246 11.8732C1.59716 11.9279 1.67134 11.9587 1.7487 11.9587C1.82605 11.9587 1.90024 11.9279 1.95494 11.8732C2.00964 11.8185 2.04036 11.7443 2.04036 11.667V9.18783C2.04036 9.07179 2.08646 8.96051 2.16851 8.87847C2.25055 8.79642 2.36183 8.75033 2.47786 8.75033ZM4.6362 8.75033C4.33451 8.75033 4.04519 8.87017 3.83186 9.08349C3.61854 9.29681 3.4987 9.58614 3.4987 9.88783V10.0243C3.4987 10.3825 3.68711 10.715 3.99453 10.8993L4.88645 11.4348C4.90797 11.4478 4.92578 11.4661 4.93814 11.488C4.95051 11.5098 4.95702 11.5345 4.95703 11.5597V11.6962C4.95703 11.7658 4.92938 11.8325 4.88015 11.8818C4.83092 11.931 4.76415 11.9587 4.69453 11.9587H4.6362C4.56658 11.9587 4.49981 11.931 4.45058 11.8818C4.40135 11.8325 4.3737 11.7658 4.3737 11.6962V11.667C4.3737 11.551 4.3276 11.4397 4.24556 11.3576C4.16351 11.2756 4.05223 11.2295 3.9362 11.2295C3.82017 11.2295 3.70889 11.2756 3.62684 11.3576C3.54479 11.4397 3.4987 11.551 3.4987 11.667V11.6962C3.4987 11.9978 3.61854 12.2872 3.83186 12.5005C4.04519 12.7138 4.33451 12.8337 4.6362 12.8337H4.69453C4.99621 12.8337 5.28554 12.7138 5.49886 12.5005C5.71219 12.2872 5.83203 11.9978 5.83203 11.6962V11.5597C5.83195 11.3834 5.78624 11.2102 5.69935 11.0569C5.61246 10.9035 5.48735 10.7753 5.3362 10.6847L4.44428 10.1492C4.42276 10.1362 4.40495 10.1179 4.39259 10.096C4.38022 10.0741 4.37371 10.0495 4.3737 10.0243V9.88783C4.3737 9.81821 4.40135 9.75144 4.45058 9.70221C4.49981 9.65298 4.56658 9.62533 4.6362 9.62533H4.69453C4.76415 9.62533 4.83092 9.65298 4.88015 9.70221C4.92938 9.75144 4.95703 9.81821 4.95703 9.88783V9.91699C4.95703 10.033 5.00312 10.1443 5.08517 10.2264C5.16722 10.3084 5.2785 10.3545 5.39453 10.3545C5.51056 10.3545 5.62184 10.3084 5.70389 10.2264C5.78594 10.1443 5.83203 10.033 5.83203 9.91699V9.88783C5.83203 9.58614 5.71219 9.29681 5.49886 9.08349C5.28554 8.87017 4.99621 8.75033 4.69453 8.75033H4.6362Z" fill="white"/>
</svg>
