<svg width="11" height="11" viewBox="0 0 11 11" fill="none" xmlns="http://www.w3.org/2000/svg">
<path d="M7.23322 7.36376C7.25873 7.09565 7.25102 6.82853 7.21226 6.56774L7.81511 6.29904C7.75817 6.007 7.6686 5.71892 7.54443 5.44014C7.42026 5.16155 7.26604 4.90234 7.0873 4.66448L6.48406 4.93298C6.31619 4.72992 6.12282 4.54565 5.90651 4.3851L6.14299 3.769C5.89603 3.60291 5.62911 3.46253 5.3442 3.35319C5.06047 3.24425 4.76903 3.16892 4.47264 3.1272L4.23597 3.74389C3.96786 3.71838 3.70074 3.72609 3.43995 3.76485L3.17283 3.16496C2.5761 3.28221 2.01853 3.53529 1.53985 3.89692L1.80519 4.49286C1.60174 4.66072 1.41746 4.85429 1.25691 5.0704L0.642395 4.83471C0.474728 5.08107 0.334148 5.3482 0.224611 5.63291C0.116062 5.91763 0.0417191 6.20986 0 6.50427L0.616098 6.74074C0.590592 7.00885 0.598303 7.27597 0.637056 7.53677L0.0342057 7.80527C0.0911493 8.0975 0.180717 8.38539 0.304885 8.66417C0.429252 8.94296 0.583276 9.20197 0.762214 9.43983L1.36506 9.17133C1.53293 9.37458 1.7263 9.55886 1.9428 9.71941L1.70633 10.3359C1.95328 10.5022 2.22021 10.6424 2.50512 10.7517C2.78885 10.8607 3.08029 10.936 3.37668 10.9777L3.61335 10.361C3.88146 10.3863 4.14858 10.3786 4.40937 10.3399L4.67649 10.9395C5.27321 10.8223 5.83118 10.5692 6.30967 10.2076L6.04413 9.61165C6.24738 9.44379 6.43186 9.25041 6.59241 9.03411L7.20653 9.26979C7.3742 9.02343 7.51477 8.75631 7.62431 8.47179C7.73365 8.18707 7.8078 7.89464 7.84952 7.60004L7.23322 7.36376ZM5.5955 7.69336C5.24138 8.61632 4.20631 9.07701 3.28315 8.7229C2.36118 8.36898 1.8999 7.3341 2.25382 6.41134C2.60794 5.48858 3.64301 5.02789 4.56557 5.38161C5.48833 5.73553 5.94942 6.7708 5.5955 7.69336Z" fill="#7FBFFF"/>
<path d="M10.5711 2.45073C10.5711 2.33131 10.5589 2.21445 10.5379 2.10096L11 1.83404C10.8881 1.40854 10.6658 1.02754 10.3619 0.726606L9.89867 0.994122C9.72191 0.842668 9.51707 0.724035 9.29305 0.644947V0.110508C9.089 0.0545527 8.87527 0.022522 8.65402 0.022522C8.43277 0.022522 8.21923 0.0549482 8.01498 0.110508V0.645145C7.79097 0.724233 7.58632 0.843063 7.40936 0.99432L6.94591 0.726803C6.64241 1.02773 6.41997 1.40874 6.30786 1.83424L6.77013 2.10116C6.74917 2.21485 6.73672 2.33131 6.73672 2.45093C6.73672 2.57055 6.74917 2.68721 6.77013 2.8007L6.30786 3.06762C6.41997 3.49312 6.64241 3.87432 6.94591 4.17505L7.40917 3.90754C7.58613 4.05899 7.79077 4.17762 8.01479 4.25671V4.79135C8.21903 4.84711 8.43257 4.87934 8.65382 4.87934C8.87507 4.87934 9.089 4.84691 9.29285 4.79135V4.25671C9.51687 4.17762 9.72171 4.05879 9.89847 3.90754L10.3617 4.17505C10.6656 3.87412 10.8879 3.49312 10.9998 3.06762L10.5377 2.8007C10.5589 2.68681 10.5711 2.57035 10.5711 2.45073ZM8.65422 3.34562C8.15991 3.34562 7.75913 2.94503 7.75913 2.45093C7.75913 1.95682 8.15991 1.55604 8.65422 1.55604C9.14793 1.55604 9.54871 1.95663 9.54871 2.45073C9.54871 2.94484 9.14793 3.34562 8.65422 3.34562Z" fill="#7FBFFF"/>
</svg>
