<svg width="270" height="205" viewBox="0 0 270 205" fill="none" xmlns="http://www.w3.org/2000/svg">
<rect x="122.243" y="8.51367" width="5.58258" height="5.58258" transform="rotate(63.7951 122.243 8.51367)" fill="#AE88FF"/>
<rect x="191.371" y="14.0962" width="3.12517" height="3.12517" rx="1.56259" transform="rotate(30 191.371 14.0962)" fill="#AE88FF"/>
<rect x="41.7571" y="103.418" width="3.12517" height="3.12517" rx="1.56259" transform="rotate(30 41.7571 103.418)" fill="#AE88FF"/>
<rect x="74.1362" y="20.7953" width="3.12517" height="3.12517" rx="1.56259" transform="rotate(30 74.1362 20.7953)" fill="#AE88FF"/>
<rect x="16.0774" y="50.9413" width="3.12517" height="3.12517" rx="1.56259" transform="rotate(30 16.0774 50.9413)" fill="#AE88FF"/>
<rect x="214.817" y="35.3101" width="3.12517" height="3.12517" rx="1.56259" transform="rotate(30 214.817 35.3101)" fill="#AE88FF"/>
<rect x="242.729" y="111.233" width="3.12517" height="3.12517" rx="1.56259" transform="rotate(30 242.729 111.233)" fill="#AE88FF"/>
<rect x="236.031" y="164.826" width="3.12517" height="3.12517" rx="1.56259" transform="rotate(30 236.031 164.826)" fill="#AE88FF"/>
<rect x="7.14526" y="194.972" width="3.12517" height="3.12517" rx="1.56259" transform="rotate(30 7.14526 194.972)" fill="#AE88FF"/>
<rect x="45.1066" y="200.555" width="3.12517" height="3.12517" rx="1.56259" transform="rotate(30 45.1066 200.555)" fill="#AE88FF"/>
<rect x="26.1259" y="167.059" width="3.12517" height="3.12517" rx="1.56259" transform="rotate(30 26.1259 167.059)" fill="#AE88FF"/>
<rect x="43.9901" y="134.68" width="3.12517" height="3.12517" rx="1.56259" transform="rotate(30 43.9901 134.68)" fill="#AE88FF"/>
<rect x="266.177" y="73.2716" width="3.12517" height="3.12517" rx="1.56259" transform="rotate(30 266.177 73.2716)" fill="#AE88FF"/>
<rect x="267.293" y="27.4944" width="3.12517" height="3.12517" rx="1.56259" transform="rotate(30 267.293 27.4944)" fill="#AE88FF"/>
<rect x="160.672" y="21.9119" width="5.58258" height="5.58258" transform="rotate(51.3417 160.672 21.9119)" fill="#AE88FF"/>
<rect x="35.7288" y="35.6764" width="5.58258" height="5.58258" transform="rotate(-41.7194 35.7288 35.6764)" fill="#AE88FF"/>
<rect x="7.87244" y="88.0742" width="5.58258" height="5.58258" transform="rotate(130.668 7.87244 88.0742)" fill="#AE88FF"/>
<rect x="233.245" y="0.697998" width="5.58258" height="5.58258" transform="rotate(51.3417 233.245 0.697998)" fill="#AE88FF"/>
<rect x="244.41" y="46.4752" width="5.58258" height="5.58258" transform="rotate(51.3417 244.41 46.4752)" fill="#AE88FF"/>
<rect x="261.158" y="133.563" width="5.58258" height="5.58258" transform="rotate(51.3417 261.158 133.563)" fill="#AE88FF"/>
<rect x="265.444" y="186.382" width="5.58258" height="5.58258" transform="rotate(117.48 265.444 186.382)" fill="#AE88FF"/>
</svg>
