<svg width="11" height="11" viewBox="0 0 11 11" fill="none" xmlns="http://www.w3.org/2000/svg">
<g clip-path="url(#clip0)">
<path d="M10.5417 5.61454V8.24996H7.79169V5.61454C7.79169 5.29829 8.04835 5.04163 8.3646 5.04163H9.96877C10.285 5.04163 10.5417 5.29829 10.5417 5.61454Z" fill="#7FBFFF"/>
<path d="M6.875 3.78129V8.25003H4.125V3.78129C4.125 3.46504 4.38167 3.20837 4.69792 3.20837H6.30208C6.61833 3.20837 6.875 3.46504 6.875 3.78129Z" fill="#7FBFFF" fill-opacity="0.7"/>
<path d="M3.20837 1.94792V8.25H0.458374V1.94792C0.458374 1.63167 0.715041 1.375 1.03129 1.375H2.63546C2.95171 1.375 3.20837 1.63167 3.20837 1.94792Z" fill="#7FBFFF" fill-opacity="0.4"/>
<path d="M10.6562 9.625H0.34375C0.154 9.625 0 9.471 0 9.28125C0 9.0915 0.154 8.9375 0.34375 8.9375H10.6562C10.846 8.9375 11 9.0915 11 9.28125C11 9.471 10.846 9.625 10.6562 9.625Z" fill="#7FBFFF" fill-opacity="0.25"/>
</g>
<defs>
<clipPath id="clip0">
<rect width="11" height="11" fill="white"/>
</clipPath>
</defs>
</svg>
