<svg width="12" height="12" viewBox="0 0 12 12" fill="none" xmlns="http://www.w3.org/2000/svg">
<path d="M11.3906 2.13281C11.4553 2.13281 11.5078 2.08036 11.5078 2.01562V0.609375C11.5078 0.544641 11.4553 0.492188 11.3906 0.492188H9.98438C9.91966 0.492188 9.86719 0.544641 9.86719 0.609375V1.07812H6.69316C6.6372 0.746039 6.34777 0.492188 6 0.492188C5.65223 0.492188 5.3628 0.746039 5.30684 1.07812H2.13281V0.609375C2.13281 0.544641 2.08034 0.492188 2.01562 0.492188H0.609375C0.544664 0.492188 0.492188 0.544641 0.492188 0.609375V2.01562C0.492188 2.08036 0.544664 2.13281 0.609375 2.13281H1.07812V5.30684C0.746039 5.3628 0.492188 5.65223 0.492188 6C0.492188 6.34777 0.746039 6.6372 1.07812 6.69316V9.86719H0.609375C0.544664 9.86719 0.492188 9.91964 0.492188 9.98438V11.3906C0.492188 11.4554 0.544664 11.5078 0.609375 11.5078H2.01562C2.08034 11.5078 2.13281 11.4554 2.13281 11.3906V10.6875H5.30684C5.3628 11.0196 5.65223 11.2734 6 11.2734C6.34777 11.2734 6.6372 11.0196 6.69316 10.6875H9.86719V11.3906C9.86719 11.4554 9.91966 11.5078 9.98438 11.5078H11.3906C11.4553 11.5078 11.5078 11.4554 11.5078 11.3906V9.98438C11.5078 9.91964 11.4553 9.86719 11.3906 9.86719H10.9219V6.69316C11.254 6.6372 11.5078 6.34777 11.5078 6C11.5078 5.65223 11.254 5.3628 10.9219 5.30684V2.13281H11.3906ZM10.6875 5.30684C10.3554 5.3628 10.1016 5.65223 10.1016 6C10.1016 6.34777 10.3554 6.6372 10.6875 6.69316V9.86719H9.98438C9.91966 9.86719 9.86719 9.91964 9.86719 9.98438V10.4531H6.69316C6.6372 10.121 6.34777 9.86719 6 9.86719C5.65223 9.86719 5.3628 10.121 5.30684 10.4531H2.13281V9.98438C2.13281 9.91964 2.08034 9.86719 2.01562 9.86719H1.3125V6.69316C1.64459 6.6372 1.89844 6.34777 1.89844 6C1.89844 5.65223 1.64459 5.3628 1.3125 5.30684V2.13281H2.01562C2.08034 2.13281 2.13281 2.08036 2.13281 2.01562V1.3125H5.30684C5.3628 1.64459 5.65223 1.89844 6 1.89844C6.34777 1.89844 6.6372 1.64459 6.69316 1.3125H9.86719V2.01562C9.86719 2.08036 9.91966 2.13281 9.98438 2.13281H10.6875V5.30684Z" fill="#7FBFFF" fill-opacity="0.55"/>
<path d="M8.80345 7.52338L6.9375 5.18469L6.1499 6.17181L7.22829 7.52338H8.80345Z" fill="#7FBFFF"/>
<path d="M3.07031 7.75781V8.69531H8.92969V7.75781H7.17188H3.07031Z" fill="#7FBFFF"/>
<path d="M3.19653 7.52338H6.92844L5.06249 5.18469L3.19653 7.52338Z" fill="#7FBFFF"/>
<path d="M3.07031 7.30587L4.97091 4.92377C4.99315 4.89591 5.02685 4.87966 5.0625 4.87966C5.09815 4.87966 5.13185 4.89588 5.15409 4.92377L6 5.98397L6.84591 4.92377C6.86815 4.89591 6.90185 4.87966 6.9375 4.87966C6.97315 4.87966 7.00685 4.89588 7.02909 4.92377L8.92969 7.30587V3.07031H3.07031V7.30587Z" fill="#7FBFFF"/>
</svg>
