<svg width="31" height="31" viewBox="0 0 31 31" fill="none" xmlns="http://www.w3.org/2000/svg">
<g clip-path="url(#clip0_127_1603)">
<path d="M29.0365 20.0778C27.448 18.4881 25.2439 17.8146 22.4132 18.5733L12.3193 8.46911L12.4527 7.96465C13.0341 5.78336 12.4059 3.43868 10.8139 1.84666C9.19293 0.224411 6.88848 -0.37082 4.70907 0.227849C4.39827 0.313192 4.15636 0.557401 4.07403 0.869039C3.9917 1.18068 4.08199 1.51192 4.30979 1.73984L6.74023 4.17028C7.45078 4.88258 7.44385 6.02335 6.74198 6.72708C6.04567 7.42527 4.87523 7.42418 4.18169 6.72883L1.75077 4.29772C1.52284 4.06968 1.19064 3.98024 0.878999 4.06305C0.567301 4.14579 0.323997 4.38831 0.238956 4.69941C-0.350968 6.85488 0.229366 9.17362 1.85812 10.8024C3.44593 12.3913 5.6473 13.0672 8.47967 12.307L18.5743 22.4111C17.821 25.2409 18.4708 27.4237 20.0807 29.0336C21.7037 30.6578 24.0092 31.2486 26.1839 30.6519C26.4947 30.5667 26.7367 30.3224 26.8191 30.0108C26.9015 29.6991 26.8113 29.3678 26.5833 29.1398L24.1534 26.7099C23.4429 25.9976 23.4498 24.8567 24.1517 24.1531C24.8567 23.4518 26.0245 23.4629 26.712 24.1522L29.1431 26.5827C29.371 26.8106 29.7032 26.9 30.0148 26.8172C30.3264 26.7344 30.5697 26.492 30.6548 26.181C31.2447 24.0259 30.6645 21.7065 29.0365 20.0778Z" fill="#5CB1FF"/>
<path d="M9.68335 16.0786L1.05905 24.704C-0.352344 26.1154 -0.352344 28.4106 1.05905 29.8219C2.47044 31.2333 4.76559 31.2333 6.17692 29.8219L14.8011 21.1967L9.68335 16.0786ZM5.32699 27.0142C4.97355 27.3677 4.40118 27.3677 4.04775 27.0142C3.69437 26.6609 3.69437 26.0884 4.04775 25.735L9.53504 20.2467C9.88842 19.8933 10.461 19.8933 10.8143 20.2467C11.1677 20.6001 11.1677 21.1725 10.8143 21.5259L5.32699 27.0142Z" fill="#5CB1FF"/>
<path d="M30.6147 1.82466L29.0551 0.265025C28.7615 -0.0285191 28.306 -0.0846104 27.95 0.128838L23.1523 3.00717C22.6475 3.31 22.5618 4.00643 22.9779 4.42266L23.3598 4.80444L17.2694 10.87L19.8288 13.4293L25.9192 7.36383L26.4572 7.90188C26.8734 8.31798 27.5699 8.23234 27.8727 7.72752L30.751 2.92978C30.9644 2.57375 30.9083 2.11821 30.6147 1.82466Z" fill="#5CB1FF"/>
</g>
<defs>
<clipPath id="clip0_127_1603">
<rect width="30.8804" height="30.8804" fill="white"/>
</clipPath>
</defs>
</svg>
