<svg width="24" height="24" viewBox="0 0 24 24" fill="none" xmlns="http://www.w3.org/2000/svg">
<path fill-rule="evenodd" clip-rule="evenodd" d="M18 15V21H20C20.2652 21 20.5196 20.8946 20.7071 20.7071C20.8946 20.5196 21 20.2652 21 20V7L17 3H16V7C16 8.10457 15.1046 9 14 9H9C7.89543 9 7 8.10457 7 7V3H4C3.73478 3 3.48043 3.10536 3.29289 3.29289C3.10536 3.48043 3 3.73478 3 4V20C3 20.2652 3.10536 20.5196 3.29289 20.7071C3.48043 20.8946 3.73478 21 4 21H6V15C6 13.8954 6.89543 13 8 13H16C17.1046 13 18 13.8954 18 15ZM9 3V7H14V3H9ZM8 21H16V15H8V21Z" fill="white"/>
</svg>
