<svg width="149" height="124" viewBox="0 0 149 124" fill="none" xmlns="http://www.w3.org/2000/svg">
<path opacity="0.06" d="M107.22 93.7034C107.234 103.496 104.398 113.082 99.0563 121.3L13.1628 120.922C8.92337 114.261 6.297 106.707 5.49148 98.8595C4.68597 91.0116 5.72339 83.0845 8.5217 75.7054C11.32 68.3263 15.8024 61.6977 21.6143 56.3439C27.4261 50.9901 34.4079 47.0581 42.0074 44.8589C49.6068 42.6598 57.6153 42.2539 65.3992 43.6733C73.1832 45.0928 80.529 48.2986 86.8555 53.0371C93.1821 57.7757 98.3157 63.917 101.85 70.9751C105.385 78.0333 107.223 85.8146 107.22 93.7034Z" fill="#3A8DEB"/>
<path d="M0 123.262L15.1309 103.05C15.2979 102.828 15.5116 102.645 15.7569 102.516C16.0021 102.387 16.2727 102.314 16.5491 102.303C16.8254 102.293 17.1007 102.344 17.3551 102.454C17.6094 102.563 17.8365 102.729 18.02 102.938L27.2663 113.497L35.4186 102.965C35.5844 102.75 35.7947 102.576 36.0347 102.453C36.2747 102.329 36.5385 102.261 36.8076 102.252C37.0766 102.244 37.3442 102.295 37.5915 102.402C37.8388 102.509 38.0597 102.67 38.2387 102.873L50.985 117.279L56.9545 112.987C57.2757 112.754 57.6487 112.605 58.0405 112.553C58.4324 112.501 58.8309 112.546 59.201 112.687C64.735 114.785 87.5348 123.417 88.0872 123.256C88.6395 123.096 100.244 116.18 103.059 114.489C103.471 114.251 103.832 113.932 104.121 113.551L110.17 105.615C110.334 105.4 110.541 105.222 110.779 105.094C111.016 104.966 111.278 104.89 111.546 104.872C111.814 104.855 112.084 104.895 112.335 104.991C112.587 105.086 112.816 105.235 113.006 105.427L119.746 112.236L128.774 98.3343C129.024 97.9516 129.366 97.6388 129.767 97.4247C130.168 97.2107 130.617 97.1024 131.07 97.1099C131.524 97.1174 131.969 97.2404 132.363 97.4676C132.757 97.6947 133.088 98.0187 133.326 98.4094L148.414 123.256L0 123.262Z" fill="#D8E5F8"/>
<path d="M59.7022 119.339H89.3484C90.2723 119.339 91.1584 119.752 91.8117 120.488C92.4649 121.224 92.8319 122.221 92.8319 123.262H56.2188C56.2188 122.221 56.5858 121.224 57.239 120.488C57.8923 119.752 58.7783 119.339 59.7022 119.339Z" fill="#4F70E0"/>
<path d="M82.7502 104.955H58.4597C57.5845 104.955 56.875 105.54 56.875 106.261V106.265C56.875 106.986 57.5845 107.57 58.4597 107.57H82.7502C83.6254 107.57 84.3349 106.986 84.3349 106.265V106.261C84.3349 105.54 83.6254 104.955 82.7502 104.955Z" fill="url(#paint0_linear_1877_1349)"/>
<path d="M92.5548 75.534H68.2644C67.3892 75.534 66.6797 76.2645 66.6797 77.1657V77.1712C66.6797 78.0724 67.3892 78.803 68.2644 78.803H92.5548C93.43 78.803 94.1396 78.0724 94.1396 77.1712V77.1657C94.1396 76.2645 93.43 75.534 92.5548 75.534Z" fill="url(#paint1_linear_1877_1349)"/>
<path d="M92.5607 90.5715H58.4563C57.5829 90.5715 56.875 91.302 56.875 92.2032V92.2087C56.875 93.1099 57.5829 93.8405 58.4563 93.8405H92.5607C93.434 93.8405 94.142 93.1099 94.142 92.2087V92.2032C94.142 91.302 93.434 90.5715 92.5607 90.5715Z" fill="url(#paint2_linear_1877_1349)"/>
<path d="M66.0327 48.0741H60.1484V119.339H66.0327V48.0741Z" fill="#E3EDFB"/>
<path d="M71.9619 52.86L69.5547 55.2672L78.3987 64.1111L80.8059 61.7039L71.9619 52.86Z" fill="#C1D1ED"/>
<path d="M69.5537 68.6944L71.9609 71.1016L80.8049 62.2577L78.3977 59.8505L69.5537 68.6944Z" fill="#C1D1ED"/>
<path d="M71.9619 67.5823L69.5547 69.9895L78.3987 78.8335L80.8059 76.4263L71.9619 67.5823Z" fill="#C1D1ED"/>
<path d="M69.5537 83.414L71.9609 85.8212L80.8049 76.9772L78.3977 74.57L69.5537 83.414Z" fill="#C1D1ED"/>
<path d="M71.9619 82.4489L69.5547 84.8561L78.3986 93.7001L80.8058 91.2929L71.9619 82.4489Z" fill="#C1D1ED"/>
<path d="M69.5537 98.2785L71.9609 100.686L80.8049 91.8417L78.3977 89.4345L69.5537 98.2785Z" fill="#C1D1ED"/>
<path d="M71.9619 97.0197L69.5547 99.4269L78.3986 108.271L80.8058 105.864L71.9619 97.0197Z" fill="#C1D1ED"/>
<path d="M69.9531 115.709L72.3303 118.031L81.0678 106.624L78.6906 104.301L69.9531 115.709Z" fill="#C1D1ED"/>
<path d="M89.582 48.0741H84.3516V119.339H89.582V48.0741Z" fill="#E3EDFB"/>
<path d="M73.8843 48.0741H68V119.339H73.8843V48.0741Z" fill="#E3EDFB"/>
<path d="M81.7173 48.0741H77.1406V119.339H81.7173V48.0741Z" fill="#E3EDFB"/>
<path d="M92.9056 51.3431H58.7652C57.7213 51.3431 56.875 52.0739 56.875 52.9753V52.9799C56.875 53.8814 57.7213 54.6122 58.7652 54.6122H92.9056C93.9495 54.6122 94.7958 53.8814 94.7958 52.9799V52.9753C94.7958 52.0739 93.9495 51.3431 92.9056 51.3431Z" fill="url(#paint3_linear_1877_1349)"/>
<path d="M92.2047 43.4974H59.4661C58.0351 43.4974 56.875 44.6683 56.875 46.1126C56.875 47.557 58.0351 48.7279 59.4661 48.7279H92.2047C93.6357 48.7279 94.7958 47.557 94.7958 46.1126C94.7958 44.6683 93.6357 43.4974 92.2047 43.4974Z" fill="url(#paint4_linear_1877_1349)"/>
<path d="M74.9235 38.267H76.7513C78.0695 38.267 79.3338 38.8181 80.2659 39.799C81.198 40.7798 81.7216 42.1102 81.7216 43.4974H69.9531C69.9531 42.1102 70.4768 40.7798 71.4089 39.799C72.341 38.8181 73.6052 38.267 74.9235 38.267Z" fill="#D8E5F8"/>
<path d="M77.6909 11.4859L78.1651 36.9594H73.5185L74.1452 11.5866C73.5417 11.2242 73.0727 10.678 72.8083 10.0296C72.544 9.38123 72.4985 8.66549 72.6786 7.98936C72.8587 7.31322 73.2547 6.71299 73.8076 6.27836C74.3604 5.84374 75.0403 5.59805 75.7457 5.57801C76.4511 5.55798 77.1441 5.76467 77.7211 6.16721C78.2982 6.56975 78.7282 7.1465 78.9471 7.81131C79.166 8.47611 79.162 9.19326 78.9355 9.85557C78.7091 10.5179 78.2725 11.0898 77.6909 11.4859Z" fill="#FEA800"/>
<path d="M75.0363 34.998H76.6429C77.4695 34.998 78.2623 35.4801 78.8468 36.3384C79.4313 37.1967 79.7597 38.3608 79.7597 39.5746H71.9141C71.9141 38.3608 72.2424 37.1967 72.8269 36.3384C73.4115 35.4801 74.2042 34.998 75.0309 34.998H75.0363Z" fill="#C1D1ED"/>
<path d="M83.0234 5.57668C83.0234 5.57668 84.4945 8.89003 83.0234 11.4609" stroke="#3988EC" stroke-miterlimit="10"/>
<path d="M86.2969 4.26903C86.2969 4.26903 89.239 9.04134 86.2969 12.7685" stroke="#3988EC" stroke-miterlimit="10"/>
<path d="M89.5703 1C89.5703 1 93.9835 9.46355 89.5703 16.0375" stroke="#3988EC" stroke-miterlimit="10"/>
<path d="M68.6538 5.57668C68.6538 5.57668 67.1827 8.89003 68.6538 11.4609" stroke="#3988EC" stroke-miterlimit="10"/>
<path d="M65.3779 4.26903C65.3779 4.26903 62.4358 9.04134 65.3779 12.7685" stroke="#3988EC" stroke-miterlimit="10"/>
<path d="M62.0996 1C62.0996 1 56.2153 9.46355 62.0996 16.0375" stroke="#3988EC" stroke-miterlimit="10"/>
<defs>
<linearGradient id="paint0_linear_1877_1349" x1="83.735" y1="105.009" x2="83.5543" y2="108.71" gradientUnits="userSpaceOnUse">
<stop stop-color="#3CA2E5"/>
<stop offset="0.55" stop-color="#387EEF"/>
<stop offset="1" stop-color="#3665F6"/>
</linearGradient>
<linearGradient id="paint1_linear_1877_1349" x1="93.5397" y1="75.6017" x2="93.2577" y2="80.2216" gradientUnits="userSpaceOnUse">
<stop stop-color="#3CA2E5"/>
<stop offset="0.55" stop-color="#387EEF"/>
<stop offset="1" stop-color="#3665F6"/>
</linearGradient>
<linearGradient id="paint2_linear_1877_1349" x1="93.3279" y1="90.6392" x2="93.1197" y2="95.2669" gradientUnits="userSpaceOnUse">
<stop stop-color="#3CA2E5"/>
<stop offset="0.55" stop-color="#387EEF"/>
<stop offset="1" stop-color="#3665F6"/>
</linearGradient>
<linearGradient id="paint3_linear_1877_1349" x1="93.9674" y1="51.4108" x2="93.7628" y2="56.0389" gradientUnits="userSpaceOnUse">
<stop stop-color="#3CA2E5"/>
<stop offset="0.55" stop-color="#387EEF"/>
<stop offset="1" stop-color="#3665F6"/>
</linearGradient>
<linearGradient id="paint4_linear_1877_1349" x1="93.9674" y1="43.6058" x2="93.4453" y2="50.9882" gradientUnits="userSpaceOnUse">
<stop stop-color="#3CA2E5"/>
<stop offset="0.55" stop-color="#387EEF"/>
<stop offset="1" stop-color="#3665F6"/>
</linearGradient>
</defs>
</svg>
