<svg width="73" height="91" viewBox="0 0 73 91" fill="none" xmlns="http://www.w3.org/2000/svg">
<path d="M1.8961 0.207031C0.848916 0.207031 0 1.0559 0 2.10314V53.2979C0 54.3452 0.848916 55.194 1.8961 55.194H9.48052V34.3369C9.48052 32.7661 21.3653 31.4927 36.026 31.4927C50.6866 31.4927 62.5714 32.7661 62.5714 34.3369V55.194H71.1039C72.1511 55.194 73 54.3452 73 53.2979V2.10314C73 1.0559 72.1511 0.207031 71.1039 0.207031H1.8961Z" fill="#19335B"/>
<rect x="3.78906" y="4" width="65.4156" height="9.48052" rx="2" fill="#5CB1FF"/>
<ellipse cx="36.0255" cy="36.2328" rx="23.7013" ry="2.84416" fill="#5CB1FF"/>
<path d="M36.0255 58.9848C49.1154 58.9848 59.7268 57.7114 59.7268 56.1406V69.4134C59.7268 70.9841 49.1154 72.2575 36.0255 72.2575C22.9357 72.2575 12.3242 70.9841 12.3242 69.4134V56.1406C12.3242 57.7114 22.9357 58.9848 36.0255 58.9848Z" fill="#5CB1FF"/>
<path d="M36.0255 42.8695C49.1154 42.8695 59.7268 41.5962 59.7268 40.0254V52.3501C59.7268 53.9209 49.1154 55.1942 36.0255 55.1942C22.9357 55.1942 12.3242 53.9209 12.3242 52.3501V40.0254C12.3242 41.5962 22.9357 42.8695 36.0255 42.8695Z" fill="#5CB1FF"/>
<circle cx="20.3818" cy="48.083" r="2.37013" fill="white"/>
<circle cx="20.3818" cy="65.1494" r="2.37013" fill="white"/>
<rect x="24.6484" y="46.6621" width="29.3896" height="2.84416" rx="1.42208" fill="white"/>
<rect x="24.6484" y="63.7266" width="29.3896" height="2.84416" rx="1.42208" fill="white"/>
<path d="M0 2.99023V53.2971C0 54.3444 0.848916 55.1932 1.8961 55.1932H9.48052V34.3361C9.48052 33.2798 14.8548 32.358 22.8335 31.8675C10.7858 23.8446 3.64215 12.6994 0 2.99023Z" fill="#2F4971"/>
<path d="M62.5714 42.7952V55.1932H71.1039C72.1511 55.1932 73 54.3444 73 53.2971V42.2424C69.3678 42.6107 65.8935 42.7889 62.5714 42.7952Z" fill="#2F4971"/>
<g opacity="0.05" filter="url(#filter0_f_1467_6103)">
<ellipse cx="37" cy="83.5" rx="18" ry="3.5" fill="black"/>
</g>
<defs>
<filter id="filter0_f_1467_6103" x="15" y="76" width="44" height="15" filterUnits="userSpaceOnUse" color-interpolation-filters="sRGB">
<feFlood flood-opacity="0" result="BackgroundImageFix"/>
<feBlend mode="normal" in="SourceGraphic" in2="BackgroundImageFix" result="shape"/>
<feGaussianBlur stdDeviation="2" result="effect1_foregroundBlur_1467_6103"/>
</filter>
</defs>
</svg>
