<svg width="59" height="62" viewBox="0 0 59 62" fill="none" xmlns="http://www.w3.org/2000/svg">
<g opacity="0.05" filter="url(#filter0_f_1626_2)">
<ellipse cx="29" cy="54.5" rx="18" ry="3.5" fill="black"/>
</g>
<path d="M0 29.5C5.44625e-07 23.2702 1.97222 17.2003 5.634 12.1603L12.7938 17.3622C10.2306 20.8902 8.85 25.1391 8.85 29.5H0Z" fill="#19335B"/>
<path d="M0.0122751 28.6486C0.00410092 28.9319 0 29.2156 0 29.4997H8.85C8.85 25.1388 10.2306 20.8899 12.7938 17.3619L11.2002 16.2041C8.50159 26.8103 3.24191 28.9964 0.0122751 28.6486Z" fill="#2F4971"/>
<path d="M8.64035 8.64035C13.0455 4.23522 18.7321 1.33774 24.8852 0.36319L26.2696 9.10423C21.9625 9.78642 17.9818 11.8147 14.8982 14.8982L8.64035 8.64035Z" fill="#19335B"/>
<path d="M9.47287 7.83995C9.19068 8.10089 8.9132 8.36768 8.64062 8.64026L14.8985 14.8981C17.9821 11.8146 21.9628 9.78632 26.2699 9.10413L26.0165 7.50391C17.2422 12.4518 12.0338 10.5962 9.47287 7.83995Z" fill="#2F4971"/>
<path d="M29.5 0C35.7298 7.42895e-08 41.7997 1.97222 46.8397 5.634L41.6378 12.7938C38.1098 10.2306 33.8609 8.85 29.5 8.85V0Z" fill="#19335B"/>
<path d="M37.4642 10.4476C32.9418 6.68945 30.7072 2.63482 29.8588 0.00218716C29.7392 0.000729052 29.6197 0 29.5 0V8.85001C32.2502 8.85001 34.9558 9.39907 37.4642 10.4476Z" fill="#2F4971"/>
<path d="M50.3597 8.64036C55.892 14.1727 59 21.6761 59 29.5L50.15 29.5C50.15 24.0233 47.9744 18.7709 44.1018 14.8982L50.3597 8.64036Z" fill="#3CA2E5"/>
<path d="M25.3358 27.1474L23.1641 26.0615L52.845 24.9756L23.1641 28.5952L25.3358 27.1474Z" fill="#2F4971"/>
<circle cx="30.7668" cy="26.7854" r="1.80982" fill="#3CA2E5"/>
<circle cx="30.7656" cy="26.7851" r="1.08589" fill="white"/>
<defs>
<filter id="filter0_f_1626_2" x="7" y="47" width="44" height="15" filterUnits="userSpaceOnUse" color-interpolation-filters="sRGB">
<feFlood flood-opacity="0" result="BackgroundImageFix"/>
<feBlend mode="normal" in="SourceGraphic" in2="BackgroundImageFix" result="shape"/>
<feGaussianBlur stdDeviation="2" result="effect1_foregroundBlur_1626_2"/>
</filter>
</defs>
</svg>
