<svg width="96" height="81" viewBox="0 0 96 81" fill="none" xmlns="http://www.w3.org/2000/svg">
<g opacity="0.05" filter="url(#filter0_f_1626_3)">
<ellipse cx="47" cy="73.5" rx="18" ry="3.5" fill="black"/>
</g>
<path d="M93.6271 23.375L79.1908 23.4153C78.2694 23.4179 77.525 24.1668 77.5273 25.0881L77.5496 33.0621C77.5524 33.9834 78.3011 34.7282 79.2225 34.7256L93.6588 34.6853C94.5797 34.6827 95.3246 33.9337 95.3218 33.0124L95.2995 25.0385C95.2972 24.1172 94.5485 23.3724 93.6271 23.375Z" fill="url(#paint0_linear_1626_3)"/>
<path d="M92.1745 31.3588C91.4121 30.6039 90.1822 30.6094 89.4266 31.3712C88.2097 32.598 89.0787 34.684 90.8067 34.684H94.0346C94.2262 34.6785 94.4151 34.6308 94.5864 34.5443C94.8785 34.3972 94.8515 34.0098 94.6191 33.7796L92.1745 31.3588Z" fill="#D1E0F2"/>
<path d="M78.8699 34.7341L87.0388 34.7132C88.6645 34.7132 89.4764 32.7456 88.3236 31.5992L84.7829 28.0781C84.7058 28.0053 84.6036 27.9648 84.4976 27.9648C84.3911 27.9648 84.2893 28.0053 84.2117 28.0781L78.6632 33.6719C78.2763 34.0619 78.3206 34.746 78.8699 34.7341Z" fill="#E3EDFB"/>
<path d="M81.6593 27.456C82.1316 27.456 82.5145 27.0732 82.5145 26.601C82.5145 26.1288 82.1316 25.7461 81.6593 25.7461C81.1875 25.7461 80.8047 26.1288 80.8047 26.601C80.8047 27.0732 81.1875 27.456 81.6593 27.456Z" fill="#E3EDFB"/>
<path d="M73.4748 23.375L59.0384 23.4153C58.1175 23.4179 57.3726 24.1669 57.375 25.0882L57.3972 33.0621C57.4001 33.9834 58.1487 34.7282 59.0701 34.7256L73.5065 34.6853C74.4274 34.6828 75.1722 33.9338 75.1699 33.0125L75.1472 25.0386C75.1448 24.1172 74.3962 23.3725 73.4748 23.375Z" fill="url(#paint1_linear_1626_3)"/>
<path d="M72.0221 31.3588C71.2597 30.6039 70.0298 30.6094 69.2742 31.3712C68.0573 32.598 68.9264 34.684 70.6544 34.684H73.8822C74.0744 34.6784 74.2627 34.6308 74.434 34.5442C74.7262 34.3972 74.6992 34.0098 74.4667 33.7796L72.0221 31.3588Z" fill="#D1E0F2"/>
<path d="M58.7097 34.738L66.8791 34.7172C68.5047 34.7172 69.3164 32.7497 68.1638 31.6034L64.6228 28.082C64.5456 28.0092 64.4434 27.9688 64.3374 27.9688C64.2309 27.9688 64.1292 28.0092 64.0516 28.082L58.503 33.6758C58.1161 34.0659 58.1604 34.7499 58.7097 34.738Z" fill="#E3EDFB"/>
<path d="M61.5109 27.456C61.9832 27.456 62.366 27.0732 62.366 26.601C62.366 26.1288 61.9832 25.7461 61.5109 25.7461C61.0391 25.7461 60.6562 26.1288 60.6562 26.601C60.6562 27.0732 61.0391 27.456 61.5109 27.456Z" fill="#E3EDFB"/>
<path d="M59.7093 16.2812C60.7348 16.2836 61.5649 17.1155 61.5649 18.141V39.8696C61.5649 40.8944 60.7341 41.7251 59.7093 41.7251L33.7345 41.7961C33.3419 41.7952 32.9655 41.639 32.6875 41.3617C32.4095 41.0843 32.2522 40.7085 32.2501 40.3157L32.1875 17.841C32.1869 17.6466 32.2247 17.454 32.2986 17.2741C32.3725 17.0943 32.481 16.9308 32.6181 16.7929C32.7552 16.6551 32.9181 16.5455 33.0975 16.4706C33.2769 16.3957 33.4693 16.3569 33.6637 16.3563L59.7093 16.2812Z" fill="#D7E6FB"/>
<path d="M59.7099 33.5185C60.3932 32.832 61.5654 33.3159 61.5654 34.2846V39.8538C61.5654 40.8779 60.734 41.7075 59.7099 41.7051C56.6979 41.7036 55.1866 38.0656 57.3107 35.9303L59.7099 33.5185Z" fill="#A8C4E1"/>
<path d="M61.1689 39.3795C61.4222 39.6374 61.5641 39.9845 61.5641 40.346C61.5641 41.1078 60.9466 41.7253 60.1849 41.7253H59.7086H53.5997L35.2269 41.7797C33.982 41.7735 33.8994 40.2237 34.7758 39.3397L47.2404 26.766C47.4112 26.5968 47.6422 26.502 47.8826 26.502C48.123 26.502 48.3539 26.5968 48.5247 26.766L59.7086 37.8928L61.1689 39.3795Z" fill="#BED3ED"/>
<path d="M41.5125 25.4385C42.5764 25.4385 43.439 24.5758 43.439 23.5117C43.439 22.4476 42.5764 21.585 41.5125 21.585C40.4485 21.585 39.5859 22.4476 39.5859 23.5117C39.5859 24.5758 40.4485 25.4385 41.5125 25.4385Z" fill="#BED3ED"/>
<path d="M61.9592 6.10253C61.9592 3.8934 60.1683 2.10254 57.9592 2.10254H43.4414C41.2323 2.10254 39.4414 3.8934 39.4414 6.10254V52.3188C39.4414 54.5279 41.2323 56.3188 43.4414 56.3188H57.9592C60.1683 56.3188 61.9592 54.5279 61.9592 52.3188V6.10253Z" fill="url(#paint2_linear_1626_3)"/>
<path d="M61.892 2.59251C61.892 2.22752 61.5962 1.93164 61.2312 1.93164C60.8662 1.93164 60.5703 2.22752 60.5703 2.59251V55.5328C60.5703 55.8977 60.8662 56.1936 61.2312 56.1936C61.5962 56.1936 61.892 55.8977 61.892 55.5328V2.59251Z" fill="url(#paint3_linear_1626_3)"/>
<path d="M25.7739 4.50559e-06L9.68845 0.0433447C9.04107 0.045089 8.51774 0.552866 8.51954 1.1775L8.54574 10.2311C8.54754 10.8558 9.07383 11.3607 9.72121 11.359L25.8066 11.3156C26.454 11.3139 26.9773 10.8061 26.9755 10.1815L26.9493 1.12784C26.9475 0.503209 26.4212 -0.0017398 25.7739 4.50559e-06Z" fill="#D7E6FB"/>
<path d="M23.6214 8.00157C22.8532 7.24103 21.6145 7.245 20.8511 8.01045C19.6173 9.24756 20.4935 11.3589 22.2407 11.3589H25.4996C25.6937 11.3529 25.8841 11.3047 26.0574 11.2175C26.3523 11.0693 26.3258 10.6787 26.0912 10.4465L23.6214 8.00157Z" fill="#9EBEE2"/>
<path d="M9.94008 11.3565L18.5362 11.3345C20.1918 11.3345 20.9869 9.30274 19.771 8.17903L16.1626 4.84412C16.0835 4.77134 15.9766 4.73047 15.8652 4.73047C15.7537 4.73047 15.6468 4.77134 15.5677 4.84412L9.74659 10.291C9.33965 10.6718 9.38278 11.355 9.94008 11.3565Z" fill="#BED3ED"/>
<path d="M12.7746 4.26035C13.2973 4.26035 13.721 3.83657 13.721 3.31377C13.721 2.79099 13.2973 2.36719 12.7746 2.36719C12.2519 2.36719 11.8281 2.79099 11.8281 3.31377C11.8281 3.83657 12.2519 4.26035 12.7746 4.26035Z" fill="#BED3ED"/>
<path d="M17.1625 29.8164L1.26077 29.861C0.562521 29.863 -0.00194486 30.4336 5.03663e-06 31.1355L0.0256901 40.3812C0.02764 41.0833 0.595266 41.6505 1.29352 41.6487L17.1952 41.6039C17.8935 41.6021 18.458 41.0314 18.456 40.3297L18.4303 31.0838C18.4284 30.3819 17.8607 29.8145 17.1625 29.8164Z" fill="#D7E6FB"/>
<path d="M15.3343 38.2064C14.5642 37.482 13.3623 37.4857 12.5967 38.2149C11.2951 39.4545 12.1725 41.6479 13.97 41.6479H17.3987C17.6033 41.6427 17.8042 41.5945 17.987 41.5076C18.2909 41.3627 18.2657 40.9639 18.0205 40.7332L15.3343 38.2064Z" fill="#9EBEE2"/>
<path d="M1.43221 41.6461L10.0267 41.6236C11.7342 41.6236 12.5851 39.5553 11.3719 38.3537L7.65359 34.6712C7.61425 34.6317 7.56756 34.6005 7.5161 34.5791C7.46464 34.5581 7.40946 34.5469 7.35374 34.5469C7.29802 34.5469 7.24285 34.5581 7.19143 34.5791C7.13997 34.6005 7.09324 34.6317 7.05389 34.6712L1.2167 40.5353C0.811984 40.9419 0.858605 41.6549 1.43221 41.6461Z" fill="#BED3ED"/>
<path d="M4.25896 34.0768C4.78167 34.0768 5.20542 33.6532 5.20542 33.1301C5.20542 32.6075 4.78167 32.1836 4.25896 32.1836C3.73625 32.1836 3.3125 32.6075 3.3125 33.1301C3.3125 33.6532 3.73625 34.0768 4.25896 34.0768Z" fill="#BED3ED"/>
<defs>
<filter id="filter0_f_1626_3" x="25" y="66" width="44" height="15" filterUnits="userSpaceOnUse" color-interpolation-filters="sRGB">
<feFlood flood-opacity="0" result="BackgroundImageFix"/>
<feBlend mode="normal" in="SourceGraphic" in2="BackgroundImageFix" result="shape"/>
<feGaussianBlur stdDeviation="2" result="effect1_foregroundBlur_1626_3"/>
</filter>
<linearGradient id="paint0_linear_1626_3" x1="9395.71" y1="4961.84" x2="10154.1" y2="4961.84" gradientUnits="userSpaceOnUse">
<stop stop-color="#3CA2E5"/>
<stop offset="0.55" stop-color="#387EEF"/>
<stop offset="1" stop-color="#3665F6"/>
</linearGradient>
<linearGradient id="paint1_linear_1626_3" x1="9375.54" y1="4961.84" x2="10133.9" y2="4961.84" gradientUnits="userSpaceOnUse">
<stop stop-color="#3CA2E5"/>
<stop offset="0.55" stop-color="#387EEF"/>
<stop offset="1" stop-color="#3665F6"/>
</linearGradient>
<linearGradient id="paint2_linear_1626_3" x1="51.9513" y1="29.2106" x2="70.7158" y2="29.2106" gradientUnits="userSpaceOnUse">
<stop stop-color="#3CA2E5" stop-opacity="0.02"/>
<stop offset="1" stop-color="#3665F6" stop-opacity="0.2"/>
</linearGradient>
<linearGradient id="paint3_linear_1626_3" x1="699.936" y1="23694.4" x2="704.143" y2="23694.4" gradientUnits="userSpaceOnUse">
<stop stop-color="#3CA2E5"/>
<stop offset="0.55" stop-color="#387EEF"/>
<stop offset="1" stop-color="#3665F6"/>
</linearGradient>
</defs>
</svg>
