<svg width="70" height="94" viewBox="0 0 70 94" fill="none" xmlns="http://www.w3.org/2000/svg">
<path d="M63.6701 42.4864L69.0757 47.1899C69.9092 47.9206 70.2146 49.0965 69.8432 50.1296L69.7689 50.3479C68.2752 54.581 66.0634 58.4782 63.1915 61.9302L63.0429 62.1066C62.6967 62.523 62.2341 62.8224 61.7167 62.9649C61.1993 63.1075 60.6515 63.0864 60.1462 62.9045L53.4367 60.4771C50.9752 62.541 48.195 64.1757 45.2087 65.315L43.913 72.4542C43.8152 72.9913 43.5592 73.4855 43.1789 73.8711C42.7986 74.2566 42.312 74.5153 41.7838 74.6127L41.561 74.6547C37.2218 75.4484 32.7783 75.4484 28.4391 74.6547L28.2162 74.6127C27.688 74.5153 27.2014 74.2566 26.8211 73.8711C26.4408 73.4855 26.1848 72.9913 26.087 72.4542L24.7831 65.2814C21.8203 64.1475 19.0722 62.5181 16.6128 60.4604L9.85382 62.9045C9.34831 63.0849 8.80094 63.1053 8.28383 62.9629C7.76673 62.8204 7.30416 62.5219 6.9571 62.1066L6.80855 61.9302C3.93659 58.4866 1.72485 54.581 0.231094 50.3479L0.156819 50.1296C-0.0252947 49.6157 -0.0494049 49.0577 0.0876939 48.5296C0.224793 48.0014 0.516605 47.5283 0.924327 47.1731L6.39591 42.4193C6.14008 40.8486 6.01628 39.236 6.01628 37.6234C6.01628 36.0192 6.14008 34.4066 6.39591 32.8276L0.924327 28.0737C0.0907973 27.343 -0.214555 26.1671 0.156819 25.1173L0.231094 24.8989C1.723 20.6678 3.951 16.7445 6.80855 13.3166L6.9571 13.1403C7.30332 12.7238 7.76587 12.4244 8.28328 12.2819C8.80069 12.1394 9.34847 12.1605 9.85382 12.3424L16.6128 14.7865C19.0595 12.7365 21.8194 11.1079 24.7831 9.96544L26.087 2.79267C26.1848 2.25549 26.4408 1.7613 26.8211 1.37574C27.2014 0.990187 27.688 0.731527 28.2162 0.634126L28.4391 0.592131C32.7387 -0.197377 37.2613 -0.197377 41.561 0.592131L41.7838 0.634126C42.312 0.731527 42.7986 0.990187 43.1789 1.37574C43.5592 1.7613 43.8152 2.25549 43.913 2.79267L45.2087 9.93184C48.1962 11.0741 50.9608 12.7035 53.4367 14.7697L60.1462 12.3424C60.6517 12.1619 61.1991 12.1415 61.7162 12.284C62.2333 12.4264 62.6958 12.725 63.0429 13.1403L63.1915 13.3166C66.0524 16.7421 68.2808 20.666 69.7689 24.8989L69.8432 25.1173C70.0253 25.6311 70.0494 26.1892 69.9123 26.7173C69.7752 27.2454 69.4834 27.7185 69.0757 28.0737L63.6701 32.7772C63.9259 34.373 64.058 36.0024 64.058 37.6318C64.058 39.2612 63.9259 40.8906 63.6701 42.4864Z" fill="#1A355E"/>
<path d="M44.8368 67.3643L43.913 72.4546C43.8152 72.9918 43.5592 73.486 43.1789 73.8715C42.7986 74.2571 42.312 74.5157 41.7838 74.6131L41.561 74.6551C37.2218 75.4489 32.7782 75.4489 28.4391 74.6551L28.2162 74.6131C27.688 74.5157 27.2014 74.2571 26.8211 73.8715C26.4408 73.486 26.1848 72.9918 26.087 72.4546L24.7831 65.2818C21.8203 64.1479 19.0722 62.5185 16.6128 60.4608L9.85382 62.9049C9.34831 63.0854 8.80094 63.1057 8.28383 62.9633C7.76673 62.8208 7.30416 62.5223 6.9571 62.107L6.80855 61.9306C3.93659 58.487 1.72485 54.5815 0.231094 50.3484L0.156819 50.13C-0.0252947 49.6162 -0.0494049 49.0581 0.0876939 48.53C0.224793 48.0019 0.516605 47.5288 0.924327 47.1735L6.39591 42.4197C6.14008 40.8491 6.01628 39.2365 6.01628 37.6238C6.01628 36.0196 6.14008 34.407 6.39591 32.828L0.924327 28.0742C0.0907973 27.3434 -0.214555 26.1676 0.156819 25.1177L0.231094 24.8993C1.723 20.6682 3.951 16.7449 6.80855 13.3171L6.9571 13.1407C7.30332 12.7242 7.76587 12.4248 8.28328 12.2823C8.80069 12.1398 9.34847 12.1609 9.85382 12.3428L12.0159 13.1246C14.3126 31.2711 22.9684 57.9038 44.8368 67.3643Z" fill="#2F4971"/>
<path d="M16.5 37.25C16.5 26.8949 24.8949 18.5 35.25 18.5C45.6051 18.5 54 26.8949 54 37.25C54 47.6051 45.6051 56 35.25 56C24.8949 56 16.5 47.6051 16.5 37.25Z" fill="#5CB1FF" stroke="white"/>
<path d="M38.9837 30C37.2688 30 35.8035 31.1659 34.9984 31.9696C34.1933 31.1659 32.7312 30 31.0171 30C28.0626 30 26 31.9642 26 34.7758C26 37.8738 28.5617 39.8762 31.04 41.813C32.21 42.7284 33.4209 43.6742 34.3495 44.723C34.5058 44.8986 34.7349 45 34.9755 45H35.0229C35.2643 45 35.4925 44.8978 35.648 44.723C36.5783 43.6742 37.7884 42.7276 38.9592 41.813C41.4366 39.877 44 37.8746 44 34.7758C44 31.9642 41.9374 30 38.9837 30Z" fill="white"/>
<g opacity="0.05" filter="url(#filter0_f_1681_584)">
<ellipse cx="35" cy="86.5" rx="18" ry="3.5" fill="black"/>
</g>
<defs>
<filter id="filter0_f_1681_584" x="13" y="79" width="44" height="15" filterUnits="userSpaceOnUse" color-interpolation-filters="sRGB">
<feFlood flood-opacity="0" result="BackgroundImageFix"/>
<feBlend mode="normal" in="SourceGraphic" in2="BackgroundImageFix" result="shape"/>
<feGaussianBlur stdDeviation="2" result="effect1_foregroundBlur_1681_584"/>
</filter>
</defs>
</svg>
