<svg width="73" height="83" viewBox="0 0 73 83" fill="none" xmlns="http://www.w3.org/2000/svg">
<g opacity="0.05" filter="url(#filter0_f_1467_3748)">
<ellipse cx="35" cy="75.5" rx="18" ry="3.5" fill="black"/>
</g>
<path d="M9.18731 19.7061H63.1873C63.7457 19.7061 64.2811 19.9279 64.676 20.3227C65.0708 20.7175 65.2926 21.253 65.2926 21.8113V57.931H7.08203V21.8113C7.08203 21.253 7.30384 20.7175 7.69865 20.3227C8.09347 19.9279 8.62896 19.7061 9.18731 19.7061Z" fill="#2F4971"/>
<path d="M11.1287 21.6455H61.248C61.8064 21.6455 62.3418 21.8673 62.7367 22.2621C63.1315 22.657 63.3533 23.1924 63.3533 23.7508V59.8704H9.02344V23.7508C9.02344 23.1924 9.24524 22.657 9.64006 22.2621C10.0349 21.8673 10.5704 21.6455 11.1287 21.6455Z" fill="#19335B"/>
<path d="M72.7632 57.834H0V60.1624H72.7632V57.834Z" fill="#2F4971"/>
<path d="M70.8228 61.5204H2.13439L0 60.1621H72.7632L70.8228 61.5204Z" fill="#3CA2E5"/>
<path d="M16.7828 5.34766H56.1719C56.5836 5.34766 56.9784 5.5112 57.2695 5.80231C57.5606 6.09342 57.7242 6.48825 57.7242 6.89994V50.7519H15.2305V6.89994C15.2305 6.48825 15.394 6.09342 15.6851 5.80231C15.9762 5.5112 16.3711 5.34766 16.7828 5.34766Z" fill="#D7E6FB"/>
<path d="M52.8741 9.80957H18.918V11.1678H52.8741V9.80957Z" fill="white"/>
<path d="M35.1354 12.623H18.918V27.9518H35.1354V12.623Z" fill="white"/>
<path d="M52.8737 12.623H36.6562V27.9518H52.8737V12.623Z" fill="white"/>
<path d="M52.6801 29.8936H18.918V47.3567H52.6801V29.8936Z" fill="#3CA2E5"/>
<path d="M44.5273 38.5273L44.9154 50.7516L48.408 47.647L51.5126 53.274L53.2589 52.4979L49.9603 46.6768L54.6172 45.3186L44.5273 38.5273Z" fill="#2F4971"/>
<path d="M39.3485 43.0254C38.5405 42.1672 37.9628 41.1184 37.6693 39.9768C37.3757 38.8352 37.3759 37.6378 37.6696 36.4963C37.9634 35.3547 38.5413 34.3061 39.3495 33.448C40.1576 32.5899 41.1698 31.9503 42.2917 31.5887C43.4136 31.2271 44.6088 31.1553 45.7659 31.38C46.9231 31.6047 48.0045 32.1185 48.9096 32.8737C49.8147 33.6289 50.514 34.6008 50.9423 35.699C51.3706 36.7972 51.5141 37.9859 51.3593 39.1544L50.9712 39.1039C51.0084 38.8163 51.0272 38.5266 51.0275 38.2366C51.0272 37.1602 50.7636 36.1003 50.2595 35.1492C49.7555 34.1981 49.0265 33.3848 48.1359 32.7802C47.2454 32.1756 46.2205 31.7981 45.1505 31.6806C44.0806 31.5631 42.9981 31.7091 41.9976 32.106C40.9971 32.5029 40.1089 33.1386 39.4104 33.9577C38.712 34.7767 38.2246 35.7541 37.9907 36.8048C37.7568 37.8554 37.7836 38.9474 38.0686 39.9853C38.3536 41.0233 38.8883 41.9757 39.626 42.7596L39.3485 43.0254Z" fill="#E4ECF9"/>
<path d="M41.5056 41.8566C40.8629 41.3368 40.3701 40.6552 40.0779 39.882C39.7858 39.1087 39.7047 38.2716 39.843 37.4566C39.9814 36.6416 40.3342 35.8781 40.8652 35.2446C41.3962 34.6111 42.0862 34.1303 42.8645 33.8516C43.6427 33.573 44.4811 33.5065 45.2936 33.6591C46.106 33.8116 46.8632 34.1777 47.4874 34.7197C48.1116 35.2616 48.5802 35.96 48.8452 36.743C49.1102 37.526 49.1621 38.3654 48.9954 39.1751L48.6073 39.0955C48.7599 38.3534 48.7122 37.584 48.4691 36.8664C48.2261 36.1488 47.7965 35.5089 47.2243 35.0122C46.6522 34.5155 45.9581 34.1801 45.2135 34.0403C44.4689 33.9005 43.7005 33.9615 42.9871 34.2168C42.2738 34.4722 41.6413 34.9128 41.1546 35.4935C40.6679 36.0741 40.3444 36.7738 40.2175 37.5207C40.0906 38.2676 40.1648 39.0349 40.4324 39.7437C40.7 40.4525 41.1515 41.0773 41.7404 41.554L41.5056 41.8566Z" fill="#E4ECF9"/>
<path d="M58.1817 3.68667C58.1045 3.68667 58.0305 3.65601 57.9759 3.60142C57.9213 3.54684 57.8906 3.47281 57.8906 3.39562V0.291053C57.8906 0.213861 57.9213 0.139829 57.9759 0.0852457C58.0305 0.0306627 58.1045 0 58.1817 0C58.2589 0 58.3329 0.0306627 58.3875 0.0852457C58.4421 0.139829 58.4727 0.213861 58.4727 0.291053V3.39562C58.4727 3.47281 58.4421 3.54684 58.3875 3.60142C58.3329 3.65601 58.2589 3.68667 58.1817 3.68667Z" fill="url(#paint0_linear_1467_3748)"/>
<path d="M63.13 5.628H60.0254C59.9482 5.628 59.8742 5.59734 59.8196 5.54276C59.765 5.48818 59.7344 5.41414 59.7344 5.33695C59.7344 5.25976 59.765 5.18573 59.8196 5.13114C59.8742 5.07656 59.9482 5.0459 60.0254 5.0459H63.13C63.2072 5.0459 63.2812 5.07656 63.3358 5.13114C63.3904 5.18573 63.421 5.25976 63.421 5.33695C63.421 5.41414 63.3904 5.48818 63.3358 5.54276C63.2812 5.59734 63.2072 5.628 63.13 5.628Z" fill="url(#paint1_linear_1467_3748)"/>
<path d="M59.5439 4.26852C59.5056 4.26881 59.4677 4.2614 59.4324 4.24673C59.3971 4.23206 59.365 4.21044 59.3382 4.18314C59.2842 4.12832 59.2539 4.05444 59.2539 3.97746C59.2539 3.90049 59.2842 3.82661 59.3382 3.77179L61.5696 1.54038C61.6245 1.48635 61.6983 1.45605 61.7753 1.45605C61.8523 1.45605 61.9262 1.48635 61.981 1.54038C62.0082 1.56727 62.0298 1.5993 62.0446 1.63461C62.0593 1.66991 62.0669 1.7078 62.0669 1.74606C62.0669 1.78432 62.0593 1.82221 62.0446 1.85751C62.0298 1.89282 62.0082 1.92485 61.981 1.95174L59.7496 4.18314C59.7229 4.21062 59.6909 4.23237 59.6555 4.24705C59.6202 4.26173 59.5822 4.26903 59.5439 4.26852Z" fill="url(#paint2_linear_1467_3748)"/>
<path d="M19.1735 7.80605C19.3621 7.80605 19.515 7.65316 19.515 7.46455C19.515 7.27594 19.3621 7.12305 19.1735 7.12305C18.9849 7.12305 18.832 7.27594 18.832 7.46455C18.832 7.65316 18.9849 7.80605 19.1735 7.80605Z" fill="white"/>
<path d="M20.3376 7.80605C20.5262 7.80605 20.6791 7.65316 20.6791 7.46455C20.6791 7.27594 20.5262 7.12305 20.3376 7.12305C20.149 7.12305 19.9961 7.27594 19.9961 7.46455C19.9961 7.65316 20.149 7.80605 20.3376 7.80605Z" fill="white"/>
<path d="M21.5017 7.80605C21.6903 7.80605 21.8432 7.65316 21.8432 7.46455C21.8432 7.27594 21.6903 7.12305 21.5017 7.12305C21.3131 7.12305 21.1602 7.27594 21.1602 7.46455C21.1602 7.65316 21.3131 7.80605 21.5017 7.80605Z" fill="white"/>
<defs>
<filter id="filter0_f_1467_3748" x="13" y="68" width="44" height="15" filterUnits="userSpaceOnUse" color-interpolation-filters="sRGB">
<feFlood flood-opacity="0" result="BackgroundImageFix"/>
<feBlend mode="normal" in="SourceGraphic" in2="BackgroundImageFix" result="shape"/>
<feGaussianBlur stdDeviation="2" result="effect1_foregroundBlur_1467_3748"/>
</filter>
<linearGradient id="paint0_linear_1467_3748" x1="437.342" y1="1710.39" x2="439.088" y2="1710.39" gradientUnits="userSpaceOnUse">
<stop stop-color="#3CA2E5"/>
<stop offset="0.55" stop-color="#387EEF"/>
<stop offset="1" stop-color="#3665F6"/>
</linearGradient>
<linearGradient id="paint1_linear_1467_3748" x1="2497.95" y1="285.586" x2="2568" y2="285.586" gradientUnits="userSpaceOnUse">
<stop stop-color="#3CA2E5"/>
<stop offset="0.55" stop-color="#387EEF"/>
<stop offset="1" stop-color="#3665F6"/>
</linearGradient>
<linearGradient id="paint2_linear_1467_3748" x1="1912.64" y1="1321.05" x2="1953.42" y2="1321.05" gradientUnits="userSpaceOnUse">
<stop stop-color="#3CA2E5"/>
<stop offset="0.55" stop-color="#387EEF"/>
<stop offset="1" stop-color="#3665F6"/>
</linearGradient>
</defs>
</svg>
